<?xml version="1.0" encoding="UTF-8"?>
<svg width="1880px" height="84px" viewBox="0 0 1880 84" version="1.1" xmlns="http://www.w3.org/2000/svg" xmlns:xlink="http://www.w3.org/1999/xlink">
    <title>大标题</title>
    <defs>
        <linearGradient x1="50%" y1="0%" x2="50%" y2="112.458987%" id="linearGradient-1">
            <stop stop-color="#003962" stop-opacity="0.75" offset="0%"></stop>
            <stop stop-color="#0A3C78" stop-opacity="0.798432037" offset="100%"></stop>
        </linearGradient>
        <linearGradient x1="50%" y1="0%" x2="50%" y2="100%" id="linearGradient-2">
            <stop stop-color="#043347" stop-opacity="0" offset="0%"></stop>
            <stop stop-color="#05D8FF" offset="100%"></stop>
        </linearGradient>
        <linearGradient x1="50%" y1="0%" x2="50%" y2="100%" id="linearGradient-3">
            <stop stop-color="#D7F8FF" offset="0%"></stop>
            <stop stop-color="#74E1FF" offset="100%"></stop>
        </linearGradient>
        <linearGradient x1="50%" y1="0%" x2="50%" y2="100%" id="linearGradient-4">
            <stop stop-color="#D7F8FF" offset="0%"></stop>
            <stop stop-color="#74E1FF" offset="100%"></stop>
        </linearGradient>
        <linearGradient x1="50%" y1="0%" x2="50%" y2="100%" id="linearGradient-5">
            <stop stop-color="#D7F8FF" offset="0%"></stop>
            <stop stop-color="#74E1FF" offset="100%"></stop>
        </linearGradient>
        <linearGradient x1="50%" y1="0%" x2="50%" y2="100%" id="linearGradient-6">
            <stop stop-color="#D7F8FF" offset="0%"></stop>
            <stop stop-color="#74E1FF" offset="100%"></stop>
        </linearGradient>
        <linearGradient x1="50%" y1="0%" x2="50%" y2="100%" id="linearGradient-7">
            <stop stop-color="#D7F8FF" offset="0%"></stop>
            <stop stop-color="#74E1FF" offset="100%"></stop>
        </linearGradient>
        <linearGradient x1="50%" y1="0%" x2="50%" y2="100%" id="linearGradient-8">
            <stop stop-color="#D7F8FF" offset="0%"></stop>
            <stop stop-color="#74E1FF" offset="100%"></stop>
        </linearGradient>
    </defs>
    <g id="大屏" stroke="none" stroke-width="1" fill="none" fill-rule="evenodd">
        <g id="电站分析备份-2" transform="translate(-20.000000, -12.000000)">
            <g id="大标题" transform="translate(20.000000, 12.000000)">
                <path d="M1879.5,0.5 L1879.5,34 C1879.5,38.2802068 1877.7651,42.1552068 1874.96016,44.9601551 C1872.15521,47.7651034 1868.28021,49.5 1864,49.5 L1351.22551,49.5 L1305.81454,80.7665402 C1303.22892,82.5468006 1300.16369,83.5 1297.02446,83.5 L592.295482,83.5 C588.964336,83.5 585.721816,82.4268308 583.048407,80.4395181 L541.427484,49.5 L16,49.5 C11.7197932,49.5 7.84479319,47.7651034 5.03984489,44.9601551 C2.23489659,42.1552068 0.5,38.2802068 0.5,34 L0.5,0.5 L1879.5,0.5 Z" id="形状结合" stroke="url(#linearGradient-2)" fill="url(#linearGradient-1)"></path>
                <g id="储-能-电-站-运-维-大-屏备份" transform="translate(697.000000, 20.000000)" fill-rule="nonzero">
                    <path d="M40.7196468,42.749709 L23.3046358,42.749709 L25.183223,27.782305 C23.9985283,28.3496314 23.0676968,28.7667831 22.3907285,29.0337602 L19.598234,25.7299185 C24.4047093,24.0279395 28.4834437,21.5417152 31.8344371,18.2712456 L22.3907285,18.2712456 L22.7969095,14.2165308 L29.7019868,14.2165308 L30.2604857,9.21071013 L24.8278146,9.21071013 L25.2847682,5.20605355 L30.6666667,5.20605355 L31.2759382,0 L35.5916115,0 L34.98234,5.20605355 L39.5518764,5.20605355 L39.1456954,8.61001164 C39.8903606,7.20838184 40.6350258,5.58983314 41.3796909,3.75436554 L46,3.75436554 C44.3414275,7.72564998 42.4966887,11.2130384 40.4657837,14.2165308 L45.593819,14.2165308 L45.187638,18.2712456 L37.3686534,18.2712456 C36.3193525,19.572759 35.151582,20.774156 33.8653422,21.8754366 L39.0949227,21.8754366 C40.2457689,21.8754366 41.142752,22.1841288 41.785872,22.8015134 C42.4289919,23.4188979 42.7505519,24.2949166 42.7505519,25.4295693 C42.7505519,25.7966628 42.7336277,26.080326 42.6997792,26.2805588 L40.7196468,42.749709 Z M15.6887417,0.400465658 C14.4025018,3.43733023 13.2178072,6.07372914 12.1346578,8.3096624 L8.27593819,43 L3.60485651,43 L6.49889625,19.322468 L5.02649007,21.975553 L0,21.9254948 C2.0647535,18.5549088 4.11258278,14.8172293 6.14348786,10.7124563 C6.71891096,9.57780365 7.51434879,7.8758246 8.52980132,5.60651921 L10.7637969,0.400465658 L15.6887417,0.400465658 Z M19.9536424,2.35273574 L22.4415011,10.6623981 L17.9735099,10.6623981 L15.5871965,2.35273574 L19.9536424,2.35273574 Z M35.4900662,14.2165308 C36.6747609,12.7147846 37.7748344,11.0461777 38.790287,9.21071013 L34.5761589,9.21071013 L34.01766,14.2165308 L35.4900662,14.2165308 Z M18.1258278,34.8905704 C18.1258278,34.9239426 18.1173657,34.9573147 18.1004415,34.9906868 C18.0835173,35.024059 18.0919794,35.0741172 18.1258278,35.1408615 C18.1258278,35.4745828 18.3289183,35.5413271 18.7350993,35.3410943 C19.9536424,34.6069073 21.2229581,33.6891735 22.5430464,32.5878929 L22.6953642,37.3434226 C22.1199411,37.8106325 21.5106696,38.2611564 20.8675497,38.6949942 L19.8520971,39.2956927 L18.5827815,39.9965076 C17.4319352,40.6305782 16.4841795,40.9476135 15.7395143,40.9476135 C14.3855776,40.9476135 13.7086093,39.9631354 13.7086093,37.9941793 C13.7086093,37.3601087 13.7424577,36.8595266 13.8101545,36.4924331 L15.8918322,18.371362 L12.2362031,18.371362 L12.794702,14.016298 L17.5673289,14.016298 C19.5643856,14.016298 20.4613687,14.9173458 20.2582781,16.7194412 L18.1258278,34.8905704 Z M38.2317881,25.9802095 L29.8543046,25.9802095 L29.2958057,30.43539 L37.6732892,30.43539 L38.2317881,25.9802095 Z M28.8388521,34.2398137 L28.2803532,38.6949942 L36.7086093,38.6949942 L37.2163355,34.2398137 L28.8388521,34.2398137 Z" id="形状" fill="url(#linearGradient-3)"></path>
                    <path d="M81.370892,13.4289044 C77.8716745,14.030303 73.4471831,14.5314685 68.0974178,14.9324009 C67.2899061,14.999223 66.5833333,14.8989899 65.9776995,14.6317016 C65.3720657,14.3644134 64.9514867,13.996892 64.7159624,13.5291375 C64.5477308,13.1950272 64.463615,12.8609169 64.463615,12.5268065 C64.463615,11.7917638 64.8337246,11.0066045 65.5739437,10.1713287 C67.3908451,8.13325563 69.7124413,5.07614608 72.5387324,1 L78.1408451,1 C76.9968701,2.8041958 75.7519562,4.60839161 74.4061033,6.41258741 C73.3967136,7.74902875 72.2695618,9.1021756 71.0246479,10.472028 C74.5238654,10.2381507 77.6361502,9.85392385 80.3615023,9.31934732 L79.2511737,4.45804196 L83.5915493,4.45804196 L86.4178404,15.7843823 L81.9260563,15.7843823 L81.370892,13.4289044 Z M105.091549,8.26689977 C102.231612,9.3026418 98.1604069,10.2882673 92.8779343,11.2237762 L92.5751174,14.1806527 C92.541471,14.2808858 92.5246479,14.4145299 92.5246479,14.5815851 C92.5246479,15.2163947 92.9620501,15.5337995 93.8368545,15.5337995 L97.1173709,15.5337995 C100.313772,15.5337995 103.274648,14.8655789 106,13.5291375 L105.343897,18.490676 C103.156886,19.459596 100.212833,19.9440559 96.5117371,19.9440559 L91.7676056,19.9440559 C90.3544601,19.9440559 89.3198357,19.6517094 88.6637324,19.0670163 C88.0076291,18.4823232 87.6795775,17.6219891 87.6795775,16.486014 C87.6795775,16.1184926 87.6964006,15.8177933 87.7300469,15.5839161 L89.2441315,1.1002331 L93.9377934,1.1002331 L93.3321596,6.96386946 C96.4276213,6.36247086 100.515649,5.27661228 105.596244,3.70629371 L105.091549,8.26689977 Z M78.241784,35.2797203 L68.4002347,35.2797203 L67.491784,43.8997669 L63,43.8997669 L65.3720657,20.9463869 C65.5402973,19.4763015 65.9524648,18.4238539 66.6085681,17.7890443 C67.2646714,17.1542347 68.2992958,16.8368298 69.7124413,16.8368298 L80.4624413,16.8368298 C82.9186228,16.8368298 84.1467136,17.9393939 84.1467136,20.1445221 C84.1467136,20.5454545 84.1298905,20.8461538 84.0962441,21.04662 L82.4307512,39.5897436 C82.2288732,41.1934732 81.7998826,42.3294483 81.1437793,42.997669 C80.4876761,43.6658897 79.4530516,44 78.0399061,44 C77.0978091,44 76.0715962,43.9248252 74.9612676,43.7744755 C73.850939,43.6241259 73.0097809,43.4320124 72.4377934,43.1981352 L72.7910798,38.9382284 C74.6079812,39.4059829 75.9538341,39.6398601 76.8286385,39.6398601 C77.2323944,39.6398601 77.5099765,39.5563326 77.661385,39.3892774 C77.8127934,39.2222222 77.922144,38.8547009 77.9894366,38.2867133 L78.241784,35.2797203 Z M79.5035211,21.04662 L69.9143192,21.04662 L69.5610329,24.1538462 L79.2007042,24.1538462 L79.5035211,21.04662 Z M103.274648,29.9172494 C101.760563,30.451826 99.842723,30.9864025 97.5211268,31.520979 C94.8630673,32.1223776 92.64241,32.5734266 90.8591549,32.8741259 L90.3039906,37.8356643 C90.135759,38.7043512 90.5395149,39.1386946 91.5152582,39.1386946 L94.8967136,39.1386946 C96.3771518,39.1386946 97.9501174,38.9632867 99.6156103,38.6124709 C101.281103,38.261655 102.786776,37.7521368 104.132629,37.0839161 L103.476526,42.0955711 C102.366197,42.5633256 100.986698,42.9308469 99.3380282,43.1981352 C97.6893584,43.4654235 96.0070423,43.5990676 94.2910798,43.5990676 L89.4964789,43.5990676 C88.0833333,43.5990676 87.0487089,43.3067211 86.3926056,42.722028 C85.7365023,42.1373349 85.4084507,41.2770008 85.4084507,40.1410256 C85.4084507,39.7400932 85.4252739,39.4226884 85.4589202,39.1888112 L87.3767606,21.7482517 L92.0704225,21.7482517 L91.3133803,28.4137529 C95.9229264,27.511655 100.078247,26.475913 103.779343,25.3065268 L103.274648,29.9172494 Z M78.8474178,28.1631702 L69.157277,28.1631702 L68.8039906,31.2703963 L78.5950704,31.2703963 L78.8474178,28.1631702 Z" id="形状" fill="url(#linearGradient-4)"></path>
                    <path d="M145.51871,0 L150.500645,0 L149.846452,5.65 L160.414194,5.65 C161.990968,5.65 163.148387,6.04166667 163.886452,6.825 C164.624516,7.60833333 164.909677,8.75 164.741935,10.25 L162.477419,31.25 L146.877419,31.25 L146.223226,37.1 L146.172903,37.5 C146.172903,37.8333333 146.281935,38.0583333 146.5,38.175 C146.718065,38.2916667 147.095484,38.35 147.632258,38.35 L154.325161,38.35 C158.787097,38.35 162.67871,37.8166667 166,36.75 L165.396129,41.65 C161.974194,42.55 158.300645,43 154.375484,43 L145.870968,43 C144.227097,43 143.010968,42.6666667 142.222581,42 C141.434194,41.3333333 141.04,40.3 141.04,38.9 C141.04,38.7 141.073548,38.3 141.140645,37.7 L141.895484,31.25 L127,31.25 L129.616774,9.9 C129.818065,8.33333333 130.287742,7.23333333 131.025806,6.6 C131.763871,5.96666667 132.971613,5.65 134.649032,5.65 L144.864516,5.65 L145.51871,0 Z M144.310968,10.15 L134.548387,10.15 L133.743226,16.15 L143.656774,16.15 L144.310968,10.15 Z M159.055484,16.15 L159.76,10.15 L149.292903,10.15 L148.63871,16.15 L159.055484,16.15 Z M143.153548,20.55 L133.189677,20.55 L132.434839,26.75 L142.39871,26.75 L143.153548,20.55 Z M147.430968,26.75 L157.898065,26.75 L158.602581,20.55 L148.135484,20.55 L147.430968,26.75 Z" id="形状" fill="url(#linearGradient-5)"></path>
                    <path d="M229.440884,12.9216152 L218.360221,12.9216152 L217.394475,20.6033254 L223.036464,20.6033254 C226.018416,20.6033254 227.356906,22.1163895 227.051934,25.1425178 L224.81547,43 L203.162431,43 L205.348066,25.192399 C205.551381,23.6627078 206.059669,22.5154394 206.872928,21.7505938 C207.686188,20.9857482 208.855249,20.6033254 210.38011,20.6033254 L212.616575,20.6033254 L215.107182,1 L219.885083,1 L218.919337,8.63182898 L230,8.63182898 L229.440884,12.9216152 Z M186.592265,11.9239905 L187.100552,7.73396675 L194.41989,7.73396675 L193.2,1.09976247 L197.774586,1.09976247 L199.045304,7.73396675 L205.653039,7.73396675 L205.144751,11.9239905 L186.592265,11.9239905 Z M202.552486,36.5154394 C197.7407,37.6128266 191.556538,38.8598575 184,40.2565321 L184.609945,35.567696 L189.235359,34.7695962 C191.404052,34.4038005 192.979742,34.1211401 193.962431,33.9216152 C194.979006,30.695962 195.961694,27.2874109 196.910497,23.695962 C197.486556,21.5011876 198.232044,18.4418052 199.146961,14.5178147 L203.721547,14.5178147 C203.009945,17.7102138 202.264457,20.6532067 201.485083,23.3467933 C200.265193,27.6365796 199.31639,30.8456057 198.638674,32.9738717 L203.060773,32.0261283 L202.552486,36.5154394 Z M187.913812,14.7672209 L192.183425,14.7672209 L193.504972,31.1781473 L189.133702,31.1781473 L187.913812,14.7672209 Z M208.550276,38.7102138 L220.596685,38.7102138 L222.274033,24.8432304 L210.125967,24.8432304 L208.550276,38.7102138 Z" id="形状" fill="url(#linearGradient-6)"></path>
                    <path d="M251.630804,1 L261.048698,5.2899061 L260.400906,10.5387324 L251.082673,6.19835681 L251.630804,1 Z M288.505096,2.81690141 L287.907135,7.20774648 L264.835787,7.20774648 L265.433749,2.81690141 L288.505096,2.81690141 Z M247.943375,18.1596244 L248.491506,13.6173709 L255.467724,13.6173709 C256.431106,13.6173709 257.178558,13.9033646 257.710079,14.4753521 C258.241601,15.0473396 258.507361,15.8548513 258.507361,16.8978873 C258.507361,17.2679969 258.490751,17.5539906 258.457531,17.7558685 L256.663647,32.2910798 C256.597206,32.5602504 256.563986,32.7453052 256.563986,32.8462441 C257.726689,34.5958529 259.088713,35.9417058 260.650057,36.8838028 C262.809362,38.263302 265.466969,38.885759 268.622877,38.7511737 L290,38.7511737 L288.554926,43.4953052 L266.828992,43.4953052 C264.071725,43.4953052 261.580219,42.8896714 259.354473,41.6784038 C257.759909,40.8372457 256.298226,39.6259781 254.969422,38.0446009 C253.90638,40.2989045 252.594186,42.2840376 251.032843,44 L246,42.6877934 C247.627784,41.0391236 248.948282,39.3231612 249.961495,37.5399061 C250.974707,35.756651 251.614194,33.8051643 251.879955,31.685446 L253.424689,18.1596244 L247.943375,18.1596244 Z M283.272933,21.6420188 L288.156285,35.0164319 L283.272933,35.0164319 L282.475651,32.7957746 C278.788222,33.3677621 273.306908,33.9733959 266.03171,34.6126761 C265.334088,34.6799687 264.653077,34.5790297 263.988675,34.3098592 C263.324273,34.0406886 262.809362,33.6537559 262.443941,33.149061 C262.07852,32.6780125 261.89581,32.1564945 261.89581,31.584507 C261.89581,30.8442879 262.211401,30.0535994 262.842582,29.2124413 C264.935447,26.4534429 267.094753,22.7859937 269.320498,18.2100939 L261.696489,18.2100939 L262.294451,13.8192488 L289.501699,13.8192488 L288.903737,18.2100939 L274.502831,18.2100939 C272.609287,21.9448357 270.416761,25.8478091 267.925255,29.9190141 C272.443186,29.5489045 276.795017,29.0442097 280.980747,28.4049296 L278.638732,21.6420188 L283.272933,21.6420188 Z" id="形状" fill="url(#linearGradient-7)"></path>
                    <path d="M323.821918,28.6978417 C320.372907,29.470024 316.555556,30.0743405 312.369863,30.5107914 C311.097412,30.6450839 310.260274,30.2589928 309.858447,29.352518 C309.724505,29.0839329 309.657534,28.764988 309.657534,28.3956835 C309.657534,27.7242206 309.891933,27.1031175 310.360731,26.5323741 C311.834094,24.7194245 313.625571,22.1678657 315.73516,18.8776978 L314.579909,19.028777 C312.972603,19.2302158 311.86758,19.3309353 311.26484,19.3309353 C310.092846,19.3309353 309.322679,18.9280576 308.954338,18.1223022 C308.820396,17.853717 308.753425,17.5347722 308.753425,17.1654676 C308.753425,16.5611511 308.954338,15.940048 309.356164,15.3021583 C312.838661,10.0311751 315.634703,5.26378897 317.744292,1 L323.118721,1 C320.707763,5.76738609 318.179604,10.1654676 315.534247,14.1942446 L317.141553,13.9928058 C317.945205,13.9256595 318.547945,13.8585132 318.949772,13.7913669 C319.887367,12.2134293 320.741248,10.7529976 321.511416,9.41007194 L326.684932,9.41007194 C324.709285,12.9016787 323.085236,15.7218225 321.812785,17.8705036 C320.071537,20.7913669 318.480974,23.2422062 317.041096,25.2230216 C319.251142,24.9880096 321.712329,24.5179856 324.424658,23.8129496 L323.821918,28.6978417 Z M325.027397,43 L327.488584,21.2446043 L322.616438,21.2446043 C324.223744,18.3908873 325.94825,14.7817746 327.789954,10.4172662 C329.162861,7.1942446 330.385084,4.08872902 331.456621,1.10071942 L336.278539,1.10071942 C336.144597,1.43645084 336.019026,1.77218225 335.901826,2.10791367 C335.784627,2.44364508 335.675799,2.76258993 335.575342,3.0647482 C334.905632,4.91127098 334.302892,6.48920863 333.767123,7.79856115 L340.296804,7.79856115 L338.890411,1.45323741 L343.461187,1.45323741 L345.018265,7.79856115 L352,7.79856115 L351.497717,12.0791367 L344.465753,12.0791367 L343.762557,17.971223 L350.543379,17.971223 L350.041096,22.1510791 L343.310502,22.1510791 L342.607306,27.9928058 L349.940639,27.9928058 L349.438356,32.2230216 L342.155251,32.2230216 L341.401826,38.7194245 L350.794521,38.7194245 L350.292237,43 L325.027397,43 Z M339.844749,12.0791367 L333.013699,12.0791367 L332.360731,17.971223 L339.141553,17.971223 L339.844749,12.0791367 Z M338.689498,22.1510791 L331.858447,22.1510791 L331.205479,27.9928058 L337.986301,27.9928058 L338.689498,22.1510791 Z M337.534247,32.2230216 L330.753425,32.2230216 L330,38.7194245 L336.780822,38.7194245 L337.534247,32.2230216 Z M323.420091,37.5107914 C318.497717,39.0551559 313.357686,40.3645084 308,41.4388489 L308.552511,36.5035971 C312.704718,35.7314149 317.828006,34.4052758 323.922374,32.5251799 L323.420091,37.5107914 Z" id="形状" fill="url(#linearGradient-8)"></path>
                    <path d="M395.768445,1 L394.170261,11.4988318 L412,11.4988318 L411.350738,16.421729 L394.419977,16.421729 C396.151343,21.7799844 398.46538,26.501947 401.362089,30.5876168 C403.79266,34.0704829 407.238744,37.8045171 411.700341,41.7897196 L406.256527,44 C403.226636,41.220405 400.496406,38.0556854 398.065834,34.5058411 C395.13583,30.3531931 392.905032,26.133567 391.373439,21.8469626 C389.508891,26.2340343 386.895195,30.4034268 383.53235,34.3551402 C380.302686,38.2063863 376.756716,41.3878505 372.894438,43.8995327 L368,41.5385514 C373.094211,38.1226636 377.38933,34.2044393 380.885358,29.7838785 C384.381385,25.3298287 386.71207,20.8757788 387.877412,16.421729 L371.346198,16.421729 L371.84563,11.4988318 L388.77639,11.4988318 L390.474461,1 L395.768445,1 Z" id="路径" fill="url(#linearGradient-7)"></path>
                    <path d="M471.945205,14.3529412 L441.155251,14.3529412 L439.799087,24.7394958 C439.363775,28.3361345 438.660578,31.7310924 437.689498,34.9243697 C436.550989,38.6554622 435.261796,41.5966387 433.821918,43.7478992 L429,42.0840336 C430.741248,39.3613445 432.063927,36.5714286 432.968037,33.7142857 C433.738204,31.2268908 434.374429,28.0504202 434.876712,24.1848739 L437.237443,5.4789916 C437.404871,4.23529412 437.82344,3.34453782 438.493151,2.80672269 C439.162861,2.26890756 440.133942,2 441.406393,2 L469.232877,2 C470.471842,2 471.392694,2.24369748 471.995434,2.73109244 C472.598174,3.21848739 472.899543,4 472.899543,5.07563025 C472.899543,5.4789916 472.882801,5.78151261 472.849315,5.98319328 L471.945205,14.3529412 Z M467.926941,6.08403361 L442.260274,6.08403361 L441.707763,10.3697479 L467.374429,10.3697479 L467.926941,6.08403361 Z M458.182648,43.5966387 L459.438356,33.1596639 L451.703196,33.1596639 C451.133942,35.2436975 450.380518,37.092437 449.442922,38.7058824 C448.505327,40.2857143 447.098935,42.0504202 445.223744,44 L439.949772,42.6890756 C441.858447,41.0420168 443.365297,39.4789916 444.47032,38 C445.541857,36.5210084 446.34551,34.907563 446.881279,33.1596639 L440.200913,33.1596639 L440.753425,28.6722689 L447.885845,28.6722689 L448.488584,23.9327731 L442.410959,23.9327731 L442.96347,19.4453782 L448.890411,19.4453782 L447.283105,15.210084 L451.954338,15.210084 L453.511416,19.4453782 L461.296804,19.4453782 L462.90411,15.2605042 L467.675799,15.2605042 L466.018265,19.4453782 L472.196347,19.4453782 L471.643836,23.9327731 L465.214612,23.9327731 L464.6621,28.6722689 L473,28.6722689 L472.447489,33.1596639 L464.109589,33.1596639 L462.853881,43.5966387 L458.182648,43.5966387 Z M460.543379,23.9327731 L453.109589,23.9327731 L452.506849,28.6722689 L459.990868,28.6722689 L460.543379,23.9327731 Z" id="形状" fill="url(#linearGradient-8)"></path>
                </g>
                <circle id="椭圆形" fill="#54D1FF" cx="615" cy="42" r="8"></circle>
                <circle id="椭圆形备份-14" fill="#54D1FF" cx="1261" cy="42" r="8"></circle>
            </g>
        </g>
    </g>
</svg>