<?xml version="1.0" encoding="UTF-8"?>
<svg width="1881px" height="88px" viewBox="0 0 1881 88" version="1.1" xmlns="http://www.w3.org/2000/svg" xmlns:xlink="http://www.w3.org/1999/xlink">
    <title>大标题</title>
    <defs>
        <linearGradient x1="50%" y1="0%" x2="50%" y2="112.458987%" id="linearGradient-1">
            <stop stop-color="#043347" offset="0%"></stop>
            <stop stop-color="#1CADC0" offset="100%"></stop>
        </linearGradient>
        <linearGradient x1="50%" y1="0%" x2="50%" y2="100%" id="linearGradient-2">
            <stop stop-color="#043347" stop-opacity="0" offset="0%"></stop>
            <stop stop-color="#05FCFF" offset="100%"></stop>
        </linearGradient>
        <linearGradient x1="50%" y1="0%" x2="50%" y2="100%" id="linearGradient-3">
            <stop stop-color="#D7F8FF" offset="0%"></stop>
            <stop stop-color="#00FFEB" offset="100%"></stop>
        </linearGradient>
        <linearGradient x1="50%" y1="0%" x2="50%" y2="100%" id="linearGradient-4">
            <stop stop-color="#D7F8FF" offset="0%"></stop>
            <stop stop-color="#00FFEB" offset="100%"></stop>
        </linearGradient>
        <linearGradient x1="50%" y1="0%" x2="50%" y2="100%" id="linearGradient-5">
            <stop stop-color="#D7F8FF" offset="0%"></stop>
            <stop stop-color="#00FFEB" offset="100%"></stop>
        </linearGradient>
        <linearGradient x1="50%" y1="0%" x2="50%" y2="100%" id="linearGradient-6">
            <stop stop-color="#D7F8FF" offset="0%"></stop>
            <stop stop-color="#00FFEB" offset="100%"></stop>
        </linearGradient>
        <linearGradient x1="50%" y1="0%" x2="50%" y2="100%" id="linearGradient-7">
            <stop stop-color="#D7F8FF" offset="0%"></stop>
            <stop stop-color="#00FFEB" offset="100%"></stop>
        </linearGradient>
        <linearGradient x1="50%" y1="0%" x2="50%" y2="100%" id="linearGradient-8">
            <stop stop-color="#D7F8FF" offset="0%"></stop>
            <stop stop-color="#00FFEB" offset="100%"></stop>
        </linearGradient>
        <linearGradient x1="50%" y1="0%" x2="50%" y2="100%" id="linearGradient-9">
            <stop stop-color="#D7F8FF" offset="0%"></stop>
            <stop stop-color="#00FFEB" offset="100%"></stop>
        </linearGradient>
        <linearGradient x1="50%" y1="0%" x2="50%" y2="100%" id="linearGradient-10">
            <stop stop-color="#D7F8FF" offset="0%"></stop>
            <stop stop-color="#00FFEB" offset="100%"></stop>
        </linearGradient>
    </defs>
    <g id="大屏" stroke="none" stroke-width="1" fill="none" fill-rule="evenodd">
        <g id="电站分析" transform="translate(-20.000000, -12.000000)">
            <g id="大标题" transform="translate(20.000000, 12.000000)">
                <path d="M1879.51069,0.5 L1880.48907,45.75 L1427.81236,45.75 L1380.02046,87.5 L518.176909,87.5 L467.305234,46.35 L1.48944153,46.35 L0.510786245,0.5 L1879.51069,0.5 Z" id="矩形" stroke="url(#linearGradient-2)" fill="url(#linearGradient-1)"></path>
                <g transform="translate(701.450000, 22.750000)" fill-rule="nonzero">
                    <path d="M6.55,2.6 C11.6166667,2.56666667 17.4666667,2.3 24.1,1.8 C30.9333333,1.36666667 37.0333333,0.8 42.4,0.1 L42,4.75 C36.2666667,5.41666667 30.3333333,5.91666667 24.2,6.25 C18.5666667,6.61666667 12.5333333,6.88333333 6.1,7.05 L6.55,2.6 Z M40.55,7.75 L36.1,17.2 L31,17.2 L35.5,7.75 L40.55,7.75 Z M22.25,15.45 L19.95,7.9 L24.75,7.9 L27.25,15.45 L22.25,15.45 Z M10.65,17.05 L8,8.75 L12.7,8.75 L15.6,17.05 L10.65,17.05 Z M26.15,16.75 L25.75,20.05 L42.55,20.05 L42,24.55 L25.7,24.55 C28.3666667,27.5166667 31.1666667,30.0583333 34.1,32.175 C37.0333333,34.2916667 40.2333333,36.1833333 43.7,37.85 L39.4,41.2 C33.6666667,37.9 28.75,33.9833333 24.65,29.45 L23,43.15 L18.1,43.15 L19.65,30 C17.3833333,32.1666667 14.8916667,34.1833333 12.175,36.05 C9.45833333,37.9166667 6.7,39.5333333 3.9,40.9 L0,37.4 C3.66666667,35.7666667 7.125,33.8666667 10.375,31.7 C13.625,29.5333333 16.5333333,27.15 19.1,24.55 L3.4,24.55 L3.95,20.05 L20.8,20.05 L21.2,16.75 L26.15,16.75 Z" id="形状" fill="url(#linearGradient-3)"></path>
                    <path d="M98.3,42.1 L66.25,42.1 L70.75,5.75 C71.1166667,2.95 72.6333333,1.55 75.3,1.55 L98.35,1.55 C101.283333,1.55 102.75,2.9 102.75,5.6 C102.75,5.83333333 102.716667,6.21666667 102.65,6.75 L98.3,42.1 Z M74.3,18.55 L96,18.55 L97.45,6.25 L75.9,6.25 L74.3,18.55 Z M73.7,23.15 L71.9,37.4 L93.8,37.4 L95.45,23.15 L73.7,23.15 Z" id="形状" fill="url(#linearGradient-4)"></path>
                    <path d="M143.4,12.4 C139.933333,13 135.55,13.5 130.25,13.9 C129.45,13.9666667 128.75,13.8666667 128.15,13.6 C127.55,13.3333333 127.133333,12.9666667 126.9,12.5 C126.733333,12.1666667 126.65,11.8333333 126.65,11.5 C126.65,10.7666667 127.016667,9.98333333 127.75,9.15 C129.55,7.11666667 131.85,4.06666667 134.65,0 L140.2,0 C139.066667,1.8 137.833333,3.6 136.5,5.4 C135.5,6.73333333 134.383333,8.08333333 133.15,9.45 C136.616667,9.21666667 139.7,8.83333333 142.4,8.3 L141.3,3.45 L145.6,3.45 L148.4,14.75 L143.95,14.75 L143.4,12.4 Z M166.9,7.25 C164.066667,8.28333333 160.033333,9.26666667 154.8,10.2 L154.5,13.15 C154.466667,13.25 154.45,13.3833333 154.45,13.55 C154.45,14.1833333 154.883333,14.5 155.75,14.5 L159,14.5 C162.166667,14.5 165.1,13.8333333 167.8,12.5 L167.15,17.45 C164.983333,18.4166667 162.066667,18.9 158.4,18.9 L153.7,18.9 C152.3,18.9 151.275,18.6083333 150.625,18.025 C149.975,17.4416667 149.65,16.5833333 149.65,15.45 C149.65,15.0833333 149.666667,14.7833333 149.7,14.55 L151.2,0.1 L155.85,0.1 L155.25,5.95 C158.316667,5.35 162.366667,4.26666667 167.4,2.7 L166.9,7.25 Z M140.3,34.2 L130.55,34.2 L129.65,42.8 L125.2,42.8 L127.55,19.9 C127.716667,18.4333333 128.125,17.3833333 128.775,16.75 C129.425,16.1166667 130.45,15.8 131.85,15.8 L142.5,15.8 C144.933333,15.8 146.15,16.9 146.15,19.1 C146.15,19.5 146.133333,19.8 146.1,20 L144.45,38.5 C144.25,40.1 143.825,41.2333333 143.175,41.9 C142.525,42.5666667 141.5,42.9 140.1,42.9 C139.166667,42.9 138.15,42.825 137.05,42.675 C135.95,42.525 135.116667,42.3333333 134.55,42.1 L134.9,37.85 C136.7,38.3166667 138.033333,38.55 138.9,38.55 C139.3,38.55 139.575,38.4666667 139.725,38.3 C139.875,38.1333333 139.983333,37.7666667 140.05,37.2 L140.3,34.2 Z M141.55,20 L132.05,20 L131.7,23.1 L141.25,23.1 L141.55,20 Z M165.1,28.85 C163.6,29.3833333 161.7,29.9166667 159.4,30.45 C156.766667,31.05 154.566667,31.5 152.8,31.8 L152.25,36.75 C152.083333,37.6166667 152.483333,38.05 153.45,38.05 L156.8,38.05 C158.266667,38.05 159.825,37.875 161.475,37.525 C163.125,37.175 164.616667,36.6666667 165.95,36 L165.3,41 C164.2,41.4666667 162.833333,41.8333333 161.2,42.1 C159.566667,42.3666667 157.9,42.5 156.2,42.5 L151.45,42.5 C150.05,42.5 149.025,42.2083333 148.375,41.625 C147.725,41.0416667 147.4,40.1833333 147.4,39.05 C147.4,38.65 147.416667,38.3333333 147.45,38.1 L149.35,20.7 L154,20.7 L153.25,27.35 C157.816667,26.45 161.933333,25.4166667 165.6,24.25 L165.1,28.85 Z M140.9,27.1 L131.3,27.1 L130.95,30.2 L140.65,30.2 L140.9,27.1 Z" id="形状" fill="url(#linearGradient-5)"></path>
                    <path d="M191.8,0.6 L200.4,5.5 L199.75,10.8 L191.2,5.85 L191.8,0.6 Z M227.05,27.8 L219.95,27.8 L218.7,39.15 C218.433333,41.75 216.966667,42.95 214.3,42.75 C213.266667,42.6833333 212.358333,42.5583333 211.575,42.375 C210.791667,42.1916667 209.95,41.9166667 209.05,41.55 L209.65,37.5 C210.75,37.9666667 211.966667,38.2666667 213.3,38.4 L213.4,38.4 C213.866667,38.4 214.15,38.1333333 214.25,37.6 L215.4,27.8 L206.85,27.8 L208.5,13.3 C208.7,11.2 209.916667,10.15 212.15,10.15 L215.1,10.15 L216.4,6 L206.8,6 L205.45,18.2 C204.683333,23.9666667 203.85,28.5833333 202.95,32.05 C201.883333,35.9833333 200.533333,39.6166667 198.9,42.95 L194.2,41.7 C196,38.3666667 197.4,34.8833333 198.4,31.25 C199.233333,28.05 199.983333,23.5833333 200.65,17.85 L202,5.6 C202.066667,4.46666667 202.483333,3.55 203.25,2.85 C204.016667,2.15 205.083333,1.8 206.45,1.8 L230.95,1.8 L230.4,6 L221.05,6 L219.85,10.15 L224.65,10.15 C227.383333,10.15 228.75,11.25 228.75,13.45 C228.75,13.7833333 228.733333,14.05 228.7,14.25 L227.05,27.8 Z M189.2,10.85 L197.65,15.9 L197.05,21.15 L188.5,16.1 L189.2,10.85 Z M224.3,13.8 L212.75,13.8 L212.35,17.25 L223.9,17.25 L224.3,13.8 Z M211.6,24.1 L223.1,24.1 L223.5,20.6 L212,20.6 L211.6,24.1 Z M197.4,24.8 L195.7,29.5 C194.366667,33.2333333 193.216667,36.2666667 192.25,38.6 C191.45,40.5 190.883333,41.7833333 190.55,42.45 L185.35,42.45 C188.283333,35.6833333 190.633333,29.8 192.4,24.8 L197.4,24.8 Z M212.3,29.9 C212,30.5333333 211.516667,31.4833333 210.85,32.75 C210.35,33.5833333 209.85,34.5166667 209.35,35.55 C208.35,37.5166667 207.55,39.0166667 206.95,40.05 L202.05,40.05 L202.55,39.15 L203.3,37.85 L204.8,35.25 L207.85,29.9 L212.3,29.9 Z M226.1,29.9 C227.6,33.7333333 228.883333,37.15 229.95,40.15 L225.3,40.15 C224.433333,37.3166667 223.233333,33.9 221.7,29.9 L226.1,29.9 Z" id="形状" fill="url(#linearGradient-6)"></path>
                    <path d="M253.85,0.55 L263.3,4.8 L262.65,10 L253.3,5.7 L253.85,0.55 Z M290.85,2.35 L290.25,6.7 L267.1,6.7 L267.7,2.35 L290.85,2.35 Z M250.15,17.55 L250.7,13.05 L257.7,13.05 C258.666667,13.05 259.416667,13.3333333 259.95,13.9 C260.483333,14.4666667 260.75,15.2666667 260.75,16.3 C260.75,16.6666667 260.733333,16.95 260.7,17.15 L258.9,31.55 C258.833333,31.8166667 258.8,32 258.8,32.1 C259.966667,33.8333333 261.333333,35.1666667 262.9,36.1 C265.066667,37.4666667 267.733333,38.0833333 270.9,37.95 L292.35,37.95 L290.9,42.65 L269.1,42.65 C266.333333,42.65 263.833333,42.05 261.6,40.85 C260,40.0166667 258.533333,38.8166667 257.2,37.25 C256.133333,39.4833333 254.816667,41.45 253.25,43.15 L248.2,41.85 C249.833333,40.2166667 251.158333,38.5166667 252.175,36.75 C253.191667,34.9833333 253.833333,33.05 254.1,30.95 L255.65,17.55 L250.15,17.55 Z M285.6,21 L290.5,34.25 L285.6,34.25 L284.8,32.05 C281.1,32.6166667 275.6,33.2166667 268.3,33.85 C267.6,33.9166667 266.916667,33.8166667 266.25,33.55 C265.583333,33.2833333 265.066667,32.9 264.7,32.4 C264.333333,31.9333333 264.15,31.4166667 264.15,30.85 C264.15,30.1166667 264.466667,29.3333333 265.1,28.5 C267.2,25.7666667 269.366667,22.1333333 271.6,17.6 L263.95,17.6 L264.55,13.25 L291.85,13.25 L291.25,17.6 L276.8,17.6 C274.9,21.3 272.7,25.1666667 270.2,29.2 C274.733333,28.8333333 279.1,28.3333333 283.3,27.7 L280.95,21 L285.6,21 Z" id="形状" fill="url(#linearGradient-7)"></path>
                    <path d="M326.6,27.55 C323.166667,28.3166667 319.366667,28.9166667 315.2,29.35 C313.933333,29.4833333 313.1,29.1 312.7,28.2 C312.566667,27.9333333 312.5,27.6166667 312.5,27.25 C312.5,26.5833333 312.733333,25.9666667 313.2,25.4 C314.666667,23.6 316.45,21.0666667 318.55,17.8 L317.4,17.95 C315.8,18.15 314.7,18.25 314.1,18.25 C312.933333,18.25 312.166667,17.85 311.8,17.05 C311.666667,16.7833333 311.6,16.4666667 311.6,16.1 C311.6,15.5 311.8,14.8833333 312.2,14.25 C315.666667,9.01666667 318.45,4.28333333 320.55,0.05 L325.9,0.05 C323.5,4.78333333 320.983333,9.15 318.35,13.15 L319.95,12.95 C320.75,12.8833333 321.35,12.8166667 321.75,12.75 C322.683333,11.1833333 323.533333,9.73333333 324.3,8.4 L329.45,8.4 C327.483333,11.8666667 325.866667,14.6666667 324.6,16.8 C322.866667,19.7 321.283333,22.1333333 319.85,24.1 C322.05,23.8666667 324.5,23.4 327.2,22.7 L326.6,27.55 Z M327.8,41.75 L330.25,20.15 L325.4,20.15 C327,17.3166667 328.716667,13.7333333 330.55,9.4 C331.916667,6.2 333.133333,3.11666667 334.2,0.15 L339,0.15 C338.866667,0.483333333 338.741667,0.816666667 338.625,1.15 C338.508333,1.48333333 338.4,1.8 338.3,2.1 C337.633333,3.93333333 337.033333,5.5 336.5,6.8 L343,6.8 L341.6,0.5 L346.15,0.5 L347.7,6.8 L354.65,6.8 L354.15,11.05 L347.15,11.05 L346.45,16.9 L353.2,16.9 L352.7,21.05 L346,21.05 L345.3,26.85 L352.6,26.85 L352.1,31.05 L344.85,31.05 L344.1,37.5 L353.45,37.5 L352.95,41.75 L327.8,41.75 Z M342.55,11.05 L335.75,11.05 L335.1,16.9 L341.85,16.9 L342.55,11.05 Z M341.4,21.05 L334.6,21.05 L333.95,26.85 L340.7,26.85 L341.4,21.05 Z M340.25,31.05 L333.5,31.05 L332.75,37.5 L339.5,37.5 L340.25,31.05 Z M326.2,36.3 C321.3,37.8333333 316.183333,39.1333333 310.85,40.2 L311.4,35.3 C315.533333,34.5333333 320.633333,33.2166667 326.7,31.35 L326.2,36.3 Z" id="形状" fill="url(#linearGradient-8)"></path>
                    <path d="M399.6,0.3 L398,10.75 L415.85,10.75 L415.2,15.65 L398.25,15.65 C399.983333,20.9833333 402.3,25.6833333 405.2,29.75 C407.633333,33.2166667 411.083333,36.9333333 415.55,40.9 L410.1,43.1 C407.066667,40.3333333 404.333333,37.1833333 401.9,33.65 C398.966667,29.5166667 396.733333,25.3166667 395.2,21.05 C393.333333,25.4166667 390.716667,29.5666667 387.35,33.5 C384.116667,37.3333333 380.566667,40.5 376.7,43 L371.8,40.65 C376.9,37.25 381.2,33.35 384.7,28.95 C388.2,24.5166667 390.533333,20.0833333 391.7,15.65 L375.15,15.65 L375.65,10.75 L392.6,10.75 L394.3,0.3 L399.6,0.3 Z" id="路径" fill="url(#linearGradient-9)"></path>
                    <path d="M476.15,13.65 L445.5,13.65 L444.15,23.95 C443.716667,27.5166667 443.016667,30.8833333 442.05,34.05 C440.916667,37.75 439.633333,40.6666667 438.2,42.8 L433.4,41.15 C435.133333,38.45 436.45,35.6833333 437.35,32.85 C438.116667,30.3833333 438.75,27.2333333 439.25,23.4 L441.6,4.85 C441.766667,3.61666667 442.183333,2.73333333 442.85,2.2 C443.516667,1.66666667 444.483333,1.4 445.75,1.4 L473.45,1.4 C474.683333,1.4 475.6,1.64166667 476.2,2.125 C476.8,2.60833333 477.1,3.38333333 477.1,4.45 C477.1,4.85 477.083333,5.15 477.05,5.35 L476.15,13.65 Z M472.15,5.45 L446.6,5.45 L446.05,9.7 L471.6,9.7 L472.15,5.45 Z M462.45,42.65 L463.7,32.3 L456,32.3 C455.433333,34.3666667 454.683333,36.2 453.75,37.8 C452.816667,39.3666667 451.416667,41.1166667 449.55,43.05 L444.3,41.75 C446.2,40.1166667 447.7,38.5666667 448.8,37.1 C449.866667,35.6333333 450.666667,34.0333333 451.2,32.3 L444.55,32.3 L445.1,27.85 L452.2,27.85 L452.8,23.15 L446.75,23.15 L447.3,18.7 L453.2,18.7 L451.6,14.5 L456.25,14.5 L457.8,18.7 L465.55,18.7 L467.15,14.55 L471.9,14.55 L470.25,18.7 L476.4,18.7 L475.85,23.15 L469.45,23.15 L468.9,27.85 L477.2,27.85 L476.65,32.3 L468.35,32.3 L467.1,42.65 L462.45,42.65 Z M464.8,23.15 L457.4,23.15 L456.8,27.85 L464.25,27.85 L464.8,23.15 Z" id="形状" fill="url(#linearGradient-10)"></path>
                </g>
            </g>
        </g>
    </g>
</svg>