<?xml version="1.0" encoding="UTF-8"?>
<svg width="1881px" height="88px" viewBox="0 0 1881 88" version="1.1" xmlns="http://www.w3.org/2000/svg" xmlns:xlink="http://www.w3.org/1999/xlink">
    <title>大标题-告警分析</title>
    <defs>
        <linearGradient x1="50%" y1="0%" x2="50%" y2="112.458987%" id="linearGradient-1">
            <stop stop-color="#043347" offset="0%"></stop>
            <stop stop-color="#1CADC0" offset="100%"></stop>
        </linearGradient>
        <linearGradient x1="50%" y1="0%" x2="50%" y2="100%" id="linearGradient-2">
            <stop stop-color="#043347" stop-opacity="0" offset="0%"></stop>
            <stop stop-color="#05FCFF" offset="100%"></stop>
        </linearGradient>
        <linearGradient x1="50%" y1="0%" x2="50%" y2="100%" id="linearGradient-3">
            <stop stop-color="#D7F8FF" offset="0%"></stop>
            <stop stop-color="#00FFEB" offset="100%"></stop>
        </linearGradient>
        <linearGradient x1="50%" y1="0%" x2="50%" y2="100%" id="linearGradient-4">
            <stop stop-color="#D7F8FF" offset="0%"></stop>
            <stop stop-color="#00FFEB" offset="100%"></stop>
        </linearGradient>
        <linearGradient x1="50%" y1="0%" x2="50%" y2="100%" id="linearGradient-5">
            <stop stop-color="#D7F8FF" offset="0%"></stop>
            <stop stop-color="#00FFEB" offset="100%"></stop>
        </linearGradient>
        <linearGradient x1="50%" y1="0%" x2="50%" y2="100%" id="linearGradient-6">
            <stop stop-color="#D7F8FF" offset="0%"></stop>
            <stop stop-color="#00FFEB" offset="100%"></stop>
        </linearGradient>
        <linearGradient x1="50%" y1="0%" x2="50%" y2="100%" id="linearGradient-7">
            <stop stop-color="#D7F8FF" offset="0%"></stop>
            <stop stop-color="#00FFEB" offset="100%"></stop>
        </linearGradient>
    </defs>
    <g id="大屏" stroke="none" stroke-width="1" fill="none" fill-rule="evenodd">
        <g id="告警列表" transform="translate(-20.000000, -12.000000)">
            <g id="编组-8备份" transform="translate(20.000000, 12.000000)">
                <path d="M1879.51069,0.5 L1880.48907,45.75 L1427.81236,45.75 L1380.02046,87.5 L518.176909,87.5 L467.305234,46.35 L1.48944153,46.35 L0.510786245,0.5 L1879.51069,0.5 Z" id="矩形" stroke="url(#linearGradient-2)" fill="url(#linearGradient-1)"></path>
                <path d="M778.506673,36.5885057 C780.987384,36.5885057 782.22774,37.7011494 782.22774,39.9264368 C782.22774,40.3310345 782.210749,40.6344828 782.176767,40.8367816 L780.49464,59.5494253 C780.290746,61.1678161 779.857471,62.3141762 779.194815,62.9885057 C778.532159,63.6628352 777.487202,64 776.059943,64 C775.108437,64 774.071975,63.9241379 772.950558,63.7724138 C771.82914,63.6206897 770.979581,63.4268199 770.401881,63.1908046 L770.758696,58.891954 C772.593743,59.3639847 773.953037,59.6 774.836578,59.6 C775.244367,59.6 775.524721,59.5157088 775.677642,59.3471264 C775.830562,59.1785441 775.941005,58.8076628 776.00897,58.2344828 L776.263837,55.2 L766.323999,55.2 L765.406476,63.8988506 L760.869832,63.8988506 L763.265587,40.7356322 C763.435499,39.2521073 763.851783,38.1900383 764.514439,37.5494253 C765.177095,36.9088123 766.222052,36.5885057 767.649311,36.5885057 L778.506673,36.5885057 Z M712.75082,20.7586207 C711.459491,23.8268199 710.270109,26.4904215 709.182673,28.7494253 L705.308685,63.7977011 L700.619121,63.7977011 L703.524612,39.8758621 L702.046379,42.5563218 L697,42.5057471 C699.072924,39.1003831 701.128856,35.3241379 703.167797,31.1770115 C703.745497,30.0306513 704.544082,28.3111111 705.563553,26.0183908 L707.806388,20.7586207 L712.75082,20.7586207 Z M790.230584,41.5448276 L789.465981,48.2712644 C794.121563,47.3609195 798.318384,46.3157088 802.056443,45.1356322 L801.546708,49.7885057 C800.017502,50.3279693 798.080508,50.867433 795.735725,51.4068966 C793.051119,52.0137931 790.808284,52.4689655 789.007219,52.7724138 L788.446511,57.7793103 C788.276599,58.6559387 788.684387,59.0942529 789.669875,59.0942529 L793.085102,59.0942529 C794.580325,59.0942529 796.169,58.9172414 797.851127,58.5632184 C799.533253,58.2091954 801.053963,57.6950192 802.413257,57.0206897 L801.750602,62.0781609 C800.629184,62.5501916 799.235908,62.9210728 797.570772,63.1908046 C795.905637,63.4605364 794.206519,63.5954023 792.473419,63.5954023 L787.630934,63.5954023 C786.203675,63.5954023 785.158718,63.3003831 784.496062,62.7103448 C783.833406,62.1203065 783.502078,61.2521073 783.502078,60.1057471 C783.502078,59.7011494 783.519069,59.3808429 783.553052,59.1448276 L785.490046,41.5448276 L790.230584,41.5448276 Z M732.732444,20.354023 L732.120761,25.6137931 L736.708379,25.6137931 L736.300591,29.0528736 C737.048202,27.6367816 737.795814,26.0015326 738.543426,24.1471264 L743.182017,24.1471264 C741.516882,28.159387 739.664844,31.6827586 737.625902,34.7172414 L742.774229,34.7172414 L742.366441,38.8137931 L734.516517,38.8137931 C733.463064,40.1287356 732.290673,41.3425287 730.999344,42.4551724 L736.249617,42.4551724 C737.405017,42.4551724 738.305549,42.7670498 738.951214,43.3908046 C739.596879,44.0145594 739.919711,44.8996169 739.919711,46.045977 C739.919711,46.4168582 739.90272,46.7034483 739.868738,46.9057471 L737.88077,63.5448276 L720.39685,63.5448276 L722.28287,48.4229885 C721.093488,48.9961686 720.158973,49.4176245 719.479326,49.6873563 L716.675782,46.3494253 C721.501276,44.6298851 725.59615,42.1180077 728.960403,38.8137931 L719.479326,38.8137931 L719.887114,34.7172414 L726.819514,34.7172414 L727.380223,29.6597701 L721.926056,29.6597701 L722.384817,25.6137931 L727.788011,25.6137931 L728.399694,20.354023 L732.732444,20.354023 Z M849.614745,20 L848.952089,25.7149425 L859.65653,25.7149425 C861.253701,25.7149425 862.426092,26.1111111 863.173704,26.9034483 C863.921316,27.6957854 864.210166,28.8505747 864.040254,30.3678161 L861.746445,51.6091954 L845.944651,51.6091954 L845.281995,57.5264368 L845.231022,57.9310345 C845.231022,58.2681992 845.341464,58.4957854 845.56235,58.6137931 C845.783235,58.7318008 846.165536,58.7908046 846.709254,58.7908046 L853.488733,58.7908046 C858.008386,58.7908046 861.950339,58.251341 865.314592,57.1724138 L864.70291,62.1287356 C861.23671,63.0390805 857.515642,63.4942529 853.539707,63.4942529 L844.92518,63.4942529 C843.260045,63.4942529 842.028185,63.1570881 841.2296,62.4827586 C840.431014,61.8084291 840.031722,60.7632184 840.031722,59.3471264 C840.031722,59.3021711 840.0334,59.2472258 840.036756,59.1822903 L840.051859,58.9575138 C840.068641,58.7452249 840.095911,58.4704981 840.133669,58.1333333 L840.898272,51.6091954 L825.810107,51.6091954 L828.460731,30.0137931 C828.664625,28.4291188 829.140378,27.3164751 829.887989,26.6758621 C830.635601,26.035249 831.858966,25.7149425 833.558084,25.7149425 L843.90571,25.7149425 L844.568366,20 L849.614745,20 Z M919.856268,20.708046 L918.887771,28.445977 L930,28.445977 L929.439291,32.7954023 L918.327062,32.7954023 L917.358565,40.583908 L923.016627,40.583908 C926.007074,40.583908 927.349377,42.1180077 927.043535,45.1862069 L924.8007,63.291954 L903.085977,63.291954 L905.277839,45.2367816 C905.481733,43.6858238 905.991468,42.5226054 906.807044,41.7471264 C907.622621,40.9716475 908.795012,40.583908 910.324218,40.583908 L912.567053,40.583908 L915.064756,20.708046 L919.856268,20.708046 Z M714.636841,34.5149425 C716.6418,34.5149425 717.542332,35.4252874 717.338438,37.245977 L715.19755,55.6045977 C715.19755,55.6383142 715.189054,55.6720307 715.172063,55.7057471 C715.155072,55.7394636 715.163567,55.7900383 715.19755,55.8574713 C715.19755,56.194636 715.401444,56.262069 715.809232,56.0597701 C717.032597,55.3180077 718.306935,54.3908046 719.632247,53.2781609 L719.785167,58.0827586 C719.207467,58.5547893 718.595785,59.0099617 717.95012,59.4482759 L716.93065,60.0551724 L715.656312,60.7632184 C714.500912,61.4038314 713.549406,61.7241379 712.801794,61.7241379 C711.4425,61.7241379 710.762853,60.7295019 710.762853,58.7402299 C710.762853,58.0996169 710.796835,57.5938697 710.8648,57.2229885 L712.954715,38.9149425 L709.28462,38.9149425 L709.845329,34.5149425 L714.636841,34.5149425 Z M903.646686,34.4137931 C902.933056,37.6505747 902.185444,40.6344828 901.40385,43.3655172 C900.180486,47.7149425 899.22898,50.9685824 898.549333,53.1264368 L902.98403,52.1655172 L902.474294,56.7172414 C897.6488,57.8298851 891.447021,59.0942529 883.868956,60.5103448 L884.480639,55.7563218 L889.11923,54.9471264 C891.2941,54.5762452 892.87428,54.2896552 893.859768,54.0873563 C894.879239,50.8168582 895.864727,47.3609195 896.816233,43.7195402 C896.898761,43.401642 896.984757,43.0658535 897.074221,42.7121745 L897.257772,41.9809628 C897.759571,39.9674547 898.360003,37.4450648 899.059068,34.4137931 L903.646686,34.4137931 Z M734.363597,54.9471264 L725.952964,54.9471264 L725.392256,59.4482759 L733.853861,59.4482759 L734.363597,54.9471264 Z M922.252024,44.8827586 L910.06935,44.8827586 L908.489171,58.9425287 L920.569897,58.9425287 L922.252024,44.8827586 Z M892.075695,34.6666667 L893.401006,51.3057471 L889.017283,51.3057471 L887.793918,34.6666667 L892.075695,34.6666667 Z M776.87552,48.0183908 L767.088602,48.0183908 L766.731787,51.154023 L776.620652,51.154023 L776.87552,48.0183908 Z M735.383067,46.6022989 L726.972435,46.6022989 L726.411726,51.1034483 L734.822358,51.1034483 L735.383067,46.6022989 Z M857.821483,40.7862069 L847.218989,40.7862069 L846.50536,47.0574713 L857.107854,47.0574713 L857.821483,40.7862069 Z M842.17261,40.7862069 L832.079851,40.7862069 L831.315248,47.0574713 L841.408007,47.0574713 L842.17261,40.7862069 Z M777.538175,40.8367816 L767.853205,40.8367816 L767.49639,43.9724138 L777.232334,43.9724138 L777.538175,40.8367816 Z M792.116605,20.708046 L791.504922,26.6252874 C794.631299,26.0183908 798.760155,24.9226054 803.89149,23.337931 L803.381755,27.9402299 C800.493255,28.9854406 796.38139,29.9800766 791.046161,30.9241379 L790.740319,33.908046 C790.706337,34.0091954 790.689346,34.1440613 790.689346,34.3126437 C790.689346,34.9532567 791.131116,35.2735632 792.014658,35.2735632 L795.327937,35.2735632 C798.55626,35.2735632 801.546708,34.5992337 804.299278,33.2505747 L803.636622,38.2574713 C801.427769,39.235249 798.454313,39.7241379 794.716255,39.7241379 L789.924743,39.7241379 C788.497484,39.7241379 787.452527,39.4291188 786.789871,38.8390805 C786.127215,38.2490421 785.795887,37.3808429 785.795887,36.2344828 C785.795887,35.8636015 785.812878,35.5601533 785.846861,35.3241379 L787.376067,20.708046 L792.116605,20.708046 Z M858.993874,30.2666667 L848.39138,30.2666667 L847.728725,36.3356322 L858.280245,36.3356322 L858.993874,30.2666667 Z M843.345001,30.2666667 L833.456137,30.2666667 L832.64056,36.3356322 L842.682345,36.3356322 L843.345001,30.2666667 Z M776.16189,20.6068966 C775.00649,22.4275862 773.749143,24.2482759 772.389849,26.0689655 C771.370378,27.4176245 770.23197,28.7831418 768.974623,30.1655172 C772.508787,29.9295019 775.652155,29.5417625 778.404725,29.0022989 L777.283308,24.0965517 L781.667031,24.0965517 L784.521549,35.5264368 L779.984905,35.5264368 L779.424196,33.1494253 C775.890031,33.7563218 771.421352,34.262069 766.018158,34.6666667 C765.202581,34.7340996 764.488952,34.6329502 763.87727,34.3632184 C763.265587,34.0934866 762.840808,33.7226054 762.602932,33.2505747 C762.43302,32.91341 762.348064,32.5762452 762.348064,32.2390805 C762.348064,31.497318 762.72187,30.7049808 763.469482,29.862069 C765.304529,27.805364 767.649311,24.7203065 770.503828,20.6068966 L776.16189,20.6068966 Z M735.943776,29.6597701 L731.712973,29.6597701 L731.152264,34.7172414 L732.630497,34.7172414 C733.819879,33.2 734.924305,31.5141762 735.943776,29.6597701 Z M897.682783,20.8091954 L898.957121,27.5356322 L905.58368,27.5356322 L905.073944,31.783908 L886.468606,31.783908 L886.978342,27.5356322 L894.31853,27.5356322 L893.095165,20.8091954 L897.682783,20.8091954 Z M717.032597,22.7310345 L719.5303,31.1264368 L715.044629,31.1264368 L712.648873,22.7310345 L717.032597,22.7310345 Z" id="形状结合" fill="url(#linearGradient-3)" fill-rule="nonzero"></path>
                <g id="告-警-分-析" transform="translate(947.000000, 21.000000)" fill-rule="nonzero">
                    <path d="M26.3095556,0.304849885 L25.5462222,6.55427252 L39.5406667,6.55427252 L39.0317778,11.1270208 L24.9864444,11.1270208 L24.274,17.4272517 L41.9324444,17.4272517 L41.4235556,21.9491917 L0,21.9491917 L0.559777778,17.4272517 L18.9815556,17.4272517 L19.7448889,11.1270208 L9.36355556,11.1270208 C9.16,11.5673595 8.63414815,12.6004619 7.786,14.2263279 C7.71814815,14.395689 7.62485185,14.5819861 7.50611111,14.7852194 C7.38737037,14.9884527 7.26014815,15.2255581 7.12444444,15.4965358 L1.67933333,15.4965358 C3.17207407,12.7190146 4.34251852,10.3987683 5.19066667,8.53579677 C5.86918519,7.04541955 6.78518519,4.80985373 7.93866667,1.82909931 L13.282,1.82909931 C12.7731111,3.21785989 12.1624444,4.79291763 11.45,6.55427252 L20.2537778,6.55427252 L21.0171111,0.304849885 L26.3095556,0.304849885 Z M35.1642222,43.1362587 L2.84977778,43.1362587 L4.22377778,30.4341801 C4.56303704,27.3518091 6.22540741,25.8106236 9.21088889,25.8106236 L32.3653333,25.8106236 C35.3508148,25.8106236 36.6908889,27.334873 36.3855556,30.3833718 L35.1642222,43.1362587 Z M8.44755556,38.4618938 L30.4824444,38.4618938 L31.2457778,30.3833718 L9.26177778,30.3833718 L8.44755556,38.4618938 Z" id="形状" fill="url(#linearGradient-4)"></path>
                    <path d="M72.364,5.23325635 L72.2113333,6.65588915 L68.0384444,6.65588915 L68.1911111,5.23325635 L63.1022222,5.23325635 L63.5093333,2.03233256 L68.5982222,2.03233256 L68.8526667,0.101616628 L73.0255556,0.101616628 L72.7711111,2.03233256 L77.6564444,2.03233256 L77.9108889,0.101616628 L82.0837778,0.101616628 L81.8293333,2.03233256 L86.8164444,2.03233256 L86.4093333,5.23325635 L81.4222222,5.23325635 L81.2695556,6.65588915 L77.0966667,6.65588915 L77.2493333,5.23325635 L72.364,5.23325635 Z M102.693778,6.65588915 C101.608148,9.50115473 100.098444,11.9399538 98.1646667,13.9722864 C99.9288148,15.1916859 102.286667,16.5635104 105.238222,18.0877598 L102.184889,21.034642 C99.5386667,19.6797537 97.1808148,18.2063125 95.1113333,16.6143187 C93.0418519,18.1046959 90.5652593,19.4934565 87.6815556,20.7806005 L84.7808889,17.8845266 C86.578963,17.0715935 88.0377778,16.3856813 89.1573333,15.8267898 C90.2768889,15.2678984 91.2946667,14.6666667 92.2106667,14.0230947 C91.3285926,13.108545 90.5143704,12.1431871 89.768,11.1270208 L89.4626667,11.6859122 L89.1064444,12.2448037 L84.5773333,12.2448037 C87.3592593,7.46882217 89.4457037,3.47190146 90.8366667,0.25404157 L95.2131111,0.25404157 C94.6702963,1.54118553 94.2631852,2.47267129 93.9917778,3.04849885 L105.492667,3.04849885 L105.085556,6.65588915 L102.693778,6.65588915 Z M95.2131111,11.5842956 C96.4683704,10.3310239 97.5879259,8.68822171 98.5717778,6.65588915 L92.2106667,6.65588915 L92.0071111,7.06235566 L91.8035556,7.46882217 C92.8891852,9.09468822 94.0257037,10.4665127 95.2131111,11.5842956 Z M70.2266667,7.06235566 C70.090963,7.26558891 70.0061481,7.41801386 69.9722222,7.51963048 C69.8365185,7.72286374 69.7517037,7.87528868 69.7177778,7.97690531 L81.1168889,7.97690531 C82.2703704,7.97690531 83.1015556,8.19707467 83.6104444,8.63741339 C84.1193333,9.07775212 84.3737778,9.80600462 84.3737778,10.8221709 C84.3737778,12.2448037 84.0345185,14.8529638 83.356,18.6466513 C83.2542222,19.08699 83.1015556,19.4595843 82.898,19.7644342 L85.1371111,19.7644342 L86.104,22.1016166 L103.915111,22.1016166 L103.609778,25.3025404 L61.83,25.3025404 L62.1862222,22.1016166 L81.066,22.1016166 L80.6588889,21.187067 C80.2857037,21.2209392 79.8022593,21.195535 79.2085556,21.1108545 C78.6148519,21.026174 78.1483704,20.9330254 77.8091111,20.8314088 C77.4359259,20.7636644 77.0288148,20.6620477 76.5877778,20.5265589 L76.9948889,17.47806 L77.86,17.7829099 L78.6233333,17.9353349 C78.7251111,17.9692071 78.8438519,17.9861432 78.9795556,17.9861432 C79.1152593,17.9861432 79.217037,17.9438029 79.2848889,17.8591224 C79.3527407,17.7744419 79.4205926,17.5966128 79.4884444,17.3256351 C79.7937778,15.8013857 79.9888519,14.4464973 80.0736667,13.26097 C80.1584815,12.0754426 80.2178519,11.3471901 80.2517778,11.0762125 L67.784,11.0762125 L66.868,12.3972286 C67.2411852,12.295612 67.6652593,12.2448037 68.1402222,12.2448037 L74.3995556,12.2448037 C75.2477037,12.2448037 75.8498889,12.4226328 76.2061111,12.778291 C76.5623333,13.1339492 76.7404444,13.6843726 76.7404444,14.4295612 C76.7404444,14.8021555 76.7234815,15.0900693 76.6895556,15.2933025 L76.1297778,19.3071594 L64.7815556,19.3071594 L65.3413333,14.5311778 L65.3413333,14.2771363 L61.1175556,14.2771363 C62.9156296,12.0076982 64.5440741,9.60277136 66.0028889,7.06235566 L70.2266667,7.06235566 Z M68.4964444,16.8683603 L72.9746667,16.8683603 L73.28,14.8360277 L68.7508889,14.8360277 L68.4964444,16.8683603 Z M66.8171111,26.7251732 L98.5208889,26.7251732 L98.2155556,29.4688222 L66.5117778,29.4688222 L66.8171111,26.7251732 Z M66.6135556,30.9422633 L98.3173333,30.9422633 L98.012,33.6859122 L66.3082222,33.6859122 L66.6135556,30.9422633 Z M98.2155556,43.4411085 L64.2217778,43.4411085 L64.8833333,38.4618938 C65.052963,37.2763664 65.494,36.4210931 66.2064444,35.8960739 C66.9188889,35.3710547 67.9536296,35.108545 69.3106667,35.108545 L95.3148889,35.108545 C96.638,35.108545 97.5964074,35.3625866 98.1901111,35.8706697 C98.7838148,36.3787529 99.0128148,37.2255581 98.8771111,38.4110855 L98.2155556,43.4411085 Z M69.5142222,40.3418014 L93.4828889,40.3418014 L93.8391111,38.0554273 L69.8704444,38.0554273 L69.5142222,40.3418014 Z" id="形状" fill="url(#linearGradient-5)"></path>
                    <path d="M131.649556,17.7321016 L129.766667,19.7136259 L127.782,21.6951501 L122.235111,20.1200924 C125.627704,16.9361047 128.748889,13.5488838 131.598667,9.95842956 C133.803852,7.2147806 135.992074,4.09853734 138.163333,0.609699769 L144.320889,0.609699769 C140.487259,6.87605851 136.399185,12.4311008 132.056667,17.2748268 L155.211111,17.2748268 C156.80563,17.2748268 157.925185,17.7321016 158.569778,18.6466513 C159.21437,19.5612009 159.536667,20.8483449 159.536667,22.5080831 C159.536667,23.8290993 159.299185,25.9122402 158.824222,28.7575058 L158.468,30.9930716 C158.026963,33.973826 157.568963,36.8360277 157.094,39.5796767 C156.856519,40.9006928 156.373074,41.891455 155.643667,42.551963 C154.914259,43.2124711 153.955852,43.5427252 152.768444,43.5427252 C152.22563,43.5427252 151.801556,43.508853 151.496222,43.4411085 C148.816074,42.9668976 145.576148,42.0862202 141.776444,40.7990762 L142.285333,35.8198614 C145.576148,36.9376443 148.493778,37.6997691 151.038222,38.1062356 C151.173926,38.1401078 151.360519,38.1570439 151.598,38.1570439 C151.835481,38.1570439 151.99663,38.0977675 152.081444,37.9792148 C152.166259,37.860662 152.242593,37.5981524 152.310444,37.1916859 C153.124667,32.4157044 153.752296,27.334873 154.193333,21.9491917 L142.539778,21.9491917 C141.35237,26.691301 139.622148,30.7898383 137.349111,34.2448037 C134.94037,37.9030023 131.887037,41.0361817 128.189111,43.6443418 L123.202,41.3071594 C127.171333,38.5296382 130.292519,35.5488838 132.565556,32.3648961 C134.702889,29.3163972 136.263481,25.8444958 137.247333,21.9491917 L131.191556,21.9491917 L131.649556,17.7321016 Z M154.244222,0.609699769 C156.042296,3.69207082 157.976074,6.67282525 160.045556,9.55196305 C162.59,13.108545 165.202296,16.495766 167.882444,19.7136259 L162.335556,21.2378753 C159.723259,17.8845266 157.365407,14.6158584 155.262,11.4318707 C153.701407,9.12856043 151.445333,5.52117013 148.493778,0.609699769 L154.244222,0.609699769 Z" id="形状" fill="url(#linearGradient-6)"></path>
                    <path d="M192.868889,23.1177829 C191.206519,25.9630485 189.137037,28.8591224 186.660444,31.8060046 L182.945556,29.5704388 C186.982741,24.8283295 190.680667,19.2902232 194.039333,12.9561201 L187.016667,12.9561201 L187.525556,8.48498845 L194.700889,8.48498845 L195.769556,0 L200.502222,0 L199.433556,8.48498845 L204.624222,8.48498845 L204.166222,12.9561201 L198.873778,12.9561201 L198.772,14.0230947 C200.739704,17.4441878 202.537778,20.8822171 204.166222,24.3371824 L200.451333,26.6235566 C199.365704,23.9137798 198.517556,21.9491917 197.906889,20.7297921 L195.057111,43.6951501 L190.324444,43.6951501 L192.868889,23.1177829 Z M229,15.7505774 L228.491111,20.4757506 L222.842444,20.4757506 L220.348889,43.9491917 L215.463556,43.9491917 L217.957111,20.4757506 L210.934444,20.4757506 C210.357704,25.725943 209.424741,30.4511162 208.135556,34.6512702 C206.880296,38.7836798 205.540222,41.899923 204.115333,44 L199.179111,42.6281755 C200.739704,40.1555042 202.096741,37.1408776 203.250222,33.5842956 C204.573333,29.4518861 205.421481,25.3364126 205.794667,21.2378753 L207.372222,7.46882217 C207.541852,5.91070054 207.898074,4.83525789 208.440889,4.24249423 C208.983704,3.64973056 209.916667,3.30254042 211.239778,3.20092379 C213.784222,2.96381832 216.481333,2.65896844 219.331111,2.28637413 C223.164741,1.77829099 226.336815,1.30408006 228.847333,0.863741339 L228.287556,5.84295612 C222.588,6.75750577 217.278593,7.41801386 212.359333,7.82448037 L211.443333,15.7505774 L229,15.7505774 Z" id="形状" fill="url(#linearGradient-7)"></path>
                </g>
            </g>
        </g>
    </g>
</svg>