<?xml version="1.0" encoding="UTF-8"?>
<svg id="_图层_1" data-name="图层 1" xmlns="http://www.w3.org/2000/svg" xmlns:xlink="http://www.w3.org/1999/xlink" viewBox="0 0 114.5 73">
  <defs>
    <style>
      .cls-1 {
        fill: url(#_未命名的渐变_194);
        filter: url(#outer-glow-4);
      }

      .cls-2 {
        fill: url(#_未命名的渐变_194-3);
        filter: url(#outer-glow-6);
      }

      .cls-3 {
        fill: url(#_未命名的渐变_194-4);
        filter: url(#outer-glow-7);
      }

      .cls-4 {
        fill: url(#_未命名的渐变_194-2);
        filter: url(#outer-glow-5);
      }
    </style>
    <linearGradient id="_未命名的渐变_194" data-name="未命名的渐变 194" x1="22.34" y1="36.06" x2="86.44" y2="36.06" gradientUnits="userSpaceOnUse">
      <stop offset="0" stop-color="#3db4fc"/>
      <stop offset="1" stop-color="#1f92e8"/>
    </linearGradient>
    <filter id="outer-glow-4" filterUnits="userSpaceOnUse">
      <feOffset dx="0" dy="0"/>
      <feGaussianBlur result="blur" stdDeviation="5"/>
      <feFlood flood-color="#6296f4" flood-opacity=".5"/>
      <feComposite in2="blur" operator="in"/>
      <feComposite in="SourceGraphic"/>
    </filter>
    <linearGradient id="_未命名的渐变_194-2" data-name="未命名的渐变 194" x1="110.21" y1="28.52" x2="114.21" y2="28.52" xlink:href="#_未命名的渐变_194"/>
    <filter id="outer-glow-5" filterUnits="userSpaceOnUse">
      <feOffset dx="0" dy="0"/>
      <feGaussianBlur result="blur-2" stdDeviation="4"/>
      <feFlood flood-color="#16f4c9" flood-opacity=".5"/>
      <feComposite in2="blur-2" operator="in"/>
      <feComposite in="SourceGraphic"/>
    </filter>
    <linearGradient id="_未命名的渐变_194-3" data-name="未命名的渐变 194" x1="1282.26" y1="-1189.4" x2="1284.26" y2="-1189.4" gradientTransform="translate(914.34 1538.84) rotate(-78.61)" xlink:href="#_未命名的渐变_194"/>
    <filter id="outer-glow-6" filterUnits="userSpaceOnUse">
      <feOffset dx="0" dy="0"/>
      <feGaussianBlur result="blur-3" stdDeviation="4"/>
      <feFlood flood-color="#16f4c9" flood-opacity=".8"/>
      <feComposite in2="blur-3" operator="in"/>
      <feComposite in="SourceGraphic"/>
    </filter>
    <linearGradient id="_未命名的渐变_194-4" data-name="未命名的渐变 194" x1="1286.91" y1="-1085.27" x2="1288.91" y2="-1085.27" gradientTransform="translate(914.34 1538.84) rotate(-78.61)" xlink:href="#_未命名的渐变_194"/>
    <filter id="outer-glow-7" filterUnits="userSpaceOnUse">
      <feOffset dx="0" dy="0"/>
      <feGaussianBlur result="blur-4" stdDeviation="4"/>
      <feFlood flood-color="#16f4c9" flood-opacity=".8"/>
      <feComposite in2="blur-4" operator="in"/>
      <feComposite in="SourceGraphic"/>
    </filter>
  </defs>
  <path class="cls-1" d="M82.65,16.51h-8.42V1.77C74.23,.59,70.57,0,69.39,0s-5.12,.59-5.12,1.77v14.74h-19.5V1.77C44.78,.59,41.2,0,40.02,0s-5.19,.59-5.19,1.77v14.74h-8.7c-2.09,0-3.79,1.7-3.79,3.79v48.03c0,2.09,1.7,3.79,3.79,3.79h56.52c2.09,0,3.79-1.7,3.79-3.79V20.3c0-2.09-1.7-3.79-3.79-3.79Zm-31.94,8.57h10.27l-7,9.72h11.62l-13.4,16.35,2.98-11.92-10.43-.09,5.96-14.07Zm20.4,37.27c-.68,.69-1.63,1.12-2.67,1.12h-26.53c-2.08,0-3.79-1.71-3.79-3.79,0-1.04,.43-1.99,1.12-2.67,.68-.69,1.63-1.12,2.67-1.12h26.53c2.08,0,3.79,1.71,3.79,3.79,0,1.04-.43,1.99-1.12,2.67Z"/>
  <circle class="cls-4" cx="112.21" cy="28.52" r="2"/>
  <circle class="cls-2" cx="1.71" cy="46.02" r="1"/>
  <circle class="cls-3" cx="104.71" cy="62.02" r="1"/>
</svg>