<?xml version="1.0" encoding="UTF-8"?>
<svg id="_图层_1" data-name="图层 1" xmlns="http://www.w3.org/2000/svg" xmlns:xlink="http://www.w3.org/1999/xlink" viewBox="0 0 114.5 75">
  <defs>
    <style>
      .cls-1 {
        fill: url(#_未命名的渐变_318);
        filter: url(#outer-glow-4);
      }

      .cls-2 {
        fill: url(#_未命名的渐变_318-2);
        filter: url(#outer-glow-5);
      }

      .cls-3 {
        fill: url(#_未命名的渐变_318-3);
        filter: url(#outer-glow-6);
      }

      .cls-4 {
        fill: url(#_未命名的渐变_318-4);
        filter: url(#outer-glow-7);
      }
    </style>
    <linearGradient id="_未命名的渐变_318" data-name="未命名的渐变 318" x1="21.95" y1="37.2" x2="102" y2="37.2" gradientUnits="userSpaceOnUse">
      <stop offset="0" stop-color="#a867f4"/>
      <stop offset="1" stop-color="#7524ea"/>
    </linearGradient>
    <filter id="outer-glow-4" filterUnits="userSpaceOnUse">
      <feOffset dx="0" dy="0"/>
      <feGaussianBlur result="blur" stdDeviation="5"/>
      <feFlood flood-color="#dd61f7" flood-opacity=".5"/>
      <feComposite in2="blur" operator="in"/>
      <feComposite in="SourceGraphic"/>
    </filter>
    <linearGradient id="_未命名的渐变_318-2" data-name="未命名的渐变 318" x1="110.5" y1="31.5" x2="114.5" y2="31.5" xlink:href="#_未命名的渐变_318"/>
    <filter id="outer-glow-5" filterUnits="userSpaceOnUse">
      <feOffset dx="0" dy="0"/>
      <feGaussianBlur result="blur-2" stdDeviation="4"/>
      <feFlood flood-color="#e219f2" flood-opacity=".5"/>
      <feComposite in2="blur-2" operator="in"/>
      <feComposite in="SourceGraphic"/>
    </filter>
    <linearGradient id="_未命名的渐变_318-3" data-name="未命名的渐变 318" x1="1283.31" y1="-1185.32" x2="1285.31" y2="-1185.32" gradientTransform="translate(910.42 1542.05) rotate(-78.61)" xlink:href="#_未命名的渐变_318"/>
    <filter id="outer-glow-6" filterUnits="userSpaceOnUse">
      <feOffset dx="0" dy="0"/>
      <feGaussianBlur result="blur-3" stdDeviation="4"/>
      <feFlood flood-color="#d219f2" flood-opacity=".8"/>
      <feComposite in2="blur-3" operator="in"/>
      <feComposite in="SourceGraphic"/>
    </filter>
    <linearGradient id="_未命名的渐变_318-4" data-name="未命名的渐变 318" x1="1287.96" y1="-1081.18" x2="1289.96" y2="-1081.18" gradientTransform="translate(910.42 1542.05) rotate(-78.61)" xlink:href="#_未命名的渐变_318"/>
    <filter id="outer-glow-7" filterUnits="userSpaceOnUse">
      <feOffset dx="0" dy="0"/>
      <feGaussianBlur result="blur-4" stdDeviation="4"/>
      <feFlood flood-color="#c719f2" flood-opacity=".8"/>
      <feComposite in2="blur-4" operator="in"/>
      <feComposite in="SourceGraphic"/>
    </filter>
  </defs>
  <path class="cls-1" d="M98.92,12.55v-1.54c0-.85-.69-1.54-1.54-1.54s-1.54,.69-1.54,1.54v1.54h-6.11v-1.54c0-.85-.69-1.54-1.54-1.54s-1.54,.69-1.54,1.54v1.54c-1.7,0-3.07,1.38-3.08,3.08v6.16c0,1.7,1.38,3.08,3.08,3.08h3.08v29.26c0,2.55-2.07,4.62-4.62,4.62s-4.62-2.07-4.62-4.62V21.79c-.02-5.09-4.14-9.22-9.23-9.23V6.39c0-3.41-2.78-6.16-6.18-6.16,0,0,0,0-.01,0h-30.8c-3.4,0-6.15,2.76-6.16,6.16v61.62h-6.16v6.16h55.42v-6.16h-6.16V18.71c1.7,0,3.07,1.38,3.08,3.08V54.12c0,5.95,4.82,10.77,10.77,10.77s10.77-4.82,10.77-10.77h0V24.86h3.08c1.69,0,3.07-1.36,3.08-3.05,0,0,0-.02,0-.03v-6.16c0-1.7-1.38-3.08-3.08-3.08h0ZM45.05,63.78l4.6-13.82h-13.81l13.81-18.36v13.81h13.82l-18.43,18.37Zm20.01-35.84h-30.8V9.47h30.8V27.94Zm30.78-6.16h-6.11c-1.7,0-3.08-1.38-3.08-3.08s1.38-3.08,3.08-3.08h6.16c1.7,0,3.08,1.38,3.08,3.08s-1.38,3.08-3.08,3.08h-.04Z"/>
  <circle class="cls-2" cx="112.5" cy="31.5" r="2"/>
  <circle class="cls-3" cx="2" cy="49" r="1"/>
  <circle class="cls-4" cx="105" cy="65" r="1"/>
</svg>