<?xml version="1.0" encoding="UTF-8"?><svg version="1.1" width="1880px" height="84px" viewBox="0 0 1880.0 84.0" xmlns="http://www.w3.org/2000/svg" xmlns:xlink="http://www.w3.org/1999/xlink"><defs><clipPath id="i0"><path d="M1920,0 L1920,1080 L0,1080 L0,0 L1920,0 Z"></path></clipPath><clipPath id="i1"><path d="M1880,0 L1880,34 C1880,42.836556 1872.83656,50 1864,50 L1424,50 L1424,68 C1424,76.836556 1416.83656,84 1408,84 L472,84 C463.163444,84 456,76.836556 456,68 L456,50 L16,50 C7.163444,50 2.23984481e-14,42.836556 0,34 L0,0 L1880,0 Z"></path></clipPath><linearGradient id="i2" x1="940px" y1="0px" x2="940px" y2="94.4655492px" gradientUnits="userSpaceOnUse"><stop stop-color="rgba(0, 57, 97, 0.75)" offset="0%"></stop><stop stop-color="#1977A6" offset="100%"></stop></linearGradient><linearGradient id="i3" x1="940px" y1="0px" x2="940px" y2="84px" gradientUnits="userSpaceOnUse"><stop stop-color="rgba(4, 51, 71, 0)" offset="0%"></stop><stop stop-color="#05D8FF" offset="100%"></stop></linearGradient><clipPath id="i4"><path d="M8,0 C12.418278,0 16,3.581722 16,8 C16,12.418278 12.418278,16 8,16 C3.581722,16 0,12.418278 0,8 C0,3.581722 3.581722,0 8,0 Z"></path></clipPath><clipPath id="i5"><path d="M81.5066725,16.5885057 C83.9873842,16.5885057 85.2277401,17.7011494 85.2277401,19.9264368 C85.2277401,20.3310345 85.2107489,20.6344828 85.1767666,20.8367816 L83.4946401,39.5494253 C83.290746,41.1678161 82.857471,42.3141762 82.1948151,42.9885057 C81.5321593,43.6628352 80.4872019,44 79.0599431,44 C78.1084372,44 77.0719755,43.9241379 75.9505579,43.7724138 C74.8291402,43.6206897 73.9795814,43.4268199 73.4018814,43.1908046 L73.7586961,38.891954 C75.5937432,39.3639847 76.9530373,39.6 77.8365784,39.6 C78.2443667,39.6 78.5247211,39.5157088 78.6776417,39.3471264 C78.8305622,39.1785441 78.9410049,38.8076628 79.0089696,38.2344828 L79.2638372,35.2 L69.3239991,35.2 L68.4064756,43.8988506 L63.8698315,43.8988506 L66.2655874,20.7356322 C66.4354992,19.2521073 66.851783,18.1900383 67.5144389,17.5494253 C68.1770947,16.9088123 69.2220521,16.5885057 70.6493109,16.5885057 L81.5066725,16.5885057 Z M15.7508204,0.75862069 C14.459491,3.82681992 13.2701087,6.49042146 12.1826734,8.74942529 L8.30868519,43.7977011 L3.61912054,43.7977011 L6.52461168,19.8758621 L5.04637935,22.5563218 L0,22.5057471 C2.0729235,19.1003831 4.12885583,15.3241379 6.16779698,11.1770115 C6.74549697,10.0306513 7.54408226,8.31111111 8.56355283,6.0183908 L10.8063881,0.75862069 L15.7508204,0.75862069 Z M93.2305841,21.5448276 L92.4659812,28.2712644 C97.1215635,27.3609195 101.318384,26.3157088 105.056443,25.1356322 L104.546708,29.7885057 C103.017502,30.3279693 101.080508,30.867433 98.7357252,31.4068966 C96.0511194,32.0137931 93.8082841,32.4689655 92.0072194,32.7724138 L91.4465106,37.7793103 C91.2765988,38.6559387 91.6843871,39.0942529 92.6698753,39.0942529 L96.0851017,39.0942529 C97.5803252,39.0942529 99.1690002,38.9172414 100.851127,38.5632184 C102.533253,38.2091954 104.053963,37.6950192 105.413257,37.0206897 L104.750602,42.0781609 C103.629184,42.5501916 102.235908,42.9210728 100.570772,43.1908046 C98.905637,43.4605364 97.2065194,43.5954023 95.4734194,43.5954023 L90.6309342,43.5954023 C89.2036753,43.5954023 88.158718,43.3003831 87.4960621,42.7103448 C86.8334063,42.1203065 86.5020783,41.2521073 86.5020783,40.1057471 C86.5020783,39.7011494 86.5190695,39.3808429 86.5530518,39.1448276 L88.4900459,21.5448276 L93.2305841,21.5448276 Z M35.7324437,0.354022989 L35.1207613,5.6137931 L39.7083789,5.6137931 L39.3005907,9.05287356 C40.0482024,7.63678161 40.7958142,6.00153257 41.5434259,4.14712644 L46.1820171,4.14712644 C44.5168818,8.15938697 42.6648436,11.6827586 40.6259024,14.7172414 L45.7742288,14.7172414 L45.3664406,18.8137931 L37.5165172,18.8137931 C36.4630642,20.1287356 35.2906731,21.3425287 33.9993437,22.4551724 L39.2496172,22.4551724 C40.4050171,22.4551724 41.3055495,22.7670498 41.9512142,23.3908046 C42.5968789,24.0145594 42.9197112,24.8996169 42.9197112,26.045977 C42.9197112,26.4168582 42.90272,26.7034483 42.8687377,26.9057471 L40.8807701,43.5448276 L23.3968497,43.5448276 L25.2828703,28.4229885 C24.0934879,28.9961686 23.1589732,29.4176245 22.4793262,29.6873563 L19.6757821,26.3494253 C24.5012762,24.6298851 28.5961496,22.1180077 31.9604025,18.8137931 L22.4793262,18.8137931 L22.8871144,14.7172414 L29.8195143,14.7172414 L30.3802231,9.65977011 L24.9260556,9.65977011 L25.3848173,5.6137931 L30.7880114,5.6137931 L31.3996937,0.354022989 L35.7324437,0.354022989 Z M152.614745,0 L151.952089,5.71494253 L162.65653,5.71494253 C164.253701,5.71494253 165.426092,6.11111111 166.173704,6.90344828 C166.921316,7.69578544 167.210166,8.85057471 167.040254,10.3678161 L164.746445,31.6091954 L148.944651,31.6091954 L148.281995,37.5264368 L148.231022,37.9310345 C148.231022,38.2681992 148.341464,38.4957854 148.56235,38.6137931 C148.783235,38.7318008 149.165536,38.7908046 149.709254,38.7908046 L156.488733,38.7908046 C161.008386,38.7908046 164.950339,38.251341 168.314592,37.1724138 L167.70291,42.1287356 C164.23671,43.0390805 160.515642,43.4942529 156.539707,43.4942529 L147.92518,43.4942529 C146.260045,43.4942529 145.028185,43.1570881 144.2296,42.4827586 C143.431014,41.8084291 143.031722,40.7632184 143.031722,39.3471264 C143.031722,39.3021711 143.0334,39.2472258 143.036756,39.1822903 L143.051859,38.9575138 C143.068641,38.7452249 143.095911,38.4704981 143.133669,38.1333333 L143.898272,31.6091954 L128.810107,31.6091954 L131.460731,10.0137931 C131.664625,8.42911877 132.140378,7.3164751 132.887989,6.67586207 C133.635601,6.03524904 134.858966,5.71494253 136.558084,5.71494253 L146.90571,5.71494253 L147.568366,0 L152.614745,0 Z M222.856268,0.708045977 L221.887771,8.44597701 L233,8.44597701 L232.439291,12.7954023 L221.327062,12.7954023 L220.358565,20.583908 L226.016627,20.583908 C229.007074,20.583908 230.349377,22.1180077 230.043535,25.1862069 L227.8007,43.291954 L206.085977,43.291954 L208.277839,25.2367816 C208.481733,23.6858238 208.991468,22.5226054 209.807044,21.7471264 C210.622621,20.9716475 211.795012,20.583908 213.324218,20.583908 L215.567053,20.583908 L218.064756,0.708045977 L222.856268,0.708045977 Z M17.636841,14.5149425 C19.6417998,14.5149425 20.5423321,15.4252874 20.338438,17.245977 L18.1975498,35.6045977 C18.1975498,35.6383142 18.1890542,35.6720307 18.172063,35.7057471 C18.1550718,35.7394636 18.1635674,35.7900383 18.1975498,35.8574713 C18.1975498,36.194636 18.4014439,36.262069 18.8092321,36.0597701 C20.0325968,35.3180077 21.306935,34.3908046 22.6322468,33.2781609 L22.7851674,38.0827586 C22.2074674,38.5547893 21.595785,39.0099617 20.9501203,39.4482759 L19.9306497,40.0551724 L18.6563115,40.7632184 C17.5009115,41.4038314 16.5494057,41.7241379 15.8017939,41.7241379 C14.4424998,41.7241379 13.7628528,40.7295019 13.7628528,38.7402299 C13.7628528,38.0996169 13.7968351,37.5938697 13.8647998,37.2229885 L15.9547145,18.9149425 L12.2846204,18.9149425 L12.8453292,14.5149425 L17.636841,14.5149425 Z M206.646686,14.4137931 C205.933056,17.6505747 205.185444,20.6344828 204.40385,23.3655172 C203.180486,27.7149425 202.22898,30.9685824 201.549333,33.1264368 L205.98403,32.1655172 L205.474294,36.7172414 C200.6488,37.8298851 194.447021,39.0942529 186.868956,40.5103448 L187.480639,35.7563218 L192.11923,34.9471264 C194.2941,34.5762452 195.87428,34.2896552 196.859768,34.0873563 C197.879239,30.8168582 198.864727,27.3609195 199.816233,23.7195402 C199.898761,23.401642 199.984757,23.0658535 200.074221,22.7121745 L200.257772,21.9809628 C200.759571,19.9674547 201.360003,17.4450648 202.059068,14.4137931 L206.646686,14.4137931 Z M37.3635966,34.9471264 L28.9529643,34.9471264 L28.3922555,39.4482759 L36.8538613,39.4482759 L37.3635966,34.9471264 Z M225.252024,24.8827586 L213.06935,24.8827586 L211.489171,38.9425287 L223.569897,38.9425287 L225.252024,24.8827586 Z M195.075695,14.6666667 L196.401006,31.3057471 L192.017283,31.3057471 L190.793918,14.6666667 L195.075695,14.6666667 Z M79.8755196,28.0183908 L70.0886021,28.0183908 L69.7317874,31.154023 L79.6206519,31.154023 L79.8755196,28.0183908 Z M38.3830672,26.6022989 L29.9724349,26.6022989 L29.4117261,31.1034483 L37.8223583,31.1034483 L38.3830672,26.6022989 Z M160.821483,20.7862069 L150.218989,20.7862069 L149.50536,27.0574713 L160.107854,27.0574713 L160.821483,20.7862069 Z M145.17261,20.7862069 L135.079851,20.7862069 L134.315248,27.0574713 L144.408007,27.0574713 L145.17261,20.7862069 Z M80.5381755,20.8367816 L70.853205,20.8367816 L70.4963903,23.9724138 L80.2323343,23.9724138 L80.5381755,20.8367816 Z M95.1166047,0.708045977 L94.5049223,6.62528736 C97.6312988,6.0183908 101.760155,4.92260536 106.89149,3.33793103 L106.381755,7.94022989 C103.493255,8.98544061 99.3813899,9.98007663 94.0461606,10.9241379 L93.7403194,13.908046 C93.7063371,14.0091954 93.6893459,14.1440613 93.6893459,14.3126437 C93.6893459,14.9532567 94.1311165,15.2735632 95.0146576,15.2735632 L98.327937,15.2735632 C101.55626,15.2735632 104.546708,14.5992337 107.299278,13.2505747 L106.636622,18.2574713 C104.427769,19.235249 101.454313,19.7241379 97.7162546,19.7241379 L92.9247429,19.7241379 C91.4974841,19.7241379 90.4525268,19.4291188 89.7898709,18.8390805 C89.1272151,18.2490421 88.7958871,17.3808429 88.7958871,16.2344828 C88.7958871,15.8636015 88.8128783,15.5601533 88.8468606,15.3241379 L90.3760665,0.708045977 L95.1166047,0.708045977 Z M161.993874,10.2666667 L151.39138,10.2666667 L150.728725,16.3356322 L161.280245,16.3356322 L161.993874,10.2666667 Z M146.345001,10.2666667 L136.456137,10.2666667 L135.64056,16.3356322 L145.682345,16.3356322 L146.345001,10.2666667 Z M79.1618902,0.606896552 C78.0064902,2.42758621 76.7491431,4.24827586 75.389849,6.06896552 C74.3703785,7.41762452 73.2319697,8.78314176 71.9746226,10.1655172 C75.5087873,9.92950192 78.6521549,9.54176245 81.4047254,9.00229885 L80.2833078,4.09655172 L84.6670313,4.09655172 L87.5215489,15.5264368 L82.9849048,15.5264368 L82.424196,13.1494253 C78.8900314,13.7563218 74.421352,14.262069 69.018158,14.6666667 C68.2025815,14.7340996 67.4889521,14.6329502 66.8772697,14.3632184 C66.2655874,14.0934866 65.840808,13.7226054 65.6029315,13.2505747 C65.4330198,12.91341 65.3480639,12.5762452 65.3480639,12.2390805 C65.3480639,11.497318 65.7218698,10.7049808 66.4694815,9.86206897 C68.3045285,7.80536398 70.6493109,4.72030651 73.5038285,0.606896552 L79.1618902,0.606896552 Z M38.943776,9.65977011 L34.7129731,9.65977011 L34.1522643,14.7172414 L35.6304966,14.7172414 C36.8198789,13.2 37.9243054,11.5141762 38.943776,9.65977011 Z M200.682783,0.809195402 L201.957121,7.53563218 L208.58368,7.53563218 L208.073944,11.783908 L189.468606,11.783908 L189.978342,7.53563218 L197.31853,7.53563218 L196.095165,0.809195402 L200.682783,0.809195402 Z M20.0325968,2.73103448 L22.5302997,11.1264368 L18.0446292,11.1264368 L15.6488733,2.73103448 L20.0325968,2.73103448 Z"></path></clipPath><linearGradient id="i6" x1="116.5px" y1="0px" x2="116.5px" y2="44px" gradientUnits="userSpaceOnUse"><stop stop-color="#D6F7FF" offset="0%"></stop><stop stop-color="#74E1FF" offset="100%"></stop></linearGradient><clipPath id="i7"><path d="M32.3653333,25.5057737 C35.3508148,25.5057737 36.6908889,27.0300231 36.3855556,30.0785219 L35.1642222,42.8314088 L2.84977778,42.8314088 L4.22377778,30.1293303 C4.56303704,27.0469592 6.22540741,25.5057737 9.21088889,25.5057737 L32.3653333,25.5057737 Z M31.2457778,30.0785219 L9.26177778,30.0785219 L8.44755556,38.1570439 L30.4824444,38.1570439 L31.2457778,30.0785219 Z M26.3095556,0 L25.5462222,6.24942263 L39.5406667,6.24942263 L39.0317778,10.8221709 L24.9864444,10.8221709 L24.274,17.1224018 L41.9324444,17.1224018 L41.4235556,21.6443418 L0,21.6443418 L0.559777778,17.1224018 L18.9815556,17.1224018 L19.7448889,10.8221709 L9.36355556,10.8221709 C9.16,11.2625096 8.63414815,12.295612 7.786,13.9214781 C7.71814815,14.0908391 7.62485185,14.2771363 7.50611111,14.4803695 C7.38737037,14.6836028 7.26014815,14.9207082 7.12444444,15.1916859 L1.67933333,15.1916859 C3.17207407,12.4141647 4.34251852,10.0939184 5.19066667,8.23094688 C5.86918519,6.74056967 6.78518519,4.50500385 7.93866667,1.52424942 L13.282,1.52424942 C12.7731111,2.91301001 12.1624444,4.48806774 11.45,6.24942263 L20.2537778,6.24942263 L21.0171111,0 L26.3095556,0 Z"></path></clipPath><linearGradient id="i8" x1="20.9662222px" y1="0px" x2="20.9662222px" y2="42.8314088px" gradientUnits="userSpaceOnUse"><stop stop-color="#D7F8FF" offset="0%"></stop><stop stop-color="#8EE7FF" offset="100%"></stop></linearGradient><clipPath id="i9"><path d="M34.1973333,35.0069284 C35.5204444,35.0069284 36.4788519,35.26097 37.0725556,35.7690531 C37.6662593,36.2771363 37.8952593,37.1239415 37.7595556,38.3094688 L37.098,43.3394919 L3.10422222,43.3394919 L3.76577778,38.3602771 C3.93540741,37.1747498 4.37644444,36.3194765 5.08888889,35.7944573 C5.80133333,35.269438 6.83607407,35.0069284 8.19311111,35.0069284 L34.1973333,35.0069284 Z M32.7215556,37.9538106 L8.75288889,37.9538106 L8.39666667,40.2401848 L32.3653333,40.2401848 L32.7215556,37.9538106 Z M37.1997778,30.8406467 L36.8944444,33.5842956 L5.19066667,33.5842956 L5.496,30.8406467 L37.1997778,30.8406467 Z M37.4033333,26.6235566 L37.098,29.3672055 L5.39422222,29.3672055 L5.69955556,26.6235566 L37.4033333,26.6235566 Z M9.10911111,6.96073903 C8.97340741,7.16397229 8.88859259,7.31639723 8.85466667,7.41801386 C8.71896296,7.62124711 8.63414815,7.77367206 8.60022222,7.87528868 L19.9993333,7.87528868 C21.1528148,7.87528868 21.984,8.09545804 22.4928889,8.53579677 C23.0017778,8.97613549 23.2562222,9.70438799 23.2562222,10.7205543 C23.2562222,12.1431871 22.916963,14.7513472 22.2384444,18.5450346 C22.1366667,18.9853734 21.984,19.3579677 21.7804444,19.6628176 L24.0195556,19.6628176 L24.9864444,22 L42.7975556,22 L42.4922222,25.2009238 L0.712444444,25.2009238 L1.06866667,22 L19.9484444,22 L19.5413333,21.0854503 C19.1681481,21.1193226 18.6847037,21.0939184 18.091,21.0092379 C17.4972963,20.9245574 17.0308148,20.8314088 16.6915556,20.7297921 C16.3183704,20.6620477 15.9112593,20.5604311 15.4702222,20.4249423 L15.8773333,17.3764434 L16.7424444,17.6812933 L17.5057778,17.8337182 C17.6075556,17.8675905 17.7262963,17.8845266 17.862,17.8845266 C17.9977037,17.8845266 18.0994815,17.8421863 18.1673333,17.7575058 C18.2351852,17.6728253 18.303037,17.4949962 18.3708889,17.2240185 C18.6762222,15.6997691 18.8712963,14.3448807 18.9561111,13.1593533 C19.0409259,11.973826 19.1002963,11.2455735 19.1342222,10.9745958 L6.66644444,10.9745958 L5.75044444,12.295612 C6.12362963,12.1939954 6.5477037,12.1431871 7.02266667,12.1431871 L13.282,12.1431871 C14.1301481,12.1431871 14.7323333,12.3210162 15.0885556,12.6766744 C15.4447778,13.0323326 15.6228889,13.582756 15.6228889,14.3279446 C15.6228889,14.7005389 15.6059259,14.9884527 15.572,15.1916859 L15.0122222,19.2055427 L3.664,19.2055427 L4.22377778,14.4295612 L4.22377778,14.1755196 L0,14.1755196 C1.79807407,11.9060816 3.42651852,9.50115473 4.88533333,6.96073903 L9.10911111,6.96073903 Z M34.0955556,0.152424942 C33.5527407,1.4395689 33.1456296,2.37105466 32.8742222,2.94688222 L44.3751111,2.94688222 L43.968,6.55427252 L41.5762222,6.55427252 C40.4905926,9.39953811 38.9808889,11.8383372 37.0471111,13.8706697 C38.8112593,15.0900693 41.1691111,16.4618938 44.1206667,17.9861432 L41.0673333,20.9330254 C38.4211111,19.578137 36.0632593,18.1046959 33.9937778,16.5127021 C31.9242963,18.0030793 29.4477037,19.3918399 26.564,20.6789838 L23.6633333,17.7829099 C25.4614074,16.9699769 26.9202222,16.2840647 28.0397778,15.7251732 C29.1593333,15.1662818 30.1771111,14.56505 31.0931111,13.9214781 C30.211037,13.0069284 29.3968148,12.0415704 28.6504444,11.0254042 L28.3451111,11.5842956 L27.9888889,12.1431871 L23.4597778,12.1431871 C26.2417037,7.36720554 28.3281481,3.37028483 29.7191111,0.152424942 L34.0955556,0.152424942 Z M12.1624444,14.7344111 L7.63333333,14.7344111 L7.37888889,16.7667436 L11.8571111,16.7667436 L12.1624444,14.7344111 Z M37.4542222,6.55427252 L31.0931111,6.55427252 L30.8895556,6.96073903 L30.686,7.36720554 C31.7716296,8.99307159 32.9081481,10.3648961 34.0955556,11.482679 C35.3508148,10.2294072 36.4703704,8.58660508 37.4542222,6.55427252 Z M11.908,0 L11.6535556,1.93071594 L16.5388889,1.93071594 L16.7933333,0 L20.9662222,0 L20.7117778,1.93071594 L25.6988889,1.93071594 L25.2917778,5.13163972 L20.3046667,5.13163972 L20.152,6.55427252 L15.9791111,6.55427252 L16.1317778,5.13163972 L11.2464444,5.13163972 L11.0937778,6.55427252 L6.92088889,6.55427252 L7.07355556,5.13163972 L1.98466667,5.13163972 L2.39177778,1.93071594 L7.48066667,1.93071594 L7.73511111,0 L11.908,0 Z"></path></clipPath><linearGradient id="i10" x1="22.1875556px" y1="0px" x2="22.1875556px" y2="43.3394919px" gradientUnits="userSpaceOnUse"><stop stop-color="#D7F8FF" offset="0%"></stop><stop stop-color="#8EE7FF" offset="100%"></stop></linearGradient><clipPath id="i11"><path d="M22.0857778,0 C18.2521481,6.26635874 14.1640741,11.8214011 9.82155556,16.665127 L32.976,16.665127 C34.5705185,16.665127 35.6900741,17.1224018 36.3346667,18.0369515 C36.9792593,18.9515012 37.3015556,20.2386451 37.3015556,21.8983834 C37.3015556,23.2193995 37.0640741,25.3025404 36.5891111,28.147806 L36.2328889,30.3833718 C35.7918519,33.3641263 35.3338519,36.2263279 34.8588889,38.9699769 C34.6214074,40.2909931 34.137963,41.2817552 33.4085556,41.9422633 C32.6791481,42.6027714 31.7207407,42.9330254 30.5333333,42.9330254 C29.9905185,42.9330254 29.5664444,42.8991532 29.2611111,42.8314088 C26.580963,42.3571978 23.341037,41.4765204 19.5413333,40.1893764 L20.0502222,35.2101617 C23.341037,36.3279446 26.2586667,37.0900693 28.8031111,37.4965358 C28.9388148,37.530408 29.1254074,37.5473441 29.3628889,37.5473441 C29.6003704,37.5473441 29.7615185,37.4880677 29.8463333,37.369515 C29.9311481,37.2509623 30.0074815,36.9884527 30.0753333,36.5819861 C30.8895556,31.8060046 31.5171852,26.7251732 31.9582222,21.3394919 L20.3046667,21.3394919 C19.1172593,26.0816012 17.387037,30.1801386 15.114,33.6351039 C12.7052593,37.2933025 9.65192593,40.4264819 5.954,43.034642 L0.966888889,40.6974596 C4.93622222,37.9199384 8.05740741,34.939184 10.3304444,31.7551963 C12.4677778,28.7066975 14.0283704,25.234796 15.0122222,21.3394919 L8.95644444,21.3394919 L9.41444444,17.1224018 L7.53155556,19.1039261 L5.54688889,21.0854503 L0,19.5103926 C3.39259259,16.3264049 6.51377778,12.939184 9.36355556,9.34872979 C11.5687407,6.60508083 13.756963,3.48883757 15.9282222,0 L22.0857778,0 Z M32.0091111,0 C33.8071852,3.08237105 35.740963,6.06312548 37.8104444,8.94226328 C40.3548889,12.4988453 42.9671852,15.8860662 45.6473333,19.1039261 L40.1004444,20.6281755 C37.4881481,17.2748268 35.1302963,14.0061586 33.0268889,10.8221709 C31.4662963,8.51886066 29.2102222,4.91147036 26.2586667,0 L32.0091111,0 Z"></path></clipPath><linearGradient id="i12" x1="22.8236667px" y1="0px" x2="22.8236667px" y2="43.034642px" gradientUnits="userSpaceOnUse"><stop stop-color="#D7F8FF" offset="0%"></stop><stop stop-color="#8EE7FF" offset="100%"></stop></linearGradient><clipPath id="i13"><path d="M45.9017778,0.863741339 L45.342,5.84295612 C39.6424444,6.75750577 34.333037,7.41801386 29.4137778,7.82448037 L28.4977778,15.7505774 L46.0544444,15.7505774 L45.5455556,20.4757506 L39.8968889,20.4757506 L37.4033333,43.9491917 L32.518,43.9491917 L35.0115556,20.4757506 L27.9888889,20.4757506 C27.4121481,25.725943 26.4791852,30.4511162 25.19,34.6512702 C23.9347407,38.7836798 22.5946667,41.899923 21.1697778,44 L16.2335556,42.6281755 C17.7941481,40.1555042 19.1511852,37.1408776 20.3046667,33.5842956 C21.6277778,29.4518861 22.4759259,25.3364126 22.8491111,21.2378753 L24.4266667,7.46882217 C24.5962963,5.91070054 24.9525185,4.83525789 25.4953333,4.24249423 C26.0381481,3.64973056 26.9711111,3.30254042 28.2942222,3.20092379 C30.8386667,2.96381832 33.5357778,2.65896844 36.3855556,2.28637413 C40.2191852,1.77829099 43.3912593,1.30408006 45.9017778,0.863741339 Z M17.5566667,0 L16.488,8.48498845 L21.6786667,8.48498845 L21.2206667,12.9561201 L15.9282222,12.9561201 L15.8264444,14.0230947 C17.7941481,17.4441878 19.5922222,20.8822171 21.2206667,24.3371824 L17.5057778,26.6235566 C16.4201481,23.9137798 15.572,21.9491917 14.9613333,20.7297921 L12.1115556,43.6951501 L7.37888889,43.6951501 L9.92333333,23.1177829 C8.26096296,25.9630485 6.19148148,28.8591224 3.71488889,31.8060046 L0,29.5704388 C4.03718519,24.8283295 7.73511111,19.2902232 11.0937778,12.9561201 L4.07111111,12.9561201 L4.58,8.48498845 L11.7553333,8.48498845 L12.824,0 L17.5566667,0 Z"></path></clipPath><linearGradient id="i14" x1="23.0272222px" y1="0px" x2="23.0272222px" y2="44px" gradientUnits="userSpaceOnUse"><stop stop-color="#D7F8FF" offset="0%"></stop><stop stop-color="#8EE7FF" offset="100%"></stop></linearGradient></defs><g transform="translate(-20.0 -12.0)"><g clip-path="url(#i0)"><g transform="translate(20.0 12.0)"><g clip-path="url(#i1)"><polygon points="0,0 1880,0 1880,84 0,84 0,0" stroke="none" fill="url(#i2)"></polygon></g><g clip-path="url(#i1)"><path d="M1880,0 L1880,34 C1880,42.836556 1872.83656,50 1864,50 L1424,50 L1424,68 C1424,76.836556 1416.83656,84 1408,84 L472,84 C463.163444,84 456,76.836556 456,68 L456,50 L16,50 C7.163444,50 2.23984481e-14,42.836556 0,34 L0,0 L1880,0 Z" stroke="url(#i3)" stroke-width="2" fill="none" stroke-miterlimit="5"></path></g><g transform="translate(607.0 34.0)"><g clip-path="url(#i4)"><polygon points="0,0 16,0 16,16 0,16 0,0" stroke="none" fill="#53D1FF"></polygon></g></g><g transform="translate(1253.0 34.0)"><g clip-path="url(#i4)"><polygon points="0,0 16,0 16,16 0,16 0,0" stroke="none" fill="#53D1FF"></polygon></g></g><g transform="translate(697.0000000000001 18.999999999999993)"><g clip-path="url(#i5)"><polygon points="0,0 233,0 233,44 0,44 0,0" stroke="none" fill="url(#i6)"></polygon></g><g transform="translate(250.00000000000003 1.0)"><g transform="translate(0.0 0.30484988452656125)"><g clip-path="url(#i7)"><polygon points="0,0 41.9324444,0 41.9324444,42.8314088 0,42.8314088 0,0" stroke="none" fill="url(#i8)"></polygon></g></g><g transform="translate(61.11755555555556 0.10161662817546357)"><g clip-path="url(#i9)"><polygon points="0,0 44.3751111,0 44.3751111,43.3394919 0,43.3394919 0,0" stroke="none" fill="url(#i10)"></polygon></g></g><g transform="translate(122.23511111111019 0.6096997690531225)"><g clip-path="url(#i11)"><polygon points="0,0 45.6473333,0 45.6473333,43.034642 0,43.034642 0,0" stroke="none" fill="url(#i12)"></polygon></g></g><g transform="translate(182.94555555555507 0.0)"><g clip-path="url(#i13)"><polygon points="0,0 46.0544444,0 46.0544444,44 0,44 0,0" stroke="none" fill="url(#i14)"></polygon></g></g></g></g></g></g></g></svg>