<?xml version="1.0" encoding="UTF-8"?><svg version="1.1" width="423px" height="31px" viewBox="0 0 423.0 31.0" xmlns="http://www.w3.org/2000/svg" xmlns:xlink="http://www.w3.org/1999/xlink"><defs><clipPath id="i0"><path d="M1920,0 L1920,1080 L0,1080 L0,0 L1920,0 Z"></path></clipPath><clipPath id="i1"><path d="M35.9622803,0.00197009228 L36.3346533,0.0056864295 C36.893675,0.0122038222 37.4576636,0.0219962465 38.0655958,0.0219962465 L421.907071,0.188662913 L421.907071,19.1886629 L0.314988853,19.1886629 C-1.7609917,17.1886629 6.42457008,11.2779261 24.8716742,1.45645233 C30.317627,0.22193348 32.9327955,0.0155184871 35.2116839,0.000890191334 L35.7758437,0.000744693745 C35.8380705,0.00106492696 35.9001982,0.0014793682 35.9622803,0.00197009228 Z"></path></clipPath><linearGradient id="i2" x1="421.907071px" y1="9.59433146px" x2="-4.68410945e-14px" y2="9.59433146px" gradientUnits="userSpaceOnUse"><stop stop-color="rgba(10, 55, 88, 0)" offset="0%"></stop><stop stop-color="#0BB9B2" offset="100%"></stop></linearGradient><clipPath id="i3"><path d="M14,0 C15.1045695,-2.02906125e-16 16,0.8954305 16,2 L16,14 C16,15.1045695 15.1045695,16 14,16 L2,16 C0.8954305,16 1.3527075e-16,15.1045695 0,14 L0,2 C-1.3527075e-16,0.8954305 0.8954305,2.02906125e-16 2,0 L14,0 Z"></path></clipPath><radialGradient id="i4" cx="8.26695463px" cy="7.31461155px" r="8.68949005px" gradientTransform="translate(15.832087244456101 -0.7237246982887021) rotate(91.76049236493496)" gradientUnits="userSpaceOnUse"><stop stop-color="#033441" offset="0%"></stop><stop stop-color="#01FFF5" offset="100%"></stop></radialGradient><clipPath id="i5"><path d="M7,0 C7.55228475,-1.01453063e-16 8,0.44771525 8,1 L8,7 C8,7.55228475 7.55228475,8 7,8 L1,8 C0.44771525,8 6.76353751e-17,7.55228475 0,7 L0,1 C-6.76353751e-17,0.44771525 0.44771525,1.01453063e-16 1,0 L7,0 Z"></path></clipPath></defs><g transform="translate(-38.0 -138.0)"><g clip-path="url(#i0)"><g transform="translate(38.128325789481494 138.0000000000001)"><g transform="translate(0.0 11.811337086882869)"><g clip-path="url(#i1)"><polygon points="-5.88959145e-17,5.1214735e-17 421.907071,5.1214735e-17 421.907071,19.1886629 -5.88959145e-17,19.1886629 -5.88959145e-17,5.1214735e-17" stroke="none" fill="url(#i2)"></polygon></g></g><g transform="translate(17.87167421051845 3.272077938642134) rotate(44.99999999999999)"><g clip-path="url(#i3)"><polygon points="0,5.68434189e-14 16,5.68434189e-14 16,16 0,16 0,5.68434189e-14" stroke="none" fill="url(#i4)"></polygon></g></g><g transform="translate(20.87167421051845 17.0)"><g clip-path="url(#i5)"><polygon points="0,0 8,0 8,8 0,8 0,0" stroke="none" fill="#A8EEEB"></polygon></g></g></g></g></g></svg>