<?xml version="1.0" encoding="UTF-8"?>
<svg id="_图层_2" data-name=" 图层 2" xmlns="http://www.w3.org/2000/svg" viewBox="0 0 118.43 212.94">
  <defs>
    <style>
      .cls-1 {
        fill: #00ff06;
      }

      .cls-2 {
        fill: #ff0808;
      }
    </style>
  </defs>
  <path class="cls-2" d="M59.35,118.16c-15.78,0-30.62-6.15-41.78-17.3C6.41,89.7,.26,74.86,.26,59.08S6.41,28.46,17.57,17.3,43.57,0,59.35,0s30.62,6.15,41.78,17.3c11.16,11.16,17.3,26,17.3,41.78s-6.15,30.62-17.3,41.78-26,17.3-41.78,17.3Zm0-113.28c-29.89,0-54.2,24.32-54.2,54.2s24.31,54.2,54.2,54.2,54.2-24.31,54.2-54.2S89.23,4.88,59.35,4.88Z"/>
  <path class="cls-1" d="M59.08,212.94c-15.78,0-30.62-6.15-41.78-17.3S0,169.63,0,153.85s6.15-30.62,17.3-41.78c11.15-11.16,26-17.3,41.78-17.3s30.62,6.15,41.78,17.3,17.3,26,17.3,41.78-6.15,30.62-17.3,41.78-26,17.3-41.78,17.3h0Zm0-113.27c-29.89,0-54.2,24.31-54.2,54.2s24.31,54.2,54.2,54.2,54.2-24.31,54.2-54.2-24.31-54.2-54.2-54.2Z"/>
</svg>