<?xml version="1.0" encoding="UTF-8"?><svg version="1.1" width="220px" height="42px" viewBox="0 0 220.0 42.0" xmlns="http://www.w3.org/2000/svg" xmlns:xlink="http://www.w3.org/1999/xlink"><defs><clipPath id="i0"><path d="M1920,0 L1920,1080 L0,1080 L0,0 L1920,0 Z"></path></clipPath><clipPath id="i1"><path d="M216,0 C218.209139,-4.05812251e-16 220,1.790861 220,4 L220,38 C220,40.209139 218.209139,42 216,42 L4,42 C1.790861,42 2.04689834e-15,40.209139 0,38 L0,4 C-2.705415e-16,1.790861 1.790861,4.05812251e-16 4,0 L216,0 Z"></path></clipPath><radialGradient id="i2" cx="107.998871px" cy="21px" r="27.1884192px" gradientTransform="translate(224.5432245881275 -86.99887143633764) rotate(90.0) scale(1.0 5.549731102466188)" gradientUnits="userSpaceOnUse"><stop stop-color="#0A3758" offset="0%"></stop><stop stop-color="#2BC3FF" offset="100%"></stop></radialGradient></defs><g transform="translate(-21.0 -72.0)"><g clip-path="url(#i0)"><g transform="translate(21.0 72.0)"><g clip-path="url(#i1)"><polygon points="0,0 220,0 220,42 0,42 0,0" stroke="none" fill="url(#i2)"></polygon></g></g></g></g></svg>