<?xml version="1.0" encoding="UTF-8"?>
<svg id="_图层_1" data-name="图层 1" xmlns="http://www.w3.org/2000/svg" xmlns:xlink="http://www.w3.org/1999/xlink" viewBox="0 0 102.5 112">
  <defs>
    <style>
      .cls-1 {
        fill: #dd8919;
      }

      .cls-1, .cls-2, .cls-3, .cls-4, .cls-5 {
        fill-rule: evenodd;
      }

      .cls-2 {
        fill: #c1a11b;
      }

      .cls-3 {
        fill: #99811c;
      }

      .cls-4 {
        fill: #f0eb4d;
      }

      .cls-5 {
        fill: url(#_未命名的渐变_334);
      }
    </style>
    <linearGradient id="_未命名的渐变_334" data-name="未命名的渐变 334" x1=".99" y1="57.42" x2="101" y2="57.42" gradientUnits="userSpaceOnUse">
      <stop offset="0" stop-color="#f0eb4d"/>
      <stop offset="1" stop-color="#d3c513"/>
    </linearGradient>
  </defs>
  <path class="cls-5" d="M26.63,33.68S22.07,3.41,51.63,3.52c28.38,.11,24.36,30.16,24.36,30.16,0,0,4.76,.12,4.49,8.34-.19,5.75-5.54,7.65-5.77,8.34-.21,.6-2.04,5.78-4.49,9.63-2.25,3.53-5.13,5.77-5.13,5.77v4.49s4,4.1,8.98,6.42c6.53,3.04,14.07,3.98,17.95,6.42,1.86,1.17,5.07,4.28,6.41,7.7,2.61,6.62,2.56,14.76,2.56,14.76,0,0-5.03,5.88-46.8,5.77-41.45-.1-53.21-5.77-53.21-5.77,0,0-.03-6.68,1.92-12.83,1.27-4,4.23-7.96,5.77-8.98,4.37-2.92,10.35-3.34,17.31-6.42,5.9-2.61,10.9-6.42,10.9-6.42v-5.13s-2.82-2.68-5.13-6.42c-2.14-3.47-3.79-8-3.85-8.34-.11-.71-6.05-3.93-5.77-9.63,.36-7.41,4.49-7.7,4.49-7.7Z"/>
  <path class="cls-3" d="M50.24,3c-25.79,.25-26.29,26.31-26.29,26.31,0,0,13.45-2.77,26.98-2.77s28.37,2.77,28.37,2.77c0,0-2-26.58-29.06-26.31Z"/>
  <path class="cls-3" d="M24.94,28s5.91-1.9,25.45-1.9c22.12,0,28.37,2.77,28.37,2.77,.02,0,4.87,4.13,4.15,6.23-1.82,5.28-8.73,0-31.83,0-17.93,0-30.75,4.54-31.78,.83-.8-2.87,5.64-7.93,5.64-7.93Z"/>
  <path class="cls-1" d="M47.28,84.86l-2.56,3.21,3.85,4.49s-.05,1.97-.64,3.85c-1.14,3.61-3.21,8.34-3.21,8.34l7.05,6.42,6.41-6.42s-2.54-4.79-3.85-8.34c-.81-2.2-.64-3.85-.64-3.85l3.85-4.49-2.56-3.21h-7.69Z"/>
  <path class="cls-2" d="M36.77,70.73s-.92,10.08,2.56,17.97c3.87,8.75,12.18,22.46,12.18,22.46l-22.44-12.19,3.85-4.49-13.46-9.62,17.31-14.12Z"/>
  <path class="cls-2" d="M65.14,69.9s1.64,10.99-1.84,18.87c-3.87,8.75-12.18,22.46-12.18,22.46l22.44-12.19-3.85-4.49,13.46-9.62-18.03-15.02Z"/>
  <path class="cls-4" d="M51.67,8.31l-6.41,8.55h5.34l-1.6,6.84,5.88-9.13h-5.35l2.14-6.27Z"/>
  <path class="cls-3" d="M48.85,3.07c-.02-.11-.03-.21-.03-.32,0-1.24,1.01-2.25,2.24-2.25s2.24,1.01,2.24,2.25c0,.11-.02,.21-.03,.32h-4.42Z"/>
</svg>