<?xml version="1.0" encoding="UTF-8"?>
<svg id="_图层_1" data-name="图层 1" xmlns="http://www.w3.org/2000/svg" xmlns:xlink="http://www.w3.org/1999/xlink" viewBox="0 0 57 56.5">
  <defs>
    <style>
      .cls-1 {
        fill: url(#_未命名的渐变_7-2);
      }

      .cls-2 {
        fill: #1fe5ac;
      }

      .cls-3 {
        fill: url(#_未命名的渐变_7);
      }
    </style>
    <linearGradient id="_未命名的渐变_7" data-name="未命名的渐变 7" x1=".06" y1="28.51" x2="56" y2="28.51" gradientUnits="userSpaceOnUse">
      <stop offset="0" stop-color="#1fe5ac"/>
      <stop offset="1" stop-color="#00877b"/>
    </linearGradient>
    <linearGradient id="_未命名的渐变_7-2" data-name="未命名的渐变 7" x1=".06" y1="10.69" x2="20.42" y2="10.69" xlink:href="#_未命名的渐变_7"/>
  </defs>
  <path class="cls-3" d="M9.25,18.59c.83-.77,1.44-1.3,2.02-1.87,5.17-5.15,10.33-10.31,15.48-15.49,.5-.51,1-.74,1.71-.7,.98,.06,1.95,.02,3.13,.02-.25,.33-.4,.54-.57,.74-5.62,6.37-6.1,14.73-1.21,21.65,.5,.71,1.1,1.37,1.72,1.99,3.47,3.49,6.96,6.96,10.45,10.43,1.31,1.3,1.98,1.3,3.28,0,3.28-3.27,6.56-6.53,9.83-9.8,.24-.24,.5-.46,.92-.85v1.15c0,7.89,0,15.77,0,23.66,0,4.44-2.52,6.9-6.98,6.98-1.18,.02-1.97-.34-2.79-1.17-11.96-12.01-23.95-23.98-35.93-35.96-.25-.25-.57-.43-1.04-.78h0Zm-3.24,3.39c11.54,11.5,22.98,22.9,34.54,34.42-.37,.03-.63,.07-.9,.07-11.01,0-22.03,.01-33.04,0-3.93,0-6.54-2.64-6.55-6.58-.02-7.07,0-14.14,0-21.21,0-.33,.05-.77,.26-.98,1.88-1.93,3.81-3.84,5.68-5.71Z"/>
  <path class="cls-2" d="M55.99,13.62c-.05,3.57-1.25,6.68-3.71,9.29-2.48,2.63-4.95,5.27-7.44,7.89-1.02,1.08-1.46,1.06-2.47,0-2.42-2.55-4.83-5.12-7.26-7.66-5.4-5.66-5.21-14.12,.46-19.5,4.26-4.04,11.66-4.07,15.98-.07,2.93,2.72,4.46,6.16,4.45,10.06h0Zm-12.36-6.87c-3.47-.03-6.21,2.65-6.27,6.11-.05,3.51,2.67,6.3,6.17,6.32,3.47,.02,6.21-2.66,6.25-6.13,.05-3.53-2.64-6.28-6.16-6.3h0Z"/>
  <path class="cls-1" d="M20.42,.54L.1,20.85c-.01-.22-.03-.53-.03-.84,0-4.23,0-8.46,0-12.69C.08,3.13,2.65,.55,6.82,.54c4.26,0,8.53,0,12.79,0,.28,0,.56,0,.8,0Z"/>
</svg>