<?xml version="1.0" encoding="UTF-8"?>
<svg id="_图层_1" data-name="图层 1" xmlns="http://www.w3.org/2000/svg" xmlns:xlink="http://www.w3.org/1999/xlink" viewBox="0 0 85.5 81">
  <defs>
    <style>
      .cls-1 {
        fill: url(#_未命名的渐变_325);
      }

      .cls-2 {
        fill: #8251ed;
      }
    </style>
    <linearGradient id="_未命名的渐变_325" data-name="未命名的渐变 325" x1=".36" y1="40.48" x2="85" y2="40.48" gradientUnits="userSpaceOnUse">
      <stop offset="0" stop-color="#b389f7"/>
      <stop offset="1" stop-color="#6e45dd"/>
    </linearGradient>
  </defs>
  <path class="cls-1" d="M6.4,.52H78.95c3.34,0,6.05,2.71,6.05,6.05V30.75c0,3.34-2.71,6.05-6.05,6.05H6.4c-3.34,0-6.05-2.71-6.05-6.05V6.57C.36,3.23,3.06,.52,6.4,.52Zm0,43.64H78.95c3.34,0,6.05,2.71,6.05,6.05v24.18c0,3.34-2.71,6.05-6.05,6.05H6.4c-3.34,0-6.05-2.71-6.05-6.05v-24.18c0-3.34,2.71-6.05,6.05-6.05Z"/>
  <rect class="cls-2" x="10.15" y="16.27" width="28.37" height="6.83" rx="2.16" ry="2.16"/>
  <rect class="cls-2" x="10.15" y="59.35" width="28.37" height="6.83" rx="2.16" ry="2.16"/>
</svg>