<?xml version="1.0" encoding="UTF-8"?>
<svg id="_图层_1" data-name="图层 1" xmlns="http://www.w3.org/2000/svg" xmlns:xlink="http://www.w3.org/1999/xlink" viewBox="0 0 69.5 56">
  <defs>
    <style>
      .cls-1 {
        fill: url(#_未命名的渐变_3);
      }

      .cls-1, .cls-2, .cls-3 {
        fill-rule: evenodd;
      }

      .cls-2 {
        fill: #54a2f2;
      }

      .cls-3 {
        fill: #09142e;
      }
    </style>
    <linearGradient id="_未命名的渐变_3" data-name="未命名的渐变 3" x1="222.43" y1="-388.03" x2="223.43" y2="-388.03" gradientTransform="translate(-15348 -21314) scale(69 -55)" gradientUnits="userSpaceOnUse">
      <stop offset="0" stop-color="#54a2f2"/>
      <stop offset="1" stop-color="#326598"/>
    </linearGradient>
  </defs>
  <path class="cls-1" d="M7.97,.26H60.07c5.32,0,8.9,3.58,8.9,7.1V47.26c0,4.42-3.58,8-8.9,8H7.97C3.55,55.26-.03,51.68-.03,47.26V7.36C-.03,3.84,3.55,.26,7.97,.26Z"/>
  <path class="cls-3" d="M8.64,9.6H46.29c1.1,0,2,.9,2,2V45.92c0,1.1-.9,2-2,2H8.64c-1.1,0-2-.9-2-2V11.6c0-1.1,.9-2,2-2Z"/>
  <path class="cls-2" d="M33.37,13.31l-15.54,14.83h7.46l-3.73,16.07,15.54-16.07h-7.46l3.73-14.83Z"/>
  <path class="cls-3" d="M54.25,9.43h8.43c1.1,0,2,.9,2,2v4.65c0,1.11-.9,2-2,2h-8.43c-1.1,0-2-.9-2-2v-4.65c0-1.1,.9-2,2-2Z"/>
  <path class="cls-3" d="M54.25,24.43h8.43c1.1,0,2,.9,2,2v4.65c0,1.11-.9,2-2,2h-8.43c-1.1,0-2-.9-2-2v-4.65c0-1.1,.9-2,2-2Z"/>
  <path class="cls-3" d="M54.25,39.43h8.43c1.1,0,2,.9,2,2v4.65c0,1.11-.9,2-2,2h-8.43c-1.1,0-2-.9-2-2v-4.65c0-1.1,.9-2,2-2Z"/>
</svg>