<?xml version="1.0" encoding="UTF-8"?>
<svg id="_图层_1" data-name="图层 1" xmlns="http://www.w3.org/2000/svg" xmlns:xlink="http://www.w3.org/1999/xlink" viewBox="0 0 65.5 94">
  <defs>
    <style>
      .cls-1 {
        fill: url(#_未命名的渐变_331-4);
      }

      .cls-1, .cls-2, .cls-3, .cls-4, .cls-5, .cls-6 {
        fill-rule: evenodd;
      }

      .cls-2 {
        fill: url(#_未命名的渐变_331-2);
      }

      .cls-3 {
        fill: url(#_未命名的渐变_331-3);
      }

      .cls-4 {
        fill: #1b2c55;
        isolation: isolate;
        opacity: .5;
      }

      .cls-5 {
        fill: #74d8f5;
      }

      .cls-6 {
        fill: url(#_未命名的渐变_331);
      }
    </style>
    <linearGradient id="_未命名的渐变_331" data-name="未命名的渐变 331" x1="215.06" y1="-493.73" x2="216.06" y2="-493.73" gradientTransform="translate(-10600.89 -3946.75) scale(49.33 -8)" gradientUnits="userSpaceOnUse">
      <stop offset="0" stop-color="#4cb7f2"/>
      <stop offset="1" stop-color="#2b80af"/>
    </linearGradient>
    <linearGradient id="_未命名的渐变_331-2" data-name="未命名的渐变 331" y1="-544.03" y2="-544.03" gradientTransform="translate(-10600.89 -3257.73) scale(49.33 -6)" xlink:href="#_未命名的渐变_331"/>
    <linearGradient id="_未命名的渐变_331-3" data-name="未命名的渐变 331" x1=".83" y1="56.23" x2="64.83" y2="56.23" gradientTransform="matrix(1, 0, 0, 1, 0, 0)" xlink:href="#_未命名的渐变_331"/>
    <linearGradient id="_未命名的渐变_331-4" data-name="未命名的渐变 331" x1="19.3" y1="14.54" x2="48.63" y2="14.54" gradientTransform="matrix(1, 0, 0, 1, 0, 0)" xlink:href="#_未命名的渐变_331"/>
  </defs>
  <path class="cls-6" d="M33.96,.54c13.62,0,24.67,1.79,24.67,4s-11.04,4-24.67,4S9.3,6.75,9.3,4.54,20.34,.54,33.96,.54Z"/>
  <path class="cls-2" d="M9.3,4.54s2.73,1.34,7.33,2c4.63,.67,11.16,1.33,17.33,1.33,5.84,0,11.47-.7,16-1.33,5.03-.7,8.67-2,8.67-2v2.67s-3.45,1.29-8.67,2c-4.48,.61-10.29,1.33-16,1.33-6.35,0-12.66-.65-17.33-1.33-4.38-.64-7.33-2-7.33-2v-2.67Z"/>
  <path class="cls-4" d="M33.83,82.79c14.54,0,26.33,2.09,26.33,4.67s-11.79,4.67-26.33,4.67-26.33-2.09-26.33-4.67,11.79-4.67,26.33-4.67Z"/>
  <path class="cls-3" d="M7,19.5s13.32-1,26-1,25.5,.9,25.5,.9c3.68,0,6.33,3.52,6.33,7.21v57.36c0,5.34-6.52,10.02-31.33,10-25.78-.02-32.67-4.67-32.67-10V26.61c0-3.68,2.49-7.11,6.17-7.11Z"/>
  <path class="cls-5" d="M37.84,34.41l-16.8,22.83h14l-4.2,18.26,15.4-24.35h-14l5.6-16.74Z"/>
  <path class="cls-1" d="M19.3,8.87h29.33s-.67,2.7-.67,5.34c0,2.34,.67,4.67,.67,4.67,0,0-7.91,1.33-15.33,1.33s-14-1.33-14-1.33c0,0,.67-2.34,.67-4.67,0-2.65-.67-5.34-.67-5.34Z"/>
</svg>