<?xml version="1.0" encoding="UTF-8"?>
<svg id="_图层_1" data-name="图层 1" xmlns="http://www.w3.org/2000/svg" xmlns:xlink="http://www.w3.org/1999/xlink" viewBox="0 0 77.5 77">
  <defs>
    <style>
      .cls-1 {
        fill: url(#_未命名的渐变_7-2);
      }

      .cls-2 {
        fill: #1fe5ac;
      }

      .cls-3 {
        fill: url(#_未命名的渐变_7);
      }
    </style>
    <linearGradient id="_未命名的渐变_7" data-name="未命名的渐变 7" x1="1.05" y1="38.5" x2="77" y2="38.5" gradientUnits="userSpaceOnUse">
      <stop offset="0" stop-color="#1fe5ac"/>
      <stop offset="1" stop-color="#00877b"/>
    </linearGradient>
    <linearGradient id="_未命名的渐变_7-2" data-name="未命名的渐变 7" x1="1.06" y1="14.31" x2="28.69" y2="14.31" xlink:href="#_未命名的渐变_7"/>
  </defs>
  <path class="cls-3" d="M13.54,25.03c1.12-1.04,1.96-1.76,2.74-2.54,7.01-7,14.03-14,21.01-21.04,.68-.69,1.35-1,2.32-.95,1.32,.08,2.65,.02,4.24,.02-.34,.44-.54,.74-.77,1.01-7.63,8.64-8.29,19.99-1.65,29.4,.68,.97,1.5,1.86,2.34,2.7,4.71,4.74,9.45,9.45,14.19,14.16,1.78,1.77,2.69,1.76,4.45,0,4.45-4.43,8.9-8.87,13.35-13.3,.33-.33,.68-.63,1.25-1.15v1.56c0,10.71,0,21.41,0,32.12,0,6.03-3.42,9.37-9.48,9.47-1.6,.03-2.67-.47-3.79-1.59C47.5,58.61,31.23,42.36,14.95,26.1c-.34-.34-.77-.58-1.42-1.06h0Zm-4.4,4.6c15.66,15.61,31.2,31.09,46.89,46.73-.5,.04-.86,.1-1.22,.1-14.95,0-29.9,.02-44.85,0-5.34-.01-8.88-3.59-8.9-8.94-.03-9.6-.01-19.2,.01-28.79,0-.45,.07-1.05,.35-1.33,2.56-2.63,5.17-5.21,7.71-7.76Z"/>
  <path class="cls-2" d="M76.99,18.28c-.06,4.85-1.7,9.07-5.04,12.61-3.37,3.57-6.73,7.15-10.1,10.72-1.39,1.46-1.99,1.44-3.36-.01-3.28-3.47-6.56-6.95-9.86-10.4-7.34-7.68-7.08-19.17,.62-26.47,5.79-5.49,15.82-5.53,21.7-.09,3.98,3.69,6.05,8.37,6.04,13.65h0Zm-16.78-9.33c-4.71-.04-8.43,3.6-8.51,8.3-.07,4.76,3.63,8.55,8.38,8.57,4.71,.03,8.43-3.61,8.49-8.32,.07-4.79-3.58-8.52-8.36-8.56h0Z"/>
  <path class="cls-1" d="M28.69,.53L1.11,28.1c-.02-.3-.05-.72-.05-1.14,0-5.75-.01-11.49,0-17.23C1.08,4.05,4.57,.55,10.23,.54c5.79-.01,11.58,0,17.37,0,.38,0,.76,0,1.09,0Z"/>
</svg>