<?xml version="1.0" encoding="UTF-8"?>
<svg width="160px" height="160px" viewBox="0 0 160 160" version="1.1" xmlns="http://www.w3.org/2000/svg" xmlns:xlink="http://www.w3.org/1999/xlink">
    <title>编组 7</title>
    <defs>
        <radialGradient cx="50%" cy="50%" fx="50%" fy="50%" r="65.4835983%" id="radialGradient-1">
            <stop stop-color="#07142C" offset="0%"></stop>
            <stop stop-color="#0F3166" offset="100%"></stop>
        </radialGradient>
        <linearGradient x1="18.507636%" y1="12.1111656%" x2="77.0557104%" y2="92.703579%" id="linearGradient-2">
            <stop stop-color="#06FECE" offset="0%"></stop>
            <stop stop-color="#2597F8" offset="58.1075175%"></stop>
            <stop stop-color="#0373FE" offset="100%"></stop>
        </linearGradient>
        <path d="M78.9999701,129.990199 L79,145.992 L78.9085693,145.991158 C71.632289,145.873184 64.6422459,144.577716 58.1206844,142.286998 L63.5941486,127.246274 C68.4344566,128.926808 73.6127943,129.884514 78.9999701,129.990199 Z M95.6731212,127.49429 L101.195908,142.522817 C94.8430063,144.67581 88.0558961,145.88772 81.0005564,145.99257 L81.0010306,129.990179 C86.1169549,129.889715 91.0445333,129.02087 95.6731212,127.49429 Z M111.020423,119.216505 L121.309059,131.476912 C115.883098,135.836711 109.753266,139.356301 103.117019,141.838227 L97.6431052,126.798235 C102.509182,124.962785 107.01368,122.390149 111.020423,119.216505 Z M61.7179423,126.55218 L56.2427029,141.594944 C49.6879312,139.065078 43.638419,135.519044 38.2872915,131.149967 L48.5745494,118.892275 C52.5074222,122.074054 56.9325874,124.67139 61.7179423,126.55218 Z M122.572967,106.234323 L136.435746,114.238557 C132.775542,120.2588 128.17917,125.647019 122.848726,130.201117 L112.563625,117.943366 C116.470931,114.586953 119.853934,110.637382 122.572967,106.234323 Z M47.0436536,117.602469 L36.7575251,129.86204 C31.5361224,125.329903 27.0336405,119.991237 23.4439711,114.039932 L37.3062556,106.037729 C39.9547902,110.371226 43.2445695,114.27012 47.0436536,117.602469 Z M129.003836,89.9801891 L144.767693,92.7590742 C143.386475,99.8108029 140.88229,106.460262 137.448989,112.5136 L123.590147,104.510905 C126.105306,100.047549 127.954769,95.159076 129.003836,89.9801891 Z M36.2969355,104.309436 L22.4366877,112.311203 C18.9887315,106.181744 16.4914523,99.4459466 15.1447908,92.3037527 L30.9061372,89.52485 C31.9225154,94.7945778 33.7662936,99.7696187 36.2969355,104.309436 Z M146,80 C146,83.6747852 145.699672,87.279425 145.122222,90.7907136 L129.361593,88.0114881 C129.78169,85.4029967 130,82.7269929 130,80 C130,77.3328264 129.791163,74.7144293 129.388947,72.1602686 L145.150108,69.3802558 C145.709338,72.8375529 146,76.3848326 146,80 Z M14.7773784,69.838804 L30.5410629,72.6185634 C30.1846383,75.0273496 30,77.4921125 30,80 C30,82.5677067 30.1935515,85.0902071 30.5668608,87.5537072 L14.8041825,90.3331493 C14.2748323,86.9664997 14,83.5153451 14,80 C14,76.5444787 14.2655578,73.1509817 14.7773784,69.838804 Z M22.1287913,48.2423574 L35.9919481,56.2459545 C33.5912789,60.6842064 31.8424144,65.5266898 30.8736665,70.6450926 L15.1127773,67.8672781 C16.4117948,60.8761431 18.8128035,54.2721656 22.1287913,48.2423574 Z M144.800877,67.4115413 L129.038016,70.1900713 C128.03768,65.1615905 126.283221,60.4048434 123.89749,56.0426811 L137.759356,48.0398071 C141.060645,53.9932629 143.468204,60.5108934 144.800877,67.4115413 Z M36.47859,30.3814414 L46.7667271,42.6422417 C42.9274885,46.0600566 39.6185945,50.0607894 36.9789267,54.5055584 L23.1191311,46.5045171 C26.6974697,40.4409972 31.217717,34.9995443 36.47859,30.3814414 Z M136.76261,46.3049286 L122.902528,54.3069951 C120.193007,49.7923177 116.791049,45.7406526 112.843506,42.2988502 L123.12911,30.0397847 C128.49958,34.6800752 133.113987,40.1716974 136.76261,46.3049286 Z M55.6674979,18.6301814 L61.190202,33.6587324 C56.4909713,35.5680418 52.1477448,38.1713746 48.2877407,41.3415121 L38.001679,29.0845587 C43.2666671,24.7367024 49.2174559,21.1897275 55.6674979,18.6301814 Z M121.596486,28.7553586 L111.309359,41.0140893 C107.274045,37.7692048 102.724355,35.1379541 97.8019411,33.2619876 L103.276136,18.2215173 C109.968571,20.7442654 116.143106,24.3232981 121.596486,28.7553586 Z M79.0003583,14.0074166 L78.9999701,30.0098013 C73.5535496,30.1166486 68.3205857,31.0943596 63.4345796,32.8094329 L57.9602319,17.769596 C64.5549309,15.4339252 71.6313444,14.1168274 79.0003583,14.0074166 Z M81,14.007 L80,14 C87.4880344,14 94.6848157,15.247003 101.394005,17.5446708 L95.9191294,32.5875605 C91.2192745,31.0101928 86.2076958,30.1120673 81.0010306,30.009821 L81,14.007 Z" id="path-3"></path>
        <filter x="-6.1%" y="-3.0%" width="112.1%" height="112.1%" filterUnits="objectBoundingBox" id="filter-4">
            <feOffset dx="0" dy="4" in="SourceAlpha" result="shadowOffsetOuter1"></feOffset>
            <feGaussianBlur stdDeviation="2" in="shadowOffsetOuter1" result="shadowBlurOuter1"></feGaussianBlur>
            <feColorMatrix values="0 0 0 0 0   0 0 0 0 0.0775373641   0 0 0 0 0.215381567  0 0 0 0.800863199 0" type="matrix" in="shadowBlurOuter1"></feColorMatrix>
        </filter>
    </defs>
    <g id="深色版" stroke="none" stroke-width="1" fill="none" fill-rule="evenodd">
        <g id="大屏-公司模式" transform="translate(-287.000000, -1187.000000)">
            <g id="编组-7" transform="translate(287.000000, 1187.000000)">
                <circle id="椭圆形" fill="url(#radialGradient-1)" cx="80" cy="80" r="66"></circle>
                <circle id="椭圆形" stroke="#387BE8" cx="80" cy="80" r="79.5"></circle>
                <g id="形状结合">
                    <use fill="black" fill-opacity="1" filter="url(#filter-4)" xlink:href="#path-3"></use>
                    <use fill="url(#linearGradient-2)" fill-rule="evenodd" xlink:href="#path-3"></use>
                </g>
            </g>
        </g>
    </g>
</svg>