<?xml version="1.0" encoding="UTF-8"?><svg version="1.1" width="235px" height="36px" viewBox="0 0 235.0 36.0" xmlns="http://www.w3.org/2000/svg" xmlns:xlink="http://www.w3.org/1999/xlink"><defs><clipPath id="i0"><path d="M1920,0 L1920,1080 L0,1080 L0,0 L1920,0 Z"></path></clipPath><clipPath id="i1"><path d="M231.845756,0 L231.845756,30 L7.20231712,30 L0,0 L231.845756,0 Z"></path></clipPath><linearGradient id="i2" x1="115.922878px" y1="2.81025203e-14px" x2="115.922878px" y2="30px" gradientUnits="userSpaceOnUse"><stop stop-color="rgba(10, 55, 88, 0)" offset="0%"></stop><stop stop-color="rgba(67, 179, 228, 0.70165)" offset="100%"></stop></linearGradient><clipPath id="i3"><path d="M5,0 L10,20 L5,20 L0,0 L5,0 Z"></path></clipPath><linearGradient id="i4" x1="-1.20153319px" y1="-2.57571493px" x2="10px" y2="20px" gradientUnits="userSpaceOnUse"><stop stop-color="#0A3758" offset="0%"></stop><stop stop-color="#4ECBFF" offset="100%"></stop></linearGradient><clipPath id="i5"><path d="M5,0 L5.32076846,2 L0.320768457,2 L0,0 L5,0 Z"></path></clipPath><linearGradient id="i6" x1="-0.639307988px" y1="-0.257571493px" x2="5.32076846px" y2="2px" gradientUnits="userSpaceOnUse"><stop stop-color="#0A3758" offset="0%"></stop><stop stop-color="#4ECBFF" offset="100%"></stop></linearGradient><clipPath id="i7"><path d="M175,0 L175,2 L0.542601789,2 L0,0 L175,0 Z"></path></clipPath><linearGradient id="i8" x1="1.16693438e-13px" y1="0.154647623px" x2="175px" y2="2px" gradientUnits="userSpaceOnUse"><stop stop-color="#4ECBFF" offset="0%"></stop><stop stop-color="rgba(10, 55, 88, 0)" offset="100%"></stop></linearGradient><clipPath id="i9"><path d="M90,0 L90,2 L0.279052348,2 L0,0 L90,0 Z"></path></clipPath><linearGradient id="i10" x1="6.00137681e-14px" y1="0.154647623px" x2="90px" y2="2px" gradientUnits="userSpaceOnUse"><stop stop-color="#4ECBFF" offset="0%"></stop><stop stop-color="rgba(10, 55, 88, 0)" offset="100%"></stop></linearGradient></defs><g transform="translate(-34.0 -204.0)"><g clip-path="url(#i0)"><g transform="translate(33.999999999999986 204.0)"><g transform="translate(2.5703208364302554 0.0)"><g clip-path="url(#i1)"><polygon points="0,0 231.845756,0 231.845756,30 0,30 0,0" stroke="none" fill="url(#i2)"></polygon></g></g><g transform="translate(0.0 10.0)"><g clip-path="url(#i3)"><polygon points="0,0 10,0 10,20 0,20 0,0" stroke="none" fill="url(#i4)"></polygon></g></g><g transform="translate(45.0 34.0)"><g clip-path="url(#i5)"><polygon points="0,0 5.32076846,0 5.32076846,2 0,2 0,0" stroke="none" fill="url(#i6)"></polygon></g></g><g transform="translate(24.0 34.0)"><g clip-path="url(#i5)"><polygon points="0,0 5.32076846,0 5.32076846,2 0,2 0,0" stroke="none" fill="url(#i6)"></polygon></g></g><g transform="translate(38.0 34.0)"><g clip-path="url(#i5)"><polygon points="0,0 5.32076846,0 5.32076846,2 0,2 0,0" stroke="none" fill="url(#i6)"></polygon></g></g><g transform="translate(17.0 34.0)"><g clip-path="url(#i5)"><polygon points="0,0 5.32076846,0 5.32076846,2 0,2 0,0" stroke="none" fill="url(#i6)"></polygon></g></g><g transform="translate(31.0 34.0)"><g clip-path="url(#i5)"><polygon points="0,0 5.32076846,0 5.32076846,2 0,2 0,0" stroke="none" fill="url(#i6)"></polygon></g></g><g transform="translate(10.0 34.0)"><g clip-path="url(#i5)"><polygon points="0,0 5.32076846,0 5.32076846,2 0,2 0,0" stroke="none" fill="url(#i6)"></polygon></g></g><g transform="translate(5.0 30.0)"><g clip-path="url(#i7)"><polygon points="0,0 175,0 175,2 0,2 0,0" stroke="none" fill="url(#i8)"></polygon></g></g><g transform="translate(52.0 34.0)"><g clip-path="url(#i9)"><polygon points="0,0 90,0 90,2 0,2 0,0" stroke="none" fill="url(#i10)"></polygon></g></g></g></g></g></svg>