<?xml version="1.0" encoding="UTF-8"?><svg version="1.1" width="244px" height="12px" viewBox="0 0 244.0 12.0" xmlns="http://www.w3.org/2000/svg" xmlns:xlink="http://www.w3.org/1999/xlink"><defs><clipPath id="i0"><path d="M1920,0 L1920,1080 L0,1080 L0,0 L1920,0 Z"></path></clipPath><clipPath id="i1"><path d="M247.466103,0 C248.546216,-1.08565546e-14 249.557669,0.529655963 250.17289,1.41743244 C251.208855,2.91234985 250.8368,4.96403523 249.341883,6 L241.711605,11.2877166 C241.04235,11.751504 240.247494,12 239.433246,12 L11.5065618,12 C10.3787175,12 9.33215777,11.4130463 8.74405284,10.4506715 C7.81170642,8.9249799 8.2927077,6.93234642 9.81839926,6 L18.6764738,0.586852113 C19.3044978,0.203068159 20.0262346,2.7997373e-15 20.7622402,0 Z"></path></clipPath><linearGradient id="i2" x1="129px" y1="6.32827124e-14px" x2="129px" y2="12px" gradientUnits="userSpaceOnUse"><stop stop-color="rgba(0, 66, 94, 0)" offset="0%"></stop><stop stop-color="#03A2E1" offset="100%"></stop></linearGradient></defs><g transform="translate(-46.0 -508.0)"><g clip-path="url(#i0)"><g transform="translate(38.510301584233275 508.0)"><g clip-path="url(#i1)"><polygon points="8.26860641,0 250.759612,0 250.759612,12 8.26860641,12 8.26860641,0" stroke="none" fill="url(#i2)"></polygon></g></g></g></g></svg>