<?xml version="1.0" encoding="UTF-8"?><svg version="1.1" width="1880px" height="84px" viewBox="0 0 1880.0 84.0" xmlns="http://www.w3.org/2000/svg" xmlns:xlink="http://www.w3.org/1999/xlink"><defs><clipPath id="i0"><path d="M1920,0 L1920,1080 L0,1080 L0,0 L1920,0 Z"></path></clipPath><clipPath id="i1"><path d="M1880,0 L1880,34 C1880,42.836556 1872.83656,50 1864,50 L1351.381,50 L1306.09809,81.1783641 C1303.42907,83.0160523 1300.26495,84 1297.02446,84 L592.295482,84 C588.85688,84 585.509762,82.8922125 582.750114,80.8407925 L541.262,50 L16,50 C7.163444,50 2.23984481e-14,42.836556 0,34 L0,0 L1880,0 Z"></path></clipPath><linearGradient id="i2" x1="940px" y1="0px" x2="940px" y2="94.4655492px" gradientUnits="userSpaceOnUse"><stop stop-color="rgba(0, 57, 97, 0.75)" offset="0%"></stop><stop stop-color="#1977A6" offset="100%"></stop></linearGradient><linearGradient id="i3" x1="940px" y1="0px" x2="940px" y2="84px" gradientUnits="userSpaceOnUse"><stop stop-color="rgba(4, 51, 71, 0)" offset="0%"></stop><stop stop-color="#05D8FF" offset="100%"></stop></linearGradient><clipPath id="i4"><path d="M15.6887417,0.400465658 C14.4025018,3.43733023 13.2178072,6.07372914 12.1346578,8.3096624 L8.27593819,43 L3.60485651,43 L6.49889625,19.322468 L5.02649007,21.975553 L0,21.9254948 C2.0647535,18.5549088 4.11258278,14.8172293 6.14348786,10.7124563 C6.71891096,9.57780365 7.51434879,7.8758246 8.52980132,5.60651921 L10.7637969,0.400465658 L15.6887417,0.400465658 Z M35.5916115,0 L34.98234,5.20605355 L39.5518764,5.20605355 L39.1456954,8.61001164 C39.8903606,7.20838184 40.6350258,5.58983314 41.3796909,3.75436554 L46,3.75436554 C44.3414275,7.72564998 42.4966887,11.2130384 40.4657837,14.2165308 L45.593819,14.2165308 L45.187638,18.2712456 L37.3686534,18.2712456 C36.3193525,19.572759 35.151582,20.774156 33.8653422,21.8754366 L39.0949227,21.8754366 C40.2457689,21.8754366 41.142752,22.1841288 41.785872,22.8015134 C42.4289919,23.4188979 42.7505519,24.2949166 42.7505519,25.4295693 C42.7505519,25.7966628 42.7336277,26.080326 42.6997792,26.2805588 L40.7196468,42.749709 L23.3046358,42.749709 L25.183223,27.782305 C23.9985283,28.3496314 23.0676968,28.7667831 22.3907285,29.0337602 L19.598234,25.7299185 C24.4047093,24.0279395 28.4834437,21.5417152 31.8344371,18.2712456 L22.3907285,18.2712456 L22.7969095,14.2165308 L29.7019868,14.2165308 L30.2604857,9.21071013 L24.8278146,9.21071013 L25.2847682,5.20605355 L30.6666667,5.20605355 L31.2759382,0 L35.5916115,0 Z M17.5673289,14.016298 C19.5643856,14.016298 20.4613687,14.9173458 20.2582781,16.7194412 L18.1258278,34.8905704 C18.1258278,34.9239426 18.1173657,34.9573147 18.1004415,34.9906868 C18.0835173,35.024059 18.0919794,35.0741172 18.1258278,35.1408615 C18.1258278,35.4745828 18.3289183,35.5413271 18.7350993,35.3410943 C19.9536424,34.6069073 21.2229581,33.6891735 22.5430464,32.5878929 L22.6953642,37.3434226 C22.1199411,37.8106325 21.5106696,38.2611564 20.8675497,38.6949942 L19.8520971,39.2956927 L18.5827815,39.9965076 C17.4319352,40.6305782 16.4841795,40.9476135 15.7395143,40.9476135 C14.3855776,40.9476135 13.7086093,39.9631354 13.7086093,37.9941793 C13.7086093,37.3601087 13.7424577,36.8595266 13.8101545,36.4924331 L15.8918322,18.371362 L12.2362031,18.371362 L12.794702,14.016298 L17.5673289,14.016298 Z M37.2163355,34.2398137 L28.8388521,34.2398137 L28.2803532,38.6949942 L36.7086093,38.6949942 L37.2163355,34.2398137 Z M38.2317881,25.9802095 L29.8543046,25.9802095 L29.2958057,30.43539 L37.6732892,30.43539 L38.2317881,25.9802095 Z M38.790287,9.21071013 L34.5761589,9.21071013 L34.01766,14.2165308 L35.4900662,14.2165308 C36.6747609,12.7147846 37.7748344,11.0461777 38.790287,9.21071013 Z M19.9536424,2.35273574 L22.4415011,10.6623981 L17.9735099,10.6623981 L15.5871965,2.35273574 L19.9536424,2.35273574 Z"></path></clipPath><linearGradient id="i5" x1="23px" y1="0px" x2="23px" y2="43px" gradientUnits="userSpaceOnUse"><stop stop-color="#D6F7FF" offset="0%"></stop><stop stop-color="#74E1FF" offset="100%"></stop></linearGradient><clipPath id="i6"><path d="M17.4624413,15.8368298 C19.9186228,15.8368298 21.1467136,16.9393939 21.1467136,19.1445221 C21.1467136,19.5454545 21.1298905,19.8461538 21.0962441,20.04662 L19.4307512,38.5897436 C19.2288732,40.1934732 18.7998826,41.3294483 18.1437793,41.997669 C17.4876761,42.6658897 16.4530516,43 15.0399061,43 C14.0978091,43 13.0715962,42.9248252 11.9612676,42.7744755 C10.850939,42.6241259 10.0097809,42.4320124 9.43779343,42.1981352 L9.79107981,37.9382284 C11.6079812,38.4059829 12.9538341,38.6398601 13.8286385,38.6398601 C14.2323944,38.6398601 14.5099765,38.5563326 14.661385,38.3892774 C14.8127934,38.2222222 14.922144,37.8547009 14.9894366,37.2867133 L15.241784,34.2797203 L5.40023474,34.2797203 L4.49178404,42.8997669 L0,42.8997669 L2.37206573,19.9463869 C2.54029734,18.4763015 2.95246479,17.4238539 3.60856808,16.7890443 C4.26467136,16.1542347 5.29929577,15.8368298 6.71244131,15.8368298 L17.4624413,15.8368298 Z M29.0704225,20.7482517 L28.3133803,27.4137529 C32.9229264,26.511655 37.0782473,25.475913 40.7793427,24.3065268 L40.2746479,28.9172494 C38.7605634,29.451826 36.842723,29.9864025 34.5211268,30.520979 C31.8630673,31.1223776 29.64241,31.5734266 27.8591549,31.8741259 L27.3039906,36.8356643 C27.135759,37.7043512 27.5395149,38.1386946 28.5152582,38.1386946 L31.8967136,38.1386946 C33.3771518,38.1386946 34.9501174,37.9632867 36.6156103,37.6124709 C38.2811033,37.261655 39.7867762,36.7521368 41.1326291,36.0839161 L40.4765258,41.0955711 C39.3661972,41.5633256 37.986698,41.9308469 36.3380282,42.1981352 C34.6893584,42.4654235 33.0070423,42.5990676 31.2910798,42.5990676 L26.4964789,42.5990676 C25.0833333,42.5990676 24.0487089,42.3067211 23.3926056,41.722028 C22.7365023,41.1373349 22.4084507,40.2770008 22.4084507,39.1410256 C22.4084507,38.7400932 22.4252739,38.4226884 22.4589202,38.1888112 L24.3767606,20.7482517 L29.0704225,20.7482517 Z M15.8474178,27.1631702 L6.157277,27.1631702 L5.80399061,30.2703963 L15.5950704,30.2703963 L15.8474178,27.1631702 Z M16.5035211,20.04662 L6.91431925,20.04662 L6.56103286,23.1538462 L16.2007042,23.1538462 L16.5035211,20.04662 Z M30.9377934,0.1002331 L30.3321596,5.96386946 C33.4276213,5.36247086 37.5156495,4.27661228 42.5962441,2.70629371 L42.0915493,7.26689977 C39.2316119,8.3026418 35.1604069,9.28826729 29.8779343,10.2237762 L29.5751174,13.1806527 C29.541471,13.2808858 29.5246479,13.4145299 29.5246479,13.5815851 C29.5246479,14.2163947 29.9620501,14.5337995 30.8368545,14.5337995 L34.1173709,14.5337995 C37.3137715,14.5337995 40.2746479,13.8655789 43,12.5291375 L42.3438967,17.490676 C40.1568858,18.459596 37.2128326,18.9440559 33.5117371,18.9440559 L28.7676056,18.9440559 C27.3544601,18.9440559 26.3198357,18.6517094 25.6637324,18.0670163 C25.0076291,17.4823232 24.6795775,16.6219891 24.6795775,15.486014 C24.6795775,15.1184926 24.6964006,14.8177933 24.7300469,14.5839161 L26.2441315,0.1002331 L30.9377934,0.1002331 Z M15.1408451,0 C13.9968701,1.8041958 12.7519562,3.60839161 11.4061033,5.41258741 C10.3967136,6.74902875 9.26956182,8.1021756 8.02464789,9.47202797 C11.5238654,9.23815074 14.6361502,8.85392385 17.3615023,8.31934732 L16.2511737,3.45804196 L20.5915493,3.45804196 L23.4178404,14.7843823 L18.9260563,14.7843823 L18.370892,12.4289044 C14.8716745,13.030303 10.4471831,13.5314685 5.09741784,13.9324009 C4.2899061,13.999223 3.58333333,13.8989899 2.97769953,13.6317016 C2.37206573,13.3644134 1.9514867,12.996892 1.71596244,12.5291375 C1.54773083,12.1950272 1.46361502,11.8609169 1.46361502,11.5268065 C1.46361502,10.7917638 1.83372457,10.0066045 2.57394366,9.17132867 C4.39084507,7.13325563 6.71244131,4.07614608 9.53873239,0 L15.1408451,0 Z"></path></clipPath><linearGradient id="i7" x1="21.5px" y1="0px" x2="21.5px" y2="43px" gradientUnits="userSpaceOnUse"><stop stop-color="#D6F7FF" offset="0%"></stop><stop stop-color="#74E1FF" offset="100%"></stop></linearGradient><clipPath id="i8"><path d="M23.5006452,0 L22.8464516,5.65 L33.4141935,5.65 C34.9909677,5.65 36.1483871,6.04166667 36.8864516,6.825 C37.6245161,7.60833333 37.9096774,8.75 37.7419355,10.25 L35.4774194,31.25 L19.8774194,31.25 L19.2232258,37.1 L19.1729032,37.5 C19.1729032,37.8333333 19.2819355,38.0583333 19.5,38.175 C19.7180645,38.2916667 20.0954839,38.35 20.6322581,38.35 L27.3251613,38.35 C31.7870968,38.35 35.6787097,37.8166667 39,36.75 L38.396129,41.65 C34.9741935,42.55 31.3006452,43 27.3754839,43 L18.8709677,43 C17.2270968,43 16.0109677,42.6666667 15.2225806,42 C14.4341935,41.3333333 14.04,40.3 14.04,38.9 C14.04,38.7 14.0735484,38.3 14.1406452,37.7 L14.8954839,31.25 L0,31.25 L2.61677419,9.9 C2.81806452,8.33333333 3.28774194,7.23333333 4.02580645,6.6 C4.76387097,5.96666667 5.9716129,5.65 7.64903226,5.65 L17.8645161,5.65 L18.5187097,0 L23.5006452,0 Z M16.1535484,20.55 L6.18967742,20.55 L5.43483871,26.75 L15.3987097,26.75 L16.1535484,20.55 Z M31.6025806,20.55 L21.1354839,20.55 L20.4309677,26.75 L30.8980645,26.75 L31.6025806,20.55 Z M17.3109677,10.15 L7.5483871,10.15 L6.74322581,16.15 L16.6567742,16.15 L17.3109677,10.15 Z M32.76,10.15 L22.2929032,10.15 L21.6387097,16.15 L32.0554839,16.15 L32.76,10.15 Z"></path></clipPath><linearGradient id="i9" x1="19.5px" y1="0px" x2="19.5px" y2="43px" gradientUnits="userSpaceOnUse"><stop stop-color="#D6F7FF" offset="0%"></stop><stop stop-color="#74E1FF" offset="100%"></stop></linearGradient><clipPath id="i10"><path d="M35.8850829,0 L34.919337,7.63182898 L46,7.63182898 L45.440884,11.9216152 L34.360221,11.9216152 L33.3944751,19.6033254 L39.0364641,19.6033254 C42.0184162,19.6033254 43.3569061,21.1163895 43.0519337,24.1425178 L40.8154696,42 L19.1624309,42 L21.3480663,24.192399 C21.5513812,22.6627078 22.0596685,21.5154394 22.8729282,20.7505938 C23.6861878,19.9857482 24.8552486,19.6033254 26.3801105,19.6033254 L28.6165746,19.6033254 L31.1071823,0 L35.8850829,0 Z M19.721547,13.5178147 C19.0099448,16.7102138 18.2644567,19.6532067 17.4850829,22.3467933 C16.2651934,26.6365796 15.3163904,29.8456057 14.638674,31.9738717 L19.0607735,31.0261283 L18.5524862,35.5154394 C13.7406998,36.6128266 7.55653775,37.8598575 0,39.2565321 L0.609944751,34.567696 L5.23535912,33.7695962 C7.40405157,33.4038005 8.97974217,33.1211401 9.96243094,32.9216152 C10.9790055,29.695962 11.9616943,26.2874109 12.9104972,22.695962 C13.4865562,20.5011876 14.2320442,17.4418052 15.1469613,13.5178147 L19.721547,13.5178147 Z M38.2740331,23.8432304 L26.1259669,23.8432304 L24.5502762,37.7102138 L36.5966851,37.7102138 L38.2740331,23.8432304 Z M8.18342541,13.7672209 L9.50497238,30.1781473 L5.13370166,30.1781473 L3.91381215,13.7672209 L8.18342541,13.7672209 Z M13.7745856,0.0997624703 L15.0453039,6.73396675 L21.6530387,6.73396675 L21.1447514,10.9239905 L2.59226519,10.9239905 L3.10055249,6.73396675 L10.4198895,6.73396675 L9.2,0.0997624703 L13.7745856,0.0997624703 Z"></path></clipPath><linearGradient id="i11" x1="23px" y1="0px" x2="23px" y2="42px" gradientUnits="userSpaceOnUse"><stop stop-color="#D6F7FF" offset="0%"></stop><stop stop-color="#74E1FF" offset="100%"></stop></linearGradient><clipPath id="i12"><path d="M9.46772367,12.6173709 C10.4311061,12.6173709 11.1785579,12.9033646 11.7100793,13.4753521 C12.2416006,14.0473396 12.5073613,14.8548513 12.5073613,15.8978873 C12.5073613,16.2679969 12.4907512,16.5539906 12.4575311,16.7558685 L10.6636467,31.2910798 C10.5972065,31.5602504 10.5639864,31.7453052 10.5639864,31.8462441 C11.7266893,33.5958529 13.0887127,34.9417058 14.6500566,35.8838028 C16.809362,37.263302 19.4669687,37.885759 22.6228766,37.7511737 L44,37.7511737 L42.5549264,42.4953052 L20.8289921,42.4953052 C18.0717252,42.4953052 15.580219,41.8896714 13.3544734,40.6784038 C11.7599094,39.8372457 10.2982257,38.6259781 8.96942242,37.0446009 C7.90637977,39.2989045 6.59418649,41.2840376 5.03284258,43 L0,41.6877934 C1.62778407,40.0391236 2.94828237,38.3231612 3.9614949,36.5399061 C4.97470744,34.756651 5.61419404,32.8051643 5.8799547,30.685446 L7.42468856,17.1596244 L1.94337486,17.1596244 L2.49150623,12.6173709 L9.46772367,12.6173709 Z M43.5016988,12.8192488 L42.9037373,17.2100939 L28.5028313,17.2100939 C26.6092865,20.9448357 24.416761,24.8478091 21.9252548,28.9190141 C26.4431861,28.5489045 30.795017,28.0442097 34.9807475,27.4049296 L32.6387316,20.6420188 L37.2729332,20.6420188 L42.1562854,34.0164319 L37.2729332,34.0164319 L36.4756512,31.7957746 C32.788222,32.3677621 27.3069083,32.9733959 20.0317101,33.6126761 C19.3340883,33.6799687 18.6530766,33.5790297 17.988675,33.3098592 C17.3242733,33.0406886 16.809362,32.6537559 16.4439411,32.149061 C16.0785202,31.6780125 15.8958097,31.1564945 15.8958097,30.584507 C15.8958097,29.8442879 16.2114005,29.0535994 16.8425821,28.2124413 C18.9354473,25.4534429 21.0947527,21.7859937 23.3204983,17.2100939 L15.6964892,17.2100939 L16.2944507,12.8192488 L43.5016988,12.8192488 Z M5.63080408,0 L15.0486976,4.2899061 L14.400906,9.53873239 L5.08267271,5.19835681 L5.63080408,0 Z M42.5050963,1.81690141 L41.9071348,6.20774648 L18.8357871,6.20774648 L19.4337486,1.81690141 L42.5050963,1.81690141 Z"></path></clipPath><linearGradient id="i13" x1="22px" y1="0px" x2="22px" y2="43px" gradientUnits="userSpaceOnUse"><stop stop-color="#D6F7FF" offset="0%"></stop><stop stop-color="#74E1FF" offset="100%"></stop></linearGradient><clipPath id="i14"><path d="M28.2785388,0.100719424 C28.1445967,0.436450839 28.0190259,0.772182254 27.9018265,1.10791367 C27.7846271,1.44364508 27.6757991,1.76258993 27.5753425,2.0647482 C26.9056317,3.91127098 26.3028919,5.48920863 25.7671233,6.79856115 L32.2968037,6.79856115 L30.890411,0.45323741 L35.4611872,0.45323741 L37.0182648,6.79856115 L44,6.79856115 L43.4977169,11.0791367 L36.4657534,11.0791367 L35.7625571,16.971223 L42.543379,16.971223 L42.0410959,21.1510791 L35.3105023,21.1510791 L34.6073059,26.9928058 L41.9406393,26.9928058 L41.4383562,31.2230216 L34.1552511,31.2230216 L33.4018265,37.7194245 L42.7945205,37.7194245 L42.2922374,42 L17.0273973,42 L19.4885845,20.2446043 L14.6164384,20.2446043 C16.2237443,17.3908873 17.9482496,13.7817746 19.7899543,9.41726619 C21.1628615,6.1942446 22.3850837,3.08872902 23.456621,0.100719424 L28.2785388,0.100719424 Z M15.9223744,31.5251799 L15.4200913,36.5107914 C10.4977169,38.0551559 5.35768645,39.3645084 0,40.4388489 L0.552511416,35.5035971 C4.70471842,34.7314149 9.82800609,33.4052758 15.9223744,31.5251799 Z M29.5342466,31.2230216 L22.7534247,31.2230216 L22,37.7194245 L28.7808219,37.7194245 L29.5342466,31.2230216 Z M15.1187215,0 C12.7077626,4.76738609 10.1796043,9.16546763 7.53424658,13.1942446 L9.14155251,12.9928058 C9.94520548,12.9256595 10.5479452,12.8585132 10.9497717,12.7913669 C11.8873668,11.2134293 12.7412481,9.7529976 13.5114155,8.41007194 L18.6849315,8.41007194 C16.7092846,11.9016787 15.0852359,14.7218225 13.8127854,16.8705036 C12.0715373,19.7913669 10.4809741,22.2422062 9.04109589,24.2230216 C11.2511416,23.9880096 13.7123288,23.5179856 16.4246575,22.8129496 L15.8219178,27.6978417 C12.3729072,28.470024 8.55555556,29.0743405 4.36986301,29.5107914 C3.09741248,29.6450839 2.26027397,29.2589928 1.85844749,28.352518 C1.72450533,28.0839329 1.65753425,27.764988 1.65753425,27.3956835 C1.65753425,26.7242206 1.89193303,26.1031175 2.36073059,25.5323741 C3.83409437,23.7194245 5.62557078,21.1678657 7.73515982,17.8776978 L6.57990868,18.028777 C4.97260274,18.2302158 3.86757991,18.3309353 3.26484018,18.3309353 C2.09284627,18.3309353 1.32267884,17.9280576 0.9543379,17.1223022 C0.820395738,16.853717 0.753424658,16.5347722 0.753424658,16.1654676 C0.753424658,15.5611511 0.9543379,14.940048 1.35616438,14.3021583 C4.83866058,9.03117506 7.6347032,4.26378897 9.74429224,0 L15.1187215,0 Z M30.6894977,21.1510791 L23.8584475,21.1510791 L23.2054795,26.9928058 L29.9863014,26.9928058 L30.6894977,21.1510791 Z M31.8447489,11.0791367 L25.0136986,11.0791367 L24.3607306,16.971223 L31.1415525,16.971223 L31.8447489,11.0791367 Z"></path></clipPath><linearGradient id="i15" x1="22px" y1="0px" x2="22px" y2="42px" gradientUnits="userSpaceOnUse"><stop stop-color="#D6F7FF" offset="0%"></stop><stop stop-color="#74E1FF" offset="100%"></stop></linearGradient><clipPath id="i16"><path d="M27.7684449,0 L26.1702611,10.4988318 L44,10.4988318 L43.3507378,15.421729 L26.4199773,15.421729 C28.1513432,20.7799844 30.4653802,25.501947 33.3620885,29.5876168 C35.7926599,33.0704829 39.2387439,36.8045171 43.7003405,40.7897196 L38.2565267,43 C35.2266364,40.220405 32.4964056,37.0556854 30.0658343,33.5058411 C27.1358305,29.3531931 24.9050322,25.133567 23.3734393,20.8469626 C21.5088914,25.2340343 18.8951949,29.4034268 15.5323496,33.3551402 C12.3026863,37.2063863 8.75671585,40.3878505 4.89443814,42.8995327 L0,40.5385514 C5.09421112,37.1226636 9.38933031,33.2044393 12.8853575,28.7838785 C16.3813848,24.3298287 18.7120696,19.8757788 19.877412,15.421729 L3.3461975,15.421729 L3.84562997,10.4988318 L20.7763905,10.4988318 L22.4744608,0 L27.7684449,0 Z"></path></clipPath><clipPath id="i17"><path d="M22.9543379,13.210084 L24.5114155,17.4453782 L32.2968037,17.4453782 L33.9041096,13.2605042 L38.6757991,13.2605042 L37.0182648,17.4453782 L43.196347,17.4453782 L42.6438356,21.9327731 L36.2146119,21.9327731 L35.6621005,26.6722689 L44,26.6722689 L43.4474886,31.1596639 L35.109589,31.1596639 L33.8538813,41.5966387 L29.1826484,41.5966387 L30.4383562,31.1596639 L22.7031963,31.1596639 C22.1339422,33.2436975 21.3805175,35.092437 20.4429224,36.7058824 C19.5053272,38.2857143 18.0989346,40.0504202 16.2237443,42 L10.9497717,40.6890756 C12.8584475,39.0420168 14.3652968,37.4789916 15.4703196,36 C16.5418569,34.5210084 17.3455099,32.907563 17.8812785,31.1596639 L11.2009132,31.1596639 L11.7534247,26.6722689 L18.8858447,26.6722689 L19.4885845,21.9327731 L13.4109589,21.9327731 L13.9634703,17.4453782 L19.890411,17.4453782 L18.283105,13.210084 L22.9543379,13.210084 Z M40.2328767,0 C41.4718417,0 42.3926941,0.243697479 42.9954338,0.731092437 C43.5981735,1.21848739 43.8995434,2 43.8995434,3.07563025 C43.8995434,3.4789916 43.8828006,3.78151261 43.8493151,3.98319328 L42.9452055,12.3529412 L12.1552511,12.3529412 L10.7990868,22.7394958 C10.3637747,26.3361345 9.66057839,29.7310924 8.68949772,32.9243697 C7.55098935,36.6554622 6.26179604,39.5966387 4.82191781,41.7478992 L0,40.0840336 C1.7412481,37.3613445 3.06392694,34.5714286 3.96803653,31.7142857 C4.73820396,29.2268908 5.37442922,26.0504202 5.87671233,22.1848739 L8.23744292,3.4789916 C8.40487062,2.23529412 8.82343988,1.34453782 9.49315068,0.806722689 C10.1628615,0.268907563 11.1339422,0 12.4063927,0 L40.2328767,0 Z M31.543379,21.9327731 L24.109589,21.9327731 L23.5068493,26.6722689 L30.9908676,26.6722689 L31.543379,21.9327731 Z M38.9269406,4.08403361 L13.260274,4.08403361 L12.7077626,8.3697479 L38.3744292,8.3697479 L38.9269406,4.08403361 Z"></path></clipPath><linearGradient id="i18" x1="22px" y1="0px" x2="22px" y2="42px" gradientUnits="userSpaceOnUse"><stop stop-color="#D6F7FF" offset="0%"></stop><stop stop-color="#74E1FF" offset="100%"></stop></linearGradient><clipPath id="i19"><path d="M8,0 C12.418278,0 16,3.581722 16,8 C16,12.418278 12.418278,16 8,16 C3.581722,16 0,12.418278 0,8 C0,3.581722 3.581722,0 8,0 Z"></path></clipPath></defs><g transform="translate(-20.0 -12.0)"><g clip-path="url(#i0)"><g transform="translate(20.0 12.0)"><g clip-path="url(#i1)"><polygon points="0,0 1880,0 1880,84 0,84 0,0" stroke="none" fill="url(#i2)"></polygon></g><g clip-path="url(#i1)"><path d="M1880,0 L1880,34 C1880,42.836556 1872.83656,50 1864,50 L1351.381,50 L1306.09809,81.1783641 C1303.42907,83.0160523 1300.26495,84 1297.02446,84 L592.295482,84 C588.85688,84 585.509762,82.8922125 582.750114,80.8407925 L541.262,50 L16,50 C7.163444,50 2.23984481e-14,42.836556 0,34 L0,0 L1880,0 Z" stroke="url(#i3)" stroke-width="2" fill="none" stroke-miterlimit="5"></path></g><g transform="translate(697.0 19.999999999999996)"><g clip-path="url(#i4)"><polygon points="0,0 46,0 46,43 0,43 0,0" stroke="none" fill="url(#i5)"></polygon></g><g transform="translate(63.0 1.0)"><g clip-path="url(#i6)"><polygon points="0,0 43,0 43,43 0,43 0,0" stroke="none" fill="url(#i7)"></polygon></g></g><g transform="translate(127.0 0.0)"><g clip-path="url(#i8)"><polygon points="0,0 39,0 39,43 0,43 0,0" stroke="none" fill="url(#i9)"></polygon></g></g><g transform="translate(184.0 1.0)"><g clip-path="url(#i10)"><polygon points="0,0 46,0 46,42 0,42 0,0" stroke="none" fill="url(#i11)"></polygon></g></g><g transform="translate(246.0 1.0)"><g clip-path="url(#i12)"><polygon points="0,0 44,0 44,43 0,43 0,0" stroke="none" fill="url(#i13)"></polygon></g></g><g transform="translate(308.0 1.0)"><g clip-path="url(#i14)"><polygon points="0,0 44,0 44,42 0,42 0,0" stroke="none" fill="url(#i15)"></polygon></g></g><g transform="translate(368.0 1.0)"><g clip-path="url(#i16)"><polygon points="0,0 44,0 44,43 0,43 0,0" stroke="none" fill="url(#i13)"></polygon></g></g><g transform="translate(429.0 2.0)"><g clip-path="url(#i17)"><polygon points="0,0 44,0 44,42 0,42 0,0" stroke="none" fill="url(#i18)"></polygon></g></g></g><g transform="translate(607.0 34.0)"><g clip-path="url(#i19)"><polygon points="0,0 16,0 16,16 0,16 0,0" stroke="none" fill="#53D1FF"></polygon></g></g><g transform="translate(1253.0 34.0)"><g clip-path="url(#i19)"><polygon points="0,0 16,0 16,16 0,16 0,0" stroke="none" fill="#53D1FF"></polygon></g></g></g></g></g></svg>