<?xml version="1.0" encoding="UTF-8"?><svg version="1.1" width="18px" height="22px" viewBox="0 0 18.0 22.0" xmlns="http://www.w3.org/2000/svg" xmlns:xlink="http://www.w3.org/1999/xlink"><defs><clipPath id="i0"><path d="M1920,0 L1920,1396 L0,1396 L0,0 L1920,0 Z"></path></clipPath><clipPath id="i1"><path d="M11.3740384,20.2108265 C11.6397993,20.2081928 11.7845206,20.5183133 11.6187489,20.7277108 C11.0003943,21.5043373 10.0531277,22 8.99008399,22 C7.9296716,22 6.98240496,21.5043373 6.36668164,20.7303614 C6.20090997,20.5209639 6.34563127,20.2108265 6.61139219,20.2108265 Z M9.01376565,0 C10.4767664,0 11.663481,1.19542169 11.663481,2.66915663 C14.0027033,3.31590361 15.7262024,5.47349398 15.7288337,8.03662651 L15.7340962,12.579759 C15.7340962,12.6301205 15.7472527,12.6778313 15.7683031,12.7228916 L17.8075577,16.8260241 C18.4048619,18.0240964 17.5391655,19.4342169 16.2103609,19.4315663 L1.79348878,19.4421724 C0.462052879,19.4448193 -0.403643584,18.0320482 0.191029366,16.8339759 L2.22765265,12.7361446 C2.25133432,12.6910843 2.26185951,12.6433735 2.26185951,12.593012 L2.25659691,8.04987952 C2.25396562,5.46819277 3.99851502,3.2946988 6.36405034,2.66120482 C6.36931293,1.19012048 7.55339624,0 9.01376565,0 Z"></path></clipPath></defs><g transform="translate(-1663.0 -18.0)"><g clip-path="url(#i0)"><g transform="translate(1663.0 18.0)"><g clip-path="url(#i1)"><polygon points="6.54784851e-18,0 18,0 18,22 6.54784851e-18,22 6.54784851e-18,0" stroke="none" fill="#384FE8"></polygon></g></g></g></g></svg>