<?xml version="1.0" encoding="UTF-8"?>
<svg width="80px" height="66px" viewBox="0 0 80 66" version="1.1" xmlns="http://www.w3.org/2000/svg" xmlns:xlink="http://www.w3.org/1999/xlink">
    <title>编组 8备份</title>
    <defs>
        <radialGradient cx="50%" cy="36.3443374%" fx="50%" fy="36.3443374%" r="100%" gradientTransform="translate(0.500000,0.363443),scale(0.310973,1.000000),rotate(90.000000),scale(1.000000,1.286276),translate(-0.500000,-0.363443)" id="radialGradient-1">
            <stop stop-color="#FFFFFF" offset="0%"></stop>
            <stop stop-color="#5E98DD" offset="100%"></stop>
        </radialGradient>
        <linearGradient x1="50%" y1="0%" x2="50%" y2="100%" id="linearGradient-2">
            <stop stop-color="#FFFFFF" offset="0%"></stop>
            <stop stop-color="#58A5FC" offset="100%"></stop>
        </linearGradient>
        <linearGradient x1="50%" y1="0%" x2="50%" y2="100%" id="linearGradient-3">
            <stop stop-color="#74A5FF" stop-opacity="0.801737325" offset="0%"></stop>
            <stop stop-color="#FFFFFF" stop-opacity="0" offset="100%"></stop>
        </linearGradient>
        <linearGradient x1="50%" y1="0%" x2="50%" y2="100%" id="linearGradient-4">
            <stop stop-color="#74A5FF" stop-opacity="0.801737325" offset="0%"></stop>
            <stop stop-color="#FFFFFF" stop-opacity="0" offset="100%"></stop>
        </linearGradient>
    </defs>
    <g id="浅色版" stroke="none" stroke-width="1" fill="none" fill-rule="evenodd">
        <g id="大屏-公司模式" transform="translate(-554.000000, -454.000000)">
            <g id="编组-8备份" transform="translate(554.843937, 454.880750)">
                <path d="M54.9096533,0.5 L78.0538757,12.3693232 L63.2573206,24.0588292 L15.716935,24.0588292 L0.920379915,12.3693232 L24.0646023,0.5 L54.9096533,0.5 Z" id="多边形" stroke="url(#linearGradient-2)" fill="url(#radialGradient-1)"></path>
                <polygon id="多边形备份" fill="#549AF7" points="50.8449798 1.88927403 67.7465334 10.5570961 56.7748202 19.2249182 22.9717132 19.2249182 12 10.5570961 28.9015535 1.88927403"></polygon>
                <polygon id="矩形" fill="url(#linearGradient-3)" points="1.01859364e-14 12.2794146 15.6255936 24.6092929 15.6255936 64.349025 1.01859364e-14 46.9160125"></polygon>
                <polygon id="矩形备份-29" fill="url(#linearGradient-3)" transform="translate(71.148410, 38.339273) scale(-1, 1) translate(-71.148410, -38.339273) " points="63.3356129 12.3044675 78.9612065 24.6343457 78.9612065 64.3740778 63.3356129 46.9410654"></polygon>
                <polygon id="矩形" fill="url(#linearGradient-4)" points="15.5719229 24.56172 63.5719229 24.56172 63.5719229 63.56172 15.5719229 63.56172"></polygon>
            </g>
        </g>
    </g>
</svg>