<?xml version="1.0" encoding="UTF-8"?>
<svg width="143px" height="57px" viewBox="0 0 143 57" version="1.1" xmlns="http://www.w3.org/2000/svg" xmlns:xlink="http://www.w3.org/1999/xlink">
    <title>编组 5</title>
    <defs>
        <linearGradient x1="50%" y1="0%" x2="50%" y2="100%" id="linearGradient-1">
            <stop stop-color="#07142C" offset="0%"></stop>
            <stop stop-color="#103E77" stop-opacity="0.396689248" offset="100%"></stop>
        </linearGradient>
        <linearGradient x1="50%" y1="0%" x2="50%" y2="100%" id="linearGradient-2">
            <stop stop-color="#07142C" stop-opacity="0" offset="0%"></stop>
            <stop stop-color="#318CF8" stop-opacity="0.580556163" offset="100%"></stop>
        </linearGradient>
        <linearGradient x1="50%" y1="0%" x2="50%" y2="100%" id="linearGradient-3">
            <stop stop-color="#07142C" offset="0%"></stop>
            <stop stop-color="#103E77" stop-opacity="0.396689248" offset="100%"></stop>
        </linearGradient>
        <linearGradient x1="50%" y1="0%" x2="50%" y2="100%" id="linearGradient-4">
            <stop stop-color="#07142C" stop-opacity="0" offset="0%"></stop>
            <stop stop-color="#318CF8" stop-opacity="0.580556163" offset="100%"></stop>
        </linearGradient>
        <linearGradient x1="50%" y1="0%" x2="50%" y2="100%" id="linearGradient-5">
            <stop stop-color="#07142C" offset="0%"></stop>
            <stop stop-color="#1153A3" offset="100%"></stop>
        </linearGradient>
        <linearGradient x1="50%" y1="0%" x2="50%" y2="100%" id="linearGradient-6">
            <stop stop-color="#07142C" offset="0%"></stop>
            <stop stop-color="#318CF8" offset="100%"></stop>
        </linearGradient>
    </defs>
    <g id="深色版" stroke="none" stroke-width="1" fill="none" fill-rule="evenodd">
        <g id="大屏-公司模式" transform="translate(-523.000000, -646.000000)">
            <g id="编组-5" transform="translate(523.476148, 646.818122)">
                <path d="M69.9648778,32.1417897 L108.692691,43.1019639 C108.825474,43.13981 108.930347,43.2278942 108.992562,43.3397126 C109.054777,43.451531 109.074334,43.5870836 109.036488,43.7198666 C108.989074,43.8862197 108.859045,44.016249 108.692691,44.0636633 L108.692691,44.0636633 L70.2389838,55.0238375 C70.149399,55.0493711 70.0544625,55.0493711 69.9648778,55.0238375 L69.9648778,55.0238375 L31.5111701,44.0636633 C31.3783871,44.0258172 31.2735148,43.937733 31.2112999,43.8259146 C31.1490849,43.7140962 31.1295272,43.5785436 31.1673734,43.4457606 C31.2147877,43.2794075 31.344817,43.1493782 31.5111701,43.1019639 L31.5111701,43.1019639 L69.9648778,32.1417897 Z" id="矩形备份-40" stroke="url(#linearGradient-2)" fill="url(#linearGradient-1)" opacity="0.275483631"></path>
                <path d="M70.7646797,6.14178974 L138.292295,25.3105571 C138.425078,25.3484032 138.529951,25.4364874 138.592165,25.5483058 C138.65438,25.6601242 138.673938,25.7956768 138.636092,25.9284598 C138.588678,26.0948129 138.458648,26.2248422 138.292295,26.2722565 L138.292295,26.2722565 L71.0387857,45.4410239 C70.9492009,45.4665575 70.8542644,45.4665575 70.7646797,45.4410239 L70.7646797,45.4410239 L3.51117008,26.2722565 C3.37838709,26.2344104 3.27351484,26.1463262 3.21129987,26.0345078 C3.1490849,25.9226894 3.12952721,25.7871368 3.16737336,25.6543538 C3.21478774,25.4880007 3.344817,25.3579714 3.51117008,25.3105571 L3.51117008,25.3105571 L70.7646797,6.14178974 Z" id="矩形备份-41" stroke="url(#linearGradient-4)" fill="url(#linearGradient-3)"></path>
                <path d="M70.6224145,0.558976142 L126.010105,16.2675911 C126.142888,16.3054372 126.247761,16.3935214 126.309976,16.5053398 C126.372191,16.6171582 126.391748,16.7527108 126.353902,16.8854938 C126.306488,17.0518469 126.176458,17.1818761 126.010105,17.2292905 L126.010105,17.2292905 L70.8965206,32.9379054 C70.8069358,32.9634391 70.7119993,32.9634391 70.6224145,32.9379054 L70.6224145,32.9379054 L15.5088297,17.2292905 C15.3760467,17.1914444 15.2711745,17.1033602 15.2089595,16.9915418 C15.1467445,16.8797234 15.1271868,16.7441708 15.165033,16.6113878 C15.2124474,16.4450347 15.3424766,16.3150054 15.5088297,16.2675911 L15.5088297,16.2675911 L70.6224145,0.558976142 Z" id="矩形备份-42" stroke="url(#linearGradient-6)" fill="url(#linearGradient-5)"></path>
                <path d="M70.0939666,8.07812641 L96.2679445,15.5383005 C96.7990765,15.6896851 97.1069225,16.2429741 96.955538,16.774106 C96.8607092,17.1068122 96.6006507,17.3668707 96.2679445,17.4616995 L70.0939666,24.9218736 C69.9147971,24.972941 69.7249241,24.972941 69.5457546,24.9218736 L43.3717767,17.4616995 C42.8406447,17.3103149 42.5327987,16.7570259 42.6841833,16.225894 C42.779012,15.8931878 43.0390705,15.6331293 43.3717767,15.5383005 L69.5457546,8.07812641 C69.7249241,8.02705904 69.9147971,8.02705904 70.0939666,8.07812641 Z" id="矩形备份-43" fill="#1548A7"></path>
            </g>
        </g>
    </g>
</svg>