<?xml version="1.0" encoding="UTF-8"?>
<svg id="_图层_1" data-name="图层 1" xmlns="http://www.w3.org/2000/svg" xmlns:xlink="http://www.w3.org/1999/xlink" viewBox="0 0 114.5 74">
  <defs>
    <style>
      .cls-1 {
        fill: url(#_未命名的渐变_155);
        filter: url(#outer-glow-4);
      }

      .cls-2 {
        fill: url(#_未命名的渐变_155-3);
        filter: url(#outer-glow-6);
      }

      .cls-3 {
        fill: url(#_未命名的渐变_155-2);
        filter: url(#outer-glow-5);
      }

      .cls-4 {
        fill: url(#_未命名的渐变_155-5);
      }

      .cls-5 {
        fill: url(#_未命名的渐变_155-4);
      }

      .cls-6 {
        filter: url(#outer-glow-7);
      }
    </style>
    <linearGradient id="_未命名的渐变_155" data-name="未命名的渐变 155" x1="110.21" y1="27.52" x2="114.21" y2="27.52" gradientUnits="userSpaceOnUse">
      <stop offset="0" stop-color="#f7f78b"/>
      <stop offset="1" stop-color="#f4ee31"/>
    </linearGradient>
    <filter id="outer-glow-4" filterUnits="userSpaceOnUse">
      <feOffset dx="0" dy="0"/>
      <feGaussianBlur result="blur" stdDeviation="4"/>
      <feFlood flood-color="#f2e719" flood-opacity=".5"/>
      <feComposite in2="blur" operator="in"/>
      <feComposite in="SourceGraphic"/>
    </filter>
    <linearGradient id="_未命名的渐变_155-2" data-name="未命名的渐变 155" x1="1286.18" y1="-1187.19" x2="1288.18" y2="-1187.19" gradientTransform="translate(911.4 1541.25) rotate(-78.61)" xlink:href="#_未命名的渐变_155"/>
    <filter id="outer-glow-5" filterUnits="userSpaceOnUse">
      <feOffset dx="0" dy="0"/>
      <feGaussianBlur result="blur-2" stdDeviation="4"/>
      <feFlood flood-color="#edf219" flood-opacity=".8"/>
      <feComposite in2="blur-2" operator="in"/>
      <feComposite in="SourceGraphic"/>
    </filter>
    <linearGradient id="_未命名的渐变_155-3" data-name="未命名的渐变 155" x1="1290.83" y1="-1083.06" x2="1292.83" y2="-1083.06" gradientTransform="translate(911.4 1541.25) rotate(-78.61)" xlink:href="#_未命名的渐变_155"/>
    <filter id="outer-glow-6" filterUnits="userSpaceOnUse">
      <feOffset dx="0" dy="0"/>
      <feGaussianBlur result="blur-3" stdDeviation="4"/>
      <feFlood flood-color="#f2e219" flood-opacity=".8"/>
      <feComposite in2="blur-3" operator="in"/>
      <feComposite in="SourceGraphic"/>
    </filter>
    <filter id="outer-glow-7" filterUnits="userSpaceOnUse">
      <feOffset dx="0" dy="0"/>
      <feGaussianBlur result="blur-4" stdDeviation="5"/>
      <feFlood flood-color="#f2f264" flood-opacity=".5"/>
      <feComposite in2="blur-4" operator="in"/>
      <feComposite in="SourceGraphic"/>
    </filter>
    <linearGradient id="_未命名的渐变_155-4" data-name="未命名的渐变 155" x1="22" y1="36.82" x2="88.08" y2="36.82" xlink:href="#_未命名的渐变_155"/>
    <linearGradient id="_未命名的渐变_155-5" data-name="未命名的渐变 155" x1="28.82" y1="61.4" x2="47.11" y2="61.4" xlink:href="#_未命名的渐变_155"/>
  </defs>
  <circle class="cls-1" cx="112.21" cy="27.52" r="2"/>
  <circle class="cls-3" cx="1.71" cy="45.02" r="1"/>
  <circle class="cls-2" cx="104.71" cy="61.02" r="1"/>
  <g class="cls-6">
    <path class="cls-5" d="M86.72,5.04c-.47-3.23-2.52-3.93-5.45-4.02-15.94-.42-28.37,5.93-37.66,18.86-1.42,1.97-3.49,3.76-5.66,4.84-7.05,3.53-12.3,8.71-15.69,15.76-.42,.89-.3,2.49,.26,3.26,.41,.56,2.03,.56,2.98,.31,2.78-.75,5.46-1.92,8.27-2.54,.99-.22,2.44,.44,3.31,1.16,4.64,3.81,8.72,8.55,13.84,11.46,6.49,3.69,7.94,8.33,6.11,14.97-.28,1.03,.23,2.96,.97,3.38,.78,.43,2.57-.13,3.45-.84,5.78-4.54,9.66-10.49,11.31-17.62,.79-3.43,2.48-5.96,4.73-8.53,4.36-4.99,7.19-9.51,8.78-15.09,0,0,0-.02,.02-.02,3.75-10.98,.42-25.35,.42-25.35Zm-20.29,23.54l7.11,4.75-26.07,4.74,11.85-7.9-7.9-3.95,19.6-11.84,10.42,10.27-15.01,3.94Z"/>
    <path class="cls-4" d="M46.13,62.5c1.96-2.42,.82-7.19-1.89-9.38,0,0-.02-.01-.03-.02l-.03-.03c-2.71-2.19-7.61-2.3-9.57,.12-2.15,2.66-4.39,9.2-5.69,14.11-.7,2.65,2.24,5,4.67,3.75,4.57-2.35,10.5-6.02,12.54-8.55h0Z"/>
  </g>
</svg>