<?xml version="1.0" encoding="UTF-8"?><svg version="1.1" width="22px" height="22px" viewBox="0 0 22.0 22.0" xmlns="http://www.w3.org/2000/svg" xmlns:xlink="http://www.w3.org/1999/xlink"><defs><clipPath id="i0"><path d="M1920,0 L1920,1524 L0,1524 L0,0 L1920,0 Z"></path></clipPath><clipPath id="i1"><path d="M14.0812844,0 C18.661839,1.38884948 22,5.68211094 22,10.7643637 C22,16.969556 17.0236331,22 10.8851465,22 C5.52037723,22 1.04356124,18.1580366 0,13.0483189 C1.29469321,13.6026702 2.68669179,13.8873646 4.09273605,13.8853738 C9.89036713,13.8853738 14.5900977,9.13457228 14.5900977,3.27393957 C14.5900977,2.19594269 14.4314023,1.15602213 14.1356237,0.176024968 L14.0812844,0 Z"></path></clipPath></defs><g transform="translate(-1701.0 -19.0)"><g clip-path="url(#i0)"><g transform="translate(1701.0 19.0)"><g clip-path="url(#i1)"><polygon points="0,0 22,0 22,22 0,22 0,0" stroke="none" fill="#39A3F3"></polygon></g></g></g></g></svg>