<?xml version="1.0" encoding="UTF-8"?><svg version="1.1" width="483px" height="48px" viewBox="0 0 483.0 48.0" xmlns="http://www.w3.org/2000/svg" xmlns:xlink="http://www.w3.org/1999/xlink"><defs><clipPath id="i0"><path d="M2210,0 L2210,1080 L0,1080 L0,0 L2210,0 Z"></path></clipPath><clipPath id="i1"><path d="M483,0 L483,48 L0,48 L0,0 L483,0 Z"></path></clipPath><linearGradient id="i2" x1="483px" y1="24px" x2="-5.36237721e-14px" y2="24px" gradientUnits="userSpaceOnUse"><stop stop-color="rgba(232, 249, 255, 0)" offset="0%"></stop><stop stop-color="#BDECFF" offset="100%"></stop></linearGradient><clipPath id="i3"><path d="M14,0 C15.1045695,-2.02906125e-16 16,0.8954305 16,2 L16,14 C16,15.1045695 15.1045695,16 14,16 L2,16 C0.8954305,16 1.3527075e-16,15.1045695 0,14 L0,2 C-1.3527075e-16,0.8954305 0.8954305,2.02906125e-16 2,0 L14,0 Z"></path></clipPath><radialGradient id="i4" cx="8.26695463px" cy="7.31461155px" r="10.2740584px" gradientTransform="translate(15.581566185273772 -0.9523430832199908) rotate(89.99999999999959)" gradientUnits="userSpaceOnUse"><stop stop-color="#026D9A" offset="0%"></stop><stop stop-color="#29E3FF" offset="100%"></stop></radialGradient><clipPath id="i5"><path d="M9,0 C9.55228475,-1.01453063e-16 10,0.44771525 10,1 L10,9 C10,9.55228475 9.55228475,10 9,10 L1,10 C0.44771525,10 -4.33869274e-17,9.55228475 0,9 L0,1 C-6.76353751e-17,0.44771525 0.44771525,-9.5692398e-18 1,0 L9,0 Z"></path></clipPath></defs><g transform="translate(-1698.0 -291.0)"><g clip-path="url(#i0)"><g transform="translate(1697.999999999998 291.0)"><g clip-path="url(#i1)"><polygon points="0,0 483,0 483,48 0,48 0,0" stroke="none" fill="url(#i2)"></polygon></g><g transform="translate(24.0 13.272077938642362) rotate(44.99999999999999)"><g clip-path="url(#i3)"><polygon points="-9.09494702e-13,0 16,0 16,16 -9.09494702e-13,16 -9.09494702e-13,0" stroke="none" fill="url(#i4)"></polygon></g></g><g transform="translate(25.0 26.0)"><g clip-path="url(#i5)"><polygon points="0,0 10,0 10,10 0,10 0,0" stroke="none" fill="#92CFFF"></polygon></g></g></g></g></g></svg>