<?xml version="1.0" encoding="UTF-8"?>
<svg width="302px" height="7px" viewBox="0 0 302 7" version="1.1" xmlns="http://www.w3.org/2000/svg" xmlns:xlink="http://www.w3.org/1999/xlink">
    <title>编组 6</title>
    <defs>
        <linearGradient x1="50%" y1="0%" x2="50%" y2="100%" id="linearGradient-1">
            <stop stop-color="#00FFFF" offset="0%"></stop>
            <stop stop-color="#0A2544" stop-opacity="0" offset="100%"></stop>
        </linearGradient>
        <linearGradient x1="50%" y1="0%" x2="50%" y2="100%" id="linearGradient-2">
            <stop stop-color="#00FFFF" offset="0%"></stop>
            <stop stop-color="#0A2544" stop-opacity="0" offset="100%"></stop>
        </linearGradient>
        <linearGradient x1="50%" y1="0%" x2="50%" y2="100%" id="linearGradient-3">
            <stop stop-color="#00FFFF" offset="0%"></stop>
            <stop stop-color="#0A2544" stop-opacity="0" offset="100%"></stop>
        </linearGradient>
        <linearGradient x1="50%" y1="0%" x2="50%" y2="100%" id="linearGradient-4">
            <stop stop-color="#00FFFF" offset="0%"></stop>
            <stop stop-color="#0A2544" stop-opacity="0" offset="100%"></stop>
        </linearGradient>
        <linearGradient x1="50%" y1="0%" x2="50%" y2="100%" id="linearGradient-5">
            <stop stop-color="#00FFFF" offset="0%"></stop>
            <stop stop-color="#0A2544" stop-opacity="0" offset="100%"></stop>
        </linearGradient>
        <linearGradient x1="50%" y1="0%" x2="50%" y2="100%" id="linearGradient-6">
            <stop stop-color="#00FFFF" offset="0%"></stop>
            <stop stop-color="#0A2544" stop-opacity="0" offset="100%"></stop>
        </linearGradient>
        <linearGradient x1="50%" y1="0%" x2="50%" y2="100%" id="linearGradient-7">
            <stop stop-color="#00FFFF" offset="0%"></stop>
            <stop stop-color="#0A2544" stop-opacity="0" offset="100%"></stop>
        </linearGradient>
        <linearGradient x1="50%" y1="0%" x2="50%" y2="100%" id="linearGradient-8">
            <stop stop-color="#00FFFF" offset="0%"></stop>
            <stop stop-color="#0A2544" stop-opacity="0" offset="100%"></stop>
        </linearGradient>
        <linearGradient x1="50%" y1="0%" x2="50%" y2="100%" id="linearGradient-9">
            <stop stop-color="#00FFFF" offset="0%"></stop>
            <stop stop-color="#0A2544" stop-opacity="0" offset="100%"></stop>
        </linearGradient>
        <linearGradient x1="50%" y1="0%" x2="50%" y2="100%" id="linearGradient-10">
            <stop stop-color="#00FFFF" offset="0%"></stop>
            <stop stop-color="#0A2544" stop-opacity="0" offset="100%"></stop>
        </linearGradient>
        <linearGradient x1="50%" y1="0%" x2="50%" y2="100%" id="linearGradient-11">
            <stop stop-color="#00FFFF" offset="0%"></stop>
            <stop stop-color="#0A2544" stop-opacity="0" offset="100%"></stop>
        </linearGradient>
        <linearGradient x1="50%" y1="0%" x2="50%" y2="100%" id="linearGradient-12">
            <stop stop-color="#00FFFF" offset="0%"></stop>
            <stop stop-color="#0A2544" stop-opacity="0" offset="100%"></stop>
        </linearGradient>
    </defs>
    <g id="215国标2.0" stroke="none" stroke-width="1" fill="none" fill-rule="evenodd">
        <g id="编组-6" transform="translate(0.800755, 0.888387)">
            <path d="M155.7578,-46.4905069 C155.895871,-46.4905069 156.0078,-46.3785781 156.0078,-46.2405069 L156.0078,54.5094931 L156.0078,54.5094931 L155.5078,54.5094931 L155.5078,-46.2405069 C155.5078,-46.3785781 155.619729,-46.4905069 155.7578,-46.4905069 Z" id="矩形备份-42" fill="url(#linearGradient-1)" transform="translate(155.757800, 4.009493) rotate(89.500000) translate(-155.757800, -4.009493) "></path>
            <path d="M245.59033,-46.8696347 C245.728401,-46.8696347 245.84033,-46.7577059 245.84033,-46.6196347 L245.84033,54.1303653 L245.84033,54.1303653 L245.34033,54.1303653 L245.34033,-46.6196347 C245.34033,-46.7577059 245.452259,-46.8696347 245.59033,-46.8696347 Z" id="矩形备份-55" fill="url(#linearGradient-1)" transform="translate(245.590330, 3.630365) rotate(89.500000) translate(-245.590330, -3.630365) "></path>
            <path d="M65.0087145,-46.0630977 C65.1467857,-46.0630977 65.2587145,-45.9511688 65.2587145,-45.8130977 L65.2587145,54.9369023 L65.2587145,54.9369023 L64.7587145,54.9369023 L64.7587145,-45.8130977 C64.7587145,-45.9511688 64.8706434,-46.0630977 65.0087145,-46.0630977 Z" id="矩形备份-40" fill="url(#linearGradient-1)" transform="translate(65.008715, 4.436902) rotate(89.500000) translate(-65.008715, -4.436902) "></path>
            <path d="M173.130705,-11.0284279 C173.268777,-11.0284279 173.380705,-10.9164991 173.380705,-10.7784279 L173.380705,20.9715721 L173.380705,20.9715721 L172.880705,20.9715721 L172.880705,-10.7784279 C172.880705,-10.9164991 172.992634,-11.0284279 173.130705,-11.0284279 Z" id="矩形备份-43" fill="url(#linearGradient-2)" transform="translate(173.130705, 4.971572) rotate(89.500000) translate(-173.130705, -4.971572) "></path>
            <path d="M262.963236,-11.4075558 C263.101307,-11.4075558 263.213236,-11.2956269 263.213236,-11.1575558 L263.213236,20.5924442 L263.213236,20.5924442 L262.713236,20.5924442 L262.713236,-11.1575558 C262.713236,-11.2956269 262.825164,-11.4075558 262.963236,-11.4075558 Z" id="矩形备份-56" fill="url(#linearGradient-2)" transform="translate(262.963236, 4.592444) rotate(89.500000) translate(-262.963236, -4.592444) "></path>
            <path d="M151.30778,-49.0935066 C151.445851,-49.0935066 151.55778,-48.9815778 151.55778,-48.8435066 L151.55778,52.9064934 L151.55778,52.9064934 L151.05778,52.9064934 L151.05778,-48.8435066 C151.05778,-48.9815778 151.169709,-49.0935066 151.30778,-49.0935066 Z" id="矩形备份-44" fill="url(#linearGradient-3)" transform="translate(151.307780, 1.906493) rotate(89.500000) translate(-151.307780, -1.906493) "></path>
            <path d="M241.14031,-49.4726345 C241.278381,-49.4726345 241.39031,-49.3607056 241.39031,-49.2226345 L241.39031,52.5273655 L241.39031,52.5273655 L240.89031,52.5273655 L240.89031,-49.2226345 C240.89031,-49.3607056 241.002239,-49.4726345 241.14031,-49.4726345 Z" id="矩形备份-57" fill="url(#linearGradient-3)" transform="translate(241.140310, 1.527366) rotate(89.500000) translate(-241.140310, -1.527366) "></path>
            <path d="M192.363978,-5.20050622 C192.502049,-5.20050622 192.613978,-5.0885774 192.613978,-4.95050622 L192.613978,14.7994938 L192.613978,14.7994938 L192.113978,14.7994938 L192.113978,-4.95050622 C192.113978,-5.0885774 192.225907,-5.20050622 192.363978,-5.20050622 Z" id="矩形备份-45" fill="url(#linearGradient-4)" transform="translate(192.363978, 4.799494) rotate(89.500000) translate(-192.363978, -4.799494) "></path>
            <path d="M282.196508,-5.57963404 C282.334579,-5.57963404 282.446508,-5.46770523 282.446508,-5.32963404 L282.446508,14.420366 L282.446508,14.420366 L281.946508,14.420366 L281.946508,-5.32963404 C281.946508,-5.46770523 282.058437,-5.57963404 282.196508,-5.57963404 Z" id="矩形备份-58" fill="url(#linearGradient-4)" transform="translate(282.196508, 4.420366) rotate(89.500000) translate(-282.196508, -4.420366) "></path>
            <path d="M142.264821,-42.4912774 C142.402892,-42.4912774 142.514821,-42.3793486 142.514821,-42.2412774 L142.514821,44.5087226 L142.514821,44.5087226 L142.014821,44.5087226 L142.014821,-42.2412774 C142.014821,-42.3793486 142.12675,-42.4912774 142.264821,-42.4912774 Z" id="矩形备份-46" fill="url(#linearGradient-5)" transform="translate(142.264821, 1.008723) rotate(89.500000) translate(-142.264821, -1.008723) "></path>
            <path d="M232.097351,-42.8704052 C232.235423,-42.8704052 232.347351,-42.7584764 232.347351,-42.6204052 L232.347351,44.1295948 L232.347351,44.1295948 L231.847351,44.1295948 L231.847351,-42.6204052 C231.847351,-42.7584764 231.95928,-42.8704052 232.097351,-42.8704052 Z" id="矩形备份-59" fill="url(#linearGradient-5)" transform="translate(232.097351, 0.629595) rotate(89.500000) translate(-232.097351, -0.629595) "></path>
            <path d="M144.24923,-49.070642 C144.387301,-49.070642 144.49923,-48.9587132 144.49923,-48.820642 L144.49923,57.929358 L144.49923,57.929358 L143.99923,57.929358 L143.99923,-48.820642 C143.99923,-48.9587132 144.111159,-49.070642 144.24923,-49.070642 Z" id="矩形备份-47" fill="url(#linearGradient-6)" transform="translate(144.249230, 4.429358) rotate(89.500000) translate(-144.249230, -4.429358) "></path>
            <path d="M234.08176,-49.4497698 C234.219831,-49.4497698 234.33176,-49.337841 234.33176,-49.1997698 L234.33176,57.5502302 L234.33176,57.5502302 L233.83176,57.5502302 L233.83176,-49.1997698 C233.83176,-49.337841 233.943689,-49.4497698 234.08176,-49.4497698 Z" id="矩形备份-60" fill="url(#linearGradient-6)" transform="translate(234.081760, 4.050230) rotate(89.500000) translate(-234.081760, -4.050230) "></path>
            <path d="M193.238909,-14.8499876 C193.37698,-14.8499876 193.488909,-14.7380588 193.488909,-14.5999876 L193.488909,20.1500124 L193.488909,20.1500124 L192.988909,20.1500124 L192.988909,-14.5999876 C192.988909,-14.7380588 193.100837,-14.8499876 193.238909,-14.8499876 Z" id="矩形备份-48" fill="url(#linearGradient-7)" transform="translate(193.238909, 2.650012) rotate(89.500000) translate(-193.238909, -2.650012) "></path>
            <path d="M283.071439,-15.2291154 C283.20951,-15.2291154 283.321439,-15.1171866 283.321439,-14.9791154 L283.321439,19.7708846 L283.321439,19.7708846 L282.821439,19.7708846 L282.821439,-14.9791154 C282.821439,-15.1171866 282.933368,-15.2291154 283.071439,-15.2291154 Z" id="矩形备份-61" fill="url(#linearGradient-7)" transform="translate(283.071439, 2.270885) rotate(89.500000) translate(-283.071439, -2.270885) "></path>
            <path d="M156.550294,-12.5913202 C156.688365,-12.5913202 156.800294,-12.4793914 156.800294,-12.3413202 L156.800294,21.4086798 L156.800294,21.4086798 L156.300294,21.4086798 L156.300294,-12.3413202 C156.300294,-12.4793914 156.412223,-12.5913202 156.550294,-12.5913202 Z" id="矩形备份-49" fill="url(#linearGradient-8)" transform="translate(156.550294, 4.408680) rotate(89.500000) translate(-156.550294, -4.408680) "></path>
            <path d="M246.382824,-12.9704481 C246.520895,-12.9704481 246.632824,-12.8585193 246.632824,-12.7204481 L246.632824,21.0295519 L246.632824,21.0295519 L246.132824,21.0295519 L246.132824,-12.7204481 C246.132824,-12.8585193 246.244753,-12.9704481 246.382824,-12.9704481 Z" id="矩形备份-62" fill="url(#linearGradient-8)" transform="translate(246.382824, 4.029552) rotate(89.500000) translate(-246.382824, -4.029552) "></path>
            <path d="M144.470923,-46.9489542 C144.608995,-46.9489542 144.720923,-46.8370253 144.720923,-46.6989542 L144.720923,54.0510458 L144.720923,54.0510458 L144.220923,54.0510458 L144.220923,-46.6989542 C144.220923,-46.8370253 144.332852,-46.9489542 144.470923,-46.9489542 Z" id="矩形备份-50" fill="url(#linearGradient-1)" transform="translate(144.470923, 3.551046) rotate(89.500000) translate(-144.470923, -3.551046) "></path>
            <path d="M234.303454,-47.328082 C234.441525,-47.328082 234.553454,-47.2161532 234.553454,-47.078082 L234.553454,53.671918 L234.553454,53.671918 L234.053454,53.671918 L234.053454,-47.078082 C234.053454,-47.2161532 234.165382,-47.328082 234.303454,-47.328082 Z" id="矩形备份-63" fill="url(#linearGradient-1)" transform="translate(234.303454, 3.171918) rotate(89.500000) translate(-234.303454, -3.171918) "></path>
            <path d="M137.141967,-39.4445578 C137.280038,-39.4445578 137.391967,-39.332629 137.391967,-39.1945578 L137.391967,45.5554422 L137.391967,45.5554422 L136.891967,45.5554422 L136.891967,-39.1945578 C136.891967,-39.332629 137.003896,-39.4445578 137.141967,-39.4445578 Z" id="矩形备份-51" fill="url(#linearGradient-9)" transform="translate(137.141967, 3.055442) rotate(89.500000) translate(-137.141967, -3.055442) "></path>
            <path d="M226.974497,-39.8236856 C227.112569,-39.8236856 227.224497,-39.7117568 227.224497,-39.5736856 L227.224497,45.1763144 L227.224497,45.1763144 L226.724497,45.1763144 L226.724497,-39.5736856 C226.724497,-39.7117568 226.836426,-39.8236856 226.974497,-39.8236856 Z" id="矩形备份-64" fill="url(#linearGradient-9)" transform="translate(226.974497, 2.676314) rotate(89.500000) translate(-226.974497, -2.676314) "></path>
            <path d="M154.675607,-32.5483153 C154.813679,-32.5483153 154.925607,-32.4363864 154.925607,-32.2983153 L154.925607,37.4516847 L154.925607,37.4516847 L154.425607,37.4516847 L154.425607,-32.2983153 C154.425607,-32.4363864 154.537536,-32.5483153 154.675607,-32.5483153 Z" id="矩形备份-52" fill="url(#linearGradient-10)" transform="translate(154.675607, 2.451685) rotate(89.500000) translate(-154.675607, -2.451685) "></path>
            <path d="M244.508138,-32.9274431 C244.646209,-32.9274431 244.758138,-32.8155143 244.758138,-32.6774431 L244.758138,37.0725569 L244.758138,37.0725569 L244.258138,37.0725569 L244.258138,-32.6774431 C244.258138,-32.8155143 244.370067,-32.9274431 244.508138,-32.9274431 Z" id="矩形备份-65" fill="url(#linearGradient-10)" transform="translate(244.508138, 2.072557) rotate(89.500000) translate(-244.508138, -2.072557) "></path>
            <path d="M135.336326,-30.0402446 C135.474398,-30.0402446 135.586326,-29.9283158 135.586326,-29.7902446 L135.586326,34.9597554 L135.586326,34.9597554 L135.086326,34.9597554 L135.086326,-29.7902446 C135.086326,-29.9283158 135.198255,-30.0402446 135.336326,-30.0402446 Z" id="矩形备份-53" fill="url(#linearGradient-11)" transform="translate(135.336326, 2.459755) rotate(89.500000) translate(-135.336326, -2.459755) "></path>
            <path d="M225.168857,-30.4193724 C225.306928,-30.4193724 225.418857,-30.3074436 225.418857,-30.1693724 L225.418857,34.5806276 L225.418857,34.5806276 L224.918857,34.5806276 L224.918857,-30.1693724 C224.918857,-30.3074436 225.030785,-30.4193724 225.168857,-30.4193724 Z" id="矩形备份-66" fill="url(#linearGradient-11)" transform="translate(225.168857, 2.080628) rotate(89.500000) translate(-225.168857, -2.080628) "></path>
            <path d="M126.075586,-30.1180815 C126.213657,-30.1180815 126.325586,-30.0061527 126.325586,-29.8680815 L126.325586,33.8819185 L126.325586,33.8819185 L125.825586,33.8819185 L125.825586,-29.8680815 C125.825586,-30.0061527 125.937515,-30.1180815 126.075586,-30.1180815 Z" id="矩形备份-54" fill="url(#linearGradient-12)" transform="translate(126.075586, 1.881919) rotate(89.500000) translate(-126.075586, -1.881919) "></path>
            <path d="M215.908116,-30.4972093 C216.046188,-30.4972093 216.158116,-30.3852805 216.158116,-30.2472093 L216.158116,33.5027907 L216.158116,33.5027907 L215.658116,33.5027907 L215.658116,-30.2472093 C215.658116,-30.3852805 215.770045,-30.4972093 215.908116,-30.4972093 Z" id="矩形备份-67" fill="url(#linearGradient-12)" transform="translate(215.908116, 1.502791) rotate(89.500000) translate(-215.908116, -1.502791) "></path>
            <path d="M82.3816202,-10.6010187 C82.5196914,-10.6010187 82.6316202,-10.4890899 82.6316202,-10.3510187 L82.6316202,21.3989813 L82.6316202,21.3989813 L82.1316202,21.3989813 L82.1316202,-10.3510187 C82.1316202,-10.4890899 82.243549,-10.6010187 82.3816202,-10.6010187 Z" id="矩形备份-29" fill="url(#linearGradient-2)" transform="translate(82.381620, 5.398981) rotate(89.500000) translate(-82.381620, -5.398981) "></path>
            <path d="M60.5586948,-48.6660974 C60.696766,-48.6660974 60.8086948,-48.5541686 60.8086948,-48.4160974 L60.8086948,53.3339026 L60.8086948,53.3339026 L60.3086948,53.3339026 L60.3086948,-48.4160974 C60.3086948,-48.5541686 60.4206236,-48.6660974 60.5586948,-48.6660974 Z" id="矩形备份-30" fill="url(#linearGradient-3)" transform="translate(60.558695, 2.333903) rotate(89.500000) translate(-60.558695, -2.333903) "></path>
            <path d="M101.614893,-4.77309697 C101.752964,-4.77309697 101.864893,-4.66116815 101.864893,-4.52309697 L101.864893,15.226903 L101.864893,15.226903 L101.364893,15.226903 L101.364893,-4.52309697 C101.364893,-4.66116815 101.476822,-4.77309697 101.614893,-4.77309697 Z" id="矩形备份-31" fill="url(#linearGradient-4)" transform="translate(101.614893, 5.226903) rotate(89.500000) translate(-101.614893, -5.226903) "></path>
            <path d="M51.515736,-42.0638682 C51.6538072,-42.0638682 51.765736,-41.9519393 51.765736,-41.8138682 L51.765736,44.9361318 L51.765736,44.9361318 L51.265736,44.9361318 L51.265736,-41.8138682 C51.265736,-41.9519393 51.3776648,-42.0638682 51.515736,-42.0638682 Z" id="矩形备份-32" fill="url(#linearGradient-5)" transform="translate(51.515736, 1.436132) rotate(89.500000) translate(-51.515736, -1.436132) "></path>
            <path d="M53.5001445,-48.6432327 C53.6382157,-48.6432327 53.7501445,-48.5313039 53.7501445,-48.3932327 L53.7501445,58.3567673 L53.7501445,58.3567673 L53.2501445,58.3567673 L53.2501445,-48.3932327 C53.2501445,-48.5313039 53.3620733,-48.6432327 53.5001445,-48.6432327 Z" id="矩形备份-33" fill="url(#linearGradient-6)" transform="translate(53.500145, 4.856767) rotate(89.500000) translate(-53.500145, -4.856767) "></path>
            <path d="M102.489823,-14.4225783 C102.627895,-14.4225783 102.739823,-14.3106495 102.739823,-14.1725783 L102.739823,20.5774217 L102.739823,20.5774217 L102.239823,20.5774217 L102.239823,-14.1725783 C102.239823,-14.3106495 102.351752,-14.4225783 102.489823,-14.4225783 Z" id="矩形备份-34" fill="url(#linearGradient-7)" transform="translate(102.489823, 3.077422) rotate(89.500000) translate(-102.489823, -3.077422) "></path>
            <path d="M65.8012088,-12.163911 C65.93928,-12.163911 66.0512088,-12.0519822 66.0512088,-11.913911 L66.0512088,21.836089 L66.0512088,21.836089 L65.5512088,21.836089 L65.5512088,-11.913911 C65.5512088,-12.0519822 65.6631376,-12.163911 65.8012088,-12.163911 Z" id="矩形备份-35" fill="url(#linearGradient-8)" transform="translate(65.801209, 4.836089) rotate(89.500000) translate(-65.801209, -4.836089) "></path>
            <path d="M53.7218381,-46.5215449 C53.8599093,-46.5215449 53.9718381,-46.4096161 53.9718381,-46.2715449 L53.9718381,54.4784551 L53.9718381,54.4784551 L53.4718381,54.4784551 L53.4718381,-46.2715449 C53.4718381,-46.4096161 53.5837669,-46.5215449 53.7218381,-46.5215449 Z" id="矩形备份-38" fill="url(#linearGradient-1)" transform="translate(53.721838, 3.978455) rotate(89.500000) translate(-53.721838, -3.978455) "></path>
            <path d="M46.3928821,-39.0171486 C46.5309533,-39.0171486 46.6428821,-38.9052198 46.6428821,-38.7671486 L46.6428821,45.9828514 L46.6428821,45.9828514 L46.1428821,45.9828514 L46.1428821,-38.7671486 C46.1428821,-38.9052198 46.2548109,-39.0171486 46.3928821,-39.0171486 Z" id="矩形备份-36" fill="url(#linearGradient-9)" transform="translate(46.392882, 3.482851) rotate(89.500000) translate(-46.392882, -3.482851) "></path>
            <path d="M63.9265223,-32.120906 C64.0645934,-32.120906 64.1765223,-32.0089772 64.1765223,-31.870906 L64.1765223,37.879094 L64.1765223,37.879094 L63.6765223,37.879094 L63.6765223,-31.870906 C63.6765223,-32.0089772 63.7884511,-32.120906 63.9265223,-32.120906 Z" id="矩形备份-41" fill="url(#linearGradient-10)" transform="translate(63.926522, 2.879094) rotate(89.500000) translate(-63.926522, -2.879094) "></path>
            <path d="M44.5872412,-29.6128354 C44.7253124,-29.6128354 44.8372412,-29.5009065 44.8372412,-29.3628354 L44.8372412,35.3871646 L44.8372412,35.3871646 L44.3372412,35.3871646 L44.3372412,-29.3628354 C44.3372412,-29.5009065 44.4491701,-29.6128354 44.5872412,-29.6128354 Z" id="矩形备份-37" fill="url(#linearGradient-11)" transform="translate(44.587241, 2.887165) rotate(89.500000) translate(-44.587241, -2.887165) "></path>
            <path d="M35.3265011,-29.6906722 C35.4645722,-29.6906722 35.5765011,-29.5787434 35.5765011,-29.4406722 L35.5765011,34.3093278 L35.5765011,34.3093278 L35.0765011,34.3093278 L35.0765011,-29.4406722 C35.0765011,-29.5787434 35.1884299,-29.6906722 35.3265011,-29.6906722 Z" id="矩形备份-39" fill="url(#linearGradient-12)" transform="translate(35.326501, 2.309328) rotate(89.500000) translate(-35.326501, -2.309328) "></path>
        </g>
    </g>
</svg>