<?xml version="1.0" encoding="UTF-8"?><svg version="1.1" width="55px" height="55px" viewBox="0 0 55.0 55.0" xmlns="http://www.w3.org/2000/svg" xmlns:xlink="http://www.w3.org/1999/xlink"><defs><clipPath id="i0"><path d="M1920,0 L1920,4382 L0,4382 L0,0 L1920,0 Z"></path></clipPath><clipPath id="i1"><path d="M9.52,0 C11.872,0 13.832,0.616 15.344,1.848 C16.8,3.024 17.668,4.648 17.976,6.664 L14.784,6.664 C14.448,5.348 13.832,4.396 12.908,3.78 C12.012,3.164 10.864,2.884 9.464,2.884 C7.364,2.884 5.796,3.584 4.732,5.04 C3.752,6.328 3.276,8.12 3.276,10.416 C3.276,12.768 3.752,14.588 4.704,15.848 C5.74,17.192 7.364,17.892 9.548,17.892 C10.976,17.892 12.152,17.528 13.048,16.856 C14,16.1 14.672,14.952 15.064,13.44 L18.256,13.44 C17.808,15.792 16.772,17.612 15.12,18.928 C13.58,20.16 11.732,20.776 9.576,20.776 C6.244,20.776 3.752,19.712 2.128,17.64 C0.7,15.848 0,13.44 0,10.416 C0,7.448 0.728,5.012 2.212,3.164 C3.892,1.036 6.328,0 9.52,0 Z"></path></clipPath><clipPath id="i2"><path d="M14.924,0 C15.8363744,-1.6760046e-16 16.576,0.739625593 16.576,1.652 L16.576,18.396 C16.576,19.2774465 15.8614465,19.992 14.98,19.992 C13.9812402,19.992 13.0468496,19.4990238 12.4830359,18.6746239 L3.41961278,5.42222372 C3.39982984,5.39329741 3.3670442,5.376 3.332,5.376 C3.30107205,5.376 3.276,5.40107205 3.276,5.432 L3.276,18.354 C3.276,19.2586424 2.54264242,19.992 1.638,19.992 C0.73335758,19.992 -3.33302465e-16,19.2586424 0,18.354 L0,1.638 C-1.10786744e-16,0.73335758 0.73335758,1.66180117e-16 1.638,0 C2.6631922,-1.88324752e-16 3.62246481,0.505465661 4.20208051,1.35108064 L13.1283391,14.3738092 C13.148155,14.4027191 13.1809507,14.42 13.216,14.42 C13.2469279,14.42 13.272,14.3949279 13.272,14.364 L13.272,1.652 C13.272,0.739625593 14.0116256,-6.42750799e-16 14.924,0 Z"></path></clipPath><clipPath id="i3"><path d="M27.5,0 C42.6878306,0 55,12.3121694 55,27.5 C55,42.6878306 42.6878306,55 27.5,55 C12.3121694,55 0,42.6878306 0,27.5 C0,12.3121694 12.3121694,0 27.5,0 Z M27.5,3.5 C14.245166,3.5 3.5,14.245166 3.5,27.5 C3.5,40.754834 14.245166,51.5 27.5,51.5 C40.754834,51.5 51.5,40.754834 51.5,27.5 C51.5,14.245166 40.754834,3.5 27.5,3.5 Z"></path></clipPath></defs><g transform="translate(-1598.0 -189.0)"><g clip-path="url(#i0)"><g transform="translate(1598.0 189.0)"><g transform="translate(8.61999999999989 17.11599999999999)"><g clip-path="url(#i1)"><polygon points="0,0 18.256,0 18.256,20.776 0,20.776 0,0" stroke="none" fill="#29557A"></polygon></g><g transform="translate(21.33600000000024 0.3919999999998254)"><g clip-path="url(#i2)"><polygon points="0,0 16.576,0 16.576,19.992 0,19.992 0,0" stroke="none" fill="#29557A"></polygon></g></g></g><g clip-path="url(#i3)"><polygon points="0,0 55,0 55,55 0,55 0,0" stroke="none" fill="#29557A"></polygon></g></g></g></g></svg>