<?xml version="1.0" encoding="UTF-8"?><svg version="1.1" width="55px" height="55px" viewBox="0 0 55.0 55.0" xmlns="http://www.w3.org/2000/svg" xmlns:xlink="http://www.w3.org/1999/xlink"><defs><clipPath id="i0"><path d="M1920,0 L1920,4382 L0,4382 L0,0 L1920,0 Z"></path></clipPath><clipPath id="i1"><path d="M13.02,0 C13.7931986,-1.23165277e-15 14.42,0.62680135 14.42,1.4 C14.42,2.17319865 13.7931986,2.8 13.02,2.8 L4.276,2.8 C3.72371525,2.8 3.276,3.24771525 3.276,3.8 L3.276,7.344 C3.276,7.89628475 3.72371525,8.344 4.276,8.344 L12.348,8.344 C13.1211986,8.344 13.748,8.97080135 13.748,9.744 C13.748,10.5171986 13.1211986,11.144 12.348,11.144 L4.276,11.144 C3.72371525,11.144 3.276,11.5917153 3.276,12.144 L3.276,16.192 C3.276,16.7442847 3.72371525,17.192 4.276,17.192 L13.496,17.192 C14.2691986,17.192 14.896,17.8188014 14.896,18.592 C14.896,19.3651986 14.2691986,19.992 13.496,19.992 L2,19.992 C0.8954305,19.992 1.3527075e-16,19.0965695 0,17.992 L0,2 C3.0881846e-16,0.8954305 0.8954305,2.02906125e-16 2,0 Z"></path></clipPath><clipPath id="i2"><path d="M14.924,0 C15.8363744,-1.6760046e-16 16.576,0.739625593 16.576,1.652 L16.576,18.396 C16.576,19.2774465 15.8614465,19.992 14.98,19.992 C13.9812402,19.992 13.0468496,19.4990238 12.4830359,18.6746239 L3.41961278,5.42222372 C3.39982984,5.39329741 3.3670442,5.376 3.332,5.376 C3.30107205,5.376 3.276,5.40107205 3.276,5.432 L3.276,18.354 C3.276,19.2586424 2.54264242,19.992 1.638,19.992 C0.73335758,19.992 -3.33302465e-16,19.2586424 0,18.354 L0,1.638 C-1.10786744e-16,0.73335758 0.73335758,1.66180117e-16 1.638,0 C2.6631922,-1.88324752e-16 3.62246481,0.505465661 4.20208051,1.35108064 L13.1283391,14.3738092 C13.148155,14.4027191 13.1809507,14.42 13.216,14.42 C13.2469279,14.42 13.272,14.3949279 13.272,14.364 L13.272,1.652 C13.272,0.739625593 14.0116256,-6.42750799e-16 14.924,0 Z"></path></clipPath><clipPath id="i3"><path d="M27.5,0 C42.6878306,0 55,12.3121694 55,27.5 C55,42.6878306 42.6878306,55 27.5,55 C12.3121694,55 0,42.6878306 0,27.5 C0,12.3121694 12.3121694,0 27.5,0 Z M27.5,3.5 C14.245166,3.5 3.5,14.245166 3.5,27.5 C3.5,40.754834 14.245166,51.5 27.5,51.5 C40.754834,51.5 51.5,40.754834 51.5,27.5 C51.5,14.245166 40.754834,3.5 27.5,3.5 Z"></path></clipPath></defs><g transform="translate(-1551.0 -246.0)"><g clip-path="url(#i0)"><g transform="translate(1551.0 246.0)"><g transform="translate(10.459999999999813 17.50799999999981)"><g clip-path="url(#i1)"><polygon points="0,0 14.896,0 14.896,19.992 0,19.992 0,0" stroke="none" fill="#29557A"></polygon></g><g transform="translate(17.976000000000106 0.0)"><g clip-path="url(#i2)"><polygon points="0,0 16.576,0 16.576,19.992 0,19.992 0,0" stroke="none" fill="#29557A"></polygon></g></g></g><g clip-path="url(#i3)"><polygon points="0,0 55,0 55,55 0,55 0,0" stroke="none" fill="#29557A"></polygon></g></g></g></g></svg>