<?xml version="1.0" encoding="UTF-8"?><svg version="1.1" width="98px" height="62px" viewBox="0 0 98.0 62.0" xmlns="http://www.w3.org/2000/svg" xmlns:xlink="http://www.w3.org/1999/xlink"><defs><clipPath id="i0"><path d="M1920,0 L1920,1080 L0,1080 L0,0 L1920,0 Z"></path></clipPath><clipPath id="i1"><path d="M96,0 L96,60 L0,60 L0,0 L96,0 Z"></path></clipPath><linearGradient id="i2" x1="48px" y1="0px" x2="48px" y2="60px" gradientUnits="userSpaceOnUse"><stop stop-color="rgba(0, 141, 230, 0.6)" offset="0%"></stop><stop stop-color="rgba(7, 66, 103, 0)" offset="100%"></stop></linearGradient><clipPath id="i3"><path d="M98,-2 L98,62 L-2,62 L-2,-2 L98,-2 Z M96,0 L0,0 L0,60 L96,60 L96,0 Z"></path></clipPath><linearGradient id="i4" x1="50.2482026px" y1="0px" x2="48px" y2="47.2888158px" gradientUnits="userSpaceOnUse"><stop stop-color="#00D4FF" offset="0%"></stop><stop stop-color="#054B78" offset="100%"></stop></linearGradient></defs><g transform="translate(-371.0 -323.0)"><g clip-path="url(#i0)"><g transform="translate(372.0 324.0)"><g clip-path="url(#i1)"><polygon points="0,0 96,0 96,60 0,60 0,0" stroke="none" fill="url(#i2)"></polygon></g><g clip-path="url(#i3)"><polygon points="0,0 96,0 96,60 0,60 0,0 0,0" stroke="url(#i4)" stroke-width="2" fill="none" stroke-miterlimit="5"></polygon></g></g></g></g></svg>