<?xml version="1.0" encoding="UTF-8"?><svg version="1.1" width="440px" height="440px" viewBox="0 0 440.0 440.0" xmlns="http://www.w3.org/2000/svg" xmlns:xlink="http://www.w3.org/1999/xlink"><defs><clipPath id="i0"><path d="M177.33379,66.2068966 C256.70064,66.2068966 321.043313,131.42069 321.043313,211.862069 L321.043313,357.517241 L340.640067,357.517241 C347.855392,357.517241 353.704569,363.445609 353.704569,370.758621 C353.704569,378.071633 347.855392,384 340.640067,384 L14.027513,384 C6.8121877,384 0.963010853,378.071633 0.963010853,370.758621 C0.963010853,363.445609 6.8121877,357.517241 14.027513,357.517241 L33.6242662,357.517241 L33.6242662,211.862069 C33.6242662,131.42069 97.9669393,66.2068966 177.33379,66.2068966 Z M183.5,194 C154.505051,194 131,217.505051 131,246.5 C131,269.731004 146.088722,289.437849 167.000538,296.354906 L167,367 L190,367 L190.000614,298.601502 C215.928237,295.399614 236,273.293813 236,246.5 C236,217.505051 212.494949,194 183.5,194 Z M183.507873,215 C200.904842,215.004349 215.004347,229.110904 215,246.507873 C214.995651,263.904842 200.889096,278.004347 183.492127,278 C172.238262,277.997186 161.840761,271.990721 156.216264,262.243181 C150.591767,252.495641 150.594768,240.487909 156.224137,230.743182 C161.853506,220.998455 172.254008,214.997188 183.507873,215 Z M354.174891,75.5685517 C359.275036,80.7393084 359.275036,89.1211054 354.174891,94.2918621 L335.701685,113.015172 C330.57545,118.033287 322.427043,117.961521 317.387623,112.853874 C312.348203,107.746226 312.277395,99.4874997 317.228479,94.2918621 L335.701685,75.5685517 C340.803371,70.3993564 349.073205,70.3993564 354.174891,75.5685517 Z M22.1405688,62.3271724 L40.6137749,81.0637241 C45.5648581,86.2593618 45.4940506,94.5180881 40.4546306,99.6257356 C35.4152106,104.733383 27.2668036,104.805149 22.1405688,99.7870345 L3.6673628,81.0504828 C-1.28372045,75.8548451 -1.21291299,67.5961188 3.82650704,62.4884713 C8.86592708,57.3808237 17.014334,57.3090576 22.1405688,62.3271724 Z M177.33379,0 C184.549115,0 190.398292,5.92836745 190.398292,13.2413793 L190.398292,39.7241379 C190.398292,47.0371498 184.549115,52.9655172 177.33379,52.9655172 C170.118464,52.9655172 164.269288,47.0371498 164.269288,39.7241379 L164.269288,13.2413793 C164.269288,5.92836745 170.118464,0 177.33379,0 Z"></path></clipPath></defs><g transform="translate(40.99999999999966 28.0)"><g clip-path="url(#i0)"><polygon points="-3.95506283e-16,0 358,0 358,384 -3.95506283e-16,384 -3.95506283e-16,0" stroke="none" fill="#01A4FF"></polygon></g></g></svg>