<?xml version="1.0" encoding="UTF-8"?><svg version="1.1" width="440px" height="440px" viewBox="0 0 440.0 440.0" xmlns="http://www.w3.org/2000/svg" xmlns:xlink="http://www.w3.org/1999/xlink"><defs><clipPath id="i0"><path d="M254.666667,293 C268.105596,293 279,303.073593 279,315.5 C279,327.926407 268.105596,338 254.666667,338 L84.3333334,338 C70.8944044,338 60,327.926407 60,315.5 C60,303.073593 70.8944044,293 84.3333334,293 L254.666667,293 Z M299.009286,0 C319.784214,0 338,16.6681905 338,35.7318096 L338,226.268191 C338,245.33181 319.796286,262 299.009286,262 L38.9907144,262 C18.2157856,262 0,245.33181 0,226.268191 L0,35.7318096 C0,16.6681905 18.2037142,0 38.9907144,0 L299.009286,0 Z M209.5,151 C200.202879,151 194,156.429898 194,164.6 L194,205.387372 C194,213.557474 200.188486,219 209.5,219 C218.797122,219 225,213.557474 225,205.4 L225,164.6 C225,156.442526 218.811514,151 209.5,151 Z M271.492801,179 C262.191361,179 256,184.321782 256,192.329208 L256,205.658416 C256,213.653465 262.191361,218.987624 271.492801,218.987624 L271.492801,219 C280.808639,219 287,213.665842 287,205.670792 L287,192.329208 C287,184.334158 280.808639,179 271.492801,179 Z M83.5,68 C74.2028787,68 68,73.4934582 68,81.7272727 L68,205.272727 C68,213.506542 74.1884864,219 83.5,219 C89.6884866,219 99,213.506542 99,205.272727 L99,81.7272727 C99,73.4934582 92.8115136,68 83.5,68 Z M146.507199,108 C137.191361,108 131,113.402507 131,121.5 L131,202.5 C131,210.597493 137.191361,216 146.507199,216 C152.69856,216 162,210.597493 162,202.5 L162,121.5 C162,113.402507 155.808639,108 146.507199,108 Z"></path></clipPath></defs><g transform="translate(51.0 51.0)"><g clip-path="url(#i0)"><polygon points="0,0 338,0 338,338 0,338 0,0" stroke="none" fill="#01A4FF"></polygon></g></g></svg>