<?xml version="1.0" encoding="UTF-8"?><svg version="1.1" width="440px" height="440px" viewBox="0 0 440.0 440.0" xmlns="http://www.w3.org/2000/svg" xmlns:xlink="http://www.w3.org/1999/xlink"><defs><clipPath id="i0"><path d="M178.818744,0 C195.546985,0 209.355806,12.7703997 211.060266,29.100341 C228.489662,29.4318449 242.586423,43.6283863 242.841082,61.1249663 L286.200112,61.1249663 C303.76226,61.1249663 318,75.4025086 318,93.014965 L318,352.110001 C318,369.722458 303.76226,384 286.200112,384 L31.7998878,384 C14.237366,384 0,369.722458 0,352.110001 L0,93.014965 C0,75.4025086 14.237366,61.1249663 31.7998878,61.1249663 L75.1585439,61.1249663 C75.4128293,43.6295113 89.5114601,29.4333449 106.93936,29.100341 C108.64382,12.7703997 122.453015,0 139.180508,0 L178.818744,0 Z M252.176002,175.499036 L190.304343,238.347251 L163.437066,202.596992 L163.402443,202.550693 L163.301209,202.416277 C163.269221,202.373712 163.234598,202.333387 163.201857,202.291195 C163.096859,202.154912 162.991109,202.019002 162.880843,201.885706 C162.802942,201.791241 162.723159,201.700137 162.643376,201.607912 C162.565475,201.518301 162.488326,201.428317 162.408167,201.339826 C162.289622,201.209144 162.168442,201.082942 162.04651,200.95786 C162.010758,200.920895 161.977264,200.883184 161.941136,200.846593 L161.90275,200.810002 C161.754502,200.662276 161.603055,200.517745 161.448514,200.376509 C161.418407,200.348879 161.38943,200.320502 161.359323,200.293246 C161.19832,200.147995 161.034071,200.006325 160.866701,199.868341 C160.838476,199.844818 160.811003,199.820922 160.782778,199.797772 C160.623283,199.668185 160.461047,199.541954 160.296178,199.419166 L160.178385,199.329555 L159.956261,199.171114 L159.731299,199.016664 C159.671086,198.975592 159.611625,198.933027 159.551035,198.893076 C159.425339,198.810559 159.297386,198.73215 159.169808,198.653367 C159.081746,198.598853 158.994436,198.54322 158.905245,198.490574 C158.807022,198.433073 158.707293,198.378933 158.607941,198.324047 C158.487137,198.256465 158.366334,198.188137 158.244025,198.124289 C158.177414,198.089565 158.109674,198.057454 158.042686,198.02385 C157.886507,197.945067 157.729952,197.867031 157.571892,197.794222 L157.467647,197.74867 C157.276952,197.662102 157.084479,197.579444 156.89035,197.500747 L156.876425,197.49552 C155.763662,197.04955 154.601023,196.737544 153.413395,196.56618 C153.38103,196.561326 153.348665,196.558339 153.316301,196.553859 C153.114352,196.525499 152.911842,196.501224 152.708897,196.48105 C152.630619,196.473209 152.551965,196.469475 152.473687,196.462754 C152.316756,196.450059 152.159448,196.436618 152.00214,196.428403 C151.875316,196.421683 151.748114,196.420562 151.62129,196.417202 C151.511776,196.414215 151.402263,196.409361 151.292373,196.408988 C151.124528,196.408241 150.956307,196.413468 150.788085,196.417949 C150.718839,196.419816 150.64997,196.419442 150.580725,196.422429 C150.384278,196.430644 150.188208,196.445205 149.991761,196.461261 C149.949988,196.464621 149.908591,196.466488 149.866818,196.469848 C149.6572,196.488517 149.447958,196.51316 149.239092,196.540417 L149.151782,196.550872 C148.945927,196.578875 148.740825,196.613226 148.536099,196.65019 C148.502229,196.656538 148.467982,196.661018 148.434112,196.667366 C148.243311,196.70321 148.053638,196.744655 147.863965,196.787594 C147.815042,196.798422 147.765742,196.808129 147.716819,196.819704 C147.550102,196.858909 147.384515,196.904461 147.218552,196.950013 C147.145919,196.969802 147.07291,196.987725 147.000654,197.008634 C146.863668,197.048212 146.727811,197.093017 146.591578,197.137076 C146.489968,197.16956 146.388358,197.200177 146.287124,197.235275 C146.18175,197.271492 146.077505,197.311817 145.972884,197.351022 C145.841544,197.399561 145.710203,197.44698 145.579991,197.499253 C145.504724,197.529497 145.430586,197.562728 145.355696,197.594465 C145.197259,197.660926 145.039198,197.728134 144.882267,197.80057 C144.832967,197.823719 144.784043,197.848736 144.734744,197.871885 C144.554856,197.957389 144.376097,198.045133 144.198843,198.137731 L144.103631,198.190004 C143.9117,198.29231 143.721275,198.398722 143.533107,198.509616 L143.461227,198.553675 C143.26892,198.668675 143.078872,198.787783 142.890704,198.912118 C142.860221,198.932281 142.830491,198.95319 142.800384,198.973726 C142.624259,199.092087 142.44964,199.214181 142.277655,199.340383 L142.235129,199.370254 C142.194485,199.400497 142.156099,199.432981 142.115455,199.463598 C141.975459,199.569638 141.835838,199.676424 141.698853,199.788064 C141.604769,199.864234 141.514072,199.942643 141.422999,200.020679 C141.331927,200.098715 141.240101,200.175631 141.150157,200.256281 C141.017687,200.374269 140.889733,200.49599 140.762532,200.617712 C140.726404,200.652436 140.689147,200.68492 140.653019,200.719644 L140.541248,200.829044 L140.488561,200.880944 L66.4729614,273.441111 C60.5592402,279.238561 60.5020373,288.695123 66.345384,294.562021 C69.290202,297.51918 73.1709639,299 77.0539839,299 C80.8760377,299 84.7003495,297.564359 87.6338773,294.688597 L149.507418,234.032114 L176.674634,270.181889 C176.85678,270.424958 177.047205,270.664294 177.246662,270.898776 C177.296715,270.95777 177.349025,271.013403 177.399831,271.07165 C177.52515,271.214654 177.651598,271.356911 177.783692,271.496182 C177.88455,271.602968 177.987289,271.70602 178.090405,271.809073 C178.143468,271.862093 178.193144,271.916979 178.247336,271.969252 C178.280453,272.001363 178.315076,272.030486 178.34857,272.062224 C178.541486,272.246242 178.739514,272.42491 178.942426,272.598022 C179.07038,272.707795 179.19871,272.816449 179.329298,272.920995 C179.409457,272.984842 179.491122,273.045703 179.572034,273.107684 C179.702245,273.207749 179.831328,273.308188 179.964174,273.403026 C180.090623,273.493757 180.219705,273.578888 180.348412,273.664765 C180.499322,273.76595 180.651361,273.864522 180.805282,273.959734 C180.965659,274.060105 181.128016,274.157327 181.292259,274.251343 C181.369408,274.295028 181.448061,274.336473 181.526339,274.378665 C181.693808,274.470143 181.862406,274.558633 182.032509,274.64339 C182.288208,274.76991 182.547482,274.889191 182.810016,275.001087 L182.984635,275.075016 C183.208178,275.167241 183.433226,275.253864 183.660532,275.334888 L183.736552,275.362891 C184.266807,275.548834 184.804966,275.704532 185.349146,275.829988 C185.377371,275.836708 185.405596,275.841562 185.434197,275.848283 C185.73249,275.915135 186.032828,275.972663 186.334766,276.020784 C186.529331,276.052521 186.723896,276.079778 186.919213,276.104048 C187.003512,276.114129 187.087059,276.124583 187.171357,276.133544 C187.354632,276.152587 187.538284,276.167522 187.722311,276.180217 C187.81075,276.186564 187.899188,276.194032 187.988003,276.198886 C188.197622,276.20934 188.40724,276.214568 188.617235,276.216808 C188.671051,276.217181 188.72449,276.221288 188.778306,276.221288 C189.01502,276.221288 189.251735,276.213821 189.488073,276.20262 L189.523825,276.200753 C189.748873,276.189551 189.973168,276.173123 190.19784,276.15184 L190.264828,276.145119 C190.49525,276.122564 190.725125,276.094802 190.954272,276.061856 C191.285288,276.013866 191.606729,275.95654 191.925983,275.888858 L192.403537,275.779208 C192.665428,275.714468 192.92545,275.642502 193.183302,275.563395 C193.362437,275.508882 193.54082,275.450635 193.71845,275.389401 C193.771513,275.371105 193.8242,275.353183 193.876887,275.334514 C194.051738,275.271799 194.225385,275.205824 194.397734,275.136623 L194.53773,275.08211 C194.738672,274.999106 194.937799,274.91184 195.134973,274.820372 C195.238089,274.772579 195.339699,274.721053 195.441686,274.67102 C195.536898,274.624348 195.632111,274.578049 195.726195,274.529136 C195.846245,274.466782 195.965543,274.401814 196.084089,274.3361 C196.285985,274.22553 196.485005,274.10987 196.680955,273.989231 L196.848048,273.883938 C197.470862,273.489794 198.063448,273.050499 198.62096,272.569645 C198.952134,272.285877 199.270137,271.991655 199.570076,271.685485 L273.715511,196.37053 C279.524611,190.470027 279.412463,181.014212 273.464872,175.250739 C267.515775,169.48764 257.985479,169.598533 252.176002,175.499036 Z M178.818744,22.5002637 L139.180508,22.5002637 C133.677098,22.5002637 129.199057,26.9905663 129.199057,32.510256 L129.199057,40.3440978 C129.199057,46.5575456 124.176172,51.5942296 117.980957,51.5942296 L107.564977,51.5942296 C102.221244,51.5942296 97.8452909,55.8272792 97.5951189,61.1249663 C97.5876399,61.2839682 97.5831525,61.443345 97.5831525,61.6042219 L97.5831525,87.4904003 C97.5831525,93.009715 102.06082,97.5000176 107.564977,97.5000176 L210.435023,97.5000176 C215.938806,97.5000176 220.416474,93.009715 220.416474,87.4904003 L220.416474,61.6045969 C220.416474,61.44372 220.411986,61.2843432 220.404507,61.1253413 C220.153961,55.8276542 215.778756,51.5946046 210.435023,51.5946046 L200.019043,51.5946046 C193.823454,51.5946046 188.800569,46.5575456 188.800569,40.3444728 L188.800569,32.510256 C188.800569,26.9909413 184.322902,22.5002637 178.818744,22.5002637 Z"></path></clipPath></defs><g transform="translate(61.0 51.0)"><g clip-path="url(#i0)"><polygon points="0,0 318,0 318,384 0,384 0,0" stroke="none" fill="#01A4FF"></polygon></g></g></svg>