<?xml version="1.0" encoding="UTF-8"?><svg version="1.1" width="440px" height="440px" viewBox="0 0 440.0 440.0" xmlns="http://www.w3.org/2000/svg" xmlns:xlink="http://www.w3.org/1999/xlink"><defs><clipPath id="i0"><path d="M156.405,287.925 L154.415394,291.574962 C146.387197,306.294751 147.255623,323.984331 156.643163,337.908643 C156.66372,337.939135 156.684312,337.9696 156.704937,338.000035 L84.4999998,337.999196 C71.166268,337.999196 60.3571427,326.789759 60.3571427,312.962218 C60.3571427,299.134678 71.166268,287.925241 84.4999998,287.925241 L156.405,287.925 Z M338.555042,271.704219 C338.913167,272.192062 339.2315,272.709031 339.525958,273.233281 L355.020833,301.59375 C359.28194,309.391682 358.826453,318.652186 353.817022,326.068425 C348.807591,333.484663 339.958465,337.999224 330.429583,338 L196.570417,338 C187.041535,337.999224 178.192409,333.484663 173.182978,326.068425 C168.173547,318.652186 167.71806,309.391682 171.979167,301.59375 L187.474042,273.240563 C187.7685,272.709032 188.086834,272.192063 188.444958,271.7115 C197.33328,278.659512 207.373297,284.116137 218.10329,287.925851 L218.499616,287.925618 C224.256366,289.997265 230.214803,291.590856 236.302639,292.681994 C242.606894,293.76906 249.046461,294.321462 255.541667,294.3125 L271.458333,294.3125 C297.060291,294.3125 320.489625,285.800719 338.555042,271.704219 Z M263.5,105 C316.239875,105 359,144.122156 359,192.375 C359,240.627844 316.239875,279.75 263.5,279.75 C210.760125,279.75 168,240.627844 168,192.375 C168,144.122156 210.760125,105 263.5,105 Z M299.009286,0 C319.784214,0 338,16.7247009 338,35.8529518 L338.00112,109.234784 C317.858012,93.755837 292.054716,84.499799 264.0625,84.499799 C200.287785,84.499799 147.875,132.544737 147.875,192.765167 C147.875,216.853338 156.261046,238.993431 170.405882,256.889801 L172.400994,259.281046 C171.5867,260.375816 170.878854,261.472736 170.222059,262.61594 L170.068,262.888 L38.9907144,262.888263 C18.2157856,262.888263 0,246.163562 0,227.035312 L0,35.8529518 C0,16.7247009 18.2037142,0 38.9907144,0 L299.009286,0 Z M264.905183,171.640216 C252.121612,171.638423 240.08119,178.009152 233.304706,188.766973 C226.139822,200.141386 226.139822,214.435753 233.304706,225.810166 C240.08119,236.567987 252.121612,242.938716 264.905183,242.936922 C284.929863,242.934111 301.868543,227.404648 301.868543,207.288569 C301.868543,188.231232 286.665961,173.290413 268.03931,171.768096 L264.905183,171.640216 Z M264.343583,192.375 C268.258045,192.375548 271.842287,193.668921 274.614047,195.813821 C278.34363,198.471337 280.743543,202.623077 280.743543,207.288569 C280.743543,214.640406 274.784284,220.716537 267.051875,221.679116 L264.902219,221.811973 C261.939242,221.812388 259.093968,221.054304 256.649,219.687249 C254.154376,218.426591 252.031713,216.555584 250.557315,214.219394 C247.713535,209.713413 247.713535,204.161587 250.557315,199.655606 C253.401095,195.149626 258.656526,192.374204 264.343583,192.375 Z"></path></clipPath></defs><g transform="translate(51.0 51.00000000000003)"><g clip-path="url(#i0)"><polygon points="0,0 359,0 359,338.000035 0,338.000035 0,0" stroke="none" fill="#01A4FF"></polygon></g></g></svg>