<?xml version="1.0" encoding="UTF-8"?><svg version="1.1" width="440px" height="440px" viewBox="0 0 440.0 440.0" xmlns="http://www.w3.org/2000/svg" xmlns:xlink="http://www.w3.org/1999/xlink"><defs><clipPath id="i0"><path d="M140.116676,293 L224,338 L72.2157402,338 C58.8417562,338 48,327.926407 48,315.5 C48,303.073593 58.8417562,293 72.2157402,293 L140.116676,293 Z M265.502837,96.2925158 L368.502837,156.210785 C368.810638,156.389843 369,156.719072 369,157.075166 L369,276.924834 C369,277.280928 368.810638,277.610157 368.502837,277.789215 L265.502837,337.707484 C265.191997,337.888309 264.808003,337.888309 264.497163,337.707484 L161.497163,277.789215 C161.189362,277.610157 161,277.280928 161,276.924834 L161,157.075166 C161,156.719072 161.189362,156.389843 161.497163,156.210785 L264.497163,96.2925158 C264.808003,96.1116907 265.191997,96.1116907 265.502837,96.2925158 Z M266.5,170 C239.71419,170 218,191.71419 218,218.5 C218,245.28581 239.71419,267 266.5,267 C293.28581,267 315,245.28581 315,218.5 C315,191.71419 293.28581,170 266.5,170 Z M313.857143,0 C320.260227,0 326.401057,2.52856417 330.928721,7.02943725 C335.456385,11.5303103 338,17.6348042 338,24 L338,113.568 L266.069208,72.2856843 C265.760937,72.1087623 265.381923,72.1087671 265.073656,72.285697 L140.627239,143.711821 C140.316654,143.890082 140.125098,144.220813 140.125026,144.578919 L140.101,264 L24.1428571,264 C17.7397733,264 11.5989431,261.471436 7.07127914,256.970563 C2.54361515,252.46969 0,246.365196 0,240 L0,24 C0,10.745166 10.8091253,0 24.1428571,0 L313.857143,0 Z M266.5,196 C278.926407,196 289,206.073593 289,218.5 C289,230.926407 278.926407,241 266.5,241 C254.073593,241 244,230.926407 244,218.5 C244,206.073593 254.073593,196 266.5,196 Z"></path></clipPath></defs><g transform="translate(50.0 51.0)"><g clip-path="url(#i0)"><polygon points="0,0 369,0 369,338 0,338 0,0" stroke="none" fill="#01A4FF"></polygon></g></g></svg>