<?xml version="1.0" encoding="UTF-8"?><svg version="1.1" width="440px" height="440px" viewBox="0 0 440.0 440.0" xmlns="http://www.w3.org/2000/svg" xmlns:xlink="http://www.w3.org/1999/xlink"><defs><clipPath id="i0"><path d="M113.427386,202 C125.842324,202 136,212.157676 136,224.572614 L136,315.427386 C135.811895,328.030429 125.842324,338 113.239281,338 L22.5726141,338 C10.1576763,338 0,327.842324 0,315.427386 L0,224.572614 C0,212.157676 10.1576763,202 22.5726141,202 L113.427386,202 Z M298.427386,202 C310.842324,202 321,212.157676 321,224.572614 L321,315.427386 C321,328.030429 311.030429,338 298.427386,338 L207.572614,338 C195.157676,338 185,327.842324 185,315.427386 L185,224.572614 C185,212.157676 195.157676,202 207.572614,202 L298.427386,202 Z M250,0 C256.10846,0 261.835141,2.29067245 266.225597,6.68112798 L331.318872,71.7744035 C335.709328,76.164859 338,81.8915401 338,88 C338,94.1084599 335.709328,99.835141 331.318872,104.225597 L266.225597,169.318872 C261.835141,173.709328 256.10846,176 250,176 C243.89154,176 238.164859,173.709328 233.774403,169.318872 L168.681128,104.225597 C164.290672,99.835141 162,94.1084599 162,88 C162,81.8915401 164.290672,76.164859 168.681128,71.7744035 L233.774403,6.68112798 C238.164859,2.29067245 243.89154,0 250,0 Z M113.427386,23 C125.842324,23 136,33.1717452 136,45.6038781 L136,136.584488 C135.811895,149.01662 125.842324,159 113.239281,159 L22.5726141,159 C10.1576763,159 0,148.828255 0,136.396122 L0,45.6038781 C0,33.1717452 10.1576763,23 22.5726141,23 L113.427386,23 Z"></path></clipPath></defs><g transform="translate(51.0 51.0)"><g clip-path="url(#i0)"><polygon points="0,0 338,0 338,338 0,338 0,0" stroke="none" fill="#01A4FF"></polygon></g><path d="M113.239281,159 L22.5726141,159 C10.1576763,159 0,148.828255 0,136.396122 L0,45.6038781 C0,33.1717452 10.1576763,23 22.5726141,23 L113.427386,23 C125.842324,23 136,33.1717452 136,45.6038781 L136,136.584488 C135.811895,149.01662 125.842324,159 113.239281,159 Z M250,176 C243.89154,176 238.164859,173.709328 233.774403,169.318872 L168.681128,104.225597 C164.290672,99.835141 162,94.1084599 162,88 C162,81.8915401 164.290672,76.164859 168.681128,71.7744035 L233.774403,6.68112798 C238.164859,2.29067245 243.89154,0 250,0 C256.10846,0 261.835141,2.29067245 266.225597,6.68112798 L331.318872,71.7744035 C335.709328,76.164859 338,81.8915401 338,88 C338,94.1084599 335.709328,99.835141 331.318872,104.225597 L266.225597,169.318872 C261.835141,173.709328 256.10846,176 250,176 Z M113.239281,338 L22.5726141,338 C10.1576763,338 0,327.842324 0,315.427386 L0,224.572614 C0,212.157676 10.1576763,202 22.5726141,202 L113.427386,202 C125.842324,202 136,212.157676 136,224.572614 L136,315.427386 C135.811895,328.030429 125.842324,338 113.239281,338 Z M298.427386,338 L207.572614,338 C195.157676,338 185,327.842324 185,315.427386 L185,224.572614 C185,212.157676 195.157676,202 207.572614,202 L298.427386,202 C310.842324,202 321,212.157676 321,224.572614 L321,315.427386 C321,328.030429 311.030429,338 298.427386,338 Z" stroke="#01A4FF" stroke-width="0.1" fill="none" stroke-miterlimit="10"></path></g></svg>