<?xml version="1.0" encoding="UTF-8"?><svg version="1.1" width="17px" height="18px" viewBox="0 0 17.0 18.0" xmlns="http://www.w3.org/2000/svg" xmlns:xlink="http://www.w3.org/1999/xlink"><defs><clipPath id="i0"><path d="M1920,0 L1920,1080 L0,1080 L0,0 L1920,0 Z"></path></clipPath><clipPath id="i1"><path d="M8.42087828,3.10344828 C12.1896952,3.10344828 15.2450735,6.16034483 15.2450735,9.93103448 L15.2450735,16.7586207 L16.1756456,16.7586207 C16.5182728,16.7586207 16.796027,17.0365129 16.796027,17.3793103 C16.796027,17.7221078 16.5182728,18 16.1756456,18 L0.666110952,18 C0.323483773,18 0.0457295656,17.7221078 0.0457295656,17.3793103 C0.0457295656,17.0365129 0.323483773,16.7586207 0.666110952,16.7586207 L1.59668303,16.7586207 L1.59668303,9.93103448 C1.59668303,6.16034483 4.65206136,3.10344828 8.42087828,3.10344828 Z M15.9411415,3.54227586 C16.1834003,3.29996983 16.5761019,3.29996983 16.8183607,3.54227586 C17.0605464,3.78465508 17.0605464,4.17755182 16.8183607,4.41993103 L15.9411415,5.29758621 C15.6977169,5.53281034 15.3107814,5.5294463 15.0714793,5.29002532 C14.8321772,5.05060434 14.8288149,4.66347655 15.0639222,4.41993103 Z M0.181705642,2.92914709 C0.42100771,2.68972611 0.807943235,2.68636208 1.05136779,2.92158621 L1.92858707,3.79986207 C2.16369438,4.04340759 2.16033201,4.43053538 1.92102994,4.66995636 C1.68172788,4.90937734 1.29479235,4.91274137 1.05136779,4.67751724 L0.174148513,3.79924138 C-0.0609587922,3.55569586 -0.057596427,3.16856807 0.181705642,2.92914709 Z M8.42087828,0 C8.76350546,0 9.04125967,0.277892224 9.04125967,0.620689655 L9.04125967,1.86206897 C9.04125967,2.2048664 8.76350546,2.48275862 8.42087828,2.48275862 C8.07825111,2.48275862 7.8004969,2.2048664 7.8004969,1.86206897 L7.8004969,0.620689655 C7.8004969,0.277892224 8.07825111,0 8.42087828,0 Z"></path></clipPath><clipPath id="i2"><path d="M1,0 L1,4 L0,4 L0,0 L1,0 Z"></path></clipPath><clipPath id="i3"><path d="M2.5,0 C3.88071187,0 5,1.11928813 5,2.5 C5,3.88071187 3.88071187,5 2.5,5 C1.11928813,5 0,3.88071187 0,2.5 C0,1.11928813 1.11928813,0 2.5,0 Z M2.50037493,1 C1.96447655,0.999866098 1.46921458,1.28564071 1.20114939,1.74967534 C0.933084206,2.21370997 0.932941293,2.78550673 1.20077449,3.2496753 C1.46860768,3.71384388 1.96372674,3.99986602 2.49962512,4 C3.32805221,4.00020699 3.9997929,3.328802 4,2.50037491 C4.00020701,1.67194782 3.32880202,1.00020711 2.50037493,1 Z"></path></clipPath></defs><g transform="translate(-25.0 -343.0)"><g clip-path="url(#i0)"><g transform="translate(24.999999999999993 343.0)"><g clip-path="url(#i1)"><polygon points="-5.27527734e-17,0 17,0 17,18 -5.27527734e-17,18 -5.27527734e-17,0" stroke="none" fill="#01A4FF"></polygon></g><g transform="translate(8.0 13.0)"><g clip-path="url(#i2)"><polygon points="0,0 1,0 1,4 0,4 0,0" stroke="none" fill="#EBF7FF"></polygon></g></g><g transform="translate(6.0 9.0)"><g clip-path="url(#i3)"><polygon points="0,0 5,0 5,5 0,5 0,0" stroke="none" fill="#EBF7FF"></polygon></g></g></g></g></g></svg>