<?xml version="1.0" encoding="UTF-8"?><svg version="1.1" width="16px" height="16px" viewBox="0 0 16.0 16.0" xmlns="http://www.w3.org/2000/svg" xmlns:xlink="http://www.w3.org/1999/xlink"><defs><clipPath id="i0"><path d="M1920,0 L1920,1080 L0,1080 L0,0 L1920,0 Z"></path></clipPath><clipPath id="i1"><path d="M12,13.6296296 C12.6311826,13.6296296 13.1428571,14.1602551 13.1428571,14.8148148 C13.1428571,15.4693745 12.6311826,16 12,16 L3.99999999,16 C3.36881742,16 2.85714285,15.4693745 2.85714285,14.8148148 C2.85714285,14.1602551 3.36881742,13.6296296 3.99999999,13.6296296 L12,13.6296296 Z M14.1542857,0 C15.1377143,0 16,0.791703703 16,1.69718519 L16,10.7472593 C16,11.6527407 15.1382857,12.4444444 14.1542857,12.4444444 L1.84571429,12.4444444 C0.862285711,12.4444444 0,11.6527407 0,10.7472593 L0,1.69718519 C0,0.791703703 0.861714281,0 1.84571429,0 L14.1542857,0 Z M6.8240552,5.21013211 C6.37328883,5.21013211 6.07370684,5.46553952 6.07370684,5.84835435 L6.07370684,9.67768768 C6.07370684,10.0605025 6.37328881,10.3159099 6.8240552,10.3159099 C7.12363717,10.3159099 7.57370684,10.0605025 7.57370684,9.67768768 L7.57370684,5.84835435 C7.57370684,5.46553954 7.27412486,5.21013211 6.8240552,5.21013211 Z M9.92856253,7.11111111 C9.47870181,7.11111111 9.17856252,7.36592592 9.17856252,7.74933333 L9.17856252,9.66340741 C9.17856252,10.0468148 9.47800541,10.3022222 9.92856253,10.3022222 C10.3784232,10.3022222 10.6785625,10.0468148 10.6785625,9.664 L10.6785625,7.74933333 C10.6785625,7.36651852 10.3791196,7.11111111 9.92856253,7.11111111 Z M12.8707945,8.38696297 C12.4207248,8.38696297 12.1211429,8.64177778 12.1211429,9.02518519 L12.1211429,9.66340741 C12.1211429,10.0462222 12.4207248,10.3016296 12.8707945,10.3016296 C13.3215609,10.3022222 13.6211429,10.0468148 13.6211429,9.664 L13.6211429,9.02518519 C13.6211429,8.64237038 13.3215609,8.38696297 12.8707945,8.38696297 Z M3.74771429,3.28177778 C3.29785357,3.28177778 2.99771428,3.53718519 2.99771428,3.92 L2.99771428,9.664 C2.99771428,10.0468148 3.29715717,10.3022222 3.74771429,10.3022222 C4.04715718,10.3022222 4.49771428,10.0468148 4.49771428,9.664 L4.49771428,3.92 C4.49771428,3.53718519 4.19827139,3.28177778 3.74771429,3.28177778 Z"></path></clipPath></defs><g transform="translate(-25.0 -84.0)"><g clip-path="url(#i0)"><g transform="translate(25.0 84.00000000000001)"><g clip-path="url(#i1)"><polygon points="0,0 16,0 16,16 0,16 0,0" stroke="none" fill="#01A4FF"></polygon></g></g></g></g></svg>