<?xml version="1.0" encoding="UTF-8"?><svg version="1.1" width="15px" height="18px" viewBox="0 0 15.0 18.0" xmlns="http://www.w3.org/2000/svg" xmlns:xlink="http://www.w3.org/1999/xlink"><defs><clipPath id="i0"><path d="M1920,0 L1920,1080 L0,1080 L0,0 L1920,0 Z"></path></clipPath><clipPath id="i1"><path d="M8.43484642,0 C9.2239144,0 9.87527385,0.598612484 9.95567291,1.36407849 C10.7778142,1.37961773 11.4427558,2.04508061 11.454768,2.8652328 L13.5,2.8652328 C14.3284085,2.8652328 15,3.53449259 15,4.36007649 L15,16.5051563 C15,17.3307402 14.3284085,18 13.5,18 L1.5,18 C0.671573867,18 0,17.3307402 0,16.5051563 L0,4.36007649 C0,3.53449259 0.671573867,2.8652328 1.5,2.8652328 L3.54521433,2.8652328 C3.55720893,2.04513334 4.22223869,1.37968804 5.04430945,1.36407849 C5.12470851,0.598612484 5.7760856,0 6.56511831,0 Z M8.43484642,1.05469986 L6.56511831,1.05469986 C6.30552351,1.05469986 6.09429516,1.2651828 6.09429516,1.52391825 L6.09429516,1.89112958 C6.09429516,2.18238495 5.85736662,2.41847951 5.56513947,2.41847951 L5.07381968,2.41847951 C4.82175678,2.41847951 4.61534391,2.61690371 4.60354334,2.8652328 C4.60319056,2.87268601 4.60297889,2.8801568 4.60297889,2.8876979 L4.60297889,4.10111251 C4.60297889,4.35983039 4.81418961,4.57031332 5.07381968,4.57031332 L9.92618032,4.57031332 C10.1857928,4.57031332 10.3970035,4.35983039 10.3970035,4.10111251 L10.3970035,2.88771548 C10.3970035,2.88017438 10.3967918,2.87270359 10.396439,2.86525037 C10.3846208,2.61692129 10.1782432,2.41849709 9.92618032,2.41849709 L9.43486053,2.41849709 C9.14261574,2.41849709 8.9056872,2.18238495 8.9056872,1.89114716 L8.9056872,1.52391825 C8.9056872,1.26520037 8.69447649,1.05469986 8.43484642,1.05469986 Z"></path></clipPath><clipPath id="i2"><path d="M8.80444454,0.210892326 C9.07340179,-0.0656937462 9.51461922,-0.0708918771 9.79004036,0.199253413 C10.0653918,0.469416205 10.0705838,0.912657505 9.80164401,1.18924358 L6.36898499,4.71963209 C6.35509894,4.73398383 6.3403766,4.74777551 6.32504445,4.76107712 C6.2992337,4.78361715 6.27179915,4.80420911 6.24296518,4.8226846 L6.2075967,4.84387967 C6.20210849,4.84696005 6.19658543,4.85000542 6.19102753,4.85292827 C6.18667181,4.85522105 6.18226381,4.85739131 6.17785582,4.85957908 C6.17313422,4.86192436 6.16843003,4.86433965 6.16365616,4.86657993 L6.14989651,4.87286321 L6.13600602,4.87884892 C6.12154559,4.88464798 6.11350641,4.88774057 6.10541142,4.89068035 C6.08985277,4.89612351 6.08159432,4.89885384 6.07330102,4.90140915 L6.03720078,4.91152538 L6.00398797,4.91895358 L5.97047109,4.92472198 L5.93818646,4.92867746 C5.92468371,4.92999012 5.91429967,4.93076022 5.90388078,4.93128528 C5.89128402,4.93189786 5.88032502,4.9322479 5.86936602,4.9322479 C5.85218704,4.93193286 5.84248249,4.93168783 5.83277794,4.93119777 C5.82866613,4.93097024 5.82457175,4.9306202 5.82047737,4.93032266 L5.79497025,4.9281349 C5.79106752,4.92771485 5.78719964,4.92722479 5.78329691,4.92675223 C5.77425443,4.92561459 5.76524679,4.92433694 5.75623915,4.92284926 C5.74226056,4.92059359 5.72835602,4.91789693 5.71454616,4.91476328 C5.68541508,4.90802496 5.66050034,4.90072657 5.63595148,4.89201051 C5.62190862,4.88689989 5.61148973,4.8828394 5.60114053,4.87851638 C5.58090196,4.86980581 5.56889854,4.86421454 5.5570606,4.85828392 C5.54918546,4.85431094 5.54138,4.85016293 5.53362681,4.84587491 C5.53000285,4.84389717 5.52636146,4.84195444 5.52278977,4.83990669 C5.51518592,4.83549972 5.50766938,4.83094244 5.50024454,4.82623753 L5.48961657,4.8194292 L5.47909314,4.81241085 L5.46130437,4.80014186 L5.44314971,4.78629768 C5.43940379,4.78339233 5.43562302,4.78053948 5.43191194,4.77754662 C5.4258662,4.77264603 5.41992499,4.76755291 5.4140012,4.76240728 C5.40460714,4.75429265 5.39543916,4.74591757 5.38650787,4.73729173 L5.36741673,4.71815754 L5.36035611,4.71075851 L5.34258475,4.6908586 C5.34023266,4.68812827 5.33781088,4.68552045 5.33549363,4.68275511 C5.3262595,4.67176378 5.31744351,4.66054492 5.30901083,4.64915104 L4.05126937,2.95463036 L1.18675358,5.79790297 C1.0509421,5.93270433 0.873890633,6 0.696943699,6 C0.517174256,6 0.33750935,5.93058657 0.201175187,5.79196975 C-0.0693501233,5.51695887 -0.0667018431,5.07368256 0.207081548,4.80192708 L3.63372967,1.40066924 L3.64134347,1.39310832 C3.65230247,1.38262455 3.65822626,1.37691886 3.66435912,1.37138819 C3.66852319,1.36760773 3.67277438,1.36400229 3.67699072,1.36034434 C3.68120706,1.3566864 3.68540598,1.35301095 3.6897617,1.34944052 C3.69610363,1.34420739 3.70256753,1.33920178 3.70904885,1.33423117 C3.72452038,1.32253976 3.7326046,1.31681656 3.74075852,1.31126839 C3.75365146,1.30255233 3.76245002,1.29696915 3.77135312,1.2915785 C3.78339234,1.28431512 3.79220833,1.27932701 3.80109401,1.27453143 C3.81370818,1.2677406 3.82198406,1.26362761 3.8303122,1.25961962 L3.85905998,1.24661554 L3.86944403,1.2421525 C3.87547235,1.2397022 3.88155294,1.23747943 3.88763353,1.23520416 C3.8924771,1.23336643 3.89730324,1.2314762 3.90218165,1.2297785 L3.91627677,1.22517544 C3.92258386,1.22311019 3.92887353,1.22100993 3.93521546,1.21915471 C3.93856066,1.21817459 3.9419407,1.21733449 3.94530332,1.21640687 C3.95298682,1.21427161 3.96065289,1.21213636 3.96837123,1.21029863 C3.98396473,1.20678071 3.99274587,1.20483797 4.00157927,1.20315777 C4.01577893,1.20061996 4.02527441,1.19900976 4.03480474,1.1976971 C4.04851656,1.19592939 4.05820369,1.19477425 4.06790824,1.19389914 C4.08278739,1.192744 4.09186472,1.19206142 4.10095947,1.19167637 L4.16676575,1.19195641 L4.18859664,1.1935666 C4.1922206,1.19388164 4.19586199,1.19405666 4.19948595,1.19442421 C4.20888157,1.19536989 4.21825703,1.19650776 4.22760651,1.19783712 C4.2870844,1.20644736 4.34091028,1.22107264 4.39242711,1.24197748 C4.4020592,1.24591142 4.41097,1.24978605 4.41979848,1.25384392 C4.43194223,1.25939209 4.43919016,1.26305004 4.44642066,1.26674298 C4.44952194,1.26831817 4.45265806,1.26982336 4.45574191,1.27145105 C4.46140435,1.27444392 4.4669971,1.27764681 4.47258985,1.28081469 L4.48635394,1.28862064 L4.49860223,1.29625157 C4.5045086,1.29994451 4.51043238,1.30361996 4.51625163,1.30748793 L4.5245972,1.31328113 C4.5315837,1.31804491 4.53848429,1.32293463 4.5452956,1.32794791 C4.5583818,1.33790412 4.56589275,1.34382115 4.57327677,1.34989558 L4.59996865,1.3731209 L4.61472183,1.38706976 L4.62512731,1.39734384 C4.63742787,1.41013789 4.64303804,1.41605361 4.64852626,1.42217935 C4.65223733,1.42632735 4.65580903,1.43054537 4.65941557,1.43474588 C4.66310922,1.4390689 4.66680288,1.44333942 4.67040941,1.44776746 C4.67551432,1.45401571 4.68041016,1.46038649 4.68527115,1.46677476 L4.69455755,1.47893874 L5.94001586,3.15690241 Z"></path></clipPath></defs><g transform="translate(-26.0 -487.0)"><g clip-path="url(#i0)"><g transform="translate(26.0 487.0)"><g clip-path="url(#i1)"><polygon points="0,0 15,0 15,18 0,18 0,0" stroke="none" fill="#01A4FF"></polygon></g><g transform="translate(3.0 8.0)"><g clip-path="url(#i2)"><polygon points="2.39554222e-16,-1.68710338e-16 10,-1.68710338e-16 10,6 2.39554222e-16,6 2.39554222e-16,-1.68710338e-16" stroke="none" fill="#EBF8FF"></polygon></g></g></g></g></g></svg>