<?xml version="1.0" encoding="UTF-8"?><svg version="1.1" width="7px" height="208px" viewBox="0 0 7.0 208.0" xmlns="http://www.w3.org/2000/svg" xmlns:xlink="http://www.w3.org/1999/xlink"><defs><clipPath id="i0"><path d="M1920,0 L1920,1080 L0,1080 L0,0 L1920,0 Z"></path></clipPath><clipPath id="i1"><path d="M0.25,0 C0.388071187,-2.53632657e-17 0.5,0.111928813 0.5,0.25 L0.5,101 L0,101 L0,0.25 C-1.69088438e-17,0.111928813 0.111928813,2.53632657e-17 0.25,0 Z"></path></clipPath><linearGradient id="i2" x1="0.25px" y1="0px" x2="0.25px" y2="101px" gradientUnits="userSpaceOnUse"><stop stop-color="#00AAFF" offset="0%"></stop><stop stop-color="rgba(226, 236, 248, 0)" offset="100%"></stop></linearGradient><clipPath id="i3"><path d="M0.25,0 C0.388071187,-2.53632657e-17 0.5,0.111928813 0.5,0.25 L0.5,32 L0,32 L0,0.25 C-1.69088438e-17,0.111928813 0.111928813,2.53632657e-17 0.25,0 Z"></path></clipPath><linearGradient id="i4" x1="0.25px" y1="0px" x2="0.25px" y2="32px" gradientUnits="userSpaceOnUse"><stop stop-color="#00AAFF" offset="0%"></stop><stop stop-color="rgba(226, 236, 248, 0)" offset="100%"></stop></linearGradient><clipPath id="i5"><path d="M0.25,0 C0.388071187,-2.53632657e-17 0.5,0.111928813 0.5,0.25 L0.5,102 L0,102 L0,0.25 C-1.69088438e-17,0.111928813 0.111928813,2.53632657e-17 0.25,0 Z"></path></clipPath><linearGradient id="i6" x1="0.25px" y1="0px" x2="0.25px" y2="102px" gradientUnits="userSpaceOnUse"><stop stop-color="#00AAFF" offset="0%"></stop><stop stop-color="rgba(226, 236, 248, 0)" offset="100%"></stop></linearGradient><clipPath id="i7"><path d="M0.25,0 C0.388071187,-2.53632657e-17 0.5,0.111928813 0.5,0.25 L0.5,20 L0,20 L0,0.25 C-1.69088438e-17,0.111928813 0.111928813,2.53632657e-17 0.25,0 Z"></path></clipPath><linearGradient id="i8" x1="0.25px" y1="0px" x2="0.25px" y2="20px" gradientUnits="userSpaceOnUse"><stop stop-color="#00AAFF" offset="0%"></stop><stop stop-color="rgba(226, 236, 248, 0)" offset="100%"></stop></linearGradient><clipPath id="i9"><path d="M0.25,0 C0.388071187,-2.53632657e-17 0.5,0.111928813 0.5,0.25 L0.5,87 L0,87 L0,0.25 C-1.69088438e-17,0.111928813 0.111928813,2.53632657e-17 0.25,0 Z"></path></clipPath><linearGradient id="i10" x1="0.25px" y1="0px" x2="0.25px" y2="87px" gradientUnits="userSpaceOnUse"><stop stop-color="#00AAFF" offset="0%"></stop><stop stop-color="rgba(226, 236, 248, 0)" offset="100%"></stop></linearGradient><clipPath id="i11"><path d="M0.25,0 C0.388071187,-2.53632657e-17 0.5,0.111928813 0.5,0.25 L0.5,107 L0,107 L0,0.25 C-1.69088438e-17,0.111928813 0.111928813,2.53632657e-17 0.25,0 Z"></path></clipPath><linearGradient id="i12" x1="0.25px" y1="0px" x2="0.25px" y2="107px" gradientUnits="userSpaceOnUse"><stop stop-color="#00AAFF" offset="0%"></stop><stop stop-color="rgba(226, 236, 248, 0)" offset="100%"></stop></linearGradient><clipPath id="i13"><path d="M0.25,0 C0.388071187,-2.53632657e-17 0.5,0.111928813 0.5,0.25 L0.5,35 L0,35 L0,0.25 C-1.69088438e-17,0.111928813 0.111928813,2.53632657e-17 0.25,0 Z"></path></clipPath><linearGradient id="i14" x1="0.25px" y1="0px" x2="0.25px" y2="35px" gradientUnits="userSpaceOnUse"><stop stop-color="#00AAFF" offset="0%"></stop><stop stop-color="rgba(226, 236, 248, 0)" offset="100%"></stop></linearGradient><clipPath id="i15"><path d="M0.25,0 C0.388071187,-2.53632657e-17 0.5,0.111928813 0.5,0.25 L0.5,34 L0,34 L0,0.25 C-1.69088438e-17,0.111928813 0.111928813,2.53632657e-17 0.25,0 Z"></path></clipPath><linearGradient id="i16" x1="0.25px" y1="0px" x2="0.25px" y2="34px" gradientUnits="userSpaceOnUse"><stop stop-color="#00AAFF" offset="0%"></stop><stop stop-color="rgba(226, 236, 248, 0)" offset="100%"></stop></linearGradient><linearGradient id="i17" x1="0.25px" y1="0px" x2="0.25px" y2="101px" gradientUnits="userSpaceOnUse"><stop stop-color="#00AAFF" offset="0%"></stop><stop stop-color="rgba(226, 236, 248, 0)" offset="100%"></stop></linearGradient><clipPath id="i18"><path d="M0.25,0 C0.388071187,-2.53632657e-17 0.5,0.111928813 0.5,0.25 L0.5,85 L0,85 L0,0.25 C-1.69088438e-17,0.111928813 0.111928813,2.53632657e-17 0.25,0 Z"></path></clipPath><linearGradient id="i19" x1="0.25px" y1="0px" x2="0.25px" y2="85px" gradientUnits="userSpaceOnUse"><stop stop-color="#00AAFF" offset="0%"></stop><stop stop-color="rgba(226, 236, 248, 0)" offset="100%"></stop></linearGradient><clipPath id="i20"><path d="M0.25,0 C0.388071187,-2.53632657e-17 0.5,0.111928813 0.5,0.25 L0.5,70 L0,70 L0,0.25 C-1.69088438e-17,0.111928813 0.111928813,2.53632657e-17 0.25,0 Z"></path></clipPath><linearGradient id="i21" x1="0.25px" y1="0px" x2="0.25px" y2="70px" gradientUnits="userSpaceOnUse"><stop stop-color="#00AAFF" offset="0%"></stop><stop stop-color="rgba(226, 236, 248, 0)" offset="100%"></stop></linearGradient><clipPath id="i22"><path d="M0.25,0 C0.388071187,-2.53632657e-17 0.5,0.111928813 0.5,0.25 L0.5,65 L0,65 L0,0.25 C3.86023075e-17,0.111928813 0.111928813,2.53632657e-17 0.25,0 Z"></path></clipPath><linearGradient id="i23" x1="0.25px" y1="0px" x2="0.25px" y2="65px" gradientUnits="userSpaceOnUse"><stop stop-color="#00AAFF" offset="0%"></stop><stop stop-color="rgba(226, 236, 248, 0)" offset="100%"></stop></linearGradient><clipPath id="i24"><path d="M0.25,0 C0.388071187,-2.53632657e-17 0.5,0.111928813 0.5,0.25 L0.5,64 L0,64 L0,0.25 C-1.69088438e-17,0.111928813 0.111928813,2.53632657e-17 0.25,0 Z"></path></clipPath><linearGradient id="i25" x1="0.25px" y1="0px" x2="0.25px" y2="64px" gradientUnits="userSpaceOnUse"><stop stop-color="#00AAFF" offset="0%"></stop><stop stop-color="rgba(226, 236, 248, 0)" offset="100%"></stop></linearGradient></defs><g transform="translate(-1150.0 -306.0)"><g clip-path="url(#i0)"><g transform="translate(1150.787990852543 306.5064077725319)"><g transform="translate(2.4215023671522684 202.33714022469582) rotate(179.5)"><g clip-path="url(#i1)"><polygon points="0,0 0.5,0 0.5,101 0,101 0,0" stroke="none" fill="url(#i2)"></polygon></g></g><g transform="translate(1.158357918525482 185.2113595710025) rotate(179.5)"><g clip-path="url(#i3)"><polygon points="0,0 0.5,0 0.5,32 0,32 0,0" stroke="none" fill="url(#i4)"></polygon></g></g><g transform="translate(4.52886535317803 198.38710140926008) rotate(179.5)"><g clip-path="url(#i5)"><polygon points="0,-2.27373675e-13 0.5,-2.27373675e-13 0.5,102 0,102 0,-2.27373675e-13" stroke="none" fill="url(#i6)"></polygon></g></g><g transform="translate(1.278076984505968 198.44486061306785) rotate(179.5)"><g clip-path="url(#i7)"><polygon points="0,-2.27373675e-13 0.5,-2.27373675e-13 0.5,20 0,20 0,-2.27373675e-13" stroke="none" fill="url(#i8)"></polygon></g></g><g transform="translate(5.361187110922757 181.8444282115103) rotate(179.5)"><g clip-path="url(#i9)"><polygon points="0,-2.27373675e-13 0.5,-2.27373675e-13 0.5,87 0,87 0,-2.27373675e-13" stroke="none" fill="url(#i10)"></polygon></g></g><g transform="translate(2.027817056548217 193.82845597057778) rotate(179.5)"><g clip-path="url(#i11)"><polygon points="2.27373675e-13,0 0.5,0 0.5,107 2.27373675e-13,107 2.27373675e-13,0" stroke="none" fill="url(#i12)"></polygon></g></g><g transform="translate(3.493007374753611 206.81950558059106) rotate(179.5)"><g clip-path="url(#i13)"><polygon points="0,-2.27373675e-13 0.5,-2.27373675e-13 0.5,35 0,35 0,-2.27373675e-13" stroke="none" fill="url(#i14)"></polygon></g></g><g transform="translate(1.729976758592407 169.63091005115987) rotate(179.5)"><g clip-path="url(#i15)"><polygon points="0,0 0.5,0 0.5,34 0,34 0,0" stroke="none" fill="url(#i16)"></polygon></g></g><g transform="translate(2.8799496152276127 191.05026380031023) rotate(179.5)"><g clip-path="url(#i1)"><polygon points="0,0 0.5,0 0.5,101 0,101 0,0" stroke="none" fill="url(#i17)"></polygon></g></g><g transform="translate(3.305740999359821 175.72161236232043) rotate(179.5)"><g clip-path="url(#i18)"><polygon points="2.27373675e-13,0 0.5,0 0.5,85 2.27373675e-13,85 2.27373675e-13,0" stroke="none" fill="url(#i19)"></polygon></g></g><g transform="translate(3.8440494151011624 185.75553813533344) rotate(179.5)"><g clip-path="url(#i20)"><polygon points="0,0 0.5,0 0.5,70 0,70 0,0" stroke="none" fill="url(#i21)"></polygon></g></g><g transform="translate(3.814162423272462 163.91635231541503) rotate(179.5)"><g clip-path="url(#i22)"><polygon points="2.27373675e-13,-2.27373675e-13 0.5,-2.27373675e-13 0.5,65 2.27373675e-13,65 2.27373675e-13,-2.27373675e-13" stroke="none" fill="url(#i23)"></polygon></g></g><g transform="translate(4.387636046337111 154.15563115872897) rotate(179.5)"><g clip-path="url(#i24)"><polygon points="0,0 0.5,0 0.5,64 0,64 0,0" stroke="none" fill="url(#i25)"></polygon></g></g><g transform="translate(2.421502367153178 202.33714022469582) rotate(179.5)"><g clip-path="url(#i1)"><polygon points="0,0 0.5,0 0.5,101 0,101 0,0" stroke="none" fill="url(#i2)"></polygon></g></g><g transform="translate(1.1583579185263915 185.2113595710025) rotate(179.5)"><g clip-path="url(#i3)"><polygon points="0,0 0.5,0 0.5,32 0,32 0,0" stroke="none" fill="url(#i4)"></polygon></g></g><g transform="translate(4.528865353178939 198.38710140926008) rotate(179.5)"><g clip-path="url(#i5)"><polygon points="0,-2.27373675e-13 0.5,-2.27373675e-13 0.5,102 0,102 0,-2.27373675e-13" stroke="none" fill="url(#i6)"></polygon></g></g><g transform="translate(1.2780769845068776 198.44486061306785) rotate(179.5)"><g clip-path="url(#i7)"><polygon points="0,-2.27373675e-13 0.5,-2.27373675e-13 0.5,20 0,20 0,-2.27373675e-13" stroke="none" fill="url(#i8)"></polygon></g></g><g transform="translate(5.361187110923667 181.8444282115103) rotate(179.5)"><g clip-path="url(#i9)"><polygon points="0,-2.27373675e-13 0.5,-2.27373675e-13 0.5,87 0,87 0,-2.27373675e-13" stroke="none" fill="url(#i10)"></polygon></g></g><g transform="translate(2.0278170565491265 193.82845597057778) rotate(179.5)"><g clip-path="url(#i11)"><polygon points="2.27373675e-13,0 0.5,0 0.5,107 2.27373675e-13,107 2.27373675e-13,0" stroke="none" fill="url(#i12)"></polygon></g></g><g transform="translate(3.4930073747545203 206.81950558059106) rotate(179.5)"><g clip-path="url(#i13)"><polygon points="0,-2.27373675e-13 0.5,-2.27373675e-13 0.5,35 0,35 0,-2.27373675e-13" stroke="none" fill="url(#i14)"></polygon></g></g><g transform="translate(1.7299767585933166 169.63091005115987) rotate(179.5)"><g clip-path="url(#i15)"><polygon points="0,0 0.5,0 0.5,34 0,34 0,0" stroke="none" fill="url(#i16)"></polygon></g></g><g transform="translate(2.879949615228522 191.05026380031023) rotate(179.5)"><g clip-path="url(#i1)"><polygon points="0,0 0.5,0 0.5,101 0,101 0,0" stroke="none" fill="url(#i17)"></polygon></g></g><g transform="translate(3.3057409993607303 175.72161236232043) rotate(179.5)"><g clip-path="url(#i18)"><polygon points="2.27373675e-13,0 0.5,0 0.5,85 2.27373675e-13,85 2.27373675e-13,0" stroke="none" fill="url(#i19)"></polygon></g></g><g transform="translate(3.844049415102072 185.75553813533344) rotate(179.5)"><g clip-path="url(#i20)"><polygon points="0,0 0.5,0 0.5,70 0,70 0,0" stroke="none" fill="url(#i21)"></polygon></g></g><g transform="translate(3.8141624232733715 163.91635231541503) rotate(179.5)"><g clip-path="url(#i22)"><polygon points="2.27373675e-13,-2.27373675e-13 0.5,-2.27373675e-13 0.5,65 2.27373675e-13,65 2.27373675e-13,-2.27373675e-13" stroke="none" fill="url(#i23)"></polygon></g></g><g transform="translate(4.38763604633802 154.15563115872897) rotate(179.5)"><g clip-path="url(#i24)"><polygon points="0,0 0.5,0 0.5,64 0,64 0,0" stroke="none" fill="url(#i25)"></polygon></g></g><g transform="translate(2.0423745461255547 115.50461002199023) rotate(179.5)"><g clip-path="url(#i1)"><polygon points="0,0 0.5,0 0.5,101 0,101 0,0" stroke="none" fill="url(#i2)"></polygon></g></g><g transform="translate(0.7792300974801235 98.37882936831396) rotate(179.5)"><g clip-path="url(#i3)"><polygon points="-2.27373675e-13,-1.13686838e-13 0.5,-1.13686838e-13 0.5,32 -2.27373675e-13,32 -2.27373675e-13,-1.13686838e-13" stroke="none" fill="url(#i4)"></polygon></g></g><g transform="translate(4.149737532145177 111.5545712065561) rotate(179.5)"><g clip-path="url(#i5)"><polygon points="0,-1.13686838e-13 0.5,-1.13686838e-13 0.5,102 0,102 0,-1.13686838e-13" stroke="none" fill="url(#i6)"></polygon></g></g><g transform="translate(0.8989491634537885 111.61233041038112) rotate(179.5)"><g clip-path="url(#i7)"><polygon points="0,-1.13686838e-13 0.5,-1.13686838e-13 0.5,20 0,20 0,-1.13686838e-13" stroke="none" fill="url(#i8)"></polygon></g></g><g transform="translate(4.982059289890359 95.01189800878993) rotate(179.5)"><g clip-path="url(#i9)"><polygon points="-2.27373675e-13,-1.13686838e-13 0.5,-1.13686838e-13 0.5,87 -2.27373675e-13,87 -2.27373675e-13,-1.13686838e-13" stroke="none" fill="url(#i10)"></polygon></g></g><g transform="translate(1.6486892355546998 106.99592576786628) rotate(179.5)"><g clip-path="url(#i11)"><polygon points="0,-1.13686838e-13 0.5,-1.13686838e-13 0.5,107 0,107 0,-1.13686838e-13" stroke="none" fill="url(#i12)"></polygon></g></g><g transform="translate(3.1138795536900625 119.98697537792094) rotate(179.5)"><g clip-path="url(#i13)"><polygon points="0,-1.13686838e-13 0.5,-1.13686838e-13 0.5,35 0,35 0,-1.13686838e-13" stroke="none" fill="url(#i14)"></polygon></g></g><g transform="translate(1.3508489375370443 82.7983798484676) rotate(179.5)"><g clip-path="url(#i15)"><polygon points="2.27373675e-13,1.13686838e-13 0.5,1.13686838e-13 0.5,34 2.27373675e-13,34 2.27373675e-13,1.13686838e-13" stroke="none" fill="url(#i16)"></polygon></g></g><g transform="translate(2.500821794200217 104.21773359760101) rotate(179.5)"><g clip-path="url(#i1)"><polygon points="2.27373675e-13,0 0.5,0 0.5,101 2.27373675e-13,101 2.27373675e-13,0" stroke="none" fill="url(#i17)"></polygon></g></g><g transform="translate(2.926613178326968 88.88908215962132) rotate(179.5)"><g clip-path="url(#i18)"><polygon points="0,-1.13686838e-13 0.5,-1.13686838e-13 0.5,85 0,85 0,-1.13686838e-13" stroke="none" fill="url(#i19)"></polygon></g></g><g transform="translate(3.4649215940787688 98.923007932634) rotate(179.5)"><g clip-path="url(#i20)"><polygon points="0,0 0.5,0 0.5,70 0,70 0,0" stroke="none" fill="url(#i21)"></polygon></g></g><g transform="translate(3.4350346022311964 77.0838221127025) rotate(179.5)"><g clip-path="url(#i22)"><polygon points="0,0 0.5,0 0.5,65 0,65 0,0" stroke="none" fill="url(#i23)"></polygon></g></g><g transform="translate(4.008508225294026 67.32310095602249) rotate(179.5)"><g clip-path="url(#i24)"><polygon points="0,-1.13686838e-13 0.5,-1.13686838e-13 0.5,64 0,64 0,-1.13686838e-13" stroke="none" fill="url(#i25)"></polygon></g></g></g></g></g></svg>