<?xml version="1.0" encoding="UTF-8"?><svg version="1.1" width="18px" height="17px" viewBox="0 0 18.0 17.0" xmlns="http://www.w3.org/2000/svg" xmlns:xlink="http://www.w3.org/1999/xlink"><defs><clipPath id="i0"><path d="M1920,0 L1920,1080 L0,1080 L0,0 L1920,0 Z"></path></clipPath><clipPath id="i1"><path d="M12,13.6296296 C12.6311826,13.6296296 13.1428571,14.1602551 13.1428571,14.8148148 C13.1428571,15.4693745 12.6311826,16 12,16 L3.99999999,16 C3.36881742,16 2.85714285,15.4693745 2.85714285,14.8148148 C2.85714285,14.1602551 3.36881742,13.6296296 3.99999999,13.6296296 L12,13.6296296 Z M14.1542857,0 C15.1377143,0 16,0.791703703 16,1.69718519 L16,10.7472593 C16,11.6527407 15.1382857,12.4444444 14.1542857,12.4444444 L1.84571429,12.4444444 C0.862285711,12.4444444 0,11.6527407 0,10.7472593 L0,1.69718519 C0,0.791703703 0.861714281,0 1.84571429,0 L14.1542857,0 Z"></path></clipPath><clipPath id="i2"><path d="M8.03662501,7.87015625 C8.05350001,7.89318749 8.0685,7.91759375 8.08237499,7.94234375 L8.81249999,9.28125001 C9.01328511,9.6493927 8.99182237,10.0865839 8.7557759,10.4367067 C8.51972944,10.7868296 8.10275491,10.9999634 7.65374999,11 L1.34625001,11 C0.897245085,10.9999634 0.480270559,10.7868296 0.244224095,10.4367067 C0.00817763066,10.0865839 -0.0132851135,9.6493927 0.187500006,9.28125001 L0.917625006,7.94268751 C0.9315,7.91759376 0.946500012,7.89318751 0.963374994,7.87050001 C1.84456406,8.56064046 2.96598312,8.93910221 4.12500001,8.9375 L4.87499999,8.9375 C6.08137499,8.9375 7.185375,8.53565624 8.03662501,7.87015625 Z M4.5,0 C6.985125,0 9,1.84696875 9,4.125 C9,6.40303126 6.985125,8.25000001 4.5,8.25000001 C2.014875,8.25000001 0,6.40303126 0,4.125 C0,1.84696875 2.014875,0 4.5,0 Z M4.5,3.09375 C3.46453699,3.09384191 2.62518154,3.86332557 2.62518154,4.8125 C2.62518154,5.76167443 3.46453699,6.5311581 4.5,6.53125 C5.16991622,6.53130946 5.78897209,6.20373056 6.12394892,5.67192305 C6.45892576,5.14011553 6.45892576,4.48488448 6.12394892,3.95307696 C5.78897209,3.42126944 5.16991622,3.09369054 4.5,3.09375 Z M4.53974999,4.125 C4.95391872,4.12505813 5.28963517,4.43284534 5.28963517,4.8125 C5.28963517,5.19215467 4.95391872,5.49994188 4.53974999,5.50000001 C4.27177346,5.50003761 4.02413537,5.36900907 3.89013525,5.15628039 C3.75613514,4.9435517 3.75613514,4.6814483 3.89013525,4.46871962 C4.02413537,4.25599093 4.27177346,4.1249624 4.53974999,4.125 Z"></path></clipPath><clipPath id="i3"><path d="M11,-2 L11,13 L-2,13 L-2,-2 L11,-2 Z M8.03662501,7.87015625 C7.185375,8.53565624 6.08137499,8.9375 4.87499999,8.9375 L4.12500001,8.9375 C2.96598312,8.93910221 1.84456406,8.56064046 0.963374994,7.87050001 C0.946500012,7.89318751 0.9315,7.91759376 0.917625006,7.94268751 L0.187500006,9.28125001 C-0.0132851135,9.6493927 0.00817763066,10.0865839 0.244224095,10.4367067 C0.480270559,10.7868296 0.897245085,10.9999634 1.34625001,11 L7.65374999,11 C8.10275491,10.9999634 8.51972944,10.7868296 8.7557759,10.4367067 C8.99182237,10.0865839 9.01328511,9.6493927 8.81249999,9.28125001 L8.08237499,7.94234375 C8.0685,7.91759375 8.05350001,7.89318749 8.03662501,7.87015625 Z M4.5,0 C2.014875,0 0,1.84696875 0,4.125 C0,6.40303126 2.014875,8.25000001 4.5,8.25000001 C6.985125,8.25000001 9,6.40303126 9,4.125 C9,1.84696875 6.985125,0 4.5,0 Z M4.5,3.09375 C5.16991622,3.09369054 5.78897209,3.42126944 6.12394892,3.95307696 C6.45892576,4.48488448 6.45892576,5.14011553 6.12394892,5.67192305 C5.78897209,6.20373056 5.16991622,6.53130946 4.5,6.53125 C3.46453699,6.5311581 2.62518154,5.76167443 2.62518154,4.8125 C2.62518154,3.86332557 3.46453699,3.09384191 4.5,3.09375 Z M4.53974999,4.125 C4.27177346,4.1249624 4.02413537,4.25599093 3.89013525,4.46871962 C3.75613514,4.6814483 3.75613514,4.9435517 3.89013525,5.15628039 C4.02413537,5.36900907 4.27177346,5.50003761 4.53974999,5.50000001 C4.95391872,5.49994188 5.28963517,5.19215467 5.28963517,4.8125 C5.28963517,4.43284534 4.95391872,4.12505813 4.53974999,4.125 Z"></path></clipPath></defs><g transform="translate(-24.0 -144.0)"><g clip-path="url(#i0)"><g transform="translate(24.0 144.0)"><g clip-path="url(#i1)"><polygon points="0,0 16,0 16,16 0,16 0,0" stroke="none" fill="#01A4FF"></polygon></g><g transform="translate(8.0 5.0)"><g clip-path="url(#i2)"><polygon points="0,0 9,0 9,11 0,11 0,0" stroke="none" fill="#01A4FF"></polygon></g><g clip-path="url(#i3)"><path d="M8.03662501,7.87015625 C8.05350001,7.89318749 8.0685,7.91759375 8.08237499,7.94234375 L8.81249999,9.28125001 C9.01328511,9.6493927 8.99182237,10.0865839 8.7557759,10.4367067 C8.51972944,10.7868296 8.10275491,10.9999634 7.65374999,11 L1.34625001,11 C0.897245085,10.9999634 0.480270559,10.7868296 0.244224095,10.4367067 C0.00817763066,10.0865839 -0.0132851135,9.6493927 0.187500006,9.28125001 L0.917625006,7.94268751 C0.9315,7.91759376 0.946500012,7.89318751 0.963374994,7.87050001 C1.84456406,8.56064046 2.96598312,8.93910221 4.12500001,8.9375 L4.87499999,8.9375 C6.08137499,8.9375 7.185375,8.53565624 8.03662501,7.87015625 L8.03662501,7.87015625 Z M4.5,0 C6.985125,0 9,1.84696875 9,4.125 C9,6.40303126 6.985125,8.25000001 4.5,8.25000001 C2.014875,8.25000001 0,6.40303126 0,4.125 C0,1.84696875 2.014875,0 4.5,0 Z M4.5,6.53125 C5.16991622,6.53130946 5.78897209,6.20373056 6.12394892,5.67192305 C6.45892576,5.14011553 6.45892576,4.48488448 6.12394892,3.95307696 C5.78897209,3.42126944 5.16991622,3.09369054 4.5,3.09375 C3.46453699,3.09384191 2.62518154,3.86332557 2.62518154,4.8125 C2.62518154,5.76167443 3.46453699,6.5311581 4.5,6.53125 L4.5,6.53125 Z M4.53974999,5.50000001 C4.27177346,5.50003761 4.02413537,5.36900907 3.89013525,5.15628039 C3.75613514,4.9435517 3.75613514,4.6814483 3.89013525,4.46871962 C4.02413537,4.25599093 4.27177346,4.1249624 4.53974999,4.125 C4.95391872,4.12505813 5.28963517,4.43284534 5.28963517,4.8125 C5.28963517,5.19215467 4.95391872,5.49994188 4.53974999,5.50000001 L4.53974999,5.50000001 Z" stroke="#E9F6FF" stroke-width="2" fill="none" stroke-miterlimit="5"></path></g></g></g></g></g></svg>