<?xml version="1.0" encoding="UTF-8"?><svg version="1.1" width="18px" height="17px" viewBox="0 0 18.0 17.0" xmlns="http://www.w3.org/2000/svg" xmlns:xlink="http://www.w3.org/1999/xlink"><defs><clipPath id="i0"><path d="M1920,0 L1920,1080 L0,1080 L0,0 L1920,0 Z"></path></clipPath><clipPath id="i1"><path d="M6.63314286,13.7142857 L10.592,16 L3.42857143,16 C2.79738886,16 2.28571429,15.4883254 2.28571429,14.8571429 C2.28571429,14.2259603 2.79738886,13.7142857 3.42857143,13.7142857 L6.63314286,13.7142857 Z M13.0714396,4.86011853 L17.020011,7.13989418 C17.3294059,7.31852863 17.52,7.64865218 17.52,8.00591323 L17.52,12.5655153 C17.52,12.9227764 17.3294059,13.2528999 17.020011,13.4315344 L13.0714396,15.71131 C12.7620329,15.8899513 12.3808242,15.8899513 12.0714176,15.71131 L8.12284614,13.4315344 C7.81345126,13.2528999 7.62285714,12.9227764 7.62285714,12.5655153 L7.62285714,8.00591323 C7.62285714,7.64865218 7.81345126,7.31852863 8.12284614,7.13989418 L12.0714176,4.86011853 C12.3808242,4.68147726 12.7620329,4.68147726 13.0714396,4.86011853 Z M14.8571429,0 C15.1602474,0 15.4509376,0.120407818 15.6652649,0.334735107 C15.8795922,0.549062397 16,0.839752583 16,1.14285714 L16,5.408 L13.0714322,3.71724021 C12.7620289,3.53861135 12.380831,3.53861619 12.0714322,3.71725291 L7.1330164,6.56853227 C6.8236834,6.747131 6.63309885,7.07716173 6.63302742,7.43435132 L6.632,12.5714286 L1.14285714,12.5714286 C0.839752583,12.5714286 0.549062397,12.4510208 0.334735107,12.2366935 C0.120407818,12.0223662 0,11.731676 0,11.4285714 L0,1.14285714 C0,0.511674572 0.511674572,0 1.14285714,0 L14.8571429,0 Z M12.5714286,8 C11.3090634,8 10.2857143,9.02334914 10.2857143,10.2857143 C10.2857143,11.5480794 11.3090634,12.5714286 12.5714286,12.5714286 C13.8337937,12.5714286 14.8571429,11.5480794 14.8571429,10.2857143 C14.8571429,9.02334914 13.8337937,8 12.5714286,8 Z M12.5714286,9.14285714 C13.2026111,9.14285714 13.7142857,9.65453171 13.7142857,10.2857143 C13.7142857,10.9168969 13.2026111,11.4285714 12.5714286,11.4285714 C11.940246,11.4285714 11.4285714,10.9168969 11.4285714,10.2857143 C11.4285714,9.65453171 11.940246,9.14285714 12.5714286,9.14285714 Z"></path></clipPath></defs><g transform="translate(-24.0 -546.0)"><g clip-path="url(#i0)"><g transform="translate(24.47119584878305 546.993046589037)"><g clip-path="url(#i1)"><polygon points="0,0 17.52,0 17.52,16 0,16 0,0" stroke="none" fill="#01A4FF"></polygon></g></g></g></g></svg>