<?xml version="1.0" encoding="UTF-8"?><svg version="1.1" width="18px" height="18px" viewBox="0 0 18.0 18.0" xmlns="http://www.w3.org/2000/svg" xmlns:xlink="http://www.w3.org/1999/xlink"><defs><clipPath id="i0"><path d="M1920,0 L1920,1080 L0,1080 L0,0 L1920,0 Z"></path></clipPath><clipPath id="i1"><path d="M5.44469526,9.4717833 C6.04063205,9.4717833 6.5282167,9.95936795 6.5282167,10.5553047 L6.5282167,14.9164786 C6.51918736,15.5214447 6.04063205,16 5.43566591,16 L1.08352144,16 C0.48758465,16 0,15.5124153 0,14.9164786 L0,10.5553047 C0,9.95936795 0.48758465,9.4717833 1.08352144,9.4717833 L5.44469526,9.4717833 Z M14.013544,9.4717833 C14.6094808,9.4717833 15.0970655,9.95936795 15.0970655,10.5553047 L15.0970655,14.9164786 C15.0970655,15.5214447 14.6185102,16 14.013544,16 L9.6523702,16 C9.05643341,16 8.56884876,15.5124153 8.56884876,14.9164786 L8.56884876,10.5553047 C8.56884876,9.95936795 9.05643341,9.4717833 9.6523702,9.4717833 L14.013544,9.4717833 Z M11.8374718,0 C12.1264108,0 12.3972912,0.108352144 12.6049661,0.316027088 L15.6839729,3.39503386 C15.8916479,3.6027088 16,3.87358916 16,4.16252822 C16,4.45146727 15.8916479,4.72234763 15.6839729,4.93002257 L12.6049661,8.00902935 C12.3972912,8.21670429 12.1264108,8.32505643 11.8374718,8.32505643 C11.5485327,8.32505643 11.2776524,8.21670429 11.0699774,8.00902935 L7.99097065,4.93002257 C7.78329571,4.72234763 7.67494357,4.45146727 7.67494357,4.16252822 C7.67494357,3.87358916 7.78329571,3.6027088 7.99097065,3.39503386 L11.0699774,0.316027088 C11.2776524,0.108352144 11.5485327,0 11.8374718,0 Z M5.44469526,0.902934537 C6.04063205,0.902934537 6.5282167,1.39051919 6.5282167,1.98645598 L6.5282167,6.3476298 C6.51918736,6.94356659 6.04063205,7.4221219 5.43566591,7.4221219 L1.08352144,7.4221219 C0.48758465,7.4221219 0,6.93453725 0,6.33860045 L0,1.98645598 C0,1.39051919 0.48758465,0.902934537 1.08352144,0.902934537 L5.44469526,0.902934537 Z"></path></clipPath></defs><g transform="translate(-24.0 -284.0)"><g clip-path="url(#i0)"><g transform="translate(25.0 285.0)"><g clip-path="url(#i1)"><polygon points="0,0 16,0 16,16 0,16 0,0" stroke="none" fill="#01A4FF"></polygon></g><path d="M5.43566591,7.4221219 L1.08352144,7.4221219 C0.48758465,7.4221219 0,6.93453725 0,6.33860045 L0,1.98645598 C0,1.39051919 0.48758465,0.902934537 1.08352144,0.902934537 L5.44469526,0.902934537 C6.04063205,0.902934537 6.5282167,1.39051919 6.5282167,1.98645598 L6.5282167,6.3476298 C6.51918736,6.94356659 6.04063205,7.4221219 5.43566591,7.4221219 Z M11.8374718,8.32505643 C11.5485327,8.32505643 11.2776524,8.21670429 11.0699774,8.00902935 L7.99097065,4.93002257 C7.78329571,4.72234763 7.67494357,4.45146727 7.67494357,4.16252822 C7.67494357,3.87358916 7.78329571,3.6027088 7.99097065,3.39503386 L11.0699774,0.316027088 C11.2776524,0.108352144 11.5485327,0 11.8374718,0 C12.1264108,0 12.3972912,0.108352144 12.6049661,0.316027088 L15.6839729,3.39503386 C15.8916479,3.6027088 16,3.87358916 16,4.16252822 C16,4.45146727 15.8916479,4.72234763 15.6839729,4.93002257 L12.6049661,8.00902935 C12.3972912,8.21670429 12.1264108,8.32505643 11.8374718,8.32505643 Z M5.43566591,16 L1.08352144,16 C0.48758465,16 0,15.5124153 0,14.9164786 L0,10.5553047 C0,9.95936795 0.48758465,9.4717833 1.08352144,9.4717833 L5.44469526,9.4717833 C6.04063205,9.4717833 6.5282167,9.95936795 6.5282167,10.5553047 L6.5282167,14.9164786 C6.51918736,15.5214447 6.04063205,16 5.43566591,16 Z M14.013544,16 L9.6523702,16 C9.05643341,16 8.56884876,15.5124153 8.56884876,14.9164786 L8.56884876,10.5553047 C8.56884876,9.95936795 9.05643341,9.4717833 9.6523702,9.4717833 L14.013544,9.4717833 C14.6094808,9.4717833 15.0970655,9.95936795 15.0970655,10.5553047 L15.0970655,14.9164786 C15.0970655,15.5214447 14.6185102,16 14.013544,16 Z" stroke="#01A4FF" stroke-width="0.1" fill="none" stroke-miterlimit="10"></path></g></g></g></svg>