<?xml version="1.0" encoding="UTF-8"?>
<svg id="_图层_2" data-name="图层 2" xmlns="http://www.w3.org/2000/svg" viewBox="0 0 42.99 67.01">
  <defs>
    <style>
      .cls-1 {
        fill: #f6ee7b;
      }

      .cls-2 {
        fill: #00c900;
      }

      .cls-3 {
        fill: #f80000;
      }

      .cls-4 {
        fill: #f5f9ff;
      }

      .cls-5 {
        fill: #e7e34d;
      }

      .cls-6 {
        fill: #e8e8e8;
      }

      .cls-7 {
        fill: #a0b4d7;
      }

      .cls-8 {
        fill: #c2d1f2;
      }

      .cls-9 {
        fill: #b3c9e8;
      }

      .cls-10 {
        fill: #98a6c9;
      }

      .cls-11 {
        fill: #b7c9f7;
      }

      .cls-12 {
        fill: #afd1f3;
      }

      .cls-13 {
        fill: #d7e4ff;
      }

      .cls-14 {
        fill: #b2c4ed;
      }

      .cls-15 {
        fill: #a9c1e4;
      }

      .cls-16 {
        fill: #ccd6f0;
      }

      .cls-17 {
        fill: #d0c600;
      }

      .cls-18 {
        fill: #c80000;
      }

      .cls-19 {
        fill: #3f3f3f;
      }

      .cls-20 {
        fill: #95adcd;
      }

      .cls-21 {
        fill: #59606e;
      }
    </style>
  </defs>
  <g id="_图层_1-2" data-name="图层 1">
    <g>
      <polygon class="cls-13" points="28.36 67.01 .07 51.85 .07 5.37 28.36 19.71 28.36 67.01"/>
      <polygon class="cls-13" points="20.66 59.47 .1 48.52 .1 5.39 20.66 15.79 20.66 59.47"/>
      <polygon class="cls-11" points="42.95 61.09 28.39 67.01 28.36 19.71 42.95 13.92 42.95 61.09"/>
      <polygon class="cls-4" points=".1 5.39 28.36 19.71 42.99 13.96 14.15 0 .1 5.39"/>
      <g>
        <path class="cls-5" d="M8.69,46.99l-2.24-.86c-.19-.07-.25-.31-.13-.47l1.19-1.53c.14-.18,.42-.15,.52,.06l1.05,2.39c.11,.25-.13,.5-.39,.4Z"/>
        <g>
          <path class="cls-5" d="M8.23,46.61l-1.43-.55c-.2-.08-.27-.32-.14-.49l.76-.98c.15-.19,.45-.15,.54,.07l.67,1.53c.11,.26-.14,.53-.41,.42Z"/>
          <path class="cls-19" d="M8.61,46.8s-.06,0-.09-.02l-1.93-.74c-.07-.03-.12-.08-.14-.16-.02-.07,0-.15,.04-.21l1.02-1.31c.05-.07,.13-.1,.21-.09,.08,.01,.15,.06,.18,.14l.9,2.05c.04,.09,.02,.19-.04,.25-.05,.05-.11,.07-.17,.07Zm-.05-.12c.05,.02,.1,0,.13-.03s.05-.08,.02-.13l-.9-2.05s-.05-.07-.1-.07c-.04,0-.08,.01-.11,.05l-1.02,1.31s-.03,.07-.02,.11c.01,.04,.04,.07,.07,.08l1.93,.74Z"/>
        </g>
        <polygon class="cls-19" points="7.51 44.96 7.82 45.08 7.72 45.36 8.03 45.49 7.6 45.98 7.67 45.58 7.36 45.46 7.51 44.96"/>
        <polygon class="cls-19" points="7.48 45.86 7.62 45.91 7.76 45.96 7.62 46.09 7.48 45.86"/>
      </g>
      <polygon class="cls-10" points="28.29 64.57 19.09 59.55 19.09 15.18 19.37 15.18 19.37 59.39 28.42 64.33 28.29 64.57"/>
      <g>
        <path class="cls-14" d="M18.48,35.97v4.88s-.02,.04-.04,.03l-.91-.45s-.04-.04-.04-.07c0,0,.08-2.25,.08-3.01,0-.07-.08-.32-.08-.32v-1.54s.02-.04,.04-.03l.91,.45s.04,.04,.04,.07Z"/>
        <path class="cls-15" d="M18.48,35.97v4.88s0,.05,0,.04l-.16-.08s0-.02,0-.05v-4.88s0-.05,0-.04l.16,.08s0,.02,0,.05Z"/>
        <path class="cls-16" d="M18.44,35.91l-.14,.08v.73l-.81-.4v-.83s.02-.04,.04-.03l.91,.45Z"/>
        <polygon class="cls-21" points="18.12 40.54 17.67 40.31 17.67 37.21 18.12 37.44 18.12 40.54"/>
        <ellipse class="cls-21" cx="17.88" cy="37.12" rx=".27" ry=".44" transform="translate(-14.98 12.27) rotate(-27.19)"/>
      </g>
      <g>
        <path class="cls-14" d="M20.67,37.03v4.88s-.02,.04-.04,.03l-.91-.45s-.04-.04-.04-.07c0,0,.08-2.25,.08-3.01,0-.07-.08-.32-.08-.32v-1.54s.02-.04,.04-.03l.91,.45s.04,.04,.04,.07Z"/>
        <path class="cls-15" d="M20.67,37.03v4.88s0,.05,0,.04l-.16-.08s0-.02,0-.05v-4.88s0-.05,0-.04l.16,.08s0,.02,0,.05Z"/>
        <path class="cls-16" d="M20.63,36.96l-.14,.08v.73l-.81-.4v-.83s.02-.04,.04-.03l.91,.45Z"/>
        <polygon class="cls-21" points="20.31 41.59 19.85 41.37 19.85 38.27 20.31 38.49 20.31 41.59"/>
        <ellipse class="cls-21" cx="20.07" cy="38.17" rx=".27" ry=".44" transform="translate(-15.22 13.39) rotate(-27.19)"/>
      </g>
      <path class="cls-10" d="M13.71,34.2l-8.56-4.5v-11.5l8.56,4.5v11.5Zm-8.28-4.67l8,4.21v-10.87l-8-4.21v10.87Z"/>
      <path class="cls-5" d="M9.42,34.62l-2.35-1.34c0-.95,.4-1.82,1.17-1.38,.72,.41,1.17,1.77,1.17,2.72Z"/>
      <path class="cls-1" d="M7.15,33.13l-.07,.14s-.05-.68,.17-1.2c.3-.69,1-.17,1-.17,0,0-.28-.18-.57-.03-.17,.09-.29,.23-.35,.36-.22,.49-.17,.91-.17,.91Z"/>
      <path class="cls-17" d="M9.34,34.39l.07,.23s.05-.62-.17-1.4c-.3-1.03-1-1.32-1-1.32,0,0,.28,.15,.57,.63,.17,.29,.29,.57,.35,.76,.22,.74,.17,1.11,.17,1.11Z"/>
      <ellipse class="cls-3" cx="8.25" cy="32.98" rx=".43" ry=".79" transform="translate(-9.9 4.23) rotate(-18.22)"/>
      <polygon class="cls-8" points="12.67 23.56 12.67 32.46 6.25 29.06 6.25 20.24 12.67 23.56"/>
      <polygon class="cls-7" points="6.81 20.53 6.81 25.9 12.67 29.03 12.67 23.56 6.81 20.53"/>
      <polygon class="cls-12" points="7.37 20.81 7.37 25.42 12.67 28.24 12.67 23.56 7.37 20.81"/>
      <ellipse class="cls-6" cx="7.27" cy="28.16" rx=".57" ry=".75" transform="translate(-1.53 .44) rotate(-3.15)"/>
      <ellipse class="cls-2" cx="9.01" cy="28.99" rx=".57" ry=".75" transform="translate(-1.58 .54) rotate(-3.15)"/>
      <ellipse class="cls-3" cx="10.74" cy="29.82" rx=".57" ry=".75" transform="translate(-1.62 .63) rotate(-3.15)"/>
      <path class="cls-18" d="M12.67,29.82v1.5c-.31,.02-.58-.31-.6-.72-.02-.42,.21-.77,.52-.78,.03,0,.05,0,.08,0Z"/>
      <polygon class="cls-7" points="4.25 51.34 .07 49.06 .07 46.11 4.25 48.25 4.25 51.34"/>
      <rect class="cls-10" x="9.51" y="43.36" width=".28" height="21.81" transform="translate(-42.64 36.83) rotate(-61.48)"/>
      <g>
        <path class="cls-20" d="M22.1,19c.07,.04,.13,.14,.13,.22,0,.04-.01,.07-.04,.09-.02,.01-.06,.01-.09,0v-.3Z"/>
        <path class="cls-20" d="M23.25,19.94l-.66-.36c-.07-.04-.13-.14-.13-.22h0c0-.08,.06-.12,.13-.08l.66,.36c.07,.04,.13,.14,.13,.22h0c0,.08-.06,.12-.13,.08Z"/>
        <path class="cls-20" d="M24.37,20.56l-.66-.36c-.07-.04-.13-.14-.13-.22h0c0-.08,.06-.12,.13-.08l.66,.36c.07,.04,.13,.14,.13,.22h0c0,.08-.06,.12-.13,.08Z"/>
        <path class="cls-20" d="M25.53,21.19l-.66-.36c-.07-.04-.13-.14-.13-.22h0c0-.08,.06-.12,.13-.08l.66,.36c.07,.04,.13,.14,.13,.22h0c0,.08-.06,.12-.13,.08Z"/>
        <path class="cls-20" d="M26.68,21.83l-.66-.36c-.07-.04-.13-.14-.13-.22h0c0-.08,.06-.12,.13-.08l.66,.36c.07,.04,.13,.14,.13,.22h0c0,.08-.06,.12-.13,.08Z"/>
        <path class="cls-20" d="M22.89,18.91l-.66-.36c-.07-.04-.13-.14-.13-.22h0c0-.08,.06-.12,.13-.08l.66,.36c.07,.04,.13,.14,.13,.22h0c0,.08-.06,.12-.13,.08Z"/>
        <path class="cls-20" d="M24.04,19.54l-.66-.36c-.07-.04-.13-.14-.13-.22h0c0-.08,.06-.12,.13-.08l.66,.36c.07,.04,.13,.14,.13,.22h0c0,.08-.06,.12-.13,.08Z"/>
        <path class="cls-20" d="M25.16,20.16l-.66-.36c-.07-.04-.13-.14-.13-.22h0c0-.08,.06-.12,.13-.08l.66,.36c.07,.04,.13,.14,.13,.22h0c0,.08-.06,.12-.13,.08Z"/>
        <path class="cls-20" d="M26.32,20.8l-.66-.36c-.07-.04-.13-.14-.13-.22h0c0-.08,.06-.12,.13-.08l.66,.36c.07,.04,.13,.14,.13,.22h0c0,.08-.06,.12-.13,.08Z"/>
        <path class="cls-20" d="M27.47,21.43l-.66-.36c-.07-.04-.13-.14-.13-.22h0c0-.08,.06-.12,.13-.08l.66,.36c.07,.04,.13,.14,.13,.22h0c0,.08-.06,.12-.13,.08Z"/>
        <path class="cls-20" d="M27.6,22.03v.3l-.46-.25c-.07-.04-.13-.14-.13-.22,0-.04,.01-.07,.04-.09,.02-.01,.06-.01,.09,0l.46,.25Z"/>
        <path class="cls-9" d="M22.46,18.93s-.01,.07-.04,.09c-.02,.01-.06,.01-.09,0l-.23-.13v-.3l.23,.13c.07,.04,.13,.14,.13,.22Z"/>
        <path class="cls-9" d="M23.48,19.65l-.66-.36c-.07-.04-.13-.14-.13-.22h0c0-.08,.06-.12,.13-.08l.66,.36c.07,.04,.13,.14,.13,.22h0c0,.08-.06,.12-.13,.08Z"/>
        <path class="cls-9" d="M24.6,20.27l-.66-.36c-.07-.04-.13-.14-.13-.22h0c0-.08,.06-.12,.13-.08l.66,.36c.07,.04,.13,.14,.13,.22h0c0,.08-.06,.12-.13,.08Z"/>
        <path class="cls-9" d="M25.76,20.9l-.66-.36c-.07-.04-.13-.14-.13-.22h0c0-.08,.06-.12,.13-.08l.66,.36c.07,.04,.13,.14,.13,.22h0c0,.08-.06,.12-.13,.08Z"/>
        <path class="cls-9" d="M26.91,21.54l-.66-.36c-.07-.04-.13-.14-.13-.22h0c0-.08,.06-.12,.13-.08l.66,.36c.07,.04,.13,.14,.13,.22h0c0,.08-.06,.12-.13,.08Z"/>
        <path class="cls-9" d="M27.6,21.62v.3l-.23-.13c-.07-.04-.13-.14-.13-.22,0-.04,.01-.07,.04-.09,.02-.01,.06-.01,.09,0l.23,.13Z"/>
        <path class="cls-20" d="M22.23,20.06s-.01,.07-.04,.09c-.02,.01-.06,.01-.09,0v-.3c.07,.04,.13,.14,.13,.22Z"/>
        <path class="cls-20" d="M23.25,20.77l-.66-.36c-.07-.04-.13-.14-.13-.22h0c0-.08,.06-.12,.13-.08l.66,.36c.07,.04,.13,.14,.13,.22h0c0,.08-.06,.12-.13,.08Z"/>
        <path class="cls-20" d="M24.37,21.39l-.66-.36c-.07-.04-.13-.14-.13-.22h0c0-.08,.06-.12,.13-.08l.66,.36c.07,.04,.13,.14,.13,.22h0c0,.08-.06,.12-.13,.08Z"/>
        <path class="cls-20" d="M25.53,22.03l-.66-.36c-.07-.04-.13-.14-.13-.22h0c0-.08,.06-.12,.13-.08l.66,.36c.07,.04,.13,.14,.13,.22h0c0,.08-.06,.12-.13,.08Z"/>
        <path class="cls-20" d="M26.68,22.66l-.66-.36c-.07-.04-.13-.14-.13-.22h0c0-.08,.06-.12,.13-.08l.66,.36c.07,.04,.13,.14,.13,.22h0c0,.08-.06,.12-.13,.08Z"/>
        <path class="cls-20" d="M27.6,22.87v.3l-.46-.25c-.07-.04-.13-.14-.13-.22,0-.04,.01-.07,.04-.09,.02-.01,.06-.01,.09,0l.46,.25Z"/>
        <path class="cls-9" d="M22.1,19.72l.23,.13s.07,.02,.09,0c.02-.01,.04-.04,.04-.09,0-.08-.06-.18-.13-.22l-.23-.13v.3Z"/>
        <path class="cls-9" d="M23.48,20.48l-.66-.36c-.07-.04-.13-.14-.13-.22h0c0-.08,.06-.12,.13-.08l.66,.36c.07,.04,.13,.14,.13,.22h0c0,.08-.06,.12-.13,.08Z"/>
        <path class="cls-9" d="M24.6,21.1l-.66-.36c-.07-.04-.13-.14-.13-.22h0c0-.08,.06-.12,.13-.08l.66,.36c.07,.04,.13,.14,.13,.22h0c0,.08-.06,.12-.13,.08Z"/>
        <path class="cls-9" d="M25.76,21.74l-.66-.36c-.07-.04-.13-.14-.13-.22h0c0-.08,.06-.12,.13-.08l.66,.36c.07,.04,.13,.14,.13,.22h0c0,.08-.06,.12-.13,.08Z"/>
        <path class="cls-9" d="M26.91,22.37l-.66-.36c-.07-.04-.13-.14-.13-.22h0c0-.08,.06-.12,.13-.08l.66,.36c.07,.04,.13,.14,.13,.22h0c0,.08-.06,.12-.13,.08Z"/>
        <path class="cls-9" d="M27.6,22.45v.3l-.23-.13c-.07-.04-.13-.14-.13-.22,0-.04,.01-.07,.04-.09,.02-.01,.06-.01,.09,0l.23,.13Z"/>
        <path class="cls-20" d="M22.23,20.89s-.01,.07-.04,.09c-.02,.01-.06,.01-.09,0v-.3c.07,.04,.13,.14,.13,.22Z"/>
        <path class="cls-20" d="M23.25,21.6l-.66-.36c-.07-.04-.13-.14-.13-.22h0c0-.08,.06-.12,.13-.08l.66,.36c.07,.04,.13,.14,.13,.22h0c0,.08-.06,.12-.13,.08Z"/>
        <path class="cls-20" d="M24.37,22.22l-.66-.36c-.07-.04-.13-.14-.13-.22h0c0-.08,.06-.12,.13-.08l.66,.36c.07,.04,.13,.14,.13,.22h0c0,.08-.06,.12-.13,.08Z"/>
        <path class="cls-20" d="M25.53,22.86l-.66-.36c-.07-.04-.13-.14-.13-.22h0c0-.08,.06-.12,.13-.08l.66,.36c.07,.04,.13,.14,.13,.22h0c0,.08-.06,.12-.13,.08Z"/>
        <path class="cls-20" d="M26.68,23.49l-.66-.36c-.07-.04-.13-.14-.13-.22h0c0-.08,.06-.12,.13-.08l.66,.36c.07,.04,.13,.14,.13,.22h0c0,.08-.06,.12-.13,.08Z"/>
        <path class="cls-20" d="M27.6,23.7v.3l-.46-.25c-.07-.04-.13-.14-.13-.22,0-.04,.01-.07,.04-.09,.02-.01,.06-.01,.09,0l.46,.25Z"/>
        <path class="cls-9" d="M22.46,20.6s-.01,.07-.04,.09c-.02,.01-.06,.01-.09,0l-.23-.13v-.3l.23,.13c.07,.04,.13,.14,.13,.22Z"/>
        <path class="cls-9" d="M23.48,21.32l-.66-.36c-.07-.04-.13-.14-.13-.22h0c0-.08,.06-.12,.13-.08l.66,.36c.07,.04,.13,.14,.13,.22h0c0,.08-.06,.12-.13,.08Z"/>
        <path class="cls-9" d="M24.6,21.93l-.66-.36c-.07-.04-.13-.14-.13-.22h0c0-.08,.06-.12,.13-.08l.66,.36c.07,.04,.13,.14,.13,.22h0c0,.08-.06,.12-.13,.08Z"/>
        <path class="cls-9" d="M25.76,22.57l-.66-.36c-.07-.04-.13-.14-.13-.22h0c0-.08,.06-.12,.13-.08l.66,.36c.07,.04,.13,.14,.13,.22h0c0,.08-.06,.12-.13,.08Z"/>
        <path class="cls-9" d="M26.91,23.21l-.66-.36c-.07-.04-.13-.14-.13-.22h0c0-.08,.06-.12,.13-.08l.66,.36c.07,.04,.13,.14,.13,.22h0c0,.08-.06,.12-.13,.08Z"/>
        <path class="cls-9" d="M27.6,23.28v.3l-.23-.13c-.07-.04-.13-.14-.13-.22,0-.04,.01-.07,.04-.09,.02-.01,.06-.01,.09,0l.23,.13Z"/>
        <path class="cls-20" d="M22.1,21.5c.07,.04,.13,.14,.13,.22,0,.04-.01,.07-.04,.09-.02,.01-.06,.01-.09,0v-.3Z"/>
        <path class="cls-20" d="M23.25,22.44l-.66-.36c-.07-.04-.13-.14-.13-.22h0c0-.08,.06-.12,.13-.08l.66,.36c.07,.04,.13,.14,.13,.22h0c0,.08-.06,.12-.13,.08Z"/>
        <path class="cls-20" d="M24.37,23.06l-.66-.36c-.07-.04-.13-.14-.13-.22h0c0-.08,.06-.12,.13-.08l.66,.36c.07,.04,.13,.14,.13,.22h0c0,.08-.06,.12-.13,.08Z"/>
        <path class="cls-20" d="M25.53,23.69l-.66-.36c-.07-.04-.13-.14-.13-.22h0c0-.08,.06-.12,.13-.08l.66,.36c.07,.04,.13,.14,.13,.22h0c0,.08-.06,.12-.13,.08Z"/>
        <path class="cls-20" d="M26.68,24.33l-.66-.36c-.07-.04-.13-.14-.13-.22h0c0-.08,.06-.12,.13-.08l.66,.36c.07,.04,.13,.14,.13,.22h0c0,.08-.06,.12-.13,.08Z"/>
        <path class="cls-20" d="M27.6,24.53v.3l-.46-.25c-.07-.04-.13-.14-.13-.22,0-.04,.01-.07,.04-.09,.02-.01,.06-.01,.09,0l.46,.25Z"/>
        <path class="cls-9" d="M22.46,21.43s-.01,.07-.04,.09c-.02,.01-.06,.01-.09,0l-.23-.13v-.3l.23,.13c.07,.04,.13,.14,.13,.22Z"/>
        <path class="cls-9" d="M23.48,22.15l-.66-.36c-.07-.04-.13-.14-.13-.22h0c0-.08,.06-.12,.13-.08l.66,.36c.07,.04,.13,.14,.13,.22h0c0,.08-.06,.12-.13,.08Z"/>
        <path class="cls-9" d="M24.6,22.77l-.66-.36c-.07-.04-.13-.14-.13-.22h0c0-.08,.06-.12,.13-.08l.66,.36c.07,.04,.13,.14,.13,.22h0c0,.08-.06,.12-.13,.08Z"/>
        <path class="cls-9" d="M25.76,23.4l-.66-.36c-.07-.04-.13-.14-.13-.22h0c0-.08,.06-.12,.13-.08l.66,.36c.07,.04,.13,.14,.13,.22h0c0,.08-.06,.12-.13,.08Z"/>
        <path class="cls-9" d="M26.91,24.04l-.66-.36c-.07-.04-.13-.14-.13-.22h0c0-.08,.06-.12,.13-.08l.66,.36c.07,.04,.13,.14,.13,.22h0c0,.08-.06,.12-.13,.08Z"/>
        <path class="cls-9" d="M27.6,24.12v.3l-.23-.13c-.07-.04-.13-.14-.13-.22,0-.04,.01-.07,.04-.09,.02-.01,.06-.01,.09,0l.23,.13Z"/>
        <path class="cls-20" d="M22.23,22.56s-.01,.07-.04,.09c-.02,.01-.06,.01-.09,0v-.3c.07,.04,.13,.14,.13,.22Z"/>
        <path class="cls-20" d="M23.25,23.27l-.66-.36c-.07-.04-.13-.14-.13-.22h0c0-.08,.06-.12,.13-.08l.66,.36c.07,.04,.13,.14,.13,.22h0c0,.08-.06,.12-.13,.08Z"/>
        <path class="cls-20" d="M24.37,23.89l-.66-.36c-.07-.04-.13-.14-.13-.22h0c0-.08,.06-.12,.13-.08l.66,.36c.07,.04,.13,.14,.13,.22h0c0,.08-.06,.12-.13,.08Z"/>
        <path class="cls-20" d="M25.53,24.52l-.66-.36c-.07-.04-.13-.14-.13-.22h0c0-.08,.06-.12,.13-.08l.66,.36c.07,.04,.13,.14,.13,.22h0c0,.08-.06,.12-.13,.08Z"/>
        <path class="cls-20" d="M26.68,25.16l-.66-.36c-.07-.04-.13-.14-.13-.22h0c0-.08,.06-.12,.13-.08l.66,.36c.07,.04,.13,.14,.13,.22h0c0,.08-.06,.12-.13,.08Z"/>
        <path class="cls-20" d="M27.6,25.37v.3l-.46-.25c-.07-.04-.13-.14-.13-.22,0-.04,.01-.07,.04-.09,.02-.01,.06-.01,.09,0l.46,.25Z"/>
        <path class="cls-9" d="M22.46,22.27s-.01,.07-.04,.09c-.02,.01-.06,.01-.09,0l-.23-.13v-.3l.23,.13c.07,.04,.13,.14,.13,.22Z"/>
        <path class="cls-9" d="M23.48,22.98l-.66-.36c-.07-.04-.13-.14-.13-.22h0c0-.08,.06-.12,.13-.08l.66,.36c.07,.04,.13,.14,.13,.22h0c0,.08-.06,.12-.13,.08Z"/>
        <path class="cls-9" d="M24.6,23.6l-.66-.36c-.07-.04-.13-.14-.13-.22h0c0-.08,.06-.12,.13-.08l.66,.36c.07,.04,.13,.14,.13,.22h0c0,.08-.06,.12-.13,.08Z"/>
        <path class="cls-9" d="M25.76,24.24l-.66-.36c-.07-.04-.13-.14-.13-.22h0c0-.08,.06-.12,.13-.08l.66,.36c.07,.04,.13,.14,.13,.22h0c0,.08-.06,.12-.13,.08Z"/>
        <path class="cls-9" d="M26.91,24.87l-.66-.36c-.07-.04-.13-.14-.13-.22h0c0-.08,.06-.12,.13-.08l.66,.36c.07,.04,.13,.14,.13,.22h0c0,.08-.06,.12-.13,.08Z"/>
        <path class="cls-9" d="M27.6,25.25l-.23-.13c-.07-.04-.13-.14-.13-.22,0-.04,.01-.07,.04-.09,.02-.01,.06-.01,.09,0l.23,.13v.3Z"/>
        <path class="cls-20" d="M22.23,23.39s-.01,.07-.04,.09c-.02,.01-.06,.01-.09,0v-.3c.07,.04,.13,.14,.13,.22Z"/>
        <path class="cls-20" d="M23.25,24.1l-.66-.36c-.07-.04-.13-.14-.13-.22h0c0-.08,.06-.12,.13-.08l.66,.36c.07,.04,.13,.14,.13,.22h0c0,.08-.06,.12-.13,.08Z"/>
        <path class="cls-20" d="M24.37,24.72l-.66-.36c-.07-.04-.13-.14-.13-.22h0c0-.08,.06-.12,.13-.08l.66,.36c.07,.04,.13,.14,.13,.22h0c0,.08-.06,.12-.13,.08Z"/>
        <path class="cls-20" d="M25.53,25.36l-.66-.36c-.07-.04-.13-.14-.13-.22h0c0-.08,.06-.12,.13-.08l.66,.36c.07,.04,.13,.14,.13,.22h0c0,.08-.06,.12-.13,.08Z"/>
        <path class="cls-20" d="M26.68,25.99l-.66-.36c-.07-.04-.13-.14-.13-.22h0c0-.08,.06-.12,.13-.08l.66,.36c.07,.04,.13,.14,.13,.22h0c0,.08-.06,.12-.13,.08Z"/>
        <path class="cls-20" d="M27.6,26.2v.3l-.46-.25c-.07-.04-.13-.14-.13-.22,0-.04,.01-.07,.04-.09,.02-.01,.06-.01,.09,0l.46,.25Z"/>
        <path class="cls-9" d="M22.46,23.1s-.01,.07-.04,.09c-.02,.01-.06,.01-.09,0l-.23-.13v-.3l.23,.13c.07,.04,.13,.14,.13,.22Z"/>
        <path class="cls-9" d="M23.48,23.81l-.66-.36c-.07-.04-.13-.14-.13-.22h0c0-.08,.06-.12,.13-.08l.66,.36c.07,.04,.13,.14,.13,.22h0c0,.08-.06,.12-.13,.08Z"/>
        <path class="cls-9" d="M24.6,24.43l-.66-.36c-.07-.04-.13-.14-.13-.22h0c0-.08,.06-.12,.13-.08l.66,.36c.07,.04,.13,.14,.13,.22h0c0,.08-.06,.12-.13,.08Z"/>
        <path class="cls-9" d="M25.76,25.07l-.66-.36c-.07-.04-.13-.14-.13-.22h0c0-.08,.06-.12,.13-.08l.66,.36c.07,.04,.13,.14,.13,.22h0c0,.08-.06,.12-.13,.08Z"/>
        <path class="cls-9" d="M26.91,25.7l-.66-.36c-.07-.04-.13-.14-.13-.22h0c0-.08,.06-.12,.13-.08l.66,.36c.07,.04,.13,.14,.13,.22h0c0,.08-.06,.12-.13,.08Z"/>
        <path class="cls-9" d="M27.6,25.78v.3l-.23-.13c-.07-.04-.13-.14-.13-.22,0-.04,.01-.07,.04-.09,.02-.01,.06-.01,.09,0l.23,.13Z"/>
        <path class="cls-20" d="M22.23,24.22s-.01,.07-.04,.09c-.02,.01-.06,.01-.09,0v-.3c.07,.04,.13,.14,.13,.22Z"/>
        <path class="cls-20" d="M23.25,24.94l-.66-.36c-.07-.04-.13-.14-.13-.22h0c0-.08,.06-.12,.13-.08l.66,.36c.07,.04,.13,.14,.13,.22h0c0,.08-.06,.12-.13,.08Z"/>
        <path class="cls-20" d="M24.37,25.55l-.66-.36c-.07-.04-.13-.14-.13-.22h0c0-.08,.06-.12,.13-.08l.66,.36c.07,.04,.13,.14,.13,.22h0c0,.08-.06,.12-.13,.08Z"/>
        <path class="cls-20" d="M25.53,26.19l-.66-.36c-.07-.04-.13-.14-.13-.22h0c0-.08,.06-.12,.13-.08l.66,.36c.07,.04,.13,.14,.13,.22h0c0,.08-.06,.12-.13,.08Z"/>
        <path class="cls-20" d="M26.68,26.83l-.66-.36c-.07-.04-.13-.14-.13-.22h0c0-.08,.06-.12,.13-.08l.66,.36c.07,.04,.13,.14,.13,.22h0c0,.08-.06,.12-.13,.08Z"/>
        <path class="cls-20" d="M27.6,27.34l-.46-.25c-.07-.04-.13-.14-.13-.22,0-.04,.01-.07,.04-.09,.02-.01,.06-.01,.09,0l.46,.25v.3Z"/>
        <path class="cls-9" d="M22.46,23.93s-.01,.07-.04,.09c-.02,.01-.06,.01-.09,0l-.23-.13v-.3l.23,.13c.07,.04,.13,.14,.13,.22Z"/>
        <path class="cls-9" d="M23.48,24.65l-.66-.36c-.07-.04-.13-.14-.13-.22h0c0-.08,.06-.12,.13-.08l.66,.36c.07,.04,.13,.14,.13,.22h0c0,.08-.06,.12-.13,.08Z"/>
        <path class="cls-9" d="M24.6,25.27l-.66-.36c-.07-.04-.13-.14-.13-.22h0c0-.08,.06-.12,.13-.08l.66,.36c.07,.04,.13,.14,.13,.22h0c0,.08-.06,.12-.13,.08Z"/>
        <path class="cls-9" d="M25.76,25.9l-.66-.36c-.07-.04-.13-.14-.13-.22h0c0-.08,.06-.12,.13-.08l.66,.36c.07,.04,.13,.14,.13,.22h0c0,.08-.06,.12-.13,.08Z"/>
        <path class="cls-9" d="M26.91,26.54l-.66-.36c-.07-.04-.13-.14-.13-.22h0c0-.08,.06-.12,.13-.08l.66,.36c.07,.04,.13,.14,.13,.22h0c0,.08-.06,.12-.13,.08Z"/>
        <path class="cls-9" d="M27.6,26.62v.3l-.23-.13c-.07-.04-.13-.14-.13-.22,0-.04,.01-.07,.04-.09,.02-.01,.06-.01,.09,0l.23,.13Z"/>
        <path class="cls-20" d="M22.1,24.83c.07,.04,.13,.14,.13,.22,0,.04-.01,.07-.04,.09-.02,.01-.06,.01-.09,0v-.3Z"/>
        <path class="cls-20" d="M23.25,25.77l-.66-.36c-.07-.04-.13-.14-.13-.22h0c0-.08,.06-.12,.13-.08l.66,.36c.07,.04,.13,.14,.13,.22h0c0,.08-.06,.12-.13,.08Z"/>
        <path class="cls-20" d="M24.37,26.39l-.66-.36c-.07-.04-.13-.14-.13-.22h0c0-.08,.06-.12,.13-.08l.66,.36c.07,.04,.13,.14,.13,.22h0c0,.08-.06,.12-.13,.08Z"/>
        <path class="cls-20" d="M25.53,27.02l-.66-.36c-.07-.04-.13-.14-.13-.22h0c0-.08,.06-.12,.13-.08l.66,.36c.07,.04,.13,.14,.13,.22h0c0,.08-.06,.12-.13,.08Z"/>
        <path class="cls-20" d="M26.68,27.66l-.66-.36c-.07-.04-.13-.14-.13-.22h0c0-.08,.06-.12,.13-.08l.66,.36c.07,.04,.13,.14,.13,.22h0c0,.08-.06,.12-.13,.08Z"/>
        <path class="cls-20" d="M27.6,27.87v.3l-.46-.25c-.07-.04-.13-.14-.13-.22,0-.04,.01-.07,.04-.09,.02-.01,.06-.01,.09,0l.46,.25Z"/>
        <path class="cls-9" d="M22.46,24.77s-.01,.07-.04,.09c-.02,.01-.06,.01-.09,0l-.23-.13v-.3l.23,.13c.07,.04,.13,.14,.13,.22Z"/>
        <path class="cls-9" d="M23.48,25.48l-.66-.36c-.07-.04-.13-.14-.13-.22h0c0-.08,.06-.12,.13-.08l.66,.36c.07,.04,.13,.14,.13,.22h0c0,.08-.06,.12-.13,.08Z"/>
        <path class="cls-9" d="M24.6,26.1l-.66-.36c-.07-.04-.13-.14-.13-.22h0c0-.08,.06-.12,.13-.08l.66,.36c.07,.04,.13,.14,.13,.22h0c0,.08-.06,.12-.13,.08Z"/>
        <path class="cls-9" d="M25.76,26.73l-.66-.36c-.07-.04-.13-.14-.13-.22h0c0-.08,.06-.12,.13-.08l.66,.36c.07,.04,.13,.14,.13,.22h0c0,.08-.06,.12-.13,.08Z"/>
        <path class="cls-9" d="M26.91,27.37l-.66-.36c-.07-.04-.13-.14-.13-.22h0c0-.08,.06-.12,.13-.08l.66,.36c.07,.04,.13,.14,.13,.22h0c0,.08-.06,.12-.13,.08Z"/>
        <path class="cls-9" d="M27.6,27.75l-.23-.13c-.07-.04-.13-.14-.13-.22,0-.04,.01-.07,.04-.09,.02-.01,.06-.01,.09,0l.23,.13v.3Z"/>
        <path class="cls-20" d="M22.23,25.89s-.01,.07-.04,.09c-.02,.01-.06,.01-.09,0v-.3c.07,.04,.13,.14,.13,.22Z"/>
        <path class="cls-20" d="M23.25,26.6l-.66-.36c-.07-.04-.13-.14-.13-.22h0c0-.08,.06-.12,.13-.08l.66,.36c.07,.04,.13,.14,.13,.22h0c0,.08-.06,.12-.13,.08Z"/>
        <path class="cls-20" d="M24.37,27.22l-.66-.36c-.07-.04-.13-.14-.13-.22h0c0-.08,.06-.12,.13-.08l.66,.36c.07,.04,.13,.14,.13,.22h0c0,.08-.06,.12-.13,.08Z"/>
        <path class="cls-20" d="M25.53,27.86l-.66-.36c-.07-.04-.13-.14-.13-.22h0c0-.08,.06-.12,.13-.08l.66,.36c.07,.04,.13,.14,.13,.22h0c0,.08-.06,.12-.13,.08Z"/>
        <path class="cls-20" d="M26.68,28.49l-.66-.36c-.07-.04-.13-.14-.13-.22h0c0-.08,.06-.12,.13-.08l.66,.36c.07,.04,.13,.14,.13,.22h0c0,.08-.06,.12-.13,.08Z"/>
        <path class="cls-20" d="M27.6,28.7v.3l-.46-.25c-.07-.04-.13-.14-.13-.22,0-.04,.01-.07,.04-.09,.02-.01,.06-.01,.09,0l.46,.25Z"/>
        <path class="cls-9" d="M22.46,25.6s-.01,.07-.04,.09c-.02,.01-.06,.01-.09,0l-.23-.13v-.3l.23,.13c.07,.04,.13,.14,.13,.22Z"/>
        <path class="cls-9" d="M23.48,26.31l-.66-.36c-.07-.04-.13-.14-.13-.22h0c0-.08,.06-.12,.13-.08l.66,.36c.07,.04,.13,.14,.13,.22h0c0,.08-.06,.12-.13,.08Z"/>
        <path class="cls-9" d="M24.6,26.93l-.66-.36c-.07-.04-.13-.14-.13-.22h0c0-.08,.06-.12,.13-.08l.66,.36c.07,.04,.13,.14,.13,.22h0c0,.08-.06,.12-.13,.08Z"/>
        <path class="cls-9" d="M25.76,27.57l-.66-.36c-.07-.04-.13-.14-.13-.22h0c0-.08,.06-.12,.13-.08l.66,.36c.07,.04,.13,.14,.13,.22h0c0,.08-.06,.12-.13,.08Z"/>
        <path class="cls-9" d="M26.91,28.2l-.66-.36c-.07-.04-.13-.14-.13-.22h0c0-.08,.06-.12,.13-.08l.66,.36c.07,.04,.13,.14,.13,.22h0c0,.08-.06,.12-.13,.08Z"/>
        <path class="cls-9" d="M27.6,28.28v.3l-.23-.13c-.07-.04-.13-.14-.13-.22,0-.04,.01-.07,.04-.09,.02-.01,.06-.01,.09,0l.23,.13Z"/>
        <path class="cls-20" d="M22.1,26.5c.07,.04,.13,.14,.13,.22,0,.04-.01,.07-.04,.09-.02,.01-.06,.01-.09,0v-.3Z"/>
        <path class="cls-20" d="M23.25,27.44l-.66-.36c-.07-.04-.13-.14-.13-.22h0c0-.08,.06-.12,.13-.08l.66,.36c.07,.04,.13,.14,.13,.22h0c0,.08-.06,.12-.13,.08Z"/>
        <path class="cls-20" d="M24.37,28.05l-.66-.36c-.07-.04-.13-.14-.13-.22h0c0-.08,.06-.12,.13-.08l.66,.36c.07,.04,.13,.14,.13,.22h0c0,.08-.06,.12-.13,.08Z"/>
        <path class="cls-20" d="M25.53,28.69l-.66-.36c-.07-.04-.13-.14-.13-.22h0c0-.08,.06-.12,.13-.08l.66,.36c.07,.04,.13,.14,.13,.22h0c0,.08-.06,.12-.13,.08Z"/>
        <path class="cls-20" d="M26.68,29.33l-.66-.36c-.07-.04-.13-.14-.13-.22h0c0-.08,.06-.12,.13-.08l.66,.36c.07,.04,.13,.14,.13,.22h0c0,.08-.06,.12-.13,.08Z"/>
        <path class="cls-20" d="M27.6,29.53v.3l-.46-.25c-.07-.04-.13-.14-.13-.22,0-.04,.01-.07,.04-.09,.02-.01,.06-.01,.09,0l.46,.25Z"/>
        <path class="cls-9" d="M22.46,26.43s-.01,.07-.04,.09c-.02,.01-.06,.01-.09,0l-.23-.13v-.3l.23,.13c.07,.04,.13,.14,.13,.22Z"/>
        <path class="cls-9" d="M23.48,27.15l-.66-.36c-.07-.04-.13-.14-.13-.22h0c0-.08,.06-.12,.13-.08l.66,.36c.07,.04,.13,.14,.13,.22h0c0,.08-.06,.12-.13,.08Z"/>
        <path class="cls-9" d="M24.6,27.76l-.66-.36c-.07-.04-.13-.14-.13-.22h0c0-.08,.06-.12,.13-.08l.66,.36c.07,.04,.13,.14,.13,.22h0c0,.08-.06,.12-.13,.08Z"/>
        <path class="cls-9" d="M25.76,28.4l-.66-.36c-.07-.04-.13-.14-.13-.22h0c0-.08,.06-.12,.13-.08l.66,.36c.07,.04,.13,.14,.13,.22h0c0,.08-.06,.12-.13,.08Z"/>
        <path class="cls-9" d="M26.91,29.04l-.66-.36c-.07-.04-.13-.14-.13-.22h0c0-.08,.06-.12,.13-.08l.66,.36c.07,.04,.13,.14,.13,.22h0c0,.08-.06,.12-.13,.08Z"/>
        <path class="cls-9" d="M27.6,29.12v.3l-.23-.13c-.07-.04-.13-.14-.13-.22,0-.04,.01-.07,.04-.09,.02-.01,.06-.01,.09,0l.23,.13Z"/>
        <path class="cls-20" d="M22.23,27.55s-.01,.07-.04,.09c-.02,.01-.06,.01-.09,0v-.3c.07,.04,.13,.14,.13,.22Z"/>
        <path class="cls-20" d="M23.25,28.27l-.66-.36c-.07-.04-.13-.14-.13-.22h0c0-.08,.06-.12,.13-.08l.66,.36c.07,.04,.13,.14,.13,.22h0c0,.08-.06,.12-.13,.08Z"/>
        <path class="cls-20" d="M24.37,28.89l-.66-.36c-.07-.04-.13-.14-.13-.22h0c0-.08,.06-.12,.13-.08l.66,.36c.07,.04,.13,.14,.13,.22h0c0,.08-.06,.12-.13,.08Z"/>
        <path class="cls-20" d="M25.53,29.52l-.66-.36c-.07-.04-.13-.14-.13-.22h0c0-.08,.06-.12,.13-.08l.66,.36c.07,.04,.13,.14,.13,.22h0c0,.08-.06,.12-.13,.08Z"/>
        <path class="cls-20" d="M26.68,30.16l-.66-.36c-.07-.04-.13-.14-.13-.22h0c0-.08,.06-.12,.13-.08l.66,.36c.07,.04,.13,.14,.13,.22h0c0,.08-.06,.12-.13,.08Z"/>
        <path class="cls-20" d="M27.6,30.37v.3l-.46-.25c-.07-.04-.13-.14-.13-.22,0-.04,.01-.07,.04-.09,.02-.01,.06-.01,.09,0l.46,.25Z"/>
        <path class="cls-9" d="M22.1,27.22l.23,.13s.07,.02,.09,0c.02-.01,.04-.04,.04-.09,0-.08-.06-.18-.13-.22l-.23-.13v.3Z"/>
        <path class="cls-9" d="M23.48,27.98l-.66-.36c-.07-.04-.13-.14-.13-.22h0c0-.08,.06-.12,.13-.08l.66,.36c.07,.04,.13,.14,.13,.22h0c0,.08-.06,.12-.13,.08Z"/>
        <path class="cls-9" d="M24.6,28.6l-.66-.36c-.07-.04-.13-.14-.13-.22h0c0-.08,.06-.12,.13-.08l.66,.36c.07,.04,.13,.14,.13,.22h0c0,.08-.06,.12-.13,.08Z"/>
        <path class="cls-9" d="M25.76,29.23l-.66-.36c-.07-.04-.13-.14-.13-.22h0c0-.08,.06-.12,.13-.08l.66,.36c.07,.04,.13,.14,.13,.22h0c0,.08-.06,.12-.13,.08Z"/>
        <path class="cls-9" d="M26.91,29.87l-.66-.36c-.07-.04-.13-.14-.13-.22h0c0-.08,.06-.12,.13-.08l.66,.36c.07,.04,.13,.14,.13,.22h0c0,.08-.06,.12-.13,.08Z"/>
        <path class="cls-9" d="M27.6,29.95v.3l-.23-.13c-.07-.04-.13-.14-.13-.22,0-.04,.01-.07,.04-.09,.02-.01,.06-.01,.09,0l.23,.13Z"/>
        <path class="cls-20" d="M22.23,28.39s-.01,.07-.04,.09c-.02,.01-.06,.01-.09,0v-.3c.07,.04,.13,.14,.13,.22Z"/>
        <path class="cls-20" d="M23.25,29.1l-.66-.36c-.07-.04-.13-.14-.13-.22h0c0-.08,.06-.12,.13-.08l.66,.36c.07,.04,.13,.14,.13,.22h0c0,.08-.06,.12-.13,.08Z"/>
        <path class="cls-20" d="M24.37,29.72l-.66-.36c-.07-.04-.13-.14-.13-.22h0c0-.08,.06-.12,.13-.08l.66,.36c.07,.04,.13,.14,.13,.22h0c0,.08-.06,.12-.13,.08Z"/>
        <path class="cls-20" d="M25.53,30.36l-.66-.36c-.07-.04-.13-.14-.13-.22h0c0-.08,.06-.12,.13-.08l.66,.36c.07,.04,.13,.14,.13,.22h0c0,.08-.06,.12-.13,.08Z"/>
        <path class="cls-20" d="M26.68,30.99l-.66-.36c-.07-.04-.13-.14-.13-.22h0c0-.08,.06-.12,.13-.08l.66,.36c.07,.04,.13,.14,.13,.22h0c0,.08-.06,.12-.13,.08Z"/>
        <path class="cls-20" d="M27.6,31.2v.3l-.46-.25c-.07-.04-.13-.14-.13-.22,0-.04,.01-.07,.04-.09,.02-.01,.06-.01,.09,0l.46,.25Z"/>
        <path class="cls-9" d="M22.46,28.1s-.01,.07-.04,.09c-.02,.01-.06,.01-.09,0l-.23-.13v-.3l.23,.13c.07,.04,.13,.14,.13,.22Z"/>
        <path class="cls-9" d="M23.48,28.81l-.66-.36c-.07-.04-.13-.14-.13-.22h0c0-.08,.06-.12,.13-.08l.66,.36c.07,.04,.13,.14,.13,.22h0c0,.08-.06,.12-.13,.08Z"/>
        <path class="cls-9" d="M24.6,29.43l-.66-.36c-.07-.04-.13-.14-.13-.22h0c0-.08,.06-.12,.13-.08l.66,.36c.07,.04,.13,.14,.13,.22h0c0,.08-.06,.12-.13,.08Z"/>
        <path class="cls-9" d="M25.76,30.07l-.66-.36c-.07-.04-.13-.14-.13-.22h0c0-.08,.06-.12,.13-.08l.66,.36c.07,.04,.13,.14,.13,.22h0c0,.08-.06,.12-.13,.08Z"/>
        <path class="cls-9" d="M26.91,30.7l-.66-.36c-.07-.04-.13-.14-.13-.22h0c0-.08,.06-.12,.13-.08l.66,.36c.07,.04,.13,.14,.13,.22h0c0,.08-.06,.12-.13,.08Z"/>
        <path class="cls-9" d="M27.6,30.78v.3l-.23-.13c-.07-.04-.13-.14-.13-.22,0-.04,.01-.07,.04-.09,.02-.01,.06-.01,.09,0l.23,.13Z"/>
        <path class="cls-20" d="M22.1,29c.07,.04,.13,.14,.13,.22,0,.04-.01,.07-.04,.09-.02,.01-.06,.01-.09,0v-.3Z"/>
        <path class="cls-20" d="M23.25,29.94l-.66-.36c-.07-.04-.13-.14-.13-.22h0c0-.08,.06-.12,.13-.08l.66,.36c.07,.04,.13,.14,.13,.22h0c0,.08-.06,.12-.13,.08Z"/>
        <path class="cls-20" d="M24.37,30.55l-.66-.36c-.07-.04-.13-.14-.13-.22h0c0-.08,.06-.12,.13-.08l.66,.36c.07,.04,.13,.14,.13,.22h0c0,.08-.06,.12-.13,.08Z"/>
        <path class="cls-20" d="M25.53,31.19l-.66-.36c-.07-.04-.13-.14-.13-.22h0c0-.08,.06-.12,.13-.08l.66,.36c.07,.04,.13,.14,.13,.22h0c0,.08-.06,.12-.13,.08Z"/>
        <path class="cls-20" d="M26.68,31.83l-.66-.36c-.07-.04-.13-.14-.13-.22h0c0-.08,.06-.12,.13-.08l.66,.36c.07,.04,.13,.14,.13,.22h0c0,.08-.06,.12-.13,.08Z"/>
        <path class="cls-20" d="M27.6,32.03v.3l-.46-.25c-.07-.04-.13-.14-.13-.22,0-.04,.01-.07,.04-.09,.02-.01,.06-.01,.09,0l.46,.25Z"/>
        <path class="cls-9" d="M22.46,28.93s-.01,.07-.04,.09c-.02,.01-.06,.01-.09,0l-.23-.13v-.3l.23,.13c.07,.04,.13,.14,.13,.22Z"/>
        <path class="cls-9" d="M23.48,29.65l-.66-.36c-.07-.04-.13-.14-.13-.22h0c0-.08,.06-.12,.13-.08l.66,.36c.07,.04,.13,.14,.13,.22h0c0,.08-.06,.12-.13,.08Z"/>
        <path class="cls-9" d="M24.6,30.26l-.66-.36c-.07-.04-.13-.14-.13-.22h0c0-.08,.06-.12,.13-.08l.66,.36c.07,.04,.13,.14,.13,.22h0c0,.08-.06,.12-.13,.08Z"/>
        <path class="cls-9" d="M25.76,30.9l-.66-.36c-.07-.04-.13-.14-.13-.22h0c0-.08,.06-.12,.13-.08l.66,.36c.07,.04,.13,.14,.13,.22h0c0,.08-.06,.12-.13,.08Z"/>
        <path class="cls-9" d="M26.91,31.54l-.66-.36c-.07-.04-.13-.14-.13-.22h0c0-.08,.06-.12,.13-.08l.66,.36c.07,.04,.13,.14,.13,.22h0c0,.08-.06,.12-.13,.08Z"/>
        <path class="cls-9" d="M27.6,31.62v.3l-.23-.13c-.07-.04-.13-.14-.13-.22,0-.04,.01-.07,.04-.09,.02-.01,.06-.01,.09,0l.23,.13Z"/>
        <path class="cls-20" d="M22.1,29.83c.07,.04,.13,.14,.13,.22,0,.04-.01,.07-.04,.09-.02,.01-.06,.01-.09,0v-.3Z"/>
        <path class="cls-20" d="M23.25,30.77l-.66-.36c-.07-.04-.13-.14-.13-.22h0c0-.08,.06-.12,.13-.08l.66,.36c.07,.04,.13,.14,.13,.22h0c0,.08-.06,.12-.13,.08Z"/>
        <path class="cls-20" d="M24.37,31.39l-.66-.36c-.07-.04-.13-.14-.13-.22h0c0-.08,.06-.12,.13-.08l.66,.36c.07,.04,.13,.14,.13,.22h0c0,.08-.06,.12-.13,.08Z"/>
        <path class="cls-20" d="M25.53,32.02l-.66-.36c-.07-.04-.13-.14-.13-.22h0c0-.08,.06-.12,.13-.08l.66,.36c.07,.04,.13,.14,.13,.22h0c0,.08-.06,.12-.13,.08Z"/>
        <path class="cls-20" d="M26.68,32.66l-.66-.36c-.07-.04-.13-.14-.13-.22h0c0-.08,.06-.12,.13-.08l.66,.36c.07,.04,.13,.14,.13,.22h0c0,.08-.06,.12-.13,.08Z"/>
        <path class="cls-20" d="M27.6,32.87v.3l-.46-.25c-.07-.04-.13-.14-.13-.22,0-.04,.01-.07,.04-.09,.02-.01,.06-.01,.09,0l.46,.25Z"/>
        <path class="cls-9" d="M22.1,29.72l.23,.13s.07,.02,.09,0c.02-.01,.04-.04,.04-.09,0-.08-.06-.18-.13-.22l-.23-.13v.3Z"/>
        <path class="cls-9" d="M23.48,30.48l-.66-.36c-.07-.04-.13-.14-.13-.22h0c0-.08,.06-.12,.13-.08l.66,.36c.07,.04,.13,.14,.13,.22h0c0,.08-.06,.12-.13,.08Z"/>
        <path class="cls-9" d="M24.6,31.1l-.66-.36c-.07-.04-.13-.14-.13-.22h0c0-.08,.06-.12,.13-.08l.66,.36c.07,.04,.13,.14,.13,.22h0c0,.08-.06,.12-.13,.08Z"/>
        <path class="cls-9" d="M25.76,31.73l-.66-.36c-.07-.04-.13-.14-.13-.22h0c0-.08,.06-.12,.13-.08l.66,.36c.07,.04,.13,.14,.13,.22h0c0,.08-.06,.12-.13,.08Z"/>
        <path class="cls-9" d="M26.91,32.37l-.66-.36c-.07-.04-.13-.14-.13-.22h0c0-.08,.06-.12,.13-.08l.66,.36c.07,.04,.13,.14,.13,.22h0c0,.08-.06,.12-.13,.08Z"/>
        <path class="cls-9" d="M27.6,32.45v.3l-.23-.13c-.07-.04-.13-.14-.13-.22,0-.04,.01-.07,.04-.09,.02-.01,.06-.01,.09,0l.23,.13Z"/>
        <path class="cls-9" d="M22.46,30.6s-.01,.07-.04,.09c-.02,.01-.06,.01-.09,0l-.23-.13v-.3l.23,.13c.07,.04,.13,.14,.13,.22Z"/>
        <path class="cls-9" d="M23.48,31.31l-.66-.36c-.07-.04-.13-.14-.13-.22h0c0-.08,.06-.12,.13-.08l.66,.36c.07,.04,.13,.14,.13,.22h0c0,.08-.06,.12-.13,.08Z"/>
        <path class="cls-9" d="M24.6,31.93l-.66-.36c-.07-.04-.13-.14-.13-.22h0c0-.08,.06-.12,.13-.08l.66,.36c.07,.04,.13,.14,.13,.22h0c0,.08-.06,.12-.13,.08Z"/>
        <path class="cls-9" d="M25.76,32.57l-.66-.36c-.07-.04-.13-.14-.13-.22h0c0-.08,.06-.12,.13-.08l.66,.36c.07,.04,.13,.14,.13,.22h0c0,.08-.06,.12-.13,.08Z"/>
        <path class="cls-9" d="M26.91,33.2l-.66-.36c-.07-.04-.13-.14-.13-.22h0c0-.08,.06-.12,.13-.08l.66,.36c.07,.04,.13,.14,.13,.22h0c0,.08-.06,.12-.13,.08Z"/>
        <path class="cls-9" d="M27.6,33.28v.3l-.23-.13c-.07-.04-.13-.14-.13-.22,0-.04,.01-.07,.04-.09,.02-.01,.06-.01,.09,0l.23,.13Z"/>
        <path class="cls-20" d="M22.1,30.66c.07,.04,.13,.14,.13,.22,0,.04-.01,.07-.04,.09-.02,.01-.06,.01-.09,0v-.3Z"/>
        <path class="cls-20" d="M23.25,31.6l-.66-.36c-.07-.04-.13-.14-.13-.22h0c0-.08,.06-.12,.13-.08l.66,.36c.07,.04,.13,.14,.13,.22h0c0,.08-.06,.12-.13,.08Z"/>
        <path class="cls-20" d="M24.37,32.22l-.66-.36c-.07-.04-.13-.14-.13-.22h0c0-.08,.06-.12,.13-.08l.66,.36c.07,.04,.13,.14,.13,.22h0c0,.08-.06,.12-.13,.08Z"/>
        <path class="cls-20" d="M25.53,32.86l-.66-.36c-.07-.04-.13-.14-.13-.22h0c0-.08,.06-.12,.13-.08l.66,.36c.07,.04,.13,.14,.13,.22h0c0,.08-.06,.12-.13,.08Z"/>
        <path class="cls-20" d="M26.68,33.49l-.66-.36c-.07-.04-.13-.14-.13-.22h0c0-.08,.06-.12,.13-.08l.66,.36c.07,.04,.13,.14,.13,.22h0c0,.08-.06,.12-.13,.08Z"/>
        <path class="cls-20" d="M27.6,33.7v.3l-.46-.25c-.07-.04-.13-.14-.13-.22,0-.04,.01-.07,.04-.09,.02-.01,.06-.01,.09,0l.46,.25Z"/>
        <path class="cls-9" d="M22.46,31.43s-.01,.07-.04,.09c-.02,.01-.06,.01-.09,0l-.23-.13v-.3l.23,.13c.07,.04,.13,.14,.13,.22Z"/>
        <path class="cls-9" d="M23.48,32.15l-.66-.36c-.07-.04-.13-.14-.13-.22h0c0-.08,.06-.12,.13-.08l.66,.36c.07,.04,.13,.14,.13,.22h0c0,.08-.06,.12-.13,.08Z"/>
        <path class="cls-9" d="M24.6,32.76l-.66-.36c-.07-.04-.13-.14-.13-.22h0c0-.08,.06-.12,.13-.08l.66,.36c.07,.04,.13,.14,.13,.22h0c0,.08-.06,.12-.13,.08Z"/>
        <path class="cls-9" d="M25.76,33.4l-.66-.36c-.07-.04-.13-.14-.13-.22h0c0-.08,.06-.12,.13-.08l.66,.36c.07,.04,.13,.14,.13,.22h0c0,.08-.06,.12-.13,.08Z"/>
        <path class="cls-9" d="M26.91,34.04l-.66-.36c-.07-.04-.13-.14-.13-.22h0c0-.08,.06-.12,.13-.08l.66,.36c.07,.04,.13,.14,.13,.22h0c0,.08-.06,.12-.13,.08Z"/>
        <path class="cls-9" d="M27.6,34.11v.3l-.23-.13c-.07-.04-.13-.14-.13-.22,0-.04,.01-.07,.04-.09,.02-.01,.06-.01,.09,0l.23,.13Z"/>
        <path class="cls-20" d="M22.1,31.5c.07,.04,.13,.14,.13,.22,0,.04-.01,.07-.04,.09-.02,.01-.06,.01-.09,0v-.3Z"/>
        <path class="cls-20" d="M23.25,32.44l-.66-.36c-.07-.04-.13-.14-.13-.22h0c0-.08,.06-.12,.13-.08l.66,.36c.07,.04,.13,.14,.13,.22h0c0,.08-.06,.12-.13,.08Z"/>
        <path class="cls-20" d="M24.37,33.05l-.66-.36c-.07-.04-.13-.14-.13-.22h0c0-.08,.06-.12,.13-.08l.66,.36c.07,.04,.13,.14,.13,.22h0c0,.08-.06,.12-.13,.08Z"/>
        <path class="cls-20" d="M25.53,33.69l-.66-.36c-.07-.04-.13-.14-.13-.22h0c0-.08,.06-.12,.13-.08l.66,.36c.07,.04,.13,.14,.13,.22h0c0,.08-.06,.12-.13,.08Z"/>
        <path class="cls-20" d="M26.68,34.33l-.66-.36c-.07-.04-.13-.14-.13-.22h0c0-.08,.06-.12,.13-.08l.66,.36c.07,.04,.13,.14,.13,.22h0c0,.08-.06,.12-.13,.08Z"/>
        <path class="cls-20" d="M27.6,34.53v.3l-.46-.25c-.07-.04-.13-.14-.13-.22,0-.04,.01-.07,.04-.09,.02-.01,.06-.01,.09,0l.46,.25Z"/>
        <path class="cls-9" d="M22.46,32.26s-.01,.07-.04,.09c-.02,.01-.06,.01-.09,0l-.23-.13v-.3l.23,.13c.07,.04,.13,.14,.13,.22Z"/>
        <path class="cls-9" d="M23.48,32.98l-.66-.36c-.07-.04-.13-.14-.13-.22h0c0-.08,.06-.12,.13-.08l.66,.36c.07,.04,.13,.14,.13,.22h0c0,.08-.06,.12-.13,.08Z"/>
        <path class="cls-9" d="M24.6,33.6l-.66-.36c-.07-.04-.13-.14-.13-.22h0c0-.08,.06-.12,.13-.08l.66,.36c.07,.04,.13,.14,.13,.22h0c0,.08-.06,.12-.13,.08Z"/>
        <path class="cls-9" d="M25.76,34.23l-.66-.36c-.07-.04-.13-.14-.13-.22h0c0-.08,.06-.12,.13-.08l.66,.36c.07,.04,.13,.14,.13,.22h0c0,.08-.06,.12-.13,.08Z"/>
        <path class="cls-9" d="M26.91,34.87l-.66-.36c-.07-.04-.13-.14-.13-.22h0c0-.08,.06-.12,.13-.08l.66,.36c.07,.04,.13,.14,.13,.22h0c0,.08-.06,.12-.13,.08Z"/>
        <path class="cls-9" d="M27.6,34.95v.3l-.23-.13c-.07-.04-.13-.14-.13-.22,0-.04,.01-.07,.04-.09,.02-.01,.06-.01,.09,0l.23,.13Z"/>
        <path class="cls-20" d="M22.1,32.33c.07,.04,.13,.14,.13,.22,0,.04-.01,.07-.04,.09-.02,.01-.06,.01-.09,0v-.3Z"/>
        <path class="cls-20" d="M23.25,33.27l-.66-.36c-.07-.04-.13-.14-.13-.22h0c0-.08,.06-.12,.13-.08l.66,.36c.07,.04,.13,.14,.13,.22h0c0,.08-.06,.12-.13,.08Z"/>
        <path class="cls-20" d="M24.37,33.89l-.66-.36c-.07-.04-.13-.14-.13-.22h0c0-.08,.06-.12,.13-.08l.66,.36c.07,.04,.13,.14,.13,.22h0c0,.08-.06,.12-.13,.08Z"/>
        <path class="cls-20" d="M25.53,34.52l-.66-.36c-.07-.04-.13-.14-.13-.22h0c0-.08,.06-.12,.13-.08l.66,.36c.07,.04,.13,.14,.13,.22h0c0,.08-.06,.12-.13,.08Z"/>
        <path class="cls-20" d="M26.68,35.16l-.66-.36c-.07-.04-.13-.14-.13-.22h0c0-.08,.06-.12,.13-.08l.66,.36c.07,.04,.13,.14,.13,.22h0c0,.08-.06,.12-.13,.08Z"/>
        <path class="cls-20" d="M27.6,35.36v.3l-.46-.25c-.07-.04-.13-.14-.13-.22,0-.04,.01-.07,.04-.09,.02-.01,.06-.01,.09,0l.46,.25Z"/>
        <path class="cls-9" d="M22.46,33.1s-.01,.07-.04,.09c-.02,.01-.06,.01-.09,0l-.23-.13v-.3l.23,.13c.07,.04,.13,.14,.13,.22Z"/>
        <path class="cls-9" d="M23.48,33.81l-.66-.36c-.07-.04-.13-.14-.13-.22h0c0-.08,.06-.12,.13-.08l.66,.36c.07,.04,.13,.14,.13,.22h0c0,.08-.06,.12-.13,.08Z"/>
        <path class="cls-9" d="M24.6,34.43l-.66-.36c-.07-.04-.13-.14-.13-.22h0c0-.08,.06-.12,.13-.08l.66,.36c.07,.04,.13,.14,.13,.22h0c0,.08-.06,.12-.13,.08Z"/>
        <path class="cls-9" d="M25.76,35.07l-.66-.36c-.07-.04-.13-.14-.13-.22h0c0-.08,.06-.12,.13-.08l.66,.36c.07,.04,.13,.14,.13,.22h0c0,.08-.06,.12-.13,.08Z"/>
        <path class="cls-9" d="M26.91,35.7l-.66-.36c-.07-.04-.13-.14-.13-.22h0c0-.08,.06-.12,.13-.08l.66,.36c.07,.04,.13,.14,.13,.22h0c0,.08-.06,.12-.13,.08Z"/>
        <path class="cls-9" d="M27.6,35.78v.3l-.23-.13c-.07-.04-.13-.14-.13-.22,0-.04,.01-.07,.04-.09,.02-.01,.06-.01,.09,0l.23,.13Z"/>
        <path class="cls-20" d="M22.1,33.16c.07,.04,.13,.14,.13,.22,0,.04-.01,.07-.04,.09-.02,.01-.06,.01-.09,0v-.3Z"/>
        <path class="cls-20" d="M23.25,34.1l-.66-.36c-.07-.04-.13-.14-.13-.22h0c0-.08,.06-.12,.13-.08l.66,.36c.07,.04,.13,.14,.13,.22h0c0,.08-.06,.12-.13,.08Z"/>
        <path class="cls-20" d="M24.37,34.72l-.66-.36c-.07-.04-.13-.14-.13-.22h0c0-.08,.06-.12,.13-.08l.66,.36c.07,.04,.13,.14,.13,.22h0c0,.08-.06,.12-.13,.08Z"/>
        <path class="cls-20" d="M25.53,35.36l-.66-.36c-.07-.04-.13-.14-.13-.22h0c0-.08,.06-.12,.13-.08l.66,.36c.07,.04,.13,.14,.13,.22h0c0,.08-.06,.12-.13,.08Z"/>
        <path class="cls-20" d="M26.68,35.99l-.66-.36c-.07-.04-.13-.14-.13-.22h0c0-.08,.06-.12,.13-.08l.66,.36c.07,.04,.13,.14,.13,.22h0c0,.08-.06,.12-.13,.08Z"/>
        <path class="cls-20" d="M27.6,36.2v.3l-.46-.25c-.07-.04-.13-.14-.13-.22,0-.04,.01-.07,.04-.09,.02-.01,.06-.01,.09,0l.46,.25Z"/>
        <path class="cls-9" d="M22.46,33.93s-.01,.07-.04,.09c-.02,.01-.06,.01-.09,0l-.23-.13v-.3l.23,.13c.07,.04,.13,.14,.13,.22Z"/>
        <path class="cls-9" d="M23.48,34.65l-.66-.36c-.07-.04-.13-.14-.13-.22h0c0-.08,.06-.12,.13-.08l.66,.36c.07,.04,.13,.14,.13,.22h0c0,.08-.06,.12-.13,.08Z"/>
        <path class="cls-9" d="M24.6,35.26l-.66-.36c-.07-.04-.13-.14-.13-.22h0c0-.08,.06-.12,.13-.08l.66,.36c.07,.04,.13,.14,.13,.22h0c0,.08-.06,.12-.13,.08Z"/>
        <path class="cls-9" d="M25.76,35.9l-.66-.36c-.07-.04-.13-.14-.13-.22h0c0-.08,.06-.12,.13-.08l.66,.36c.07,.04,.13,.14,.13,.22h0c0,.08-.06,.12-.13,.08Z"/>
        <path class="cls-9" d="M26.91,36.54l-.66-.36c-.07-.04-.13-.14-.13-.22h0c0-.08,.06-.12,.13-.08l.66,.36c.07,.04,.13,.14,.13,.22h0c0,.08-.06,.12-.13,.08Z"/>
        <path class="cls-9" d="M27.6,36.61v.3l-.23-.13c-.07-.04-.13-.14-.13-.22,0-.04,.01-.07,.04-.09,.02-.01,.06-.01,.09,0l.23,.13Z"/>
        <path class="cls-20" d="M22.1,34c.07,.04,.13,.14,.13,.22,0,.04-.01,.07-.04,.09-.02,.01-.06,.01-.09,0v-.3Z"/>
        <path class="cls-20" d="M23.25,34.93l-.66-.36c-.07-.04-.13-.14-.13-.22h0c0-.08,.06-.12,.13-.08l.66,.36c.07,.04,.13,.14,.13,.22h0c0,.08-.06,.12-.13,.08Z"/>
        <path class="cls-20" d="M24.37,35.55l-.66-.36c-.07-.04-.13-.14-.13-.22h0c0-.08,.06-.12,.13-.08l.66,.36c.07,.04,.13,.14,.13,.22h0c0,.08-.06,.12-.13,.08Z"/>
        <path class="cls-20" d="M25.53,36.19l-.66-.36c-.07-.04-.13-.14-.13-.22h0c0-.08,.06-.12,.13-.08l.66,.36c.07,.04,.13,.14,.13,.22h0c0,.08-.06,.12-.13,.08Z"/>
        <path class="cls-20" d="M26.68,36.82l-.66-.36c-.07-.04-.13-.14-.13-.22h0c0-.08,.06-.12,.13-.08l.66,.36c.07,.04,.13,.14,.13,.22h0c0,.08-.06,.12-.13,.08Z"/>
        <path class="cls-20" d="M27.6,37.03v.3l-.46-.25c-.07-.04-.13-.14-.13-.22,0-.04,.01-.07,.04-.09,.02-.01,.06-.01,.09,0l.46,.25Z"/>
        <path class="cls-9" d="M22.46,34.76s-.01,.07-.04,.09c-.02,.01-.06,.01-.09,0l-.23-.13v-.3l.23,.13c.07,.04,.13,.14,.13,.22Z"/>
        <path class="cls-9" d="M23.48,35.48l-.66-.36c-.07-.04-.13-.14-.13-.22h0c0-.08,.06-.12,.13-.08l.66,.36c.07,.04,.13,.14,.13,.22h0c0,.08-.06,.12-.13,.08Z"/>
        <path class="cls-9" d="M24.6,36.1l-.66-.36c-.07-.04-.13-.14-.13-.22h0c0-.08,.06-.12,.13-.08l.66,.36c.07,.04,.13,.14,.13,.22h0c0,.08-.06,.12-.13,.08Z"/>
        <path class="cls-9" d="M25.76,36.73l-.66-.36c-.07-.04-.13-.14-.13-.22h0c0-.08,.06-.12,.13-.08l.66,.36c.07,.04,.13,.14,.13,.22h0c0,.08-.06,.12-.13,.08Z"/>
        <path class="cls-9" d="M26.91,37.37l-.66-.36c-.07-.04-.13-.14-.13-.22h0c0-.08,.06-.12,.13-.08l.66,.36c.07,.04,.13,.14,.13,.22h0c0,.08-.06,.12-.13,.08Z"/>
        <path class="cls-9" d="M27.6,37.45v.3l-.23-.13c-.07-.04-.13-.14-.13-.22,0-.04,.01-.07,.04-.09,.02-.01,.06-.01,.09,0l.23,.13Z"/>
        <path class="cls-20" d="M22.1,34.83c.07,.04,.13,.14,.13,.22,0,.04-.01,.07-.04,.09-.02,.01-.06,.01-.09,0v-.3Z"/>
        <path class="cls-20" d="M23.25,35.77l-.66-.36c-.07-.04-.13-.14-.13-.22h0c0-.08,.06-.12,.13-.08l.66,.36c.07,.04,.13,.14,.13,.22h0c0,.08-.06,.12-.13,.08Z"/>
        <path class="cls-20" d="M24.37,36.39l-.66-.36c-.07-.04-.13-.14-.13-.22h0c0-.08,.06-.12,.13-.08l.66,.36c.07,.04,.13,.14,.13,.22h0c0,.08-.06,.12-.13,.08Z"/>
        <path class="cls-20" d="M25.53,37.02l-.66-.36c-.07-.04-.13-.14-.13-.22h0c0-.08,.06-.12,.13-.08l.66,.36c.07,.04,.13,.14,.13,.22h0c0,.08-.06,.12-.13,.08Z"/>
        <path class="cls-20" d="M26.68,37.66l-.66-.36c-.07-.04-.13-.14-.13-.22h0c0-.08,.06-.12,.13-.08l.66,.36c.07,.04,.13,.14,.13,.22h0c0,.08-.06,.12-.13,.08Z"/>
        <path class="cls-20" d="M27.6,37.86v.3l-.46-.25c-.07-.04-.13-.14-.13-.22,0-.04,.01-.07,.04-.09,.02-.01,.06-.01,.09,0l.46,.25Z"/>
        <path class="cls-9" d="M22.46,35.6s-.01,.07-.04,.09c-.02,.01-.06,.01-.09,0l-.23-.13v-.3l.23,.13c.07,.04,.13,.14,.13,.22Z"/>
        <path class="cls-9" d="M23.48,36.31l-.66-.36c-.07-.04-.13-.14-.13-.22h0c0-.08,.06-.12,.13-.08l.66,.36c.07,.04,.13,.14,.13,.22h0c0,.08-.06,.12-.13,.08Z"/>
        <path class="cls-9" d="M24.6,36.93l-.66-.36c-.07-.04-.13-.14-.13-.22h0c0-.08,.06-.12,.13-.08l.66,.36c.07,.04,.13,.14,.13,.22h0c0,.08-.06,.12-.13,.08Z"/>
        <path class="cls-9" d="M25.76,37.57l-.66-.36c-.07-.04-.13-.14-.13-.22h0c0-.08,.06-.12,.13-.08l.66,.36c.07,.04,.13,.14,.13,.22h0c0,.08-.06,.12-.13,.08Z"/>
        <path class="cls-9" d="M26.91,38.2l-.66-.36c-.07-.04-.13-.14-.13-.22h0c0-.08,.06-.12,.13-.08l.66,.36c.07,.04,.13,.14,.13,.22h0c0,.08-.06,.12-.13,.08Z"/>
        <path class="cls-9" d="M27.6,38.28v.3l-.23-.13c-.07-.04-.13-.14-.13-.22,0-.04,.01-.07,.04-.09,.02-.01,.06-.01,.09,0l.23,.13Z"/>
        <path class="cls-20" d="M22.1,35.66c.07,.04,.13,.14,.13,.22,0,.04-.01,.07-.04,.09-.02,.01-.06,.01-.09,0v-.3Z"/>
        <path class="cls-20" d="M23.25,36.6l-.66-.36c-.07-.04-.13-.14-.13-.22h0c0-.08,.06-.12,.13-.08l.66,.36c.07,.04,.13,.14,.13,.22h0c0,.08-.06,.12-.13,.08Z"/>
        <path class="cls-20" d="M24.37,37.22l-.66-.36c-.07-.04-.13-.14-.13-.22h0c0-.08,.06-.12,.13-.08l.66,.36c.07,.04,.13,.14,.13,.22h0c0,.08-.06,.12-.13,.08Z"/>
        <path class="cls-20" d="M25.53,37.85l-.66-.36c-.07-.04-.13-.14-.13-.22h0c0-.08,.06-.12,.13-.08l.66,.36c.07,.04,.13,.14,.13,.22h0c0,.08-.06,.12-.13,.08Z"/>
        <path class="cls-20" d="M26.68,38.49l-.66-.36c-.07-.04-.13-.14-.13-.22h0c0-.08,.06-.12,.13-.08l.66,.36c.07,.04,.13,.14,.13,.22h0c0,.08-.06,.12-.13,.08Z"/>
        <path class="cls-20" d="M27.6,38.7v.3l-.46-.25c-.07-.04-.13-.14-.13-.22,0-.04,.01-.07,.04-.09,.02-.01,.06-.01,.09,0l.46,.25Z"/>
        <path class="cls-9" d="M22.46,36.43s-.01,.07-.04,.09c-.02,.01-.06,.01-.09,0l-.23-.13v-.3l.23,.13c.07,.04,.13,.14,.13,.22Z"/>
        <path class="cls-9" d="M23.48,37.14l-.66-.36c-.07-.04-.13-.14-.13-.22h0c0-.08,.06-.12,.13-.08l.66,.36c.07,.04,.13,.14,.13,.22h0c0,.08-.06,.12-.13,.08Z"/>
        <path class="cls-9" d="M24.6,37.76l-.66-.36c-.07-.04-.13-.14-.13-.22h0c0-.08,.06-.12,.13-.08l.66,.36c.07,.04,.13,.14,.13,.22h0c0,.08-.06,.12-.13,.08Z"/>
        <path class="cls-9" d="M25.76,38.4l-.66-.36c-.07-.04-.13-.14-.13-.22h0c0-.08,.06-.12,.13-.08l.66,.36c.07,.04,.13,.14,.13,.22h0c0,.08-.06,.12-.13,.08Z"/>
        <path class="cls-9" d="M26.91,39.03l-.66-.36c-.07-.04-.13-.14-.13-.22h0c0-.08,.06-.12,.13-.08l.66,.36c.07,.04,.13,.14,.13,.22h0c0,.08-.06,.12-.13,.08Z"/>
        <path class="cls-9" d="M27.6,39.11v.3l-.23-.13c-.07-.04-.13-.14-.13-.22,0-.04,.01-.07,.04-.09,.02-.01,.06-.01,.09,0l.23,.13Z"/>
        <path class="cls-20" d="M22.1,36.49c.07,.04,.13,.14,.13,.22,0,.04-.01,.07-.04,.09-.02,.01-.06,.01-.09,0v-.3Z"/>
        <path class="cls-20" d="M23.25,37.43l-.66-.36c-.07-.04-.13-.14-.13-.22h0c0-.08,.06-.12,.13-.08l.66,.36c.07,.04,.13,.14,.13,.22h0c0,.08-.06,.12-.13,.08Z"/>
        <path class="cls-20" d="M24.37,38.05l-.66-.36c-.07-.04-.13-.14-.13-.22h0c0-.08,.06-.12,.13-.08l.66,.36c.07,.04,.13,.14,.13,.22h0c0,.08-.06,.12-.13,.08Z"/>
        <path class="cls-20" d="M25.53,38.69l-.66-.36c-.07-.04-.13-.14-.13-.22h0c0-.08,.06-.12,.13-.08l.66,.36c.07,.04,.13,.14,.13,.22h0c0,.08-.06,.12-.13,.08Z"/>
        <path class="cls-20" d="M26.68,39.32l-.66-.36c-.07-.04-.13-.14-.13-.22h0c0-.08,.06-.12,.13-.08l.66,.36c.07,.04,.13,.14,.13,.22h0c0,.08-.06,.12-.13,.08Z"/>
        <path class="cls-20" d="M27.6,39.53v.3l-.46-.25c-.07-.04-.13-.14-.13-.22,0-.04,.01-.07,.04-.09,.02-.01,.06-.01,.09,0l.46,.25Z"/>
        <path class="cls-9" d="M22.46,37.26s-.01,.07-.04,.09c-.02,.01-.06,.01-.09,0l-.23-.13v-.3l.23,.13c.07,.04,.13,.14,.13,.22Z"/>
        <path class="cls-9" d="M23.48,37.98l-.66-.36c-.07-.04-.13-.14-.13-.22h0c0-.08,.06-.12,.13-.08l.66,.36c.07,.04,.13,.14,.13,.22h0c0,.08-.06,.12-.13,.08Z"/>
        <path class="cls-9" d="M24.6,38.6l-.66-.36c-.07-.04-.13-.14-.13-.22h0c0-.08,.06-.12,.13-.08l.66,.36c.07,.04,.13,.14,.13,.22h0c0,.08-.06,.12-.13,.08Z"/>
        <path class="cls-9" d="M25.76,39.23l-.66-.36c-.07-.04-.13-.14-.13-.22h0c0-.08,.06-.12,.13-.08l.66,.36c.07,.04,.13,.14,.13,.22h0c0,.08-.06,.12-.13,.08Z"/>
        <path class="cls-9" d="M26.91,39.87l-.66-.36c-.07-.04-.13-.14-.13-.22h0c0-.08,.06-.12,.13-.08l.66,.36c.07,.04,.13,.14,.13,.22h0c0,.08-.06,.12-.13,.08Z"/>
        <path class="cls-9" d="M27.6,39.95v.3l-.23-.13c-.07-.04-.13-.14-.13-.22,0-.04,.01-.07,.04-.09,.02-.01,.06-.01,.09,0l.23,.13Z"/>
        <path class="cls-20" d="M22.1,37.33c.07,.04,.13,.14,.13,.22,0,.04-.01,.07-.04,.09-.02,.01-.06,.01-.09,0v-.3Z"/>
        <path class="cls-20" d="M23.25,38.27l-.66-.36c-.07-.04-.13-.14-.13-.22h0c0-.08,.06-.12,.13-.08l.66,.36c.07,.04,.13,.14,.13,.22h0c0,.08-.06,.12-.13,.08Z"/>
        <path class="cls-20" d="M24.37,38.88l-.66-.36c-.07-.04-.13-.14-.13-.22h0c0-.08,.06-.12,.13-.08l.66,.36c.07,.04,.13,.14,.13,.22h0c0,.08-.06,.12-.13,.08Z"/>
        <path class="cls-20" d="M25.53,39.52l-.66-.36c-.07-.04-.13-.14-.13-.22h0c0-.08,.06-.12,.13-.08l.66,.36c.07,.04,.13,.14,.13,.22h0c0,.08-.06,.12-.13,.08Z"/>
        <path class="cls-20" d="M26.68,40.16l-.66-.36c-.07-.04-.13-.14-.13-.22h0c0-.08,.06-.12,.13-.08l.66,.36c.07,.04,.13,.14,.13,.22h0c0,.08-.06,.12-.13,.08Z"/>
        <path class="cls-20" d="M27.6,40.36v.3l-.46-.25c-.07-.04-.13-.14-.13-.22,0-.04,.01-.07,.04-.09,.02-.01,.06-.01,.09,0l.46,.25Z"/>
        <path class="cls-9" d="M22.46,38.1s-.01,.07-.04,.09c-.02,.01-.06,.01-.09,0l-.23-.13v-.3l.23,.13c.07,.04,.13,.14,.13,.22Z"/>
        <path class="cls-9" d="M23.48,38.81l-.66-.36c-.07-.04-.13-.14-.13-.22h0c0-.08,.06-.12,.13-.08l.66,.36c.07,.04,.13,.14,.13,.22h0c0,.08-.06,.12-.13,.08Z"/>
        <path class="cls-9" d="M24.6,39.43l-.66-.36c-.07-.04-.13-.14-.13-.22h0c0-.08,.06-.12,.13-.08l.66,.36c.07,.04,.13,.14,.13,.22h0c0,.08-.06,.12-.13,.08Z"/>
        <path class="cls-9" d="M25.76,40.06l-.66-.36c-.07-.04-.13-.14-.13-.22h0c0-.08,.06-.12,.13-.08l.66,.36c.07,.04,.13,.14,.13,.22h0c0,.08-.06,.12-.13,.08Z"/>
        <path class="cls-9" d="M26.91,40.7l-.66-.36c-.07-.04-.13-.14-.13-.22h0c0-.08,.06-.12,.13-.08l.66,.36c.07,.04,.13,.14,.13,.22h0c0,.08-.06,.12-.13,.08Z"/>
        <path class="cls-9" d="M27.6,40.78v.3l-.23-.13c-.07-.04-.13-.14-.13-.22,0-.04,.01-.07,.04-.09,.02-.01,.06-.01,.09,0l.23,.13Z"/>
      </g>
    </g>
  </g>
</svg>