<?xml version="1.0" encoding="UTF-8"?>
<svg width="950px" height="332px" viewBox="0 0 950 332" version="1.1" xmlns="http://www.w3.org/2000/svg" xmlns:xlink="http://www.w3.org/1999/xlink">
    <title>编组 6</title>
    <defs>
        <linearGradient x1="11.8346154%" y1="88.1653846%" x2="84.1461538%" y2="15.8538462%" id="linearGradient-1">
            <stop stop-color="#1130CE" offset="0%"></stop>
            <stop stop-color="#3E60DC" offset="28%"></stop>
            <stop stop-color="#8AB3F5" offset="77%"></stop>
            <stop stop-color="#A9D4FF" offset="100%"></stop>
        </linearGradient>
        <linearGradient x1="14.6597222%" y1="85.3402778%" x2="85.3402778%" y2="14.6597222%" id="linearGradient-2">
            <stop stop-color="#2E6FFF" offset="0%"></stop>
            <stop stop-color="#4CB7FF" offset="66%"></stop>
            <stop stop-color="#5AD8FF" offset="100%"></stop>
        </linearGradient>
        <linearGradient x1="14.6615385%" y1="85.3384615%" x2="85.3384615%" y2="14.6615385%" id="linearGradient-3">
            <stop stop-color="#1130CE" offset="0%"></stop>
            <stop stop-color="#3E60DC" offset="28%"></stop>
            <stop stop-color="#8AB3F5" offset="77%"></stop>
            <stop stop-color="#A9D4FF" offset="100%"></stop>
        </linearGradient>
        <linearGradient x1="14.3192709%" y1="74.5946015%" x2="84.4999843%" y2="32.4762942%" id="linearGradient-4">
            <stop stop-color="#2E6FFF" offset="0%"></stop>
            <stop stop-color="#4CB7FF" offset="66%"></stop>
            <stop stop-color="#5AD8FF" offset="100%"></stop>
        </linearGradient>
        <linearGradient x1="5.47272727%" y1="90.4793388%" x2="94.5272727%" y2="9.52066116%" id="linearGradient-5">
            <stop stop-color="#2E6FFF" offset="0%"></stop>
            <stop stop-color="#4CB7FF" offset="66%"></stop>
            <stop stop-color="#5AD8FF" offset="100%"></stop>
        </linearGradient>
        <linearGradient x1="24.1941748%" y1="52.0043359%" x2="75.8058252%" y2="47.9956641%" id="linearGradient-6">
            <stop stop-color="#2E6FFF" offset="0%"></stop>
            <stop stop-color="#4CB7FF" offset="66%"></stop>
            <stop stop-color="#5AD8FF" offset="100%"></stop>
        </linearGradient>
        <linearGradient x1="14.6538462%" y1="85.3461538%" x2="85.3461538%" y2="14.6538462%" id="linearGradient-7">
            <stop stop-color="#2E6FFF" offset="0%"></stop>
            <stop stop-color="#4CB7FF" offset="66%"></stop>
            <stop stop-color="#5AD8FF" offset="100%"></stop>
        </linearGradient>
        <linearGradient x1="21.68%" y1="59.0624%" x2="78.32%" y2="40.9376%" id="linearGradient-8">
            <stop stop-color="#2E6FFF" offset="0%"></stop>
            <stop stop-color="#4CB7FF" offset="66%"></stop>
            <stop stop-color="#5AD8FF" offset="100%"></stop>
        </linearGradient>
        <linearGradient x1="43.1041667%" y1="77.5833333%" x2="56.8958333%" y2="22.4166667%" id="linearGradient-9">
            <stop stop-color="#2E6FFF" offset="0%"></stop>
            <stop stop-color="#4CB7FF" offset="66%"></stop>
            <stop stop-color="#5AD8FF" offset="100%"></stop>
        </linearGradient>
        <linearGradient x1="38.7741935%" y1="79%" x2="61.2258065%" y2="21%" id="linearGradient-10">
            <stop stop-color="#2E6FFF" offset="0%"></stop>
            <stop stop-color="#4CB7FF" offset="66%"></stop>
            <stop stop-color="#5AD8FF" offset="100%"></stop>
        </linearGradient>
        <linearGradient x1="36.260355%" y1="79.7692308%" x2="63.739645%" y2="20.2307692%" id="linearGradient-11">
            <stop stop-color="#2E6FFF" offset="0%"></stop>
            <stop stop-color="#4CB7FF" offset="66%"></stop>
            <stop stop-color="#5AD8FF" offset="100%"></stop>
        </linearGradient>
        <linearGradient x1="44.3852556%" y1="77.137931%" x2="55.6147444%" y2="22.862069%" id="linearGradient-12">
            <stop stop-color="#2E6FFF" offset="0%"></stop>
            <stop stop-color="#4CB7FF" offset="66%"></stop>
            <stop stop-color="#5AD8FF" offset="100%"></stop>
        </linearGradient>
        <linearGradient x1="24.3515625%" y1="51.6030273%" x2="75.6484375%" y2="48.3969727%" id="linearGradient-13">
            <stop stop-color="#2E6FFF" offset="0%"></stop>
            <stop stop-color="#4CB7FF" offset="66%"></stop>
            <stop stop-color="#5AD8FF" offset="100%"></stop>
        </linearGradient>
        <linearGradient x1="20.889179%" y1="90.7153285%" x2="79.4220257%" y2="9.71532847%" id="linearGradient-14">
            <stop stop-color="#2E6FFF" offset="0%"></stop>
            <stop stop-color="#4CB7FF" offset="66%"></stop>
            <stop stop-color="#5AD8FF" offset="100%"></stop>
        </linearGradient>
        <linearGradient x1="22.8717949%" y1="55.56476%" x2="77.1282051%" y2="44.43524%" id="linearGradient-15">
            <stop stop-color="#2E6FFF" offset="0%"></stop>
            <stop stop-color="#4CB7FF" offset="66%"></stop>
            <stop stop-color="#5AD8FF" offset="100%"></stop>
        </linearGradient>
        <linearGradient x1="20.0923768%" y1="72.5009048%" x2="94.0107479%" y2="30.135441%" id="linearGradient-16">
            <stop stop-color="#2E6FFF" offset="0%"></stop>
            <stop stop-color="#4CB7FF" offset="66%"></stop>
            <stop stop-color="#5AD8FF" offset="100%"></stop>
        </linearGradient>
        <linearGradient x1="14.6428571%" y1="85.3571429%" x2="85.3571429%" y2="14.6428571%" id="linearGradient-17">
            <stop stop-color="#2E6FFF" offset="0%"></stop>
            <stop stop-color="#4CB7FF" offset="66%"></stop>
            <stop stop-color="#5AD8FF" offset="100%"></stop>
        </linearGradient>
        <linearGradient x1="14.6615385%" y1="85.3384615%" x2="85.3384615%" y2="14.6615385%" id="linearGradient-18">
            <stop stop-color="#28D161" offset="0%"></stop>
            <stop stop-color="#75E399" offset="38%"></stop>
            <stop stop-color="#C8F7D5" offset="80%"></stop>
            <stop stop-color="#E9FFED" offset="100%"></stop>
        </linearGradient>
        <linearGradient x1="7.34482759%" y1="85.3008323%" x2="75.7155172%" y2="28.7181926%" id="linearGradient-19">
            <stop stop-color="#28D161" offset="0%"></stop>
            <stop stop-color="#75E399" offset="38%"></stop>
            <stop stop-color="#C8F7D5" offset="80%"></stop>
            <stop stop-color="#E9FFED" offset="100%"></stop>
        </linearGradient>
        <linearGradient x1="23.6612903%" y1="53.3985432%" x2="76.3387097%" y2="46.6014568%" id="linearGradient-20">
            <stop stop-color="#28D161" offset="0%"></stop>
            <stop stop-color="#75E399" offset="38%"></stop>
            <stop stop-color="#C8F7D5" offset="80%"></stop>
            <stop stop-color="#E9FFED" offset="100%"></stop>
        </linearGradient>
        <linearGradient x1="14.9824032%" y1="76.7823537%" x2="94.2986425%" y2="24.6133185%" id="linearGradient-21">
            <stop stop-color="#28D161" offset="0%"></stop>
            <stop stop-color="#75E399" offset="38%"></stop>
            <stop stop-color="#C8F7D5" offset="80%"></stop>
            <stop stop-color="#E9FFED" offset="100%"></stop>
        </linearGradient>
        <linearGradient x1="7.88732394%" y1="83.5352113%" x2="77.1587979%" y2="-2%" id="linearGradient-22">
            <stop stop-color="#28D161" offset="0%"></stop>
            <stop stop-color="#75E399" offset="38%"></stop>
            <stop stop-color="#C8F7D5" offset="80%"></stop>
            <stop stop-color="#E9FFED" offset="100%"></stop>
        </linearGradient>
        <linearGradient x1="23.6825397%" y1="53.3418997%" x2="76.3174603%" y2="46.6581003%" id="linearGradient-23">
            <stop stop-color="#28D161" offset="0%"></stop>
            <stop stop-color="#75E399" offset="38%"></stop>
            <stop stop-color="#C8F7D5" offset="80%"></stop>
            <stop stop-color="#E9FFED" offset="100%"></stop>
        </linearGradient>
        <linearGradient x1="23.372549%" y1="54.1768551%" x2="76.627451%" y2="45.8231449%" id="linearGradient-24">
            <stop stop-color="#28D161" offset="0%"></stop>
            <stop stop-color="#75E399" offset="38%"></stop>
            <stop stop-color="#C8F7D5" offset="80%"></stop>
            <stop stop-color="#E9FFED" offset="100%"></stop>
        </linearGradient>
        <linearGradient x1="22.2333333%" y1="57.4044444%" x2="77.7666667%" y2="42.5955556%" id="linearGradient-25">
            <stop stop-color="#28D161" offset="0%"></stop>
            <stop stop-color="#75E399" offset="38%"></stop>
            <stop stop-color="#C8F7D5" offset="80%"></stop>
            <stop stop-color="#E9FFED" offset="100%"></stop>
        </linearGradient>
        <linearGradient x1="18.1995668%" y1="61.594292%" x2="74.1373176%" y2="29.6678615%" id="linearGradient-26">
            <stop stop-color="#28D161" offset="0%"></stop>
            <stop stop-color="#75E399" offset="38%"></stop>
            <stop stop-color="#C8F7D5" offset="80%"></stop>
            <stop stop-color="#E9FFED" offset="100%"></stop>
        </linearGradient>
        <linearGradient x1="25.6925521%" y1="67.2122272%" x2="82.3745539%" y2="38.0867921%" id="linearGradient-27">
            <stop stop-color="#28D161" offset="0%"></stop>
            <stop stop-color="#75E399" offset="38%"></stop>
            <stop stop-color="#C8F7D5" offset="80%"></stop>
            <stop stop-color="#E9FFED" offset="100%"></stop>
        </linearGradient>
        <linearGradient x1="22.2916667%" y1="58.0815972%" x2="77.7083333%" y2="41.9184028%" id="linearGradient-28">
            <stop stop-color="#28D161" offset="0%"></stop>
            <stop stop-color="#75E399" offset="38%"></stop>
            <stop stop-color="#C8F7D5" offset="80%"></stop>
            <stop stop-color="#E9FFED" offset="100%"></stop>
        </linearGradient>
        <linearGradient x1="14.655914%" y1="85.344086%" x2="85.344086%" y2="14.655914%" id="linearGradient-29">
            <stop stop-color="#28D161" offset="0%"></stop>
            <stop stop-color="#75E399" offset="38%"></stop>
            <stop stop-color="#C8F7D5" offset="80%"></stop>
            <stop stop-color="#E9FFED" offset="100%"></stop>
        </linearGradient>
        <linearGradient x1="17.5959546%" y1="63.0099322%" x2="83.2875183%" y2="17.2656385%" id="linearGradient-30">
            <stop stop-color="#28D161" offset="0%"></stop>
            <stop stop-color="#75E399" offset="38%"></stop>
            <stop stop-color="#C8F7D5" offset="80%"></stop>
            <stop stop-color="#E9FFED" offset="100%"></stop>
        </linearGradient>
        <linearGradient x1="11.7329033%" y1="103.475036%" x2="87.7200288%" y2="21.5095117%" id="linearGradient-31">
            <stop stop-color="#28D161" offset="0%"></stop>
            <stop stop-color="#75E399" offset="38%"></stop>
            <stop stop-color="#C8F7D5" offset="80%"></stop>
            <stop stop-color="#E9FFED" offset="100%"></stop>
        </linearGradient>
        <linearGradient x1="14.6557377%" y1="85.3442623%" x2="85.3442623%" y2="14.6557377%" id="linearGradient-32">
            <stop stop-color="#2E6FFF" offset="0%"></stop>
            <stop stop-color="#4CB7FF" offset="66%"></stop>
            <stop stop-color="#5AD8FF" offset="100%"></stop>
        </linearGradient>
        <linearGradient x1="7.88732394%" y1="83.5352113%" x2="77.1587979%" y2="-2%" id="linearGradient-33">
            <stop stop-color="#2E6FFF" offset="0%"></stop>
            <stop stop-color="#4CB7FF" offset="66%"></stop>
            <stop stop-color="#5AD8FF" offset="100%"></stop>
        </linearGradient>
        <linearGradient x1="23.7424242%" y1="53.1827365%" x2="76.2575758%" y2="46.8172635%" id="linearGradient-34">
            <stop stop-color="#2E6FFF" offset="0%"></stop>
            <stop stop-color="#4CB7FF" offset="66%"></stop>
            <stop stop-color="#5AD8FF" offset="100%"></stop>
        </linearGradient>
        <linearGradient x1="22.9756098%" y1="55.2730518%" x2="77.0243902%" y2="44.7269482%" id="linearGradient-35">
            <stop stop-color="#2E6FFF" offset="0%"></stop>
            <stop stop-color="#4CB7FF" offset="66%"></stop>
            <stop stop-color="#5AD8FF" offset="100%"></stop>
        </linearGradient>
        <linearGradient x1="21.8076923%" y1="58.6745562%" x2="78.1923077%" y2="41.3254438%" id="linearGradient-36">
            <stop stop-color="#2E6FFF" offset="0%"></stop>
            <stop stop-color="#4CB7FF" offset="66%"></stop>
            <stop stop-color="#5AD8FF" offset="100%"></stop>
        </linearGradient>
        <linearGradient x1="18.9010918%" y1="72.9004666%" x2="81.1627008%" y2="-2.99377916%" id="linearGradient-37">
            <stop stop-color="#2E6FFF" offset="0%"></stop>
            <stop stop-color="#4CB7FF" offset="66%"></stop>
            <stop stop-color="#5AD8FF" offset="100%"></stop>
        </linearGradient>
        <linearGradient x1="-0.274021701%" y1="82.0477779%" x2="82.0655847%" y2="-0.291306357%" id="linearGradient-38">
            <stop stop-color="#2E6FFF" offset="0%"></stop>
            <stop stop-color="#4CB7FF" offset="66%"></stop>
            <stop stop-color="#5AD8FF" offset="100%"></stop>
        </linearGradient>
        <linearGradient x1="0%" y1="50%" x2="100%" y2="50%" id="linearGradient-39">
            <stop stop-color="#2E6FFF" offset="0%"></stop>
            <stop stop-color="#4CB7FF" offset="66%"></stop>
            <stop stop-color="#5AD8FF" offset="100%"></stop>
        </linearGradient>
        <linearGradient x1="0%" y1="50%" x2="100%" y2="50%" id="linearGradient-40">
            <stop stop-color="#2E6FFF" offset="0%"></stop>
            <stop stop-color="#4CB7FF" offset="66%"></stop>
            <stop stop-color="#5AD8FF" offset="100%"></stop>
        </linearGradient>
        <linearGradient x1="1.87350135e-14%" y1="50%" x2="100%" y2="50%" id="linearGradient-41">
            <stop stop-color="#FFFFFF" stop-opacity="0" offset="0%"></stop>
            <stop stop-color="#90BAFF" offset="100%"></stop>
        </linearGradient>
        <linearGradient x1="1.87350135e-14%" y1="50%" x2="100%" y2="50%" id="linearGradient-42">
            <stop stop-color="#FFFFFF" stop-opacity="0" offset="0%"></stop>
            <stop stop-color="#90BAFF" offset="100%"></stop>
        </linearGradient>
        <linearGradient x1="40.87772%" y1="100%" x2="57.9338184%" y2="2.51017573e-15%" id="linearGradient-43">
            <stop stop-color="#FFFFFF" stop-opacity="0" offset="0%"></stop>
            <stop stop-color="#90BAFF" offset="100%"></stop>
        </linearGradient>
        <linearGradient x1="-17.9360582%" y1="52.6806951%" x2="100%" y2="50%" id="linearGradient-44">
            <stop stop-color="#FFFFFF" stop-opacity="0" offset="0%"></stop>
            <stop stop-color="#90BAFF" offset="100%"></stop>
        </linearGradient>
    </defs>
    <g id="深色版" stroke="none" stroke-width="1" fill="none" fill-rule="evenodd">
        <g id="编组-6">
            <rect id="矩形" fill="#010C1E" x="0" y="0" width="950" height="332" rx="8"></rect>
            <g id="1" transform="translate(0.000000, 134.000000)" fill-rule="nonzero">
                <path d="M32,64 C14.3556923,64 0,49.6443077 0,32 C0,14.3556923 14.3556923,0 32,0 C49.6443077,0 64,14.3556923 64,32 C64,49.6443077 49.6443077,64 32,64 Z M32,1.96923077 C15.4412308,1.96923077 1.96923077,15.4412308 1.96923077,32 C1.96923077,48.5587692 15.4412308,62.0307692 32,62.0307692 C48.5587692,62.0307692 62.0307692,48.5587692 62.0307692,32 C62.0307692,15.4412308 48.5587692,1.96923077 32,1.96923077 Z" id="形状" fill="url(#linearGradient-1)"></path>
                <g id="编组" transform="translate(1.969231, 1.969231)">
                    <circle id="椭圆形" fill="#0F254A" cx="30.0307692" cy="30.0307692" r="30.0307692"></circle>
                    <g opacity="0.25" style="mix-blend-mode: screen;" fill="#10254A" id="椭圆形">
                        <circle cx="30.0307692" cy="30.0307692" r="30.0307692"></circle>
                    </g>
                </g>
                <path d="M31.0153846,14.2769231 C21.2430769,14.2769231 13.2923077,22.2276923 13.2923077,32 C13.2923077,41.7723077 21.2430769,49.7230769 31.0153846,49.7230769 C40.7876923,49.7230769 48.7384615,41.7723077 48.7384615,32 C48.7384615,22.2276923 40.7876923,14.2769231 31.0153846,14.2769231 Z M46.7692308,32 C46.7692308,32.6153846 46.7347692,33.2233846 46.6633846,33.8215385 C45.9101538,34.2670769 43.8227692,35.4190769 40.96,36.3963077 C40.1181538,35.7193846 39.2073846,34.9070769 38.2547692,33.9372308 C39.4264615,31.6627692 40.2756923,28.8664615 40.7975385,25.568 C41.1396923,23.3993846 41.2652308,21.4523077 41.3070769,20.0836923 C44.6498462,22.9735385 46.7692308,27.2443077 46.7692308,32 L46.7692308,32 Z M20.608,36.7556923 C23.0104615,38.176 25.9889231,39.3895385 29.4769231,39.7809231 C29.6369231,39.7981538 29.7969231,39.8153846 29.9569231,39.8276923 C26.2203077,42.5156923 22.7593846,44.0492308 21.5138462,44.5563077 C21.1815385,44.3052308 20.8590769,44.0393846 20.5489231,43.7636923 C20.448,42.816 20.2289231,40.064 20.608,36.7556923 Z M29.696,37.824 C26.208,37.4301538 23.2492308,36.1033846 20.9304615,34.6190769 C21.3735385,32.2806154 22.1538462,29.8092308 23.4904615,27.584 C24.992,25.0830769 27.552,22.9636923 30.0947692,21.3193846 C30.4861538,24.8 31.5889231,29.1298462 34.4369231,32.6227692 C34.9021538,33.1938462 35.3624615,33.728 35.8203077,34.2276923 C35.3009231,35.0498462 34.7076923,35.8030769 34.0258462,36.4578462 C33.4793846,36.9821538 32.9230769,37.4818462 32.3618462,37.9544615 C31.488,37.9643077 30.5969231,37.9249231 29.696,37.824 L29.696,37.824 Z M36.8147692,32.3864615 C36.5316923,32.064 36.2486154,31.7267692 35.9630769,31.3772308 C33.1766154,27.9630769 32.2486154,23.5126154 31.9803077,20.1747692 C34.3704615,18.8135385 36.4873846,17.92 37.3464615,17.5753846 C38.0430769,17.8830769 38.7126154,18.2375385 39.3501538,18.6387692 C39.3624615,20.5144615 39.2196923,27.1876923 36.8147692,32.3864615 Z M37.2209231,35.6898462 C37.7329231,36.1944615 38.2301538,36.6547692 38.7052308,37.0732308 C37.7132308,37.3316923 36.6621538,37.5507692 35.5643077,37.7058462 C36.1624615,37.1126154 36.7138462,36.4381538 37.2209231,35.6898462 Z M31.8867692,17.9692308 C31.8793846,17.2849231 31.8990769,16.7064615 31.9236923,16.2732308 C32.8147692,16.3224615 33.6886154,16.448 34.5353846,16.6424615 C33.7649231,16.9993846 32.8590769,17.4424615 31.8867692,17.9692308 Z M29.9446154,16.2830769 C29.9076923,16.9747692 29.8830769,17.9421538 29.9273846,19.0916923 C26.1218462,21.408 23.392,23.9212308 21.8018462,26.5698462 C20.4947692,28.7483077 19.6726154,31.1089231 19.1655385,33.376 C17.2061538,31.8621538 15.9163077,30.4073846 15.4166154,29.8018462 C16.4381538,22.4984615 22.4886154,16.7852308 29.9446154,16.2830769 L29.9446154,16.2830769 Z M15.2738462,32.5833846 C16.128,33.4498462 17.2996923,34.5132308 18.7667692,35.5569231 C18.4344615,37.8215385 18.3852308,39.8892308 18.4270769,41.4572308 C16.5489231,38.9661538 15.3944615,35.904 15.2738462,32.5833846 L15.2738462,32.5833846 Z M31.0153846,47.7538462 C28.3003077,47.7538462 25.7427692,47.0621538 23.5076923,45.8461538 C25.6418462,44.8787692 29.3636923,42.9563077 33.0929231,39.9113846 C35.8424615,39.8104615 38.3975385,39.2763077 40.5932308,38.6067692 C41.0535385,38.9489231 41.4769231,39.2443077 41.8584615,39.4978462 C42.624,40.0049231 43.3673846,40.4406154 44.0787692,40.7950769 C41.2455385,44.992 36.4455385,47.7538462 31.0153846,47.7538462 Z M45.0806154,39.0916923 C44.5612308,38.8356923 43.808,38.4246154 42.8873846,37.8116923 C44.1993846,37.3046154 45.3095385,36.7852308 46.1587692,36.3495385 C45.8830769,37.3021538 45.5212308,38.2203077 45.0806154,39.0916923 Z" id="形状" fill="url(#linearGradient-2)"></path>
                <circle id="椭圆形" fill="#29D7FF" cx="25.1076923" cy="24.1230769" r="1.96923077"></circle>
                <circle id="椭圆形" fill="#29D7FF" cx="39.3846154" cy="27.0769231" r="1.96923077"></circle>
                <circle id="椭圆形" fill="#29D7FF" cx="32" cy="38.8923077" r="1.96923077"></circle>
            </g>
            <g id="3" transform="translate(352.000000, 26.000000)" fill-rule="nonzero">
                <path d="M32,64 C14.3556923,64 0,49.6443077 0,32 C0,14.3556923 14.3556923,0 32,0 C49.6443077,0 64,14.3556923 64,32 C64,49.6443077 49.6443077,64 32,64 Z M32,1.96923077 C15.4412308,1.96923077 1.96923077,15.4412308 1.96923077,32 C1.96923077,48.5587692 15.4412308,62.0307692 32,62.0307692 C48.5587692,62.0307692 62.0307692,48.5587692 62.0307692,32 C62.0307692,15.4412308 48.5587692,1.96923077 32,1.96923077 Z" id="形状" fill="url(#linearGradient-3)"></path>
                <g id="编组" transform="translate(1.969231, 1.969231)">
                    <circle id="椭圆形" fill="#0F254A" cx="30.0307692" cy="30.0307692" r="30.0307692"></circle>
                    <g opacity="0.25" style="mix-blend-mode: screen;" fill="#10254A" id="椭圆形">
                        <circle cx="30.0307692" cy="30.0307692" r="30.0307692"></circle>
                    </g>
                </g>
                <path d="M37.6763077,31.424 C37.4424615,31.5593846 37.2504615,31.4486154 37.2504615,31.1778462 L37.2504615,30.4615385 C37.2504615,30.1907692 37.088,30.1193846 36.8886154,30.304 L31.2,35.5593846 C31.0006154,35.744 30.6510769,36.0098462 30.4196923,36.1526154 L29.312,36.5858462 C29.0461538,36.6375385 28.608,36.6769231 28.3372308,36.6769231 L24.8615385,36.6769231 C24.5907692,36.6769231 24.1673846,36.5858462 23.9187692,36.4750769 C23.9187692,36.4750769 23.3846154,36.2363077 23.3846154,35.6923077 C23.3846154,35.1483077 23.9187692,34.9095385 23.9187692,34.9095385 C24.1649231,34.7987692 24.5907692,34.7076923 24.8615385,34.7076923 L28.3372308,34.7076923 C28.608,34.7076923 28.9403077,34.6855385 29.0732308,34.6609231 C29.2061538,34.6363077 29.664,34.2941538 29.8609231,34.1095385 L36.8861538,27.6233846 C37.0855385,27.4387692 37.248,27.0670769 37.248,26.7963077 L37.248,25.1889231 C37.248,24.9181538 37.44,24.8073846 37.6738462,24.9427692 L42.8578462,27.936 C43.0916923,28.0713846 43.0916923,28.2929231 42.8578462,28.4283077 L37.6738462,31.4215385 L37.6763077,31.424 Z" id="路径" fill="url(#linearGradient-4)"></path>
                <path d="M42.5846154,42.3384615 L21.4153846,42.3384615 C19.7858462,42.3384615 18.4615385,41.0141538 18.4615385,39.3846154 L18.4615385,20.6769231 C18.4615385,19.0473846 19.7858462,17.7230769 21.4153846,17.7230769 L42.5846154,17.7230769 C44.2141538,17.7230769 45.5384615,19.0473846 45.5384615,20.6769231 L45.5384615,39.3846154 C45.5384615,41.0141538 44.2141538,42.3384615 42.5846154,42.3384615 Z M21.4153846,19.6923077 C20.8713846,19.6923077 20.4307692,20.1329231 20.4307692,20.6769231 L20.4307692,39.3846154 C20.4307692,39.9286154 20.8713846,40.3692308 21.4153846,40.3692308 L42.5846154,40.3692308 C43.1286154,40.3692308 43.5692308,39.9286154 43.5692308,39.3846154 L43.5692308,20.6769231 C43.5692308,20.1329231 43.1286154,19.6923077 42.5846154,19.6923077 L21.4153846,19.6923077 Z" id="形状" fill="url(#linearGradient-5)"></path>
                <rect id="矩形" fill="url(#linearGradient-6)" x="19.2" y="44.0615385" width="25.3538462" height="1.96923077" rx="0.984615385"></rect>
                <path d="M26.5846154,29.5384615 C24.8196923,29.5384615 23.3846154,28.1033846 23.3846154,26.3384615 C23.3846154,24.5735385 24.8196923,23.1384615 26.5846154,23.1384615 C28.3495385,23.1384615 29.7846154,24.5735385 29.7846154,26.3384615 C29.7846154,28.1033846 28.3495385,29.5384615 26.5846154,29.5384615 Z M26.5846154,25.1076923 C25.9052308,25.1076923 25.3538462,25.6590769 25.3538462,26.3384615 C25.3538462,27.0178462 25.9052308,27.5692308 26.5846154,27.5692308 C27.264,27.5692308 27.8153846,27.0178462 27.8153846,26.3384615 C27.8153846,25.6590769 27.264,25.1076923 26.5846154,25.1076923 Z" id="形状" fill="url(#linearGradient-7)"></path>
                <rect id="矩形" fill="url(#linearGradient-8)" x="23.3846154" y="31.0153846" width="6.15384615" height="1.96923077" rx="0.984615385"></rect>
                <rect id="矩形" fill="url(#linearGradient-8)" x="33.7230769" y="34.9538462" width="6.15384615" height="1.96923077" rx="0.984615385"></rect>
            </g>
            <g id="2" transform="translate(178.000000, 134.000000)" fill-rule="nonzero">
                <path d="M32,64 C14.3556923,64 0,49.6443077 0,32 C0,14.3556923 14.3556923,0 32,0 C49.6443077,0 64,14.3556923 64,32 C64,49.6443077 49.6443077,64 32,64 Z M32,1.96923077 C15.4412308,1.96923077 1.96923077,15.4412308 1.96923077,32 C1.96923077,48.5587692 15.4412308,62.0307692 32,62.0307692 C48.5587692,62.0307692 62.0307692,48.5587692 62.0307692,32 C62.0307692,15.4412308 48.5587692,1.96923077 32,1.96923077 Z" id="形状" fill="url(#linearGradient-3)"></path>
                <g id="编组" transform="translate(1.969231, 1.969231)">
                    <circle id="椭圆形" fill="#0F254A" cx="30.0307692" cy="30.0307692" r="30.0307692"></circle>
                    <g opacity="0.25" style="mix-blend-mode: screen;" fill="#10254A" id="椭圆形">
                        <circle cx="30.0307692" cy="30.0307692" r="30.0307692"></circle>
                    </g>
                </g>
                <path d="M19.6923077,44.0615385 C18.0627692,44.0615385 16.7384615,42.7372308 16.7384615,41.1076923 L16.7384615,23.3846154 C16.7384615,21.7550769 18.0627692,20.4307692 19.6923077,20.4307692 C21.3218462,20.4307692 22.6461538,21.7550769 22.6461538,23.3846154 L22.6461538,41.1076923 C22.6461538,42.7372308 21.3218462,44.0615385 19.6923077,44.0615385 Z M19.6923077,22.4 C19.1483077,22.4 18.7076923,22.8406154 18.7076923,23.3846154 L18.7076923,41.1076923 C18.7076923,41.6516923 19.1483077,42.0923077 19.6923077,42.0923077 C20.2363077,42.0923077 20.6769231,41.6516923 20.6769231,41.1076923 L20.6769231,23.3846154 C20.6769231,22.8406154 20.2363077,22.4 19.6923077,22.4 Z" id="形状" fill="url(#linearGradient-9)"></path>
                <path d="M28.0615385,44.0615385 C26.432,44.0615385 25.1076923,42.7372308 25.1076923,41.1076923 L25.1076923,31.7538462 C25.1076923,30.1243077 26.432,28.8 28.0615385,28.8 C29.6910769,28.8 31.0153846,30.1243077 31.0153846,31.7538462 L31.0153846,41.1076923 C31.0153846,42.7372308 29.6910769,44.0615385 28.0615385,44.0615385 Z M28.0615385,30.7692308 C27.5175385,30.7692308 27.0769231,31.2098462 27.0769231,31.7538462 L27.0769231,41.1076923 C27.0769231,41.6516923 27.5175385,42.0923077 28.0615385,42.0923077 C28.6055385,42.0923077 29.0461538,41.6516923 29.0461538,41.1076923 L29.0461538,31.7538462 C29.0461538,31.2098462 28.6055385,30.7692308 28.0615385,30.7692308 Z" id="形状" fill="url(#linearGradient-10)"></path>
                <path d="M44.8,44.0615385 C43.1704615,44.0615385 41.8461538,42.7372308 41.8461538,41.1076923 L41.8461538,34.2153846 C41.8461538,32.5858462 43.1704615,31.2615385 44.8,31.2615385 C46.4295385,31.2615385 47.7538462,32.5858462 47.7538462,34.2153846 L47.7538462,41.1076923 C47.7538462,42.7372308 46.4295385,44.0615385 44.8,44.0615385 Z M44.8,33.2307692 C44.256,33.2307692 43.8153846,33.6713846 43.8153846,34.2153846 L43.8153846,41.1076923 C43.8153846,41.6516923 44.256,42.0923077 44.8,42.0923077 C45.344,42.0923077 45.7846154,41.6516923 45.7846154,41.1076923 L45.7846154,34.2153846 C45.7846154,33.6713846 45.344,33.2307692 44.8,33.2307692 Z" id="形状" fill="url(#linearGradient-11)"></path>
                <path d="M36.4307692,44.0615385 C34.8012308,44.0615385 33.4769231,42.7372308 33.4769231,41.1076923 L33.4769231,18.4615385 C33.4769231,16.832 34.8012308,15.5076923 36.4307692,15.5076923 C38.0603077,15.5076923 39.3846154,16.832 39.3846154,18.4615385 L39.3846154,41.1076923 C39.3846154,42.7372308 38.0603077,44.0615385 36.4307692,44.0615385 Z M36.4307692,17.4769231 C35.8867692,17.4769231 35.4461538,17.9175385 35.4461538,18.4615385 L35.4461538,41.1076923 C35.4461538,41.6516923 35.8867692,42.0923077 36.4307692,42.0923077 C36.9747692,42.0923077 37.4153846,41.6516923 37.4153846,41.1076923 L37.4153846,18.4615385 C37.4153846,17.9175385 36.9747692,17.4769231 36.4307692,17.4769231 Z" id="形状" fill="url(#linearGradient-12)"></path>
                <rect id="矩形" fill="url(#linearGradient-13)" x="16.4923077" y="45.5384615" width="31.5076923" height="1.96923077" rx="0.984615385"></rect>
            </g>
            <g id="6" transform="translate(886.000000, 134.000000)" fill-rule="nonzero">
                <path d="M32,64 C14.3556923,64 0,49.6443077 0,32 C0,14.3556923 14.3556923,0 32,0 C49.6443077,0 64,14.3556923 64,32 C64,49.6443077 49.6443077,64 32,64 Z M32,1.96923077 C15.4412308,1.96923077 1.96923077,15.4412308 1.96923077,32 C1.96923077,48.5587692 15.4412308,62.0307692 32,62.0307692 C48.5587692,62.0307692 62.0307692,48.5587692 62.0307692,32 C62.0307692,15.4412308 48.5587692,1.96923077 32,1.96923077 Z" id="形状" fill="url(#linearGradient-3)"></path>
                <g id="编组" transform="translate(1.969231, 1.969231)">
                    <circle id="椭圆形" fill="#0F254A" cx="30.0307692" cy="30.0307692" r="30.0307692"></circle>
                    <g opacity="0.25" style="mix-blend-mode: screen;" fill="#10254A" id="椭圆形">
                        <circle cx="30.0307692" cy="30.0307692" r="30.0307692"></circle>
                    </g>
                </g>
                <path d="M39.1384615,48.7384615 L20.6769231,48.7384615 C19.0473846,48.7384615 17.7230769,47.4141538 17.7230769,45.7846154 L17.7230769,17.9692308 C17.7230769,16.3396923 19.0473846,15.0153846 20.6769231,15.0153846 L39.1384615,15.0153846 C40.768,15.0153846 42.0923077,16.3396923 42.0923077,17.9692308 L42.0923077,38.1538462 L40.1230769,38.1538462 L40.1230769,17.9692308 C40.1230769,17.4252308 39.6824615,16.9846154 39.1384615,16.9846154 L20.6769231,16.9846154 C20.1329231,16.9846154 19.6923077,17.4252308 19.6923077,17.9692308 L19.6923077,45.7846154 C19.6923077,46.3286154 20.1329231,46.7692308 20.6769231,46.7692308 L39.1384615,46.7692308 C39.6824615,46.7692308 40.0196923,46.5846154 40.1230769,46.4910769 L40.1230769,45.3907692 L42.0923077,45.3907692 L42.0923077,46.5723077 C42.0923077,47.7858462 40.7950769,48.7384615 39.1384615,48.7384615 L39.1384615,48.7384615 Z" id="路径" fill="url(#linearGradient-14)"></path>
                <rect id="矩形" fill="url(#linearGradient-15)" x="22.1538462" y="33.9692308" width="9.6" height="1.96923077" rx="0.984615385"></rect>
                <rect id="矩形" fill="url(#linearGradient-15)" x="22.1538462" y="39.6307692" width="9.6" height="1.96923077" rx="0.984615385"></rect>
                <path d="M38.0184615,21.9963077 L36.5636923,28.8123077 L34.5230769,26.9735385 L30.3926154,31.232 L26.8529231,27.2443077 L23.5273846,30.0455385 C23.1113846,30.3950769 22.4886154,30.3433846 22.1390769,29.9273846 C21.7895385,29.5113846 21.8412308,28.8886154 22.2572308,28.5390769 L27.0547692,24.5021538 L30.4566154,28.3372308 L33.0584615,25.6541538 L31.3870769,24.1452308 L38.0184615,21.9963077 L38.0184615,21.9963077 Z" id="路径" fill="url(#linearGradient-16)"></path>
                <path d="M41.1076923,30.2769231 C36.3495385,30.2769231 32.4923077,34.1341538 32.4923077,38.8923077 C32.4923077,43.6504615 36.3495385,47.5076923 41.1076923,47.5076923 C45.8658462,47.5076923 49.7230769,43.6504615 49.7230769,38.8923077 C49.7230769,34.1341538 45.8658462,30.2769231 41.1076923,30.2769231 Z M46.9883077,37.1126154 L41.4006154,42.9341538 C41.1273846,43.2172308 40.7655385,43.3723077 40.3766154,43.3747692 L40.3643077,43.3747692 C39.9803077,43.3747692 39.6184615,43.2270769 39.3476923,42.9538462 L35.7341538,39.3427692 C35.3501538,38.9587692 35.3501538,38.3335385 35.7341538,37.9495385 C36.1181538,37.5655385 36.7433846,37.5655385 37.1273846,37.9495385 L40.3569231,41.1790769 L45.5655385,35.7489231 C45.9421538,35.3575385 46.5649231,35.3427692 46.9587692,35.7193846 C47.3501538,36.096 47.3649231,36.7212308 46.9883077,37.1126154 Z" id="形状" fill="url(#linearGradient-17)"></path>
            </g>
            <g id="7" transform="translate(352.000000, 134.000000)" fill-rule="nonzero">
                <path d="M32,64 C14.3556923,64 0,49.6443077 0,32 C0,14.3556923 14.3556923,0 32,0 C49.6443077,0 64,14.3556923 64,32 C64,49.6443077 49.6443077,64 32,64 Z M32,1.96923077 C15.4412308,1.96923077 1.96923077,15.4412308 1.96923077,32 C1.96923077,48.5587692 15.4412308,62.0307692 32,62.0307692 C48.5587692,62.0307692 62.0307692,48.5587692 62.0307692,32 C62.0307692,15.4412308 48.5587692,1.96923077 32,1.96923077 Z" id="形状" fill="url(#linearGradient-18)"></path>
                <g id="编组" transform="translate(1.969231, 1.969231)">
                    <circle id="椭圆形" fill="#0F254A" cx="30.0307692" cy="30.0307692" r="30.0307692"></circle>
                    <g opacity="0.25" style="mix-blend-mode: screen;" fill="#10254A" id="椭圆形">
                        <circle cx="30.0307692" cy="30.0307692" r="30.0307692"></circle>
                    </g>
                </g>
                <path d="M43.0769231,41.6 L20.4307692,41.6 C18.8012308,41.6 17.4769231,40.2756923 17.4769231,38.6461538 L17.4769231,20.9230769 C17.4769231,19.2935385 18.8012308,17.9692308 20.4307692,17.9692308 L33.4769231,17.9692308 C34.0209231,17.9692308 34.4615385,18.4098462 34.4615385,18.9538462 C34.4615385,19.4978462 34.0209231,19.9384615 33.4769231,19.9384615 L20.4307692,19.9384615 C19.8867692,19.9384615 19.4461538,20.3790769 19.4461538,20.9230769 L19.4461538,38.6461538 C19.4461538,39.1901538 19.8867692,39.6307692 20.4307692,39.6307692 L43.0769231,39.6307692 C43.6209231,39.6307692 44.0615385,39.1901538 44.0615385,38.6461538 L44.0615385,29.7846154 C44.0615385,29.2406154 44.5021538,28.8 45.0461538,28.8 C45.5901538,28.8 46.0307692,29.2406154 46.0307692,29.7846154 L46.0307692,38.6461538 C46.0307692,40.2756923 44.7064615,41.6 43.0769231,41.6 Z" id="路径" fill="url(#linearGradient-19)"></path>
                <rect id="矩形" fill="url(#linearGradient-20)" x="23.8769231" y="45.2923077" width="15.2615385" height="1.96923077" rx="0.984615385"></rect>
                <path d="M45.8953846,17.8116923 L44.4406154,24.6276923 L42.5772308,22.9464615 L32.5243077,33.9150769 L27.0769231,28.4701538 L23.0966154,32.4504615 C22.7126154,32.8344615 22.0873846,32.8344615 21.7033846,32.4504615 C21.3193846,32.0664615 21.3193846,31.4412308 21.7033846,31.0572308 L27.0769231,25.6836923 L32.4603077,31.0695385 L41.1150769,21.6295385 L39.264,19.9606154 L45.8953846,17.8116923 L45.8953846,17.8116923 Z" id="路径" fill="url(#linearGradient-21)"></path>
            </g>
            <g id="8" transform="translate(530.000000, 134.000000)" fill-rule="nonzero">
                <path d="M32,64 C14.3556923,64 0,49.6443077 0,32 C0,14.3556923 14.3556923,0 32,0 C49.6443077,0 64,14.3556923 64,32 C64,49.6443077 49.6443077,64 32,64 Z M32,1.96923077 C15.4412308,1.96923077 1.96923077,15.4412308 1.96923077,32 C1.96923077,48.5587692 15.4412308,62.0307692 32,62.0307692 C48.5587692,62.0307692 62.0307692,48.5587692 62.0307692,32 C62.0307692,15.4412308 48.5587692,1.96923077 32,1.96923077 Z" id="形状" fill="url(#linearGradient-18)"></path>
                <g id="编组" transform="translate(1.969231, 1.969231)">
                    <circle id="椭圆形" fill="#0F254A" cx="30.0307692" cy="30.0307692" r="30.0307692"></circle>
                    <g opacity="0.25" style="mix-blend-mode: screen;" fill="#10254A" id="椭圆形">
                        <circle cx="30.0307692" cy="30.0307692" r="30.0307692"></circle>
                    </g>
                </g>
                <path d="M30.0012308,49.7230769 L19.6923077,49.7230769 C18.0627692,49.7230769 16.7384615,48.3987692 16.7384615,46.7692308 L16.7384615,17.7230769 C16.7384615,16.0935385 18.0627692,14.7692308 19.6923077,14.7692308 L42.0923077,14.7692308 C43.7218462,14.7692308 45.0461538,16.0935385 45.0461538,17.7230769 L45.0461538,30.3113846 C45.0461538,30.8553846 44.6055385,31.296 44.0615385,31.296 C43.5175385,31.296 43.0769231,30.8553846 43.0769231,30.3113846 L43.0769231,17.7230769 C43.0769231,17.1790769 42.6363077,16.7384615 42.0923077,16.7384615 L19.6923077,16.7384615 C19.1483077,16.7384615 18.7076923,17.1790769 18.7076923,17.7230769 L18.7076923,46.7692308 C18.7076923,47.3132308 19.1483077,47.7538462 19.6923077,47.7538462 L30.0012308,47.7538462 C30.5452308,47.7538462 30.9858462,48.1944615 30.9858462,48.7384615 C30.9858462,49.2824615 30.5452308,49.7230769 30.0012308,49.7230769 Z" id="路径" fill="url(#linearGradient-22)"></path>
                <rect id="矩形" fill="url(#linearGradient-23)" x="21.9076923" y="22.8923077" width="15.5076923" height="1.96923077" rx="0.984615385"></rect>
                <rect id="矩形" fill="url(#linearGradient-24)" x="21.9076923" y="29.5384615" width="12.5538462" height="1.96923077" rx="0.984615385"></rect>
                <rect id="矩形" fill="url(#linearGradient-25)" x="21.9076923" y="36.1846154" width="7.38461538" height="1.96923077" rx="0.984615385"></rect>
                <path d="M48.6326154,43.1310769 C47.5716923,46.6313846 44.3987692,48.9846154 40.7384615,48.9846154 C37.3415385,48.9846154 34.3261538,46.9218462 33.0830769,43.8030769 L31.5790769,44.4652308 L32.1550769,39.2246154 L36.4036923,42.3433846 L34.8849231,43.0104615 C35.8178462,45.4178462 38.1292308,47.0153846 40.7384615,47.0153846 C43.4830769,47.0153846 45.952,45.184 46.7470769,42.56 C46.9046154,42.0406154 47.4535385,41.7452308 47.9753846,41.9027692 C48.4947692,42.0603077 48.7901538,42.6116923 48.6326154,43.1310769 L48.6326154,43.1310769 Z" id="路径" fill="url(#linearGradient-26)"></path>
                <path d="M49.6935385,35.8129231 L48.5956923,40.9673846 L44.6793846,37.4375385 L45.8289231,37.0658462 C44.6646154,35.4535385 42.7766154,34.4615385 40.7384615,34.4615385 C38.336,34.4615385 36.1107692,35.8621538 35.072,38.0332308 C34.8381538,38.5230769 34.2498462,38.7298462 33.76,38.496 C33.2701538,38.2621538 33.0609231,37.6738462 33.2972308,37.1815385 C34.6609231,34.3335385 37.5803077,32.4923077 40.7384615,32.4923077 C43.6283077,32.4923077 46.2892308,34.0110769 47.7735385,36.4356923 L49.6935385,35.8129231 L49.6935385,35.8129231 Z" id="路径" fill="url(#linearGradient-27)"></path>
                <path d="M43.5692308,39.0153846 C43.5692308,39.488 43.1261538,39.8769231 42.5846154,39.8769231 L38.6461538,39.8769231 C38.1046154,39.8769231 37.6615385,39.488 37.6615385,39.0153846 C37.6615385,38.5427692 38.1046154,38.1538462 38.6461538,38.1538462 L42.5846154,38.1538462 C43.1261538,38.1538462 43.5692308,38.5427692 43.5692308,39.0153846 Z" id="路径" fill="url(#linearGradient-28)"></path>
                <path d="M43.5692308,42.2153846 C43.5692308,42.688 43.1261538,43.0769231 42.5846154,43.0769231 L38.6461538,43.0769231 C38.1046154,43.0769231 37.6615385,42.688 37.6615385,42.2153846 C37.6615385,41.7427692 38.1046154,41.3538462 38.6461538,41.3538462 L42.5846154,41.3538462 C43.1261538,41.3538462 43.5692308,41.7427692 43.5692308,42.2153846 Z" id="路径" fill="url(#linearGradient-28)"></path>
            </g>
            <g id="9" transform="translate(708.000000, 134.000000)" fill-rule="nonzero">
                <g id="编组" transform="translate(1.969231, 1.969231)">
                    <circle id="椭圆形" fill="#0F254A" cx="30.0307692" cy="30.0307692" r="30.0307692"></circle>
                    <g opacity="0.25" style="mix-blend-mode: screen;" fill="#10254A" id="椭圆形">
                        <circle cx="30.0307692" cy="30.0307692" r="30.0307692"></circle>
                    </g>
                </g>
                <path d="M32,64 C14.3556923,64 0,49.6443077 0,32 C0,14.3556923 14.3556923,0 32,0 C49.6443077,0 64,14.3556923 64,32 C64,49.6443077 49.6443077,64 32,64 Z M32,1.96923077 C15.4412308,1.96923077 1.96923077,15.4412308 1.96923077,32 C1.96923077,48.5587692 15.4412308,62.0307692 32,62.0307692 C48.5587692,62.0307692 62.0307692,48.5587692 62.0307692,32 C62.0307692,15.4412308 48.5587692,1.96923077 32,1.96923077 Z" id="形状" fill="url(#linearGradient-18)"></path>
                <path d="M33.1076923,41.6 C26.7963077,41.6 21.6615385,36.4652308 21.6615385,30.1538462 C21.6615385,23.8424615 26.7963077,18.7076923 33.1076923,18.7076923 C39.4190769,18.7076923 44.5538462,23.8424615 44.5538462,30.1538462 C44.5538462,36.4652308 39.4190769,41.6 33.1076923,41.6 Z M33.1076923,20.6769231 C27.8818462,20.6769231 23.6307692,24.928 23.6307692,30.1538462 C23.6307692,35.3796923 27.8818462,39.6307692 33.1076923,39.6307692 C38.3335385,39.6307692 42.5846154,35.3796923 42.5846154,30.1538462 C42.5846154,24.928 38.3335385,20.6769231 33.1076923,20.6769231 Z" id="形状" fill="url(#linearGradient-29)"></path>
                <path d="M31.5027692,35.9901538 C31.1187692,35.9901538 30.7593846,35.84 30.4861538,35.5692308 L26.8750769,31.9581538 C26.4910769,31.5741538 26.4910769,30.9513846 26.8750769,30.5649231 C27.2590769,30.1809231 27.8843077,30.1809231 28.2683077,30.5649231 L31.4978462,33.7944615 L37.6935385,27.3772308 C38.0726154,26.9858462 38.6953846,26.976 39.0867692,27.3526154 C39.4781538,27.7316923 39.488,28.3544615 39.1113846,28.7458462 L32.5390769,35.552 C32.2683077,35.8326154 31.9064615,35.9876923 31.5175385,35.9901538 L31.5052308,35.9901538 L31.5027692,35.9901538 Z" id="路径" fill="url(#linearGradient-30)"></path>
                <path d="M44.3298462,42.3950769 C47.6430769,39.3550769 49.7230769,34.9932308 49.7230769,30.1538462 C49.7230769,20.992 42.2695385,13.5384615 33.1076923,13.5384615 C23.9458462,13.5384615 16.4921074,20.992 16.4921074,30.1538462 C16.4921074,34.8996923 18.4935385,39.1901538 21.696,42.2178462 L16.7433846,47.7390769 C16.3815385,48.1427692 16.4135385,48.7655385 16.8196923,49.1298462 C17.0067692,49.2972308 17.2430769,49.3809231 17.4769231,49.3809231 C17.7452308,49.3809231 18.016,49.2701538 18.2104615,49.0535385 L23.2049231,43.488 C25.9716923,45.5483077 29.4006154,46.7692308 33.1076923,46.7692308 C36.8147692,46.7692308 40.0615385,45.6123077 42.7913846,43.648 L48.0590769,48.6843077 C48.2486154,48.8664615 48.4947692,48.9575385 48.7384615,48.9575385 C48.9969231,48.9575385 49.2578462,48.8541538 49.4498462,48.6523077 C49.8264615,48.2609231 49.8116923,47.6356923 49.4178462,47.2615385 L44.3298462,42.3950769 L44.3298462,42.3950769 Z M18.4615385,30.1538462 C18.4615385,22.0775385 25.0313846,15.5076923 33.1076923,15.5076923 C41.184,15.5076923 47.7538462,22.0775385 47.7538462,30.1538462 C47.7538462,38.2301538 41.184,44.8 33.1076923,44.8 C25.0313846,44.8 18.4615385,38.2301538 18.4615385,30.1538462 Z" id="形状" fill="url(#linearGradient-31)"></path>
            </g>
            <g id="5" transform="translate(886.000000, 26.000000)" fill-rule="nonzero">
                <path d="M32,64 C14.3556923,64 0,49.6443077 0,32 C0,14.3556923 14.3556923,0 32,0 C49.6443077,0 64,14.3556923 64,32 C64,49.6443077 49.6443077,64 32,64 Z M32,1.96923077 C15.4412308,1.96923077 1.96923077,15.4412308 1.96923077,32 C1.96923077,48.5587692 15.4412308,62.0307692 32,62.0307692 C48.5587692,62.0307692 62.0307692,48.5587692 62.0307692,32 C62.0307692,15.4412308 48.5587692,1.96923077 32,1.96923077 Z" id="形状" fill="url(#linearGradient-3)"></path>
                <g id="编组" transform="translate(1.969231, 1.969231)">
                    <circle id="椭圆形" fill="#0F254A" cx="30.0307692" cy="30.0307692" r="30.0307692"></circle>
                    <g opacity="0.25" style="mix-blend-mode: screen;" fill="#10254A" id="椭圆形">
                        <circle cx="30.0307692" cy="30.0307692" r="30.0307692"></circle>
                    </g>
                </g>
                <path d="M41.4769231,49.9692308 C37.3366154,49.9692308 33.9692308,46.6018462 33.9692308,42.4615385 C33.9692308,38.3212308 37.3366154,34.9538462 41.4769231,34.9538462 C45.6172308,34.9538462 48.9846154,38.3212308 48.9846154,42.4615385 C48.9846154,46.6018462 45.6172308,49.9692308 41.4769231,49.9692308 Z M41.4769231,36.9230769 C38.4221538,36.9230769 35.9384615,39.4067692 35.9384615,42.4615385 C35.9384615,45.5163077 38.4221538,48 41.4769231,48 C44.5316923,48 47.0153846,45.5163077 47.0153846,42.4615385 C47.0153846,39.4067692 44.5316923,36.9230769 41.4769231,36.9230769 Z" id="形状" fill="url(#linearGradient-32)"></path>
                <path d="M30.2473846,50.2153846 L19.9384615,50.2153846 C18.3089231,50.2153846 16.9846154,48.8910769 16.9846154,47.2615385 L16.9846154,18.2153846 C16.9846154,16.5858462 18.3089231,15.2615385 19.9384615,15.2615385 L42.3384615,15.2615385 C43.968,15.2615385 45.2923077,16.5858462 45.2923077,18.2153846 L45.2923077,30.8036923 C45.2923077,31.3476923 44.8516923,31.7883077 44.3076923,31.7883077 C43.7636923,31.7883077 43.3230769,31.3476923 43.3230769,30.8036923 L43.3230769,18.2153846 C43.3230769,17.6713846 42.8824615,17.2307692 42.3384615,17.2307692 L19.9384615,17.2307692 C19.3944615,17.2307692 18.9538462,17.6713846 18.9538462,18.2153846 L18.9538462,47.2615385 C18.9538462,47.8055385 19.3944615,48.2461538 19.9384615,48.2461538 L30.2473846,48.2461538 C30.7913846,48.2461538 31.232,48.6867692 31.232,49.2307692 C31.232,49.7747692 30.7913846,50.2153846 30.2473846,50.2153846 Z" id="路径" fill="url(#linearGradient-33)"></path>
                <rect id="矩形" fill="url(#linearGradient-34)" x="23.1384615" y="27.5692308" width="16.2461538" height="1.96923077" rx="0.984615385"></rect>
                <rect id="矩形" fill="url(#linearGradient-35)" x="23.1384615" y="33.4769231" width="10.0923077" height="1.96923077" rx="0.984615385"></rect>
                <rect id="矩形" fill="url(#linearGradient-35)" x="23.1384615" y="38.8923077" width="10.0923077" height="1.96923077" rx="0.984615385"></rect>
                <rect id="矩形" fill="url(#linearGradient-36)" x="32.9846154" y="22.8923077" width="6.4" height="1.96923077" rx="0.984615385"></rect>
                <polygon id="路径" fill="url(#linearGradient-37)" points="40.1427692 39.3403077 41.4818462 42.0061538 42.8184615 39.3403077 44.0763077 39.3403077 42.3753846 42.4246154 43.5101538 42.4246154 43.5101538 43.0104615 42.048 43.0104615 42.0381538 43.0203077 42.0381538 43.7563077 43.5076923 43.7563077 43.5076923 44.3421538 42.0381538 44.3421538 42.0381538 45.6713846 40.9206154 45.6713846 40.9206154 44.3421538 39.4584615 44.3421538 39.4584615 43.7563077 40.9206154 43.7563077 40.9206154 43.0203077 40.9107692 43.0104615 39.4584615 43.0104615 39.4584615 42.4246154 40.5833846 42.4246154 38.8824615 39.3403077 40.1403077 39.3403077"></polygon>
            </g>
            <g id="4" transform="translate(352.000000, 242.000000)" fill-rule="nonzero">
                <rect id="矩形" fill="#FFFFFF" x="35.9384615" y="42.8307692" width="12.5538462" height="1.96923077" rx="0.984615385"></rect>
                <g id="编组" transform="translate(1.969231, 1.969231)">
                    <circle id="椭圆形" fill="#0F254A" cx="30.0307692" cy="30.0307692" r="30.0307692"></circle>
                    <g opacity="0.25" style="mix-blend-mode: screen;" fill="#10254A" id="椭圆形">
                        <circle cx="30.0307692" cy="30.0307692" r="30.0307692"></circle>
                    </g>
                </g>
                <path d="M32,64 C14.3556923,64 0,49.6443077 0,32 C0,14.3556923 14.3556923,0 32,0 C49.6443077,0 64,14.3556923 64,32 C64,49.6443077 49.6443077,64 32,64 Z M32,1.96923077 C15.4412308,1.96923077 1.96923077,15.4412308 1.96923077,32 C1.96923077,48.5587692 15.4412308,62.0307692 32,62.0307692 C48.5587692,62.0307692 62.0307692,48.5587692 62.0307692,32 C62.0307692,15.4412308 48.5587692,1.96923077 32,1.96923077 Z" id="形状" fill="url(#linearGradient-3)"></path>
                <path d="M46.4492308,21.9889231 C46.2916923,21.6590769 45.9864615,21.4252308 45.6270769,21.3612308 C45.2603077,21.2972308 44.8984615,21.4129231 44.64,21.6713846 L41.504,24.8073846 L40.3446154,23.648 L43.4609231,20.5316923 C43.7218462,20.2707692 43.8375385,19.8966154 43.7710769,19.5347692 C43.7046154,19.1729231 43.4633846,18.8652308 43.1286154,18.7150769 C42.2572308,18.3212308 41.2898462,18.1144615 40.3347692,18.1144615 C38.5353846,18.1144615 36.8492308,18.8110769 35.5815385,20.0812308 C33.8018462,21.8584615 33.184,24.512 33.9298462,26.8873846 L25.5556923,35.264 C23.1729231,34.5156923 20.5070769,35.1581538 18.752,36.9156923 C16.7852308,38.8824615 16.2363077,41.9150769 17.3858462,44.4652308 C17.536,44.8024615 17.8436923,45.0436923 18.2055385,45.1076923 C18.5673846,45.1790769 18.9415385,45.0584615 19.2024615,44.7975385 L22.272,41.728 L23.4338462,42.8873846 L20.3421538,45.9766154 C20.0836923,46.2375385 19.968,46.6043077 20.032,46.9661538 C20.0935385,47.3255385 20.3273846,47.6332308 20.6596923,47.7883077 C21.5606154,48.2116923 22.5624615,48.4356923 23.5593846,48.4356923 C25.3538462,48.4356923 27.04,47.7366154 28.3052308,46.4713846 C30.1144615,44.6646154 30.7175385,41.9766154 29.9224615,39.5716923 L30.8529231,38.6412308 C30.6510769,38.464 30.5230769,38.2006154 30.5230769,37.9076923 C30.5230769,37.6369231 30.6338462,37.3907692 30.8110769,37.2110769 C30.9907692,37.0338462 31.2369231,36.9230769 31.5076923,36.9230769 L32.4923077,36.9230769 C32.5169231,36.9230769 32.5415385,36.9230769 32.5661538,36.9255385 L36.5735385,32.9181538 C36.2018462,32.7778462 35.9384615,32.4209231 35.9384615,32 C35.9384615,31.7292308 36.0492308,31.4830769 36.2264615,31.3033846 C36.4061538,31.1261538 36.6523077,31.0153846 36.9230769,31.0153846 L43.1384615,31.0153846 C43.8744615,30.6855385 44.5513846,30.2203077 45.1372308,29.6344615 C47.1310769,27.6356923 47.6603077,24.5636923 46.4492308,21.9889231 L46.4492308,21.9889231 Z M33.1889231,32.6966154 C33.0092308,32.8738462 32.7630769,32.9846154 32.4923077,32.9846154 L31.5076923,32.9846154 C30.9636923,32.9846154 30.5230769,32.544 30.5230769,32 C30.5230769,31.7292308 30.6338462,31.4830769 30.8110769,31.3033846 C30.9907692,31.1261538 31.2369231,31.0153846 31.5076923,31.0153846 L32.4923077,31.0153846 C33.0363077,31.0153846 33.4769231,31.456 33.4769231,32 C33.4769231,32.2707692 33.3661538,32.5169231 33.1889231,32.6966154 Z M33.5236923,17.8313846 C33.5064615,17.8215385 33.4916923,17.8166154 33.4744615,17.8092308 C29.4621538,16.1550769 24.8935385,17.0658462 21.824,20.1353846 L15.9827692,25.9569231 L15.9704615,25.9692308 C15.7661538,26.1809231 15.6529231,26.4590769 15.6529231,26.752 C15.6529231,27.0449231 15.7710769,27.3353846 15.9827692,27.5470769 L19.4313846,30.9981538 L19.4436923,31.0104615 C19.8843077,31.4363077 20.5833846,31.4313846 21.0190769,30.9981538 L22.9858462,29.0313846 L25.3932308,31.4387692 C25.6024615,31.6406154 25.8806154,31.7538462 26.1735385,31.7538462 L26.1956923,31.7538462 C26.4886154,31.7489231 26.7692308,31.6283077 26.9735385,31.4190769 L29.7058462,28.6326154 L29.7206154,28.6203077 C30.1390769,28.1796923 30.1316923,27.4830769 29.7009231,27.0523077 L27.3255385,24.6769231 L27.3206154,24.6621538 C27.2541538,24.4775385 27.2615385,24.2633846 27.3649231,24.0295385 L27.5273846,23.7218462 L27.5347692,23.7046154 C27.8498462,23.1729231 28.704,22.1489231 28.9526154,21.8535385 C30.0504615,20.7556923 31.5003077,20.0935385 33.0461538,19.9827692 C33.4990769,20.0147692 33.92,19.7366154 34.1070769,19.3033846 C34.3458462,18.7372308 34.0849231,18.08 33.5236923,17.8313846 L33.5236923,17.8313846 Z" id="形状" fill="url(#linearGradient-38)"></path>
                <rect id="矩形" fill="url(#linearGradient-39)" x="35.9384615" y="31.0153846" width="12.5538462" height="1.96923077" rx="0.984615385"></rect>
                <rect id="矩形" fill="url(#linearGradient-40)" x="30.5230769" y="31.0153846" width="2.95384615" height="1.96923077" rx="0.984615385"></rect>
                <rect id="矩形" fill="url(#linearGradient-40)" x="30.5230769" y="36.9230769" width="2.95384615" height="1.96923077" rx="0.984615385"></rect>
                <rect id="矩形" fill="url(#linearGradient-40)" x="30.5230769" y="42.8307692" width="2.95384615" height="1.96923077" rx="0.984615385"></rect>
                <rect id="矩形" fill="url(#linearGradient-39)" x="35.9384615" y="36.9230769" width="12.5538462" height="1.96923077" rx="0.984615385"></rect>
                <rect id="矩形" fill="url(#linearGradient-39)" x="35.9384615" y="42.8307692" width="12.5538462" height="1.96923077" rx="0.984615385"></rect>
            </g>
            <text id="数据准备" font-family="PingFangSC-Medium, PingFang SC" font-size="16" font-weight="400" fill="#FFFFFF">
                <tspan x="0" y="219">数据准备</tspan>
            </text>
            <text id="数据分析" font-family="PingFangSC-Medium, PingFang SC" font-size="16" font-weight="400" fill="#FFFFFF">
                <tspan x="178" y="219">数据分析</tspan>
            </text>
            <text id="电价预测" font-family="PingFangSC-Medium, PingFang SC" font-size="16" font-weight="400" fill="#FFFFFF">
                <tspan x="352" y="219">电价预测</tspan>
            </text>
            <text id="检修计划" font-family="PingFangSC-Medium, PingFang SC" font-size="16" font-weight="400" fill="#FFFFFF">
                <tspan x="352" y="327">检修计划</tspan>
            </text>
            <text id="运行决策" font-family="PingFangSC-Medium, PingFang SC" font-size="16" font-weight="400" fill="#FFFFFF">
                <tspan x="530" y="219">运行决策</tspan>
            </text>
            <text id="中标结果" font-family="PingFangSC-Medium, PingFang SC" font-size="16" font-weight="400" fill="#FFFFFF">
                <tspan x="708" y="219">中标结果</tspan>
            </text>
            <text id="日清结果" font-family="PingFangSC-Medium, PingFang SC" font-size="16" font-weight="400" fill="#FFFFFF">
                <tspan x="886" y="219">日清结果</tspan>
            </text>
            <text id="收益统计" font-family="PingFangSC-Medium, PingFang SC" font-size="16" font-weight="400" fill="#FFFFFF">
                <tspan x="886" y="17">收益统计</tspan>
            </text>
            <text id="电价预测分析" font-family="PingFangSC-Medium, PingFang SC" font-size="16" font-weight="400" fill="#FFFFFF">
                <tspan x="336" y="17">电价预测分析</tspan>
            </text>
            <g id="编组-2" opacity="0.300604539" transform="translate(69.000000, 157.500000)">
                <rect id="矩形" fill="url(#linearGradient-41)" x="0" y="7.5" width="93" height="7"></rect>
                <polygon id="三角形" fill="#90BAFF" transform="translate(97.500000, 10.576923) rotate(90.000000) translate(-97.500000, -10.576923) " points="97.5 4.57692308 108.076923 16.5769231 86.9230769 16.5769231"></polygon>
            </g>
            <g id="编组-2备份" opacity="0.300604539" transform="translate(244.000000, 157.500000)">
                <rect id="矩形" fill="url(#linearGradient-41)" x="0" y="7.5" width="93" height="7"></rect>
                <polygon id="三角形" fill="#90BAFF" transform="translate(97.500000, 10.576923) rotate(90.000000) translate(-97.500000, -10.576923) " points="97.5 4.57692308 108.076923 16.5769231 86.9230769 16.5769231"></polygon>
            </g>
            <g id="编组-2备份-5" opacity="0.300604539" transform="translate(383.750000, 113.576923) rotate(-90.000000) translate(-383.750000, -113.576923) translate(368.500000, 103.000000)">
                <rect id="矩形" fill="url(#linearGradient-42)" x="0" y="7.5" width="20" height="7"></rect>
                <polygon id="三角形" fill="#90BAFF" transform="translate(24.500000, 10.576923) rotate(90.000000) translate(-24.500000, -10.576923) " points="24.5 4.57692308 35.0769231 16.5769231 13.9230769 16.5769231"></polygon>
            </g>
            <g id="编组-2备份-6" opacity="0.300604539" transform="translate(917.750000, 113.576923) rotate(-90.000000) translate(-917.750000, -113.576923) translate(902.500000, 103.000000)">
                <rect id="矩形" fill="url(#linearGradient-42)" x="0" y="7.5" width="20" height="7"></rect>
                <polygon id="三角形" fill="#90BAFF" transform="translate(24.500000, 10.576923) rotate(90.000000) translate(-24.500000, -10.576923) " points="24.5 4.57692308 35.0769231 16.5769231 13.9230769 16.5769231"></polygon>
            </g>
            <g id="编组-2备份-2" opacity="0.300604539" transform="translate(422.000000, 157.500000)">
                <rect id="矩形" fill="url(#linearGradient-41)" x="0" y="7.5" width="93" height="7"></rect>
                <polygon id="矩形备份" fill="url(#linearGradient-43)" points="0 113.5 38.8252933 113.5 38.8252933 14.6692308 45.2041856 14.6692308 45.2041856 120.5 0 120.5"></polygon>
                <polygon id="三角形" fill="#90BAFF" transform="translate(97.500000, 10.576923) rotate(90.000000) translate(-97.500000, -10.576923) " points="97.5 4.57692308 108.076923 16.5769231 86.9230769 16.5769231"></polygon>
            </g>
            <g id="编组-2备份-7" opacity="0.300604539" transform="translate(557.000000, 51.500000)">
                <polygon id="矩形" fill="url(#linearGradient-44)" points="2.64384217e-17 7.5 313 7.5 313 14.5 6.52320294 14.5 6.52320294 79.9741352 8.68749517e-15 79.9741352"></polygon>
                <polygon id="三角形" fill="#90BAFF" transform="translate(317.500000, 10.576923) rotate(90.000000) translate(-317.500000, -10.576923) " points="317.5 4.57692308 328.076923 16.5769231 306.923077 16.5769231"></polygon>
            </g>
            <g id="编组-2备份-3" opacity="0.300604539" transform="translate(599.000000, 157.500000)">
                <rect id="矩形" fill="url(#linearGradient-41)" x="0" y="7.5" width="93" height="7"></rect>
                <polygon id="三角形" fill="#90BAFF" transform="translate(97.500000, 10.576923) rotate(90.000000) translate(-97.500000, -10.576923) " points="97.5 4.57692308 108.076923 16.5769231 86.9230769 16.5769231"></polygon>
            </g>
            <g id="编组-2备份-4" opacity="0.300604539" transform="translate(777.000000, 157.500000)">
                <rect id="矩形" fill="url(#linearGradient-41)" x="0" y="7.5" width="93" height="7"></rect>
                <polygon id="三角形" fill="#90BAFF" transform="translate(97.500000, 10.576923) rotate(90.000000) translate(-97.500000, -10.576923) " points="97.5 4.57692308 108.076923 16.5769231 86.9230769 16.5769231"></polygon>
            </g>
        </g>
    </g>
</svg>