<?xml version="1.0" encoding="UTF-8"?>
<svg width="50px" height="159px" viewBox="0 0 50 159" version="1.1" xmlns="http://www.w3.org/2000/svg" xmlns:xlink="http://www.w3.org/1999/xlink">
    <title>交流桩</title>
    <g id="设备" stroke="none" stroke-width="1" fill="none" fill-rule="evenodd">
        <g id="设备-充电桩" transform="translate(-1543.000000, -380.000000)" fill-rule="nonzero">
            <g id="交流桩" transform="translate(1543.000000, 380.000000)">
                <rect id="矩形" fill="#627674" x="8.98043459" y="1.94" width="23.02" height="38.54" rx="1.77999997"></rect>
                <path d="M36.5304346,158 L3.90043459,158 C2.99043459,158 2.28043459,157.21 2.39043459,156.3 L3.37043459,147.99 C3.46043459,147.22 4.12043459,146.64 4.90043459,146.65 L35.3404346,146.96 C36.0904346,146.96 36.7204346,147.52 36.8304346,148.25 L38.0404346,156.26 C38.1804346,157.18 37.4704346,158.01 36.5404346,158.01 L36.5304346,158 Z" id="路径" fill="#627674"></path>
                <path d="M30.5504346,1.94 L10.4304346,1.94 L10.8104346,0.41 C10.8704346,0.17 11.0904346,2.84217094e-14 11.3404346,2.84217094e-14 L29.5704346,2.84217094e-14 C29.8604346,2.84217094e-14 30.1104346,0.2 30.1804346,0.48 L30.5404346,1.94 L30.5504346,1.94 Z" id="路径" fill="#E1EEEE"></path>
                <rect id="矩形" fill="#E1EEEE" x="11.1604346" y="40.48" width="18.18" height="113.67"></rect>
                <polygon id="路径" fill="#C7DDDC" points="17.9404346 81.19 18.1904346 77.31 22.3104346 77.31 23.0304346 81.19"></polygon>
                <rect id="矩形" fill="#C7DDDC" x="16.9704346" y="61.8" width="7.51" height="7.51" rx="0.310000002"></rect>
                <rect id="矩形" fill="#627674" x="20.8504346" y="40.48" width="3.39" height="3.39"></rect>
                <path d="M24.7304346,40.48 L28.1204346,40.48 L28.1204346,42.18 C28.1204346,43.12 27.3604346,43.88 26.4204346,43.88 L26.4204346,43.88 C25.4804346,43.88 24.7204346,43.12 24.7204346,42.18 L24.7204346,40.48 L24.7204346,40.48 L24.7304346,40.48 Z" id="路径" fill="#627674"></path>
                <circle id="椭圆形" fill="#627674" cx="20.7304346" cy="54.65" r="2.79"></circle>
                <path d="M33.7004346,137.21 C27.5604346,137.21 22.0704346,133.46 17.7604346,126.3 C17.5804346,126.01 17.4104346,125.72 17.2504346,125.43 C17.0204346,125.39 16.7904346,125.34 16.5604346,125.28 C9.67043459,123.65 4.93043459,118.72 2.78043459,113.55 C1.72043459,112.36 0.940434588,111 0.520434588,109.5 C-1.68956541,101.62 3.58043459,90.84 8.03043459,87.17 C10.8104346,84.88 14.0504346,83.63 17.5404346,83.49 C19.7404346,82.88 22.1904346,82.56 24.5904346,82.89 C24.8704346,82.93 25.1404346,82.97 25.4204346,83.02 C25.4204346,82.96 25.4004346,82.9 25.3904346,82.85 C25.3304346,82.45 25.2704346,82.09 25.2304346,81.78 C24.2604346,75.25 24.9504346,43.5 24.9804346,42.15 C24.9804346,41.75 25.3204346,41.43 25.7204346,41.4397719 C26.1204346,41.4397719 26.4404346,41.78 26.4304346,42.18 C26.4304346,42.51 25.7204346,75.15 26.6604346,81.56 C26.7104346,81.87 26.7604346,82.22 26.8204346,82.62 C26.8604346,82.85 26.8904346,83.09 26.9304346,83.34 C32.7504346,84.82 38.4704346,88.78 42.2804346,94.08 C48.7304346,103.04 50.6004346,110.08 49.2004346,120.05 C47.7804346,130.1 42.2304346,136.65 34.7104346,137.15 C34.3704346,137.17 34.0304346,137.18 33.6904346,137.18 L33.7004346,137.21 Z M19.0804346,125.66 C23.3704346,132.74 28.6004346,136.13 34.6304346,135.73 C41.4204346,135.28 46.4604346,129.2 47.7704346,119.87 C49.1204346,110.31 47.3104346,103.56 41.1104346,94.95 C37.6204346,90.1 32.4604346,86.43 27.1704346,84.93 C27.2104346,85.22 27.2504346,85.51 27.3004346,85.82 C30.3204346,87.36 32.7304346,89.43 33.8404346,91.24 C34.7704346,92.75 39.3204346,100.74 38.0604346,109.18 C37.2404346,114.67 34.1604346,119.58 29.6004346,122.66 C26.3304346,124.87 22.6704346,125.91 19.0804346,125.67 L19.0804346,125.66 Z M18.1904346,124.11 C21.7704346,124.61 25.4904346,123.68 28.7904346,121.45 C33.0104346,118.6 35.8604346,114.04 36.6204346,108.96 C37.8104346,101.02 33.4804346,93.44 32.6004346,92 C31.5304346,90.25 29.6204346,88.76 27.5404346,87.61 C28.5204346,95.5 29.2004346,107.67 24.2104346,114.06 C22.2604346,116.55 19.6104346,117.97 16.3304346,118.28 C16.0804346,118.3 15.8204346,118.32 15.5704346,118.33 C16.2004346,119.99 17.0704346,122.03 18.2004346,124.11 L18.1904346,124.11 Z M5.68043459,115.95 C7.95043459,119.43 11.5604346,122.44 16.3404346,123.73 C15.3304346,121.74 14.5604346,119.86 14.0104346,118.35 C10.9104346,118.25 8.02043459,117.39 5.68043459,115.95 Z M13.5904346,113.91 C13.9104346,113.91 14.2104346,114.13 14.2904346,114.46 C14.2904346,114.48 14.5404346,115.42 15.0404346,116.89 C15.4204346,116.88 15.8004346,116.86 16.1804346,116.82 C19.0504346,116.56 21.3604346,115.32 23.0504346,113.16 C27.9104346,106.93 26.9704346,94.44 25.9604346,86.82 C24.1204346,85.98 22.2804346,85.41 20.8904346,85.17 C19.9804346,85.02 18.9304346,84.92 17.8104346,84.95 C14.7804346,85.8 12.2504346,87.19 11.4304346,88.01 C11.3404346,88.1 2.49043459,97.44 2.92043459,107.82 C2.99043459,109.41 3.36043459,111.1 4.02043459,112.77 C6.19043459,115.1 9.64043459,116.62 13.4904346,116.87 C13.1004346,115.67 12.9004346,114.91 12.8804346,114.82 C12.7804346,114.43 13.0204346,114.04 13.4104346,113.94 C13.4704346,113.92 13.5304346,113.92 13.5904346,113.92 L13.5904346,113.91 Z M9.74043459,87.69 C9.48043459,87.88 9.22043459,88.08 8.96043459,88.29 C5.31043459,91.3 1.21043459,99.42 1.48043459,106.13 C1.88043459,98.14 7.10043459,90.66 9.74043459,87.68 L9.74043459,87.69 Z M23.3504346,84.24 C24.1604346,84.48 24.9604346,84.76 25.7304346,85.08 C25.7004346,84.9 25.6804346,84.72 25.6504346,84.55 C25.2304346,84.46 24.8104346,84.39 24.4004346,84.34 C24.0504346,84.29 23.7004346,84.26 23.3504346,84.24 L23.3504346,84.24 Z" id="形状" fill="#627674"></path>
                <path d="M10.6704346,113.18 C10.6704346,113.18 12.0904346,115.52 13.8204346,114.88 C15.7604346,114.15 14.0604346,111 14.0604346,111 C14.0604346,111 13.1604346,110.86 12.1204346,111.48 C10.9104346,112.21 10.6704346,113.18 10.6704346,113.18 L10.6704346,113.18 Z" id="路径" fill="#627674"></path>
                <path d="M15.0404346,91.37 C15.0404346,91.37 16.2504346,91.37 17.7104346,92.34 C19.1704346,93.31 19.4104346,94.28 19.4104346,94.28 C19.4104346,94.28 17.8404346,97.01 16.0204346,100.1 C14.5404346,102.6 12.2504346,105.32 12.1404346,105.43 C11.9004346,105.67 14.0804346,111 14.0804346,111 L10.6904346,113.18 C10.6904346,113.18 6.57043459,104.21 6.81043459,102.76 C6.91043459,102.15 7.81043459,99.66 9.48043459,97.43 C11.7904346,94.34 15.0504346,91.37 15.0504346,91.37 L15.0404346,91.37 Z" id="路径" fill="#C7DDDC"></path>
                <rect id="矩形" fill="#C7DDDC" x="17.9404346" y="81.19" width="5.09" height="6.79"></rect>
                <rect id="矩形" fill="#A7C0BD" x="16.9704346" y="19.39" width="7.51" height="3.88" rx="0.600000024"></rect>
                <path d="M28.1204346,14.78 L13.5804346,14.78 C13.4504346,14.78 13.3404346,14.67 13.3404346,14.54 C13.3404346,14.41 13.4504346,14.3 13.5804346,14.3 L28.1204346,14.3 C28.2504346,14.3 28.3604346,14.41 28.3604346,14.54 C28.3604346,14.67 28.2504346,14.78 28.1204346,14.78 L28.1204346,14.78 Z" id="路径" fill="#A7C0BD"></path>
                <rect id="矩形" stroke="#A7C0BD" fill="#A7C0BD" x="16.4904346" y="6.54" width="8.48" height="3.39" rx="1.695"></rect>
                <path d="M25.5304346,32.01 L24.2804346,30.75 C24.0204346,30.49 23.6504346,30.36 23.2804346,30.4 L21.6404346,30.58 L21.3304346,30.27 C21.1204346,30.06 20.7904346,30.06 20.5904346,30.27 C20.5904346,30.27 20.5904346,30.27 20.5904346,30.27 L19.1004346,31.76 C18.8904346,31.97 18.8904346,32.3 19.1004346,32.5 L21.3304346,34.73 C21.5404346,34.94 21.8704346,34.94 22.0704346,34.73 L23.5604346,33.24 C23.6604346,33.14 23.7204346,33 23.7104346,32.85 L24.8604346,32.85 C24.9604346,32.85 25.0404346,32.77 25.0404346,32.67 L25.0404346,32.67 C25.0404346,32.57 24.9604346,32.49 24.8604346,32.49 L22.4804346,32.49 C22.2904346,32.49 22.1204346,32.34 22.1204346,32.15 L22.1204346,32.15 C22.1204346,31.96 22.2704346,31.79 22.4604346,31.79 C22.4604346,31.79 22.4704346,31.79 22.4804346,31.79 L23.9304346,31.79 C24.0304346,31.79 24.1004346,31.71 24.1004346,31.62 C24.1004346,31.52 24.0204346,31.45 23.9304346,31.45 C23.9304346,31.45 23.9304346,31.45 23.9304346,31.45 L22.5204346,31.45 L21.9604346,30.89 L23.3304346,30.74 C23.5904346,30.71 23.8604346,30.8 24.0504346,30.99 L25.3004346,32.25 C25.3704346,32.32 25.4804346,32.32 25.5504346,32.25 C25.5504346,32.25 25.5504346,32.25 25.5504346,32.25 C25.6204346,32.18 25.6204346,32.07 25.5504346,32 L25.5504346,32 C25.5504346,32 25.5504346,32 25.5504346,32 L25.5304346,32.01 Z M19.1404346,31.08 C19.2104346,31.01 19.2104346,30.89 19.1404346,30.82 C19.1404346,30.82 19.1404346,30.82 19.1404346,30.82 C18.9604346,30.65 18.8604346,30.41 18.8704346,30.16 C18.8704346,29.91 18.9704346,29.67 19.1404346,29.5 L19.1604346,29.48 C19.1604346,29.48 19.2204346,29.4 19.2204346,29.35 C19.2204346,29.3 19.2004346,29.25 19.1704346,29.22 C19.1404346,29.19 19.0904346,29.17 19.0404346,29.17 C18.9904346,29.17 18.9404346,29.19 18.9104346,29.22 C18.9104346,29.23 18.9004346,29.24 18.8904346,29.24 C18.6404346,29.48 18.5104346,29.81 18.5104346,30.16 C18.5104346,30.51 18.6404346,30.84 18.8904346,31.08 C18.9604346,31.15 19.0804346,31.15 19.1504346,31.08 C19.1504346,31.08 19.1504346,31.08 19.1504346,31.08 L19.1504346,31.08 L19.1404346,31.08 Z M18.3104346,28.82 C18.3104346,28.82 18.3704346,28.74 18.3704346,28.69 C18.3704346,28.59 18.2904346,28.51 18.1904346,28.51 L18.1904346,28.51 C18.1904346,28.51 18.0904346,28.53 18.0604346,28.56 C17.7704346,28.84 17.5704346,29.19 17.4704346,29.58 C17.3704346,29.96 17.3704346,30.37 17.4704346,30.75 C17.5704346,31.14 17.7804346,31.49 18.0604346,31.77 C18.1004346,31.8 18.1404346,31.82 18.1904346,31.82 C18.2904346,31.82 18.3704346,31.74 18.3704346,31.64 C18.3704346,31.64 18.3704346,31.64 18.3704346,31.64 C18.3704346,31.59 18.3504346,31.55 18.3104346,31.51 C18.1304346,31.33 17.9904346,31.12 17.8904346,30.88 C17.7004346,30.42 17.7004346,29.91 17.8904346,29.45 C17.9804346,29.21 18.1304346,29 18.3104346,28.82 L18.3104346,28.82 L18.3104346,28.82 Z" id="形状" fill="#EFEFEF" opacity="0.4"></path>
                <path d="M17.5204346,32.2 C17.2504346,31.93 17.0404346,31.6 16.8904346,31.25 C16.4604346,30.18 16.7004346,28.95 17.5204346,28.13 C17.5604346,28.1 17.5804346,28.05 17.5804346,28 C17.5804346,27.9 17.5004346,27.82 17.4004346,27.82 C17.4004346,27.82 17.4004346,27.82 17.4004346,27.82 C17.3504346,27.82 17.3104346,27.84 17.2704346,27.87 C16.9604346,28.17 16.7204346,28.54 16.5604346,28.94 C16.4004346,29.33 16.3204346,29.74 16.3204346,30.16 L16.3204346,30.16 C16.3204346,30.58 16.4004346,30.99 16.5604346,31.38 C16.7204346,31.78 16.9604346,32.15 17.2704346,32.45 C17.3004346,32.48 17.3504346,32.5 17.4004346,32.5 C17.5004346,32.5 17.5804346,32.42 17.5804346,32.32 C17.5804346,32.32 17.5804346,32.32 17.5804346,32.32 C17.5804346,32.27 17.5604346,32.23 17.5204346,32.19 L17.5204346,32.19 L17.5204346,32.2 Z M22.3104346,29.5 L22.3304346,29.52 C22.4704346,29.66 22.5604346,29.83 22.5904346,30.02 C22.6004346,30.11 22.6804346,30.17 22.7704346,30.17 C22.8704346,30.17 22.9504346,30.09 22.9504346,29.99 C22.9504346,29.99 22.9504346,29.97 22.9504346,29.96 C22.9104346,29.69 22.7804346,29.44 22.5804346,29.25 C22.5804346,29.25 22.5804346,29.25 22.5604346,29.23 C22.5204346,29.2 22.4804346,29.18 22.4304346,29.18 C22.3804346,29.18 22.3304346,29.2 22.3004346,29.23 C22.2604346,29.26 22.2404346,29.31 22.2404346,29.36 C22.2404346,29.41 22.2604346,29.45 22.3004346,29.49 L22.3104346,29.5 Z M23.1604346,28.83 C23.3404346,29.01 23.4804346,29.22 23.5804346,29.46 C23.6404346,29.61 23.6804346,29.76 23.7004346,29.92 C23.7204346,30.02 23.8104346,30.09 23.9104346,30.07 C24.0104346,30.05 24.0804346,29.96 24.0604346,29.87 C24.0504346,29.78 24.0304346,29.69 24.0004346,29.6 C23.9004346,29.21 23.6904346,28.86 23.4104346,28.58 C23.3704346,28.55 23.3304346,28.53 23.2804346,28.53 C23.1804346,28.53 23.1004346,28.61 23.1004346,28.71 L23.1004346,28.71 C23.1004346,28.71 23.1204346,28.81 23.1604346,28.84 L23.1604346,28.83 Z M23.9504346,28.14 C24.2204346,28.41 24.4304346,28.74 24.5804346,29.09 C24.7104346,29.41 24.7904346,29.76 24.7904346,30.11 C24.7904346,30.15 24.8104346,30.19 24.8304346,30.21 L24.8904346,30.27 C24.9504346,30.33 25.0404346,30.33 25.1004346,30.27 C25.1304346,30.24 25.1504346,30.2 25.1504346,30.16 L25.1504346,30.16 C25.1504346,29.74 25.0704346,29.32 24.9104346,28.94 C24.7504346,28.54 24.5104346,28.17 24.2004346,27.87 C24.1704346,27.84 24.1204346,27.82 24.0704346,27.82 C23.9704346,27.82 23.8904346,27.9 23.8904346,28 C23.8904346,28 23.8904346,28 23.8904346,28 C23.8904346,28.05 23.9104346,28.09 23.9504346,28.13 L23.9504346,28.13 L23.9504346,28.14 Z" id="形状" fill="#EFEFEF" opacity="0.4"></path>
                <path d="M8.79043459,154.14 L11.1604346,154.14 L11.1604346,148.57 C11.1604346,148.57 10.6804346,150.88 10.1904346,151.97 C9.52043459,153.48 8.79043459,154.15 8.79043459,154.15 L8.79043459,154.14 Z" id="路径" fill="#C7DDDC"></path>
                <path d="M31.7004346,154.14 L29.3304346,154.14 L29.3304346,148.57 C29.3304346,148.57 29.8104346,150.88 30.3004346,151.97 C30.9704346,153.48 31.7004346,154.15 31.7004346,154.15 L31.7004346,154.14 Z" id="路径" fill="#C7DDDC"></path>
                <path d="M17.7004346,92.46 C17.7004346,92.46 17.6504346,92.46 17.6304346,92.44 C17.5804346,92.4 17.5604346,92.33 17.6004346,92.27 L19.7604346,89.25 C19.8004346,89.2 19.8704346,89.18 19.9304346,89.22 C19.9804346,89.26 20.0004346,89.33 19.9604346,89.39 L17.8004346,92.41 C17.8004346,92.41 17.7404346,92.46 17.7004346,92.46 Z" id="路径" fill="#627674"></path>
                <circle id="椭圆形" fill="#8EA8A5" cx="18.1904346" cy="63.02" r="1"></circle>
                <circle id="椭圆形" fill="#8EA8A5" cx="23.2804346" cy="63.02" r="1"></circle>
                <circle id="椭圆形" fill="#8EA8A5" cx="18.1904346" cy="68.1" r="1"></circle>
                <circle id="椭圆形" fill="#8EA8A5" cx="23.2804346" cy="68.1" r="1"></circle>
            </g>
        </g>
    </g>
</svg>