<?xml version="1.0" encoding="UTF-8"?>
<svg width="14px" height="14px" viewBox="0 0 14 14" version="1.1" xmlns="http://www.w3.org/2000/svg" xmlns:xlink="http://www.w3.org/1999/xlink">
    <title>编组 3备份 3</title>
    <g id="设备" stroke="none" stroke-width="1" fill="none" fill-rule="evenodd">
        <g id="电池堆-电芯详情" transform="translate(-1331.000000, -573.000000)">
            <g id="编组-6" transform="translate(1121.000000, 219.000000)">
                <g id="编组-2备份-166" transform="translate(200.000000, 298.000000)">
                    <g id="编组-3备份-3" transform="translate(10.000000, 56.000000)">
                        <circle id="椭圆形" fill="#CADDFF" cx="7" cy="7" r="7"></circle>
                        <circle id="椭圆形" fill="#91ACE2" cx="7" cy="7" r="5"></circle>
                        <path d="M9.48951888,6.99535741 C9.45060945,7.05512617 9.41625082,7.12240685 9.38803579,7.19262699 L9.12090316,7.71258257 C8.63442143,8.65908463 7.5674837,9.2966181 6.56607766,9.31066213 L6.72626622,8.9987541 C6.87667053,8.70611578 6.7592596,8.41053802 6.46527718,8.33770505 L6.46345686,8.33737844 C6.16947444,8.26421886 5.8074574,8.44091231 5.65705308,8.73355063 L5.49686452,9.04545865 C4.73528624,8.59213055 4.49250045,7.62995144 4.97784449,6.68508241 L5.43633873,5.79345003 C5.57536602,6.04232324 5.71416577,6.46821651 5.44817084,6.94277396 C6.10963128,6.08968101 6.57153863,6.05114159 7.09397178,5.76144272 C7.77431808,5.38356042 8.17615472,4.88320116 8.19094486,4.31066213 C9.07448489,4.94492955 8.62076899,6.43816883 8.14657445,7.16519214 C8.88198556,6.58252835 9.46175893,6.52145317 9.7268437,6.53353756 L9.48951888,6.99535741 Z" id="Fill-131备份" fill="#FFC466" transform="translate(7.226844, 6.810662) rotate(-20.000000) translate(-7.226844, -6.810662) "></path>
                    </g>
                </g>
            </g>
        </g>
    </g>
</svg>