<?xml version="1.0" encoding="UTF-8"?>
<svg id="_图层_1" data-name="图层 1" xmlns="http://www.w3.org/2000/svg" xmlns:xlink="http://www.w3.org/1999/xlink" viewBox="0 0 111 91">
  <defs>
    <style>
      .cls-1 {
        fill: none;
      }

      .cls-2 {
        clip-path: url(#clippath);
      }

      .cls-3 {
        fill: #2f3a62;
      }

      .cls-4 {
        fill: #777e9d;
      }

      .cls-5 {
        clip-path: url(#clippath-1);
      }
    </style>
    <clipPath id="clippath">
      <path class="cls-1" d="M97.68,9c2.4,0,4.34,1.07,4.32,2.38l-.19,17.86v.06l-.27,25.35-.11,10.55-.15,14.43c-.01,1.3-1.95,2.36-4.32,2.36H13.32c-2.4,0-4.34-1.07-4.32-2.38l.26-24.96,.16-15.04,.11-10.37,.19-17.88c.01-1.3,1.95-2.36,4.32-2.36H97.68Z"/>
    </clipPath>
    <clipPath id="clippath-1">
      <path class="cls-1" d="M73.67,9c1.06,0,2.07,.21,2.87,.58l13.06,6.15c.95,.45,1.5,1.1,1.52,1.78l.19,9.42c.03,1.31,1.98,2.36,4.39,2.36h1.91c2.43,0,4.4,1.08,4.39,2.4l-.36,33.5-.26,14.43c-.02,1.31-1.98,2.37-4.39,2.37H32.4c-1.34,0-2.61-.34-3.45-.91l-9.96-6.88c-.61-.42-.94-.94-.94-1.47l-.27-30.75c-.01-1.32-1.97-2.38-4.39-2.38s-4.4-1.08-4.39-2.4l.28-25.84c.01-1.31,1.98-2.38,4.39-2.38h60.01Z"/>
    </clipPath>
  </defs>
  <g class="cls-2">
    <polygon class="cls-4" points="9 9 102 9 102 82 9 82 9 9"/>
  </g>
  <g class="cls-5">
    <polygon class="cls-3" points="9 9 102 9 102 82 9 82 9 9"/>
  </g>
</svg>