<?xml version="1.0" encoding="UTF-8"?>
<svg width="75px" height="91px" viewBox="0 0 75 91" version="1.1" xmlns="http://www.w3.org/2000/svg" xmlns:xlink="http://www.w3.org/1999/xlink">
    <title>2</title>
    <defs>
        <filter x="-21.1%" y="-16.4%" width="142.1%" height="132.9%" filterUnits="objectBoundingBox" id="filter-1">
            <feOffset dx="0" dy="2" in="SourceAlpha" result="shadowOffsetOuter1"></feOffset>
            <feGaussianBlur stdDeviation="2" in="shadowOffsetOuter1" result="shadowBlurOuter1"></feGaussianBlur>
            <feColorMatrix values="0 0 0 0 0.875766166   0 0 0 0 0.884788279   0 0 0 0 0.91185462  0 0 0 1 0" type="matrix" in="shadowBlurOuter1" result="shadowMatrixOuter1"></feColorMatrix>
            <feMerge>
                <feMergeNode in="shadowMatrixOuter1"></feMergeNode>
                <feMergeNode in="SourceGraphic"></feMergeNode>
            </feMerge>
        </filter>
    </defs>
    <g id="设备" stroke="none" stroke-width="1" fill="none" fill-rule="evenodd">
        <g id="电池堆-电芯详情" transform="translate(-408.000000, -265.000000)">
            <g id="编组-5" transform="translate(341.000000, 219.000000)">
                <g id="编组-2备份-96" transform="translate(76.000000, 55.000000)">
                    <g id="2" filter="url(#filter-1)" transform="translate(28.500000, 36.500000) scale(-1, 1) translate(-28.500000, -36.500000) ">
                        <path d="M54.3496727,0 C55.8193697,0 57.0085019,1.069878 57,2.38467866 L56.8845606,20.2415429 L56.8845606,20.3022675 L56.7186352,45.6559246 L56.6507566,56.2085156 L56.5577378,70.6427599 C56.5494415,71.9467651 55.3653374,73 53.9077077,73 L2.65032734,73 C1.18063033,73 -0.00850187894,71.930122 0,70.6153213 L0.160691773,45.6559246 L0.258738615,30.6142091 L0.326617197,20.2415429 L0.44226219,2.35724013 C0.450558461,1.05323495 1.63466262,0 3.09229233,0 L54.3496727,0 Z" id="Fill-1" fill="#C3C9D8"></path>
                        <path d="M54.3098911,20.3022675 C55.8017571,20.3022675 57.0085178,21.3804671 57,22.7056134 L56.7801296,56.2085156 L56.6193463,70.6342134 C56.6046606,71.944516 55.4044832,73 53.9293285,73 L14.3394258,73 C13.5155066,73 12.7369105,72.6646651 12.2267085,72.0898053 L6.12276823,65.211729 C5.75157412,64.7934038 5.54825293,64.2765697 5.54546771,63.7439922 L5.38038001,32.9923655 C5.37329036,31.677115 4.17108734,30.6142091 2.69036213,30.6142091 C1.19849604,30.6142091 -0.00851781831,29.5360096 0,28.2108633 L0.168976773,2.37568242 C0.17758564,1.06133157 1.37953546,0 2.85899465,0 L39.6386085,0 C40.2852863,0 40.9101888,0.20691355 41.3991219,0.58273153 L49.4025834,6.73571076 C49.9852012,7.18349868 50.323479,7.83167786 50.3320879,8.51584201 L50.4508396,17.9396297 C50.4672977,19.2485828 51.6667155,20.3022675 53.1408575,20.3022675 L54.3098911,20.3022675 Z" id="Fill-3" fill="#FFFFFF"></path>
                    </g>
                </g>
            </g>
        </g>
    </g>
</svg>