<?xml version="1.0" encoding="UTF-8"?>
<svg width="92px" height="138px" viewBox="0 0 92 138" version="1.1" xmlns="http://www.w3.org/2000/svg" xmlns:xlink="http://www.w3.org/1999/xlink">
    <title>直流桩</title>
    <defs>
        <polygon id="path-1" points="-7.10542736e-15 0 46 0 46 119.1818 -7.10542736e-15 119.1818"></polygon>
        <polygon id="path-3" points="0 138 92 138 92 0 0 0"></polygon>
    </defs>
    <g id="设备" stroke="none" stroke-width="1" fill="none" fill-rule="evenodd">
        <g id="设备-充电桩" transform="translate(-1514.000000, -145.000000)">
            <g id="直流桩" transform="translate(1514.000000, 145.000000)">
                <polygon id="Fill-1" fill="#B8BFBE" points="92 138 0 138 18.818 122.318 71.091 122.318"></polygon>
                <g id="编组" transform="translate(21.954300, 0.000000)">
                    <mask id="mask-2" fill="white">
                        <use xlink:href="#path-1"></use>
                    </mask>
                    <g id="Clip-4"></g>
                    <path d="M44.642,119.1818 L1.359,119.1818 C0.608,119.1818 -7.10542736e-15,118.5738 -7.10542736e-15,117.8238 L-7.10542736e-15,1.3578 C-7.10542736e-15,0.6078 0.608,-0.0002 1.359,-0.0002 L44.642,-0.0002 C45.392,-0.0002 46,0.6078 46,1.3578 L46,117.8238 C46,118.5738 45.392,119.1818 44.642,119.1818" id="Fill-3" fill="#E3F2F1" mask="url(#mask-2)"></path>
                </g>
                <mask id="mask-4" fill="white">
                    <use xlink:href="#path-3"></use>
                </mask>
                <g id="Clip-6"></g>
                <polygon id="Fill-5" fill="#67827F" mask="url(#mask-4)" points="17.773 126.5 73.182 126.5 73.182 117.091 17.773 117.091"></polygon>
                <polygon id="Fill-7" fill="#67827F" mask="url(#mask-4)" points="14.636 131.727 76.318 131.727 76.318 125.454 14.636 125.454"></polygon>
                <polygon id="Fill-8" fill="#9EC6C2" mask="url(#mask-4)" points="14.637 40.773 21.955 40.773 21.955 23 14.637 23"></polygon>
                <polygon id="Fill-9" fill="#ABC9C6" mask="url(#mask-4)" points="29.272 49.136 60.636 49.136 60.636 13.591 29.272 13.591"></polygon>
                <polygon id="Fill-10" fill="#67827F" mask="url(#mask-4)" points="29.272 35.545 60.636 35.545 60.636 13.59 29.272 13.59"></polygon>
                <polygon id="Fill-11" fill="#F2F2F2" opacity="0.57" mask="url(#mask-4)" points="53.3182 49.1364 51.2272 49.1364 35.5452 13.5914 37.6362 13.5914"></polygon>
                <polygon id="Fill-12" fill="#F2F2F2" opacity="0.57" mask="url(#mask-4)" points="59.5909 49.1364 55.4089 49.1364 39.7269 13.5914 43.9089 13.5914"></polygon>
                <polygon id="Fill-13" fill="#F5C521" mask="url(#mask-4)" points="47.0455 59.5909 38.6815 73.1819 44.4315 73.1819 42.8635 84.6819 52.2725 70.0459 46.0005 70.0459"></polygon>
            </g>
        </g>
    </g>
</svg>