<?xml version="1.0" encoding="UTF-8"?>
<svg width="32px" height="32px" viewBox="0 0 32 32" version="1.1" xmlns="http://www.w3.org/2000/svg" xmlns:xlink="http://www.w3.org/1999/xlink">
    <title>编组</title>
    <g id="215国标2.0" stroke="none" stroke-width="1" fill="none" fill-rule="evenodd">
        <g id="设备中心详情-总览" transform="translate(-1532.000000, -30.000000)" fill="#FFFFFF" fill-rule="nonzero">
            <g id="编组" transform="translate(1532.750000, 30.750000)">
                <path d="M15.25,0 C6.82765757,0 0,6.82765757 0,15.25 C0,23.6723424 6.82765757,30.5 15.25,30.5 C23.6723424,30.5 30.5,23.6723424 30.5,15.25 C30.5,11.2054485 28.8933082,7.32655136 26.0333784,4.46662159 C23.1734486,1.60669182 19.2945515,0 15.25,0 Z M15.25,2.5 C18.6315102,2.5 21.8745226,3.84329971 24.2656115,6.23438854 C26.6567003,8.62547737 28,11.8684898 28,15.25 C28,22.2916306 22.2916306,28 15.25,28 C8.20836944,28 2.5,22.2916306 2.5,15.25 C2.5,8.20836944 8.20836944,2.5 15.25,2.5 Z" id="路径"></path>
                <path d="M19.8097635,8.46243977 C20.7775595,9.31503498 21.3033707,10.536534 21.245709,11.7982492 C21.2828377,12.8157953 20.9680947,13.8164267 20.3508444,14.6432039 C19.6953831,15.2901849 19.0004581,15.8989889 18.269764,16.466379 C17.8467722,16.7958717 17.4935159,17.2005735 17.2292238,17.6584551 C16.9643583,18.1391564 16.8318124,18.6771628 16.8442239,19.2211766 L16.8442239,19.6218745 L14.3053059,19.6218745 L14.3053059,19.2211766 C14.2775819,18.4590337 14.4343218,17.7011242 14.7631436,17.0073211 C15.5248912,15.9104656 16.4585802,14.9338659 17.5309805,14.1122792 L17.9471966,13.6715116 C18.3593803,13.191513 18.5904577,12.5912189 18.6027369,11.9685458 C18.6362331,11.2661746 18.3821777,10.5791835 17.8951695,10.0552137 C17.3329551,9.55302485 16.5788905,9.29894237 15.8140892,9.35399245 C14.8945945,9.2763812 13.9970985,9.65368846 13.4312521,10.355737 C12.9494784,11.0682464 12.7195589,11.9114737 12.7757118,12.759924 L10.2576045,12.759924 C10.1771191,11.2754045 10.7383191,9.82499871 11.8080094,8.7529457 C12.9242608,7.72725153 14.4289269,7.18766067 15.9701702,7.26034626 C17.3622594,7.17634836 18.7352806,7.60621156 19.8097635,8.46243977 L19.8097635,8.46243977 Z M16.8754402,21.3548926 C17.2248961,21.665349 17.4119083,22.1099366 17.3853048,22.5670035 C17.3956594,23.0213386 17.2112513,23.4597356 16.8754402,23.7791145 C16.5216169,24.0858305 16.0612766,24.2538089 15.5851703,24.2499344 C14.6226472,24.2392374 13.8434808,23.49356 13.8266574,22.5670035 C13.8056168,22.1125539 14.0009931,21.6736728 14.3573329,21.3749275 C14.6811692,21.0547618 15.1318882,20.8833839 15.5955757,20.9041075 C16.0681581,20.8803259 16.5303742,21.0431245 16.8754402,21.3548926 L16.8754402,21.3548926 Z" id="形状"></path>
            </g>
        </g>
    </g>
</svg>