<?xml version="1.0" encoding="UTF-8"?>
<svg width="34px" height="34px" viewBox="0 0 34 34" version="1.1" xmlns="http://www.w3.org/2000/svg" xmlns:xlink="http://www.w3.org/1999/xlink">
    <title>编组</title>
    <g id="页面-1" stroke="none" stroke-width="1" fill="none" fill-rule="evenodd">
        <g id="设备-PCS-总览" transform="translate(-1676.000000, -77.000000)" fill-rule="nonzero">
            <g id="编组" transform="translate(1677.000000, 78.000000)">
                <path d="M26.8,32 L5.2,32 C2.3328,32 0,29.6672 0,26.8 L0,5.2 C0,2.3328 2.3328,0 5.2,0 L26.8,0 C29.6672,0 32,2.3328 32,5.2 L32,26.8 C32,29.6672 29.6672,32 26.8,32 Z" id="形状" stroke="#BAC3DB" stroke-width="2"></path>
                <path d="M16.4564414,9 C16.7761112,9 17.0281031,9.06968605 17.2052174,9.20687069 C17.3945714,9.35468011 17.4896083,9.58155038 17.4896083,9.88216912 L17.4896083,9.88216912 L17.4896083,11.8033791 L21.9653451,11.8033791 C22.3260536,11.8033791 22.6291639,11.8199413 22.8671163,11.8521281 C23.155827,11.8918148 23.3894595,11.9808754 23.562254,12.1168101 C23.7390084,12.2558697 23.8599645,12.4524281 23.9226025,12.7011729 C23.9740808,12.9117935 23.99928,13.1708506 24,13.4949064 L24,13.4949064 L24,18.2316827 C24,18.5248016 23.9780407,18.7635466 23.9326822,18.9604175 C23.8779639,19.1957251 23.7634876,19.3910335 23.592493,19.5391554 C23.4214985,19.6872773 23.1893059,19.7891502 22.9020351,19.8410241 C22.6597629,19.8857107 22.3584525,19.9075853 21.9826246,19.9075853 L21.9826246,19.9075853 L17.4899683,19.9075853 L17.4899683,23.1481427 C17.4899683,23.3956376 17.4096909,23.5987584 17.2520159,23.7531301 C17.0810214,23.9187517 16.8153499,24 16.4395219,24 C16.1738504,24 15.7973025,23.9750005 15.5921091,23.7590675 C15.4553134,23.6146955 15.3890755,23.4096998 15.3890755,23.1328306 L15.3890755,23.1328306 L15.3890755,19.9075853 L11.000096,19.9075853 C10.623908,19.9075853 10.3225977,19.8853982 10.0792455,19.8410241 C9.78981473,19.7885252 9.55834213,19.6847774 9.39238744,19.5335306 C9.23039263,19.3857211 9.12059614,19.1926002 9.06731785,18.95948 C9.0219593,18.7632341 9,18.5248016 9,18.2313702 L9,18.2313702 L9,13.4795942 C9,13.1764755 9.02159931,12.9317931 9.06695786,12.7305473 C9.12167611,12.4846149 9.2404723,12.288369 9.42010656,12.1468094 C9.58858117,12.0152497 9.812494,11.9224391 10.0857253,11.8705652 C10.3276375,11.8252536 10.6267879,11.8033791 10.999736,11.8033791 L10.999736,11.8033791 L15.3887156,11.8033791 L15.3887156,9.88216912 C15.3887156,9.5806129 15.4844725,9.35374263 15.6723865,9.20749568 C15.8520207,9.06781109 16.1086925,9 16.4564414,9 Z M21.9333061,13.5752172 L17.4896083,13.5814671 L17.4896083,18.1288723 L21.9329461,18.1288723 C21.9333061,18.1232474 21.9333061,18.1173101 21.9333061,18.1110602 L21.9333061,13.5752172 Z M15.3887156,13.582092 L11.0663339,13.582092 L11.0663339,18.1288723 L15.3887156,18.1288723 L15.3887156,13.582092 Z" id="形状结合" fill="#BAC3DB"></path>
            </g>
        </g>
    </g>
</svg>