<?xml version="1.0" encoding="UTF-8"?>
<svg width="34px" height="34px" viewBox="0 0 34 34" version="1.1" xmlns="http://www.w3.org/2000/svg" xmlns:xlink="http://www.w3.org/1999/xlink">
    <title>编组</title>
    <g id="页面-1" stroke="none" stroke-width="1" fill="none" fill-rule="evenodd">
        <g id="设备-PCS-总览" transform="translate(-1687.000000, -29.000000)" fill-rule="nonzero">
            <g id="编组" transform="translate(1688.000000, 30.000000)">
                <path d="M26.8,32 L5.2,32 C2.3328,32 0,29.6672 0,26.8 L0,5.2 C0,2.3328 2.3328,0 5.2,0 L26.8,0 C29.6672,0 32,2.3328 32,5.2 L32,26.8 C32,29.6672 29.6672,32 26.8,32 Z" id="形状" stroke="#BAC3DB" stroke-width="2"></path>
                <path d="M14.6454167,20.6986243 C14.48,20.6523999 14.2908333,20.6254356 14.0825,20.6173036 C13.9025,20.6108835 13.7141667,20.6083155 13.5158333,20.6083155 L9.32833333,20.6083155 L9.32833333,16.9000917 L13.8229167,16.9000917 C14.1983333,16.9000917 14.4779167,16.8294711 14.67625,16.6865179 C14.8466667,16.5641088 15.0504167,16.3162947 15.0504167,15.8245185 C15.0504167,15.4307551 14.9329167,15.1345766 14.7016667,14.944543 C14.4970833,14.7763375 14.21,14.6937328 13.8229167,14.6937328 L9.32875,14.6937328 L9.32875,11.4118007 L14.00375,11.4118007 C14.3533333,11.4118007 14.6254167,11.3394681 14.8354167,11.1918068 C15.01625,11.0659737 15.2316667,10.8117395 15.23125,10.2938551 C15.21125,9.90094772 15.07875,9.61033323 14.8341667,9.43014369 C14.6275,9.27905839 14.3558333,9.20544176 14.00375,9.20544176 L8.28166667,9.20544176 C7.84541667,9.20544176 7.53125,9.30431061 7.32041667,9.50889636 C7.105,9.71990217 7,10.0332009 7,10.4659126 L7,21.5537756 C7,22.0292877 7.13125,22.3695506 7.39,22.5660043 C7.61,22.7333537 7.90166667,22.8151024 8.28166667,22.8151024 L14.1120833,22.8151024 C14.5029167,22.8151024 14.7941667,22.7491899 15.0054167,22.6122287 C15.1908333,22.4911036 15.4116667,22.2338734 15.4116667,21.7022929 C15.4116667,21.3517579 15.2820833,21.135616 15.1741667,21.017059 C15.0383333,20.8659737 14.8608333,20.7589728 14.6454167,20.6986243 Z M26.7208333,9.3385509 C26.5233333,9.11384898 26.2225,9 25.8266667,9 C25.41625,9 25.1108333,9.12925711 24.91875,9.3847753 C24.7541667,9.60305717 24.67125,9.87269948 24.67125,10.1868542 L24.67125,18.2376032 L18.9916667,9.70706206 C18.8729167,9.55940079 18.755,9.42457964 18.6375,9.30431061 C18.5025,9.16563742 18.26,9 17.86625,9 C17.3716667,9 17.1208333,9.22084989 16.9975,9.40660349 C16.855,9.62017732 16.7833333,9.88297157 16.7833333,10.1868542 L16.7833333,21.7947417 C16.7833333,22.1144604 16.8758333,22.3913788 17.0579167,22.6177927 C17.1979167,22.7915622 17.4641667,23 17.9383333,23 C18.40625,23 18.6766667,22.7971263 18.8204167,22.6267808 C19.01375,22.3986548 19.1116667,22.1178844 19.1116667,21.7947417 L19.1116667,13.8937939 L24.75125,22.2432895 C24.88375,22.4405992 25.0316667,22.6070926 25.1925,22.7410578 C25.40125,22.9131153 25.645,23 25.9170833,23 C26.4129167,23 26.66375,22.7782941 26.7858333,22.5933965 C26.9283333,22.3798227 27,22.1170284 27,21.8131458 L27,10.1872822 C27,9.83674717 26.9066667,9.55169673 26.7208333,9.3385509 Z" id="形状" fill="#BAC3DB"></path>
            </g>
        </g>
    </g>
</svg>