<?xml version="1.0" encoding="UTF-8"?><svg version="1.1" width="125px" height="25px" viewBox="0 0 125.0 25.0" xmlns="http://www.w3.org/2000/svg" xmlns:xlink="http://www.w3.org/1999/xlink"><defs><clipPath id="i0"><path d="M1920,0 L1920,1080 L0,1080 L0,0 L1920,0 Z"></path></clipPath><clipPath id="i1"><path d="M116.109697,0 L107,25 L0,25 L9.10969658,0 L116.109697,0 Z"></path></clipPath><linearGradient id="i2" x1="116.109697px" y1="12.5px" x2="-1.28907659e-14px" y2="12.5px" gradientUnits="userSpaceOnUse"><stop stop-color="rgba(16, 24, 56, 0)" offset="0%"></stop><stop stop-color="#0058B0" offset="100%"></stop></linearGradient><clipPath id="i3"><path d="M17.1096966,0 L8,25 L0,25 L9.10969658,0 L17.1096966,0 Z"></path></clipPath></defs><g transform="translate(-99.0 -716.0)"><g clip-path="url(#i0)"><g transform="translate(99.000000000001 716.0)"><g transform="translate(7.999999999996362 0.0)"><g clip-path="url(#i1)"><polygon points="0,0 116.109697,0 116.109697,25 0,25 0,0" stroke="none" fill="url(#i2)"></polygon></g></g><g clip-path="url(#i3)"><polygon points="0,0 17.1096966,0 17.1096966,25 0,25 0,0" stroke="none" fill="#0378ED"></polygon></g></g></g></g></svg>