<?xml version="1.0" encoding="UTF-8"?>
<svg width="28px" height="32px" viewBox="0 0 28 32" version="1.1" xmlns="http://www.w3.org/2000/svg" xmlns:xlink="http://www.w3.org/1999/xlink">
    <title>编组备份 7</title>
    <g id="215国标2.0" stroke="none" stroke-width="1" fill="none" fill-rule="evenodd">
        <g id="设备中心详情-总览" transform="translate(-1635.000000, -30.000000)" fill="#FFFFFF" fill-rule="nonzero">
            <g id="编组备份-7" transform="translate(1635.000000, 30.000000)">
                <path d="M14,0 C9.581722,0 6,3.581722 6,8 C6,12.418278 9.581722,16 14,16 C18.418278,16 22,12.418278 22,8 C22,3.581722 18.418278,0 14,0 Z M14,2.35294118 C17.1187845,2.35294118 19.6470588,4.88121553 19.6470588,8 C19.6470588,11.1187845 17.1187845,13.6470588 14,13.6470588 C10.8812155,13.6470588 8.35294118,11.1187845 8.35294118,8 C8.35294118,4.88121553 10.8812155,2.35294118 14,2.35294118 Z" id="路径"></path>
                <path d="M16.7586207,15 L11.2413793,15 C4.98762716,15 0,20.2853344 0,26.7156085 L0,27.3002646 C0,29.8555194 2.0236884,32 4.62068966,32 L23.3793103,32 C25.9763116,32 28,29.8555194 28,27.3002646 L28,26.7156085 C28,20.2853344 23.0123728,15 16.7586207,15 Z M16.7586207,17.3611111 C21.6342069,17.3611111 25.5862069,21.5490026 25.5862069,26.7156085 L25.5862069,27.3002646 C25.5862069,28.5918511 24.5981457,29.6388889 23.3793103,29.6388889 L4.62068966,29.6388889 C3.40185435,29.6388889 2.4137931,28.5918511 2.4137931,27.3002646 L2.4137931,26.7156085 C2.4137931,21.5490026 6.3657931,17.3611111 11.2413793,17.3611111 L16.7586207,17.3611111 Z" id="路径"></path>
            </g>
        </g>
    </g>
</svg>