<?xml version="1.0" encoding="UTF-8"?>
<svg width="32px" height="34px" viewBox="0 0 32 34" version="1.1" xmlns="http://www.w3.org/2000/svg" xmlns:xlink="http://www.w3.org/1999/xlink">
    <title>编组</title>
    <g id="页面-1" stroke="none" stroke-width="1" fill="none" fill-rule="evenodd">
        <g id="设备-PCS-总览" transform="translate(-1759.000000, -29.000000)" fill-rule="nonzero" stroke="#BAC3DB" stroke-width="2">
            <g id="编组" transform="translate(1760.000000, 30.000000)">
                <path d="M10.8364058,18.3990175 C4.6324897,18.3990175 0,22.4375126 0,28.3023334 L0,28.9343307 C0,32 4.96427084,32 11.2503321,32 L17.9261385,32 C23.9625638,32 29.1764706,32 29.1764706,28.9343307 L29.1764706,28.3023334 C29.1764706,22.4375126 24.5436253,18.3990175 18.3400648,18.3990175 L10.8364058,18.3990175 Z M14.2537871,16.8556436 C19.1679174,16.8556436 23.1663602,13.0754494 23.1663602,8.42639277 C23.1663602,3.779837 19.1679174,0 14.2537871,0 C9.34250168,0 5.34370329,3.78019426 5.34370329,8.42639277 C5.34370329,13.0754494 9.34250168,16.8556436 14.2537871,16.8556436 Z" id="形状"></path>
            </g>
        </g>
    </g>
</svg>