<?xml version="1.0" encoding="UTF-8"?>
<svg width="33px" height="30px" viewBox="0 0 33 30" version="1.1" xmlns="http://www.w3.org/2000/svg" xmlns:xlink="http://www.w3.org/1999/xlink">
    <title>编组备份 11</title>
    <g id="2台" stroke="none" stroke-width="1" fill="none" fill-rule="evenodd">
        <g id="设备中心-监测曲线" transform="translate(-1821.000000, -29.000000)" fill-rule="nonzero" stroke="#BAC3DB">
            <g id="编组备份-11" transform="translate(1821.975570, 30.000000)">
                <path d="M30.4860715,10.7384861 L24.8086741,6.55927953 C24.8086741,6.55335157 24.811702,6.5503876 24.811702,6.54742362 L24.811702,2.10442316 C24.811702,2.03625171 24.754171,1.97993616 24.6845283,1.97993616 L21.8867068,1.97993616 C21.8170641,1.97993616 21.7595331,2.03625171 21.7595331,2.10442316 L21.7595331,4.31554948 L16.230505,0.248974008 C16.009465,0.0859553124 15.7460338,0 15.4704907,0 C15.1919198,0 14.9284885,0.0859553124 14.7074485,0.251937984 L0.527580632,10.7325581 C0.258093499,10.9311446 0.0855006167,11.2216142 0.0370534918,11.5506156 C-0.0265333597,11.9892841 -0.0365879428,12.1198162 0.241983026,12.8155525 C0.520553994,13.5112888 0.8061516,13.8844049 0.966632702,13.9229366 C1.36026559,14.0177839 1.74784259,13.9407205 2.05669301,13.7124943 L15.3130376,3.91062472 C15.4069039,3.84245326 15.5371055,3.84245326 15.6279439,3.91062472 L29.0054063,13.751026 C29.2264463,13.9140447 29.4898775,14 29.7654205,14 C30.180249,14 30.4860715,13.5425043 30.8009778,12.4753762 C30.9724257,11.8943881 31.0401855,11.1445508 30.4860715,10.7384861 Z" id="路径"></path>
                <path d="M27.7493677,16.6222522 L21.7797877,12.3774511 L15.7020631,8.05685001 C15.5970084,7.98105 15.4517857,7.98105 15.346731,8.05685001 L9.27209623,12.3774511 L3.30251622,16.6222522 C3.12948492,16.7465643 3.02443019,16.9436443 3.02443019,17.1558844 L3.02443019,26.0443595 C3.02443019,27.1207198 3.92048517,28 5.01738004,28 L12.640027,28 L12.640027,20.19563 C12.640027,19.2860297 13.4001288,18.5401575 14.3270822,18.5401575 L16.7217119,18.5401575 C17.6486653,18.5401575 18.4087671,19.2860297 18.4087671,20.19563 L18.4087671,28 L26.031414,28 C27.1283089,28 28.0246132,27.1207198 28.0246132,26.0443595 L28.0246132,17.1558844 C28.0274537,16.9466763 27.922399,16.7465643 27.7493677,16.6222522 Z" id="路径"></path>
            </g>
        </g>
    </g>
</svg>