<?xml version="1.0" encoding="UTF-8"?>
<svg width="34px" height="32px" viewBox="0 0 34 32" version="1.1" xmlns="http://www.w3.org/2000/svg" xmlns:xlink="http://www.w3.org/1999/xlink">
    <title>编组</title>
    <g id="215国标2.0" stroke="none" stroke-width="1" fill="none" fill-rule="evenodd">
        <g id="设备中心详情-总览" transform="translate(-1585.000000, -30.000000)" fill="#FFFFFF" fill-rule="nonzero">
            <g id="编组" transform="translate(1585.000000, 30.000000)">
                <path d="M33.2820938,13.6484721 L30.747504,11.3401038 L30.6322954,11.2246853 L19.4570589,0.952446462 C17.9613863,-0.317482154 15.7683435,-0.317482154 14.2726708,0.952446462 L0.447635999,13.6484721 C-0.128407131,14.1101457 -0.128407131,15.033493 0.332427353,15.4951667 C0.562844612,15.841422 0.908470483,15.9568404 1.36930497,15.9568404 C1.71493084,15.9568404 2.06055671,15.841422 2.29097397,15.6105851 L2.75180845,15.2643299 L2.75180845,28.4220292 C2.75180845,30.3841422 4.36472919,32 6.32327581,32 L27.406454,32 C29.4802092,32 31.2083385,30.2687238 31.2083385,28.1911923 L31.2083385,15.2643299 L31.5539644,15.6105851 C32.1300075,16.0722588 32.9364679,16.0722588 33.3973024,15.4951667 C33.8581369,14.9180746 33.8581369,14.1101457 33.2820938,13.6484721 Z M19.4570589,29.3453765 L14.2726708,29.3453765 L14.2726708,21.4969243 L19.4570589,21.4969243 L19.4570589,29.3453765 Z M28.4433316,27.9603555 C28.4433316,28.652866 27.9824971,29.3453765 27.2912453,29.3453765 L22.1068572,29.3453765 L22.1068572,20.1119033 C22.1068572,19.4193928 21.5308141,18.7268823 20.7243538,18.7268823 L12.8901674,18.7268823 C12.1989156,18.7268823 11.5076639,19.3039744 11.5076639,20.1119033 L11.5076639,29.3453765 L6.66890168,29.3453765 C5.97764994,29.3453765 5.2863982,28.7682844 5.2863982,27.9603555 L5.2863982,12.8405432 L16.0008002,2.91455949 C16.4616347,2.45288584 17.1528864,2.45288584 17.7289296,2.91455949 L28.4433316,12.8405432 L28.4433316,27.9603555 Z" id="形状"></path>
            </g>
        </g>
    </g>
</svg>