<?xml version="1.0" encoding="UTF-8"?><svg version="1.1" width="17px" height="15px" viewBox="0 0 17.0 15.0" xmlns="http://www.w3.org/2000/svg" xmlns:xlink="http://www.w3.org/1999/xlink"><defs><clipPath id="i0"><path d="M1920,0 L1920,1080 L0,1080 L0,0 L1920,0 Z"></path></clipPath><clipPath id="i1"><path d="M11,0 C12.1045695,-2.02906125e-16 13,0.8954305 13,2 L13,13 C13,14.1045695 12.1045695,15 11,15 L2,15 C0.8954305,15 1.3527075e-16,14.1045695 0,13 L0,2 C-1.3527075e-16,0.8954305 0.8954305,-4.63227689e-16 2,0 L11,0 Z"></path></clipPath><clipPath id="i2"><path d="M4,0 C6.209139,0 8,1.790861 8,4 C8,6.209139 6.209139,8 4,8 C1.790861,8 0,6.209139 0,4 C0,1.790861 1.790861,0 4,0 Z"></path></clipPath></defs><g transform="translate(-1654.0 -591.0)"><g clip-path="url(#i0)"><g transform="translate(1654.0 584.0)"><g transform="translate(0.0 7.0)"><g clip-path="url(#i1)"><polygon points="0,0 13,0 13,15 0,15 0,0" stroke="none" fill="#414E8C"></polygon></g><g transform="translate(9.0 4.0)"><g clip-path="url(#i2)"><polygon points="0,0 8,0 8,8 0,8 0,0" stroke="none" fill="#04FFEC"></polygon></g></g></g></g></g></g></svg>