<?xml version="1.0" encoding="UTF-8"?>
<svg width="32px" height="32px" viewBox="0 0 32 32" version="1.1" xmlns="http://www.w3.org/2000/svg" xmlns:xlink="http://www.w3.org/1999/xlink">
    <title>编组 13备份 3</title>
    <g id="页面-1" stroke="none" stroke-width="1" fill="none" fill-rule="evenodd">
        <g id="编组-13备份-3">
            <path d="M11.0521189,0.341488767 C11.3064536,-0.0212948333 11.8062295,-0.108902868 12.1684777,0.145794087 L12.1684777,0.145794087 L29.5904979,12.3968225 C29.9527003,12.6515654 30.0401679,13.1521434 29.7858332,13.514881 L29.7858332,13.514881 L17.0682719,31.658468 C16.8139372,32.0212975 16.3141612,32.1089055 15.9519589,31.8542086 C15.8827234,31.8054346 15.8216509,31.7459689 15.7710182,31.6780283 L15.7710182,31.6780283 L0.361075381,20.8418604 C0.315536194,20.8097904 0.273441344,20.7730753 0.235466691,20.7323045 C-0.0355547499,20.4618583 -0.0820391373,20.0279047 0.145294308,19.7035988 L0.145294308,19.7035988 L12.3766948,2.25362131 L11.2475459,1.45963908 C10.8852976,1.20489624 10.79783,0.70427233 11.0521189,0.341488767 Z M13.688389,3.17607698 L2.08966274,19.6890211 C11.6429078,26.2383095 16.419622,29.5130455 16.4198054,29.5132292 L16.4198054,29.5132292 L27.8622776,13.1376749 L13.688389,3.17607698 Z" id="形状结合" fill="#BAC3DB" fill-rule="nonzero"></path>
            <path d="M30.1059062,14.2445347 C30.1059062,14.2445347 27.4040811,17.2970869 30.1059062,20.9697369 C30.1059062,20.9697369 34.3676173,18.7754036 30.1059062,14.2445347 L30.1059062,14.2445347 Z" id="路径" fill="#BAC3DB" fill-rule="nonzero"></path>
            <path d="M1.24661717,19.6536715 L16.4445927,30.7011438 L25.0870372,18.7221144 C21.9912418,17.8598066 20.0593536,17.1036329 19.2913725,16.4535934 C17.3508992,14.8111257 17.2512762,12.0665731 16.0410467,10.615099 C14.6106208,8.89953496 12.2358647,8.19380031 8.91677835,8.49789504 L1.24661717,19.6536715 Z" id="路径-18" stroke="#BAC3DB" stroke-width="1.5"></path>
        </g>
    </g>
</svg>