<?xml version="1.0" encoding="UTF-8"?>
<svg width="59px" height="59px" viewBox="0 0 59 59" version="1.1" xmlns="http://www.w3.org/2000/svg" xmlns:xlink="http://www.w3.org/1999/xlink">
    <title>设备-充电桩备份</title>
    <defs>
        <circle id="path-1" cx="29.5" cy="29.5" r="29.5"></circle>
        <filter x="-7.6%" y="-7.6%" width="115.3%" height="115.3%" filterUnits="objectBoundingBox" id="filter-2">
            <feGaussianBlur stdDeviation="2" in="SourceAlpha" result="shadowBlurInner1"></feGaussianBlur>
            <feOffset dx="0" dy="3" in="shadowBlurInner1" result="shadowOffsetInner1"></feOffset>
            <feComposite in="shadowOffsetInner1" in2="SourceAlpha" operator="arithmetic" k2="-1" k3="1" result="shadowInnerInner1"></feComposite>
            <feColorMatrix values="0 0 0 0 0.565860435   0 0 0 0 0.871801404   0 0 0 0 0.52241636  0 0 0 1 0" type="matrix" in="shadowInnerInner1"></feColorMatrix>
        </filter>
        <path d="M47.6538462,24.6666667 L46.3076923,24.6666667 L46.3076923,37.3333333 C46.3076923,39.9106622 44.1982647,42 41.5961538,42 C38.994043,42 36.8846154,39.9106622 36.8846154,37.3333333 L36.8846154,23.3333333 C36.8846154,22.5969537 36.2819218,22 35.5384616,22 L35.5384616,43.3333333 L38.2307692,43.3333333 L38.2307692,46 L14,46 L14,43.3333333 L16.6923077,43.3333333 L16.6923077,16.6666667 C16.6923077,15.9594227 16.9759607,15.2811456 17.4808664,14.7810486 C17.985772,14.2809516 18.670571,14 19.3846154,14 L32.8461538,14 C33.5601982,14 34.2449972,14.2809516 34.7499029,14.7810486 C35.2548085,15.2811456 35.5384616,15.9594227 35.5384616,16.6666667 L35.5384616,19.3333333 C37.7688423,19.3333333 39.5769231,21.1241943 39.5769231,23.3333333 L39.5769231,37.3333333 C39.5769231,38.4379028 40.4809635,39.3333333 41.5961539,39.3333333 C42.7113442,39.3333333 43.6153846,38.4379028 43.6153846,37.3333333 L43.6153846,24.6666667 L42.2692308,24.6666667 C41.5257705,24.6666667 40.9230769,24.069713 40.9230769,23.3333333 L40.9230769,20.6666667 C40.9230769,19.930287 41.5257705,19.3333333 42.2692308,19.3333333 L42.2692308,18.6666667 C42.2692308,18.2984768 42.5705776,18 42.9423077,18 C43.3140378,18 43.6153846,18.2984768 43.6153846,18.6666667 L43.6153846,19.3333333 L46.3076923,19.3333333 L46.3076923,18.6666667 C46.3076923,18.2984768 46.6090391,18 46.9807692,18 C47.3524994,18 47.6538462,18.2984768 47.6538462,18.6666667 L47.6538462,19.3333333 C48.3973064,19.3333334 49,19.930287 49,20.6666667 L49,23.3333333 C49,24.069713 48.3973064,24.6666666 47.6538462,24.6666667 Z M24.7692308,39.3333333 L30.1538462,34 L26.1153846,34 L26.1153846,30 L22.0769231,35.3333333 L26.1153846,35.3333333 L24.7692308,39.3333333 Z M32.8461538,18 L19.3846154,18 L19.3846154,26 L32.8461538,26 L32.8461538,18 Z M46.3076923,20.6666667 L43.6153846,20.6666667 C42.8719244,20.6666667 42.2692308,21.2636203 42.2692308,22 C42.2692308,22.7363797 42.8719244,23.3333333 43.6153846,23.3333333 L46.3076923,23.3333333 C47.0511526,23.3333333 47.6538462,22.7363797 47.6538462,22 C47.6538462,21.2636203 47.0511526,20.6666667 46.3076923,20.6666667 Z" id="path-3"></path>
        <filter x="-20.0%" y="-15.6%" width="140.0%" height="143.8%" filterUnits="objectBoundingBox" id="filter-4">
            <feOffset dx="0" dy="2" in="SourceAlpha" result="shadowOffsetOuter1"></feOffset>
            <feGaussianBlur stdDeviation="2" in="shadowOffsetOuter1" result="shadowBlurOuter1"></feGaussianBlur>
            <feColorMatrix values="0 0 0 0 0.726714436   0 0 0 0 0.952983469   0 0 0 0 0.676966916  0 0 0 1 0" type="matrix" in="shadowBlurOuter1"></feColorMatrix>
        </filter>
    </defs>
    <g id="采日后台1" stroke="none" stroke-width="1" fill="none" fill-rule="evenodd">
        <g id="设备-充电桩" transform="translate(-249.000000, -879.000000)">
            <g id="编组-5备份" transform="translate(249.000000, 879.000000)">
                <g id="椭圆形">
                    <use fill="#EDFFF0" fill-rule="evenodd" xlink:href="#path-1"></use>
                    <use fill="black" fill-opacity="1" filter="url(#filter-2)" xlink:href="#path-1"></use>
                    <use stroke="#0DB527" stroke-width="2" xlink:href="#path-1"></use>
                </g>
                <g id="形状" fill-rule="nonzero">
                    <use fill="black" fill-opacity="1" filter="url(#filter-4)" xlink:href="#path-3"></use>
                    <use fill="#0DB527" xlink:href="#path-3"></use>
                </g>
            </g>
        </g>
    </g>
</svg>